<svg width="200" height="112" viewBox="0 0 200 112" fill="none" xmlns="http://www.w3.org/2000/svg">
<path d="M62.9058 47.896L192.447 3.29138L194.538 27.1917L185.184 41.618L65.9484 82.6739" fill="url(#paint0_linear_1270_1673)"/>
<g filter="url(#filter0_d_1270_1673)">
<path d="M91.7047 63.1171L89.6225 66.7399L71.5227 72.9722L69.8492 53.8443L90.2597 46.8164L88.1958 50.4329L75.6342 54.7582L76.8158 68.2637L91.7064 63.1364L91.7047 63.1171ZM110.923 56.4996L108.841 60.1225L93.5102 65.4013L91.8367 46.2734L97.2648 44.4043L98.6914 60.7113L110.941 56.4933L110.923 56.4996ZM116.616 57.4452L111.754 53.6861L110.542 39.8328L131.135 32.7417L132.809 51.8697L116.616 57.4452ZM116.198 40.7909L117.057 50.606L120.461 53.2355L127.117 50.9434L125.936 37.438L116.18 40.7972L116.198 40.7909ZM155.313 41.1354L153.201 44.8481L136.843 50.4805L134.268 48.4615L148.865 43.4353L149.715 41.9284L149.35 37.7551L134.496 42.8697L133.803 34.948L135.995 31.0684L154.517 24.6909L152.471 28.3012L140.368 32.4686L139.316 34.2639L139.661 38.2054L154.607 33.0592L155.315 41.1547L155.313 41.1354ZM175.657 34.21L178.233 36.229L157.896 43.2316L156.222 24.1037L176.614 17.0821L174.55 20.6987L161.915 25.0493L162.384 30.4012L176.101 25.6781L176.347 28.4989L162.63 33.222L163.097 38.5547L175.64 34.2356L175.657 34.21ZM59.1589 88.196L46.3405 92.6098L4 65.1135L16.8184 60.6998L59.1589 88.196ZM41.5179 69.0133L55.5854 47.3512L42.767 51.765L34.5262 64.4546L41.5162 68.9939L41.5179 69.0133ZM28.6324 88.8551L20.3919 101.545L7.57346 105.958L21.6408 84.2964L28.6308 88.8357L28.6324 88.8551ZM195.472 27.2876L193.261 2.01557L62.803 46.9359L62.9721 48.868L191.596 4.57911L193.569 27.1269L184.696 40.7905L65.8457 81.7138L66.0147 83.6459L185.635 42.4574L195.491 27.2813L195.472 27.2876Z" fill="url(#paint1_linear_1270_1673)"/>
</g>
<defs>
<filter id="filter0_d_1270_1673" x="0" y="0.015625" width="199.49" height="111.943" filterUnits="userSpaceOnUse" color-interpolation-filters="sRGB">
<feFlood flood-opacity="0" result="BackgroundImageFix"/>
<feColorMatrix in="SourceAlpha" type="matrix" values="0 0 0 0 0 0 0 0 0 0 0 0 0 0 0 0 0 0 127 0" result="hardAlpha"/>
<feOffset dy="2"/>
<feGaussianBlur stdDeviation="2"/>
<feComposite in2="hardAlpha" operator="out"/>
<feColorMatrix type="matrix" values="0 0 0 0 0 0 0 0 0 0 0 0 0 0 0 0 0 0 0.75 0"/>
<feBlend mode="normal" in2="BackgroundImageFix" result="effect1_dropShadow_1270_1673"/>
<feBlend mode="normal" in="SourceGraphic" in2="effect1_dropShadow_1270_1673" result="shape"/>
</filter>
<linearGradient id="paint0_linear_1270_1673" x1="64.4271" y1="65.285" x2="196.857" y2="53.6988" gradientUnits="userSpaceOnUse">
<stop stop-color="#D61818" stop-opacity="0"/>
<stop offset="0.25" stop-color="#D61818" stop-opacity="0.28"/>
<stop offset="0.61" stop-color="#D61818" stop-opacity="0.67"/>
<stop offset="0.87" stop-color="#D61818" stop-opacity="0.91"/>
<stop offset="1" stop-color="#D61818"/>
</linearGradient>
<linearGradient id="paint1_linear_1270_1673" x1="5.80507" y1="85.5296" x2="199.107" y2="68.6179" gradientUnits="userSpaceOnUse">
<stop stop-color="#FFE0C5"/>
<stop offset="0.35" stop-color="#FDF0E6"/>
<stop offset="0.55" stop-color="#FCFBFA"/>
<stop offset="0.7" stop-color="#F1EBE7"/>
<stop offset="1" stop-color="#C0A591"/>
</linearGradient>
</defs>
</svg>
