<svg width="236" height="123" viewBox="0 0 236 123" fill="none" xmlns="http://www.w3.org/2000/svg">
<path d="M1 0.487061H234.702" stroke="#CCCCCC" stroke-width="0.25" stroke-miterlimit="10"/>
<path d="M114.747 122.765H234.703" stroke="#CCCCCC" stroke-width="0.25" stroke-miterlimit="10"/>
<path d="M31.2081 55.5821L28.1401 55.9201C28.0101 54.3081 27.1521 53.8401 26.4241 53.8401C25.3841 53.8401 24.8121 54.5161 24.8121 55.6861C24.8121 58.8841 31.3641 60.4181 31.3641 65.5141C31.3641 68.6081 29.2841 70.3241 26.2681 70.3241C23.2781 70.3241 21.5621 67.9321 21.4321 65.1241L24.5001 64.6821C24.6301 66.5801 25.3841 67.5161 26.4241 67.5161C27.5421 67.5161 28.2961 66.9181 28.2961 65.8001C28.2961 62.0821 21.7441 61.0941 21.7441 55.7121C21.7441 52.7221 23.5641 51.0321 26.7361 51.0321C29.3621 51.0321 30.9221 52.9301 31.2081 55.5821ZM36.4168 61.2241H39.6408V60.4961C39.6408 58.8841 39.0688 58.2081 38.0288 58.2081C36.9888 58.2081 36.4168 58.8841 36.4168 60.4961V61.2241ZM42.5528 61.0161V63.6161H36.4168V65.6441C36.4168 67.2561 36.9888 67.9321 38.0288 67.9321C39.0688 67.9321 39.6408 67.2561 39.6408 65.6441V65.3321H42.5528C42.5008 68.2961 41.2788 70.3241 38.0288 70.3241C34.7008 70.3241 33.5048 68.1921 33.5048 65.1241V61.0161C33.5048 57.9481 34.7008 55.8161 38.0288 55.8161C41.3568 55.8161 42.5528 57.9481 42.5528 61.0161ZM48.1516 70.0641H45.2396V51.2921H48.1516V70.0641ZM53.7332 61.2241H56.9572V60.4961C56.9572 58.8841 56.3852 58.2081 55.3452 58.2081C54.3052 58.2081 53.7332 58.8841 53.7332 60.4961V61.2241ZM59.8692 61.0161V63.6161H53.7332V65.6441C53.7332 67.2561 54.3052 67.9321 55.3452 67.9321C56.3852 67.9321 56.9572 67.2561 56.9572 65.6441V65.3321H59.8692C59.8172 68.2961 58.5952 70.3241 55.3452 70.3241C52.0172 70.3241 50.8212 68.1921 50.8212 65.1241V61.0161C50.8212 57.9481 52.0172 55.8161 55.3452 55.8161C58.6732 55.8161 59.8692 57.9481 59.8692 61.0161ZM71.422 60.8601H68.51V60.4961C68.51 58.8841 67.938 58.2081 66.898 58.2081C65.858 58.2081 65.286 58.8841 65.286 60.4961V65.6441C65.286 67.2561 65.858 67.9321 66.898 67.9321C67.938 67.9321 68.51 67.2561 68.51 65.6441V64.7601H71.422V65.1241C71.422 68.1921 70.226 70.3241 66.898 70.3241C63.57 70.3241 62.374 68.1921 62.374 65.1241V61.0161C62.374 57.9481 63.57 55.8161 66.898 55.8161C70.174 55.8161 71.37 57.8701 71.422 60.8601ZM74.5507 58.4681H72.9387V56.0761H74.5507V52.3061H77.4627V56.0761H79.4127V58.4681H77.4627V66.5281C77.4627 67.2561 77.7747 67.6721 78.4507 67.6721H79.4127V70.1681C79.0227 70.2721 78.6847 70.3241 77.9567 70.3241C75.7727 70.3241 74.5507 69.3101 74.5507 67.1781V58.4681ZM90.8267 65.0201L92.5947 56.0761H95.5327L91.8667 71.1041C91.2427 73.6521 90.0727 74.4581 87.8887 74.4581H86.6667V72.0661H87.3687C88.8247 72.0661 89.2927 71.2861 89.2927 69.8041C89.2927 69.2321 89.1627 68.6341 88.9807 67.9581L85.9387 56.0761H88.9027L90.7747 65.0201H90.8267ZM103.168 65.6441V60.4961C103.168 58.8841 102.596 58.2081 101.556 58.2081C100.516 58.2081 99.9442 58.8841 99.9442 60.4961V65.6441C99.9442 67.2561 100.516 67.9321 101.556 67.9321C102.596 67.9321 103.168 67.2561 103.168 65.6441ZM97.0322 65.1241V61.0161C97.0322 57.9481 98.2282 55.8161 101.556 55.8161C104.884 55.8161 106.08 57.9481 106.08 61.0161V65.1241C106.08 68.1921 104.884 70.3241 101.556 70.3241C98.2282 70.3241 97.0322 68.1921 97.0322 65.1241ZM114.565 56.0761H117.477V70.0641H114.721V68.6601C113.499 69.7001 112.875 70.3241 111.185 70.3241C109.651 70.3241 108.741 69.2061 108.741 67.3861V56.0761H111.653V66.9181C111.653 67.6201 112.069 67.9321 112.693 67.9321C113.317 67.9321 113.889 67.5421 114.565 67.0481V56.0761ZM123.206 70.0641H120.294V56.0761H123.076V57.7141H123.128C123.83 56.5181 125.052 55.8161 126.43 55.8161H127.028V58.8581C126.508 58.7281 126.014 58.5721 125.156 58.5721C124.168 58.5721 123.206 59.1961 123.206 60.4441V70.0641ZM143.556 51.2921H147.794V70.0641H144.986V55.4001H144.934L142.022 70.0641H140.462L137.55 55.4001H137.498V70.0641H134.69V51.2921H138.928L141.216 62.2641H141.268L143.556 51.2921ZM153.99 61.6401V67.4121H155.342C157.058 67.4121 157.682 66.4241 157.682 64.5261C157.682 62.6021 156.954 61.6401 155.03 61.6401H153.99ZM153.99 53.9441V58.9881H155.16C156.382 58.9881 157.318 58.1561 157.318 56.5961C157.318 54.8541 156.642 53.9441 155.212 53.9441H153.99ZM150.766 70.0641V51.2921H155.55C159.008 51.2921 160.542 53.0601 160.542 56.2581C160.542 57.8701 159.866 59.5601 158.306 60.1841C159.944 60.9121 160.906 62.2121 160.906 64.6301C160.906 67.7241 159.528 70.0641 155.862 70.0641H150.766ZM165.638 70.0641V54.1001H162.518V51.2921H171.982V54.1001H168.862V70.0641H165.638ZM177.538 70.0641H174.314V51.2921H177.538V70.0641Z" fill="white"/>
<path d="M5.5 54.971H1V72.645H5.5V54.971Z" fill="#FF0029" fill-opacity="0.31" stroke="#FF0029" stroke-miterlimit="10"/>
<path d="M234.702 61.389L219.565 52.645V70.125L234.703 61.385L219.565 52.645V70.125L234.702 61.389Z" fill="#B3B3B3"/>
<path d="M219.565 52.645L234.702 61.389L219.565 70.125M219.565 52.645V70.125M219.565 52.645L234.703 61.385L219.565 70.125" stroke="#B3B3B3" stroke-miterlimit="10"/>
</svg>
