<svg width="35" height="32" viewBox="0 0 35 32" fill="none" xmlns="http://www.w3.org/2000/svg">
<path fill-rule="evenodd" clip-rule="evenodd" d="M20.4206 10.0201C20.375 10.0324 20.3632 10.052 20.3188 10.0876C20.2823 10.1171 20.2522 10.1367 20.217 10.1661C20.1361 10.2312 20.0891 10.2717 20.0186 10.3269C19.6687 10.6043 19.1922 11.0363 18.8489 11.3382C18.3163 11.807 17.8359 12.2599 17.3242 12.7262C16.3594 13.6062 15.2668 14.6629 14.3021 15.5122C13.5045 16.2129 12.8204 16.8425 11.9863 17.5445C11.6677 17.8121 11.4667 18.0563 11.0333 18.071C10.3179 18.0943 9.37279 17.5212 8.88978 17.261C8.46813 17.034 7.34676 16.4142 6.80631 16.397L7.20186 16.9088C7.48514 17.315 7.96031 18.1987 8.18876 18.6294C8.97463 20.1083 10.0346 21.6559 11.3832 22.6856C11.7278 22.9495 12.0411 23.1704 12.4784 23.4195C12.6703 23.5287 12.8661 23.6195 13.0815 23.7337C13.1559 23.773 13.6729 24 13.7368 24C13.5959 23.8662 13.4496 23.7042 13.3348 23.5766C12.8217 23.0084 11.6782 21.905 11.3348 21.3405C11.0463 20.8668 10.9811 20.5771 11.3009 20.1022C11.6664 19.5597 12.5202 18.8872 13.0567 18.4564C14.3595 17.4083 15.5357 16.4596 16.8986 15.4643C17.5448 14.993 18.2158 14.5119 18.9116 14.0456C19.593 13.5878 20.2783 13.1484 20.9898 12.7054L22.0642 12.0623C22.1634 12.0083 23.1425 11.4609 23.1581 11.4425L24.1163 10.9455C24.4374 10.7749 24.7508 10.6325 25.0902 10.4595C26.0901 9.95382 28.0744 9.12909 29.2114 8.75232C29.5848 8.62837 29.9398 8.51177 30.3184 8.39027L31.4502 8.05645C31.3588 8.01227 30.1082 8 29.8785 8C28.9516 8 28.3825 8.02455 27.4974 8.08959C26.8199 8.13991 25.5588 8.27123 24.944 8.41114C24.833 8.43691 24.7011 8.44673 24.5902 8.47496C24.3761 8.52773 24.132 8.56455 23.914 8.61487C23.4623 8.72041 23.0537 8.83946 22.6294 8.9585C22.1934 9.08123 21.7979 9.22605 21.4075 9.377C21.1765 9.46905 20.4794 9.90719 20.4206 10.0201ZM29.4764 12.1261L30.2988 11.7309C30.5847 11.6033 30.8797 11.456 31.1487 11.3333C31.6943 11.0829 32.0089 10.2705 31.9998 9.7501C31.9032 9.75378 31.5116 9.92805 31.4058 9.96487C31.3327 9.98941 31.2648 10.0115 31.197 10.0385C30.7113 10.2324 30.0625 10.4619 29.6017 10.6669C29.4686 10.7258 29.338 10.7749 29.2036 10.8301C29.0978 10.8731 28.8629 10.959 28.8198 11.0105C28.6736 11.0031 25.6959 12.3912 25.3251 12.5716C24.7964 12.8281 24.132 13.1362 23.6242 13.4025C23.5641 13.4344 22.0159 14.2039 21.9545 14.2787C21.8527 14.2947 20.7914 14.8875 20.6217 14.9771C18.5212 16.0914 16.1963 17.493 14.1846 18.7755C13.6259 19.1314 12.9118 19.6002 12.3492 19.9979L11.8988 20.3145C11.8466 20.3513 11.7852 20.3759 11.7565 20.4323C11.9575 20.5943 13.2852 21.1098 13.6024 21.2165C15.3817 21.8191 17.0461 22.2389 18.9181 22.5408L20.106 22.7114L21.042 22.7887L20.2797 22.7261C20.4246 22.742 20.5695 22.7641 20.7104 22.7764C20.9193 22.7948 21.1269 22.8108 21.3423 22.8316C21.7483 22.8697 22.2195 22.8955 22.6373 22.9028C23.1555 22.9114 23.4414 22.936 23.867 22.7678C24.1972 22.6365 24.4649 22.4745 24.7273 22.2855C25.7037 21.5823 26.5718 20.4826 27.265 19.4873C27.9895 18.4453 28.6435 17.2819 29.2062 16.1283C29.4934 15.5404 29.7623 14.928 30.0156 14.3033C30.1435 13.9867 30.2558 13.6811 30.3706 13.346C30.4346 13.1607 30.6683 12.482 30.6865 12.3298C30.4202 12.3642 25.7638 14.7255 25.3212 14.9488C24.7207 15.252 24.145 15.5674 23.5615 15.8656C22.9949 16.1553 22.3958 16.4964 21.8318 16.791C20.6869 17.3899 19.5329 18.0563 18.3894 18.6785C18.1936 18.7853 16.7367 19.5855 16.6845 19.6419C16.7824 19.6272 21.3997 17.763 21.512 17.72C21.73 17.6353 26.2637 15.8067 26.3368 15.803C26.3107 15.9012 26.0301 16.3946 25.9596 16.5394C25.8421 16.7812 25.6998 17.0548 25.5706 17.2954C24.8395 18.6552 24.0458 20.2875 22.4506 20.8901L22.3553 20.9441C22.2691 20.9453 22.0355 21.0349 21.9336 21.0619C21.7783 21.1024 21.6282 21.1294 21.4728 21.1601C20.7366 21.3012 19.6256 21.2276 18.858 21.1147C17.9834 20.9858 17.3712 20.8422 16.5239 20.6495C16.3216 20.6041 14.8595 20.2175 14.7747 20.1648C14.8217 20.0862 15.6584 19.583 15.7315 19.5352C17.349 18.4785 20.0368 16.9248 21.7848 15.9896C21.9702 15.8902 22.1412 15.8006 22.3109 15.7097C22.4519 15.6337 22.7091 15.5072 22.8226 15.4299L23.6398 15.0077C23.9166 14.8629 24.1698 14.739 24.4609 14.5819C25.0118 14.2861 25.5693 14.0394 26.111 13.7522C26.1893 13.7081 29.2832 12.1789 29.4764 12.1261ZM8.4381 20.1071C8.40547 20.0433 7.84674 19.4848 7.73578 19.3695C7.03085 18.6294 6.34811 17.9409 5.63926 17.1628C5.14581 16.6216 4.70588 16.1221 4.28683 15.6435C4.11191 15.4434 3.1485 14.307 3.00099 14.075C2.98271 14.1192 3.22421 15.0507 3.26077 15.1734C3.31559 15.3612 3.35867 15.5318 3.4135 15.7245C3.96048 17.5973 4.50745 18.3067 6.39249 19.2124C6.62486 19.3229 8.31278 20.0899 8.4381 20.1071Z" fill="#FF0029"/>
</svg>
