<svg width="35" height="32" viewBox="0 0 35 32" fill="none" xmlns="http://www.w3.org/2000/svg">
<path fill-rule="evenodd" clip-rule="evenodd" d="M19.8786 9.65022C19.833 9.6625 19.8212 9.68213 19.7768 9.71772C19.7403 9.74718 19.7102 9.76681 19.675 9.79627C19.5941 9.86131 19.5471 9.90182 19.4766 9.95704C19.1267 10.2344 18.6502 10.6664 18.3069 10.9683C17.7743 11.4371 17.2939 11.89 16.7822 12.3564C15.8175 13.2363 14.7248 14.293 13.7601 15.1423C12.9625 15.8431 12.2784 16.4727 11.4443 17.1747C11.1257 17.4422 10.9247 17.6864 10.4913 17.7012C9.77593 17.7245 8.8308 17.1513 8.34779 16.8912C7.92613 16.6641 6.80477 16.0443 6.26432 16.0272L6.65987 16.5389C6.94314 16.9452 7.41832 17.8288 7.64677 18.2596C8.43264 19.7384 9.49265 21.286 10.8412 22.3157C11.1858 22.5796 11.4991 22.8005 11.9364 23.0496C12.1283 23.1589 12.3241 23.2497 12.5395 23.3638C12.6139 23.4031 13.1309 23.6301 13.1948 23.6301C13.0539 23.4964 12.9077 23.3344 12.7928 23.2067C12.2797 22.6385 11.1362 21.5352 10.7929 20.9706C10.5044 20.4969 10.4391 20.2073 10.7589 19.7323C11.1244 19.1898 11.9782 18.5173 12.5147 18.0865C13.8175 17.0384 14.9937 16.0897 16.3566 15.0944C17.0028 14.6231 17.6738 14.1421 18.3696 13.6757C19.051 13.2179 19.7364 12.7786 20.4478 12.3355L21.5222 11.6924C21.6214 11.6384 22.6005 11.091 22.6161 11.0726L23.5743 10.5756C23.8955 10.405 24.2088 10.2626 24.5482 10.0896C25.5481 9.58395 27.5324 8.75922 28.6694 8.38245C29.0428 8.25849 29.3978 8.1419 29.7764 8.0204L30.9082 7.68658C30.8168 7.6424 29.5662 7.63013 29.3365 7.63013C28.4096 7.63013 27.8405 7.65467 26.9554 7.71972C26.2779 7.77004 25.0168 7.90135 24.402 8.04126C24.291 8.06704 24.1592 8.07686 24.0482 8.10508C23.8341 8.15786 23.59 8.19467 23.372 8.24499C22.9203 8.35054 22.5117 8.46958 22.0874 8.58863C21.6514 8.71136 21.2559 8.85618 20.8656 9.00713C20.6345 9.09918 19.9374 9.53731 19.8786 9.65022ZM28.9344 11.7562L29.7568 11.361C30.0427 11.2334 30.3378 11.0861 30.6067 10.9634C31.1523 10.713 31.467 9.90059 31.4578 9.38022C31.3612 9.3839 30.9696 9.55818 30.8638 9.595C30.7907 9.61954 30.7229 9.64163 30.655 9.66863C30.1694 9.86254 29.5206 10.092 29.0597 10.297C28.9266 10.3559 28.796 10.405 28.6616 10.4602C28.5558 10.5032 28.3209 10.5891 28.2778 10.6406C28.1316 10.6333 25.1539 12.0213 24.7831 12.2017C24.2545 12.4582 23.59 12.7663 23.0822 13.0326C23.0221 13.0645 21.4739 13.834 21.4125 13.9089C21.3107 13.9248 20.2494 14.5176 20.0797 14.6072C17.9792 15.7216 15.6543 17.1231 13.6426 18.4056C13.0839 18.7615 12.3698 19.2303 11.8072 19.628L11.3568 19.9446C11.3046 19.9814 11.2432 20.006 11.2145 20.0624C11.4155 20.2244 12.7432 20.7399 13.0604 20.8467C14.8397 21.4493 16.5041 21.869 18.3761 22.1709L19.564 22.3415L20.5 22.4188L19.7377 22.3562C19.8826 22.3722 20.0275 22.3943 20.1685 22.4065C20.3773 22.4249 20.5849 22.4409 20.8003 22.4618C21.2063 22.4998 21.6775 22.5256 22.0953 22.5329C22.6135 22.5415 22.8994 22.5661 23.325 22.3979C23.6553 22.2666 23.9229 22.1046 24.1853 21.9156C25.1617 21.2124 26.0298 20.1128 26.723 19.1174C27.4475 18.0755 28.1016 16.912 28.6642 15.7584C28.9514 15.1705 29.2203 14.5581 29.4736 13.9334C29.6015 13.6168 29.7138 13.3112 29.8286 12.9761C29.8926 12.7908 30.1263 12.1121 30.1445 11.96C29.8782 11.9943 25.2218 14.3556 24.7792 14.579C24.1787 14.8821 23.603 15.1975 23.0195 15.4957C22.453 15.7854 21.8538 16.1266 21.2898 16.4211C20.145 17.02 18.991 17.6864 17.8474 18.3087C17.6516 18.4154 16.1947 19.2156 16.1425 19.2721C16.2404 19.2573 20.8577 17.3931 20.97 17.3502C21.188 17.2655 25.7218 15.4368 25.7949 15.4331C25.7687 15.5313 25.4881 16.0247 25.4176 16.1695C25.3001 16.4113 25.1578 16.685 25.0286 16.9255C24.2975 18.2853 23.5038 19.9176 21.9086 20.5202L21.8133 20.5742C21.7271 20.5754 21.4935 20.665 21.3916 20.692C21.2363 20.7325 21.0862 20.7595 20.9308 20.7902C20.1946 20.9313 19.0836 20.8577 18.316 20.7448C17.4414 20.6159 16.8292 20.4723 15.9819 20.2797C15.7796 20.2343 14.3175 19.8477 14.2327 19.7949C14.2797 19.7163 15.1164 19.2132 15.1895 19.1653C16.807 18.1086 19.4949 16.5549 21.2428 15.6197C21.4282 15.5203 21.5992 15.4307 21.7689 15.3399C21.9099 15.2638 22.1671 15.1374 22.2806 15.0601L23.0978 14.6379C23.3746 14.4931 23.6278 14.3691 23.919 14.212C24.4698 13.9162 25.0273 13.6696 25.569 13.3824C25.6473 13.3382 28.7412 11.809 28.9344 11.7562ZM7.89611 19.7372C7.86347 19.6734 7.30475 19.115 7.19379 18.9996C6.48886 18.2596 5.80612 17.5711 5.09727 16.793C4.60381 16.2517 4.16388 15.7522 3.74484 15.2736C3.56991 15.0736 2.60651 13.9371 2.45899 13.7051C2.44072 13.7493 2.68222 14.6808 2.71877 14.8036C2.7736 14.9913 2.81668 15.1619 2.87151 15.3546C3.41848 17.2274 3.96546 17.9368 5.8505 18.8425C6.08287 18.953 7.77079 19.72 7.89611 19.7372Z" fill="#C7B299"/>
</svg>
