<svg width="32" height="33" viewBox="0 0 32 33" fill="none" xmlns="http://www.w3.org/2000/svg">
<path d="M24.3801 26.4902H7.15015C6.88015 26.4902 6.66016 26.2702 6.66016 26.0002V24.1802C6.66016 23.9102 6.88015 23.6902 7.15015 23.6902H24.3801C24.6501 23.6902 24.8701 23.9102 24.8701 24.1802V26.0002C24.8701 26.2702 24.6501 26.4902 24.3801 26.4902Z" fill="#C7B299" fill-opacity="0.35" stroke="#C7B299" stroke-miterlimit="10"/>
<path d="M23.6201 12.4001H21.2801C21.0401 12.4001 20.84 12.2001 20.84 11.9601V6.10016C20.84 5.86016 20.6401 5.66016 20.4001 5.66016H11.1401C10.9001 5.66016 10.7 5.86016 10.7 6.10016V11.9601C10.7 12.2001 10.5001 12.4001 10.2601 12.4001H7.9201C7.4801 12.4001 7.27004 12.9501 7.61004 13.2401L11.21 16.3701L15.46 20.0601C15.64 20.2201 15.91 20.2201 16.09 20.0601L20.34 16.3701L23.9401 13.2401C24.2601 12.9401 24.0601 12.4001 23.6201 12.4001Z" fill="#C7B299" fill-opacity="0.35" stroke="#C7B299" stroke-miterlimit="10"/>
</svg>
