<svg width="32" height="33" viewBox="0 0 32 33" fill="none" xmlns="http://www.w3.org/2000/svg">
<path d="M24.3799 26.4902H7.1499C6.8799 26.4902 6.65991 26.2702 6.65991 26.0002V24.1802C6.65991 23.9102 6.8799 23.6902 7.1499 23.6902H24.3799C24.6499 23.6902 24.8699 23.9102 24.8699 24.1802V26.0002C24.8699 26.2702 24.6499 26.4902 24.3799 26.4902Z" fill="#FF0029" fill-opacity="0.31" stroke="#FF0029" stroke-miterlimit="10"/>
<path d="M23.6199 12.4001H21.28C21.04 12.4001 20.8399 12.2001 20.8399 11.9601V6.10016C20.8399 5.86016 20.64 5.66016 20.4 5.66016H11.14C10.9 5.66016 10.6999 5.86016 10.6999 6.10016V11.9601C10.6999 12.2001 10.4999 12.4001 10.2599 12.4001H7.91998C7.47998 12.4001 7.26992 12.9501 7.60992 13.2401L11.2099 16.3701L15.4599 20.0601C15.6399 20.2201 15.9099 20.2201 16.0899 20.0601L20.3399 16.3701L23.94 13.2401C24.26 12.9401 24.0599 12.4001 23.6199 12.4001Z" fill="#FF0029" fill-opacity="0.31" stroke="#FF0029" stroke-miterlimit="10"/>
</svg>
