<svg width="82" height="41" viewBox="0 0 82 41" fill="none" xmlns="http://www.w3.org/2000/svg">
<path d="M56.5994 18.6995V20.2327H48.9041V18.6995H56.5994ZM49.197 12.5862V26.8049H47.3123V12.5862H49.197ZM58.24 12.5862V26.8049H56.365V12.5862H58.24ZM63.2791 16.2385V26.8049H61.4626V16.2385H63.2791ZM61.3259 13.4358C61.3259 13.1428 61.4138 12.8954 61.5896 12.6936C61.7719 12.4918 62.0388 12.3909 62.3904 12.3909C62.7354 12.3909 62.9991 12.4918 63.1814 12.6936C63.3702 12.8954 63.4646 13.1428 63.4646 13.4358C63.4646 13.7157 63.3702 13.9566 63.1814 14.1584C62.9991 14.3538 62.7354 14.4514 62.3904 14.4514C62.0388 14.4514 61.7719 14.3538 61.5896 14.1584C61.4138 13.9566 61.3259 13.7157 61.3259 13.4358ZM67.9861 18.4944V26.8049H66.1794V16.2385H67.8884L67.9861 18.4944ZM67.5564 21.1213L66.8044 21.092C66.811 20.3694 66.9184 19.7021 67.1267 19.0901C67.335 18.4716 67.628 17.9345 68.0056 17.4788C68.3832 17.023 68.8324 16.6715 69.3533 16.4241C69.8806 16.1702 70.4633 16.0432 71.1013 16.0432C71.6222 16.0432 72.0909 16.1148 72.5076 16.2581C72.9242 16.3948 73.2791 16.6161 73.572 16.9221C73.8715 17.2281 74.0994 17.6252 74.2556 18.1135C74.4119 18.5953 74.49 19.1845 74.49 19.8811V26.8049H72.6736V19.8616C72.6736 19.3082 72.5922 18.8655 72.4294 18.5334C72.2667 18.1949 72.0291 17.9508 71.7166 17.801C71.4041 17.6448 71.0199 17.5667 70.5642 17.5667C70.115 17.5667 69.7048 17.6611 69.3337 17.8499C68.9692 18.0387 68.6534 18.2991 68.3865 18.6311C68.1261 18.9631 67.921 19.344 67.7712 19.7737C67.628 20.1969 67.5564 20.6461 67.5564 21.1213ZM81.658 16.2385V17.6252H75.9451V16.2385H81.658ZM77.8787 13.6702H79.6853V24.1877C79.6853 24.5458 79.7406 24.816 79.8513 24.9983C79.962 25.1806 80.1052 25.301 80.281 25.3596C80.4568 25.4182 80.6456 25.4475 80.8474 25.4475C80.9972 25.4475 81.1534 25.4345 81.3162 25.4084C81.4854 25.3759 81.6124 25.3499 81.697 25.3303L81.7068 26.8049C81.5636 26.8505 81.3748 26.8928 81.1404 26.9319C80.9125 26.9775 80.6358 27.0002 80.3103 27.0002C79.8676 27.0002 79.4607 26.9124 79.0896 26.7366C78.7185 26.5608 78.4223 26.2678 78.2009 25.8577C77.9861 25.441 77.8787 24.8811 77.8787 24.178V13.6702Z" fill="#808080"/>
<path d="M19.9176 25.9034C19.9176 25.0995 20.6461 24.3625 21.507 24.3625C22.4342 24.3625 22.964 25.0325 23.0302 25.9704C23.0302 26.9084 22.4342 27.5783 21.507 27.5783C20.5137 27.5113 19.8514 26.8414 19.9176 25.9034Z" fill="#808080"/>
<path d="M12.117 8.28943L8.0752 12.4672V19.4005H10.9748V13.7116L13.435 11.2228V8.28943H12.117Z" fill="#444444"/>
<path d="M30.7447 8.28943L34.7866 12.4672V19.4005H31.7991V13.7116L29.4268 11.2228V8.28943H30.7447Z" fill="#444444"/>
<path d="M12.117 32.9116L8.0752 28.8228V21.8005H10.9748V27.5783L13.435 30.0672V32.9116H12.117Z" fill="#444444"/>
<path d="M30.7447 32.9116L34.7866 28.8228V21.8005H31.7991V27.5783L29.4268 30.0672V32.9116H30.7447Z" fill="#444444"/>
<path d="M21.4308 6.245H16.686V8.20055C17.389 8.91166 17.7404 9.26722 18.3555 9.88944H21.3429H24.3304C25.0333 9.17833 25.3848 8.82277 25.9998 8.20055V6.245H21.4308Z" fill="#444444"/>
<path d="M21.4308 35.045H16.686V33.0895C17.389 32.3784 17.7404 32.0228 18.3555 31.4006H21.3429H24.3304C25.0333 32.1117 25.3848 32.4672 25.9998 33.0895V35.045H21.4308Z" fill="#444444"/>
<path d="M20.2102 22.8672L19.7615 14.5753C19.9858 14.3099 20.1354 14.1773 20.4345 13.9783H22.6031C22.8274 14.2436 22.977 14.3763 23.2761 14.5753L22.8274 22.8672H20.2102Z" fill="#808080"/>
</svg>
