<svg width="661" height="609" viewBox="0 0 661 609" fill="none" xmlns="http://www.w3.org/2000/svg">
<mask id="path-1-inside-1_1210_1777" fill="white">
<path fill-rule="evenodd" clip-rule="evenodd" d="M0 0.5H614.709L661 46.7914V608.5H42.2914L0 566.209V0.5Z"/>
</mask>
<path fill-rule="evenodd" clip-rule="evenodd" d="M0 0.5H614.709L661 46.7914V608.5H42.2914L0 566.209V0.5Z" fill="url(#paint0_linear_1210_1777)" fill-opacity="0.95"/>
<path d="M614.709 0.5L615.416 -0.207107L615.123 -0.5H614.709V0.5ZM0 0.5V-0.5H-1V0.5H0ZM661 46.7914H662V46.3772L661.707 46.0843L661 46.7914ZM661 608.5V609.5H662V608.5H661ZM42.2914 608.5L41.5842 609.207L41.8771 609.5H42.2914V608.5ZM0 566.209H-1V566.623L-0.707107 566.916L0 566.209ZM614.709 -0.5H0V1.5H614.709V-0.5ZM661.707 46.0843L615.416 -0.207107L614.001 1.20711L660.293 47.4985L661.707 46.0843ZM662 608.5V46.7914H660V608.5H662ZM42.2914 609.5H661V607.5H42.2914V609.5ZM-0.707107 566.916L41.5842 609.207L42.9985 607.793L0.707107 565.502L-0.707107 566.916ZM-1 0.5V566.209H1V0.5H-1Z" fill="#E50017" mask="url(#path-1-inside-1_1210_1777)"/>
<defs>
<linearGradient id="paint0_linear_1210_1777" x1="72" y1="798" x2="28.1251" y2="-1332.98" gradientUnits="userSpaceOnUse">
<stop offset="0.170387"/>
<stop offset="1" stop-color="#E50017"/>
</linearGradient>
</defs>
</svg>
