<svg width="36" height="35" viewBox="0 0 36 35" fill="none" xmlns="http://www.w3.org/2000/svg">
<path d="M18.395 3.15438C23.0675 3.15438 23.6217 3.17188 25.4679 3.25646C30.2104 3.47229 32.4256 5.7225 32.6415 10.43C32.7261 12.2748 32.7421 12.829 32.7421 17.5015C32.7421 22.1754 32.7246 22.7281 32.6415 24.5729C32.4242 29.276 30.2148 31.5306 25.4679 31.7465C23.6217 31.831 23.0704 31.8485 18.395 31.8485C13.7225 31.8485 13.1684 31.831 11.3236 31.7465C6.56939 31.5292 4.36585 29.2688 4.15002 24.5715C4.06544 22.7267 4.04794 22.174 4.04794 17.5C4.04794 12.8275 4.06689 12.2748 4.15002 10.4285C4.36731 5.7225 6.57669 3.47083 11.3236 3.255C13.1698 3.17188 13.7225 3.15438 18.395 3.15438ZM18.395 0C13.6423 0 13.0473 0.0204167 11.1806 0.105C4.82523 0.396667 1.29314 3.92292 1.00148 10.2842C0.915436 12.1523 0.89502 12.7473 0.89502 17.5C0.89502 22.2527 0.915436 22.8492 1.00002 24.7158C1.29169 31.0713 4.81794 34.6033 11.1792 34.895C13.0473 34.9796 13.6423 35 18.395 35C23.1477 35 23.7442 34.9796 25.6109 34.895C31.9604 34.6033 35.5013 31.0771 35.7886 24.7158C35.8746 22.8492 35.895 22.2527 35.895 17.5C35.895 12.7473 35.8746 12.1523 35.79 10.2856C35.5042 3.93604 31.9736 0.398125 25.6123 0.106458C23.7442 0.0204167 23.1477 0 18.395 0ZM18.395 8.51375C13.4323 8.51375 9.40877 12.5373 9.40877 17.5C9.40877 22.4627 13.4323 26.4877 18.395 26.4877C23.3577 26.4877 27.3813 22.4642 27.3813 17.5C27.3813 12.5373 23.3577 8.51375 18.395 8.51375ZM18.395 23.3333C15.1736 23.3333 12.5617 20.7229 12.5617 17.5C12.5617 14.2785 15.1736 11.6667 18.395 11.6667C21.6165 11.6667 24.2284 14.2785 24.2284 17.5C24.2284 20.7229 21.6165 23.3333 18.395 23.3333ZM27.7371 6.05938C26.5763 6.05938 25.6356 7 25.6356 8.15938C25.6356 9.31875 26.5763 10.2594 27.7371 10.2594C28.8965 10.2594 29.8356 9.31875 29.8356 8.15938C29.8356 7 28.8965 6.05938 27.7371 6.05938Z" fill="white"/>
</svg>
