<?xml version="1.0" encoding="UTF-8"?>
<svg id="_圖層_2" data-name="圖層 2" xmlns="http://www.w3.org/2000/svg" viewBox="0 0 609.2 312.64">
  <defs>
    <style>
      .cls-1 {
        fill: #f51928;
      }
    </style>
  </defs>
  <g id="ROG_logo" data-name="ROG logo">
    <g>
      <path class="cls-1" d="M0,140.71s20.47,55.14,39.28,73.47c18.99,18.52,85.77,35.93,85.77,35.93L0,140.71H0Z"/>
      <path class="cls-1" d="M544.42,0c-47.44,0-117.98,9.38-170.48,31.66-43.58,18.49-171.61,145.73-179.95,153.61-12.83,12.12-16.03,14.85-34.47,8.57-29.2-9.27-74.83-34.3-74.83-34.3,0,0,49.8,76.15,67.21,99.17,26.88,35.55,72.93,53.93,72.93,53.93,0,0-34.09-36.14-42.87-51.98-8.02-14.46,2.05-27.11,50.1-63.31,79.36-59.79,149.38-108.49,219.23-144.2C517.02,19.54,554.29,10.58,582.35,0h-37.93Z"/>
      <path class="cls-1" d="M456.23,96.67c-109.75,53.4-255.04,153.45-255.04,153.45,41.68,25.79,147.09,62.55,220.84,62.53,82.16,0,160.33-200.48,160.32-200.48-141.88,56.69-235.66,105.54-235.66,105.54l149-44.45s-46.8,104.09-101.03,104.09c-62.71,0-135.75-28.76-135.74-28.77,126.25-84,320.38-160.2,331.16-164.96,10.39-4.58,19.13-22.26,19.13-30.42-5.55,0-80.01,7.97-152.97,43.47h0Z"/>
    </g>
  </g>
</svg>