<svg width="35" height="35" viewBox="0 0 35 35" fill="none" xmlns="http://www.w3.org/2000/svg">
<path fill-rule="evenodd" clip-rule="evenodd" d="M1.10319 0.298734C1.21771 0.463018 3.86976 4.34416 6.99667 8.92346C10.1236 13.5028 13.0157 17.7376 13.4236 18.3343C13.8315 18.931 14.1652 19.4312 14.1652 19.4459C14.1652 19.4605 14.0133 19.6488 13.8277 19.8643C13.642 20.0797 13.1191 20.6897 12.6658 21.2197C12.2123 21.7497 11.448 22.643 10.9672 23.2048C10.4864 23.7667 9.64064 24.7554 9.08761 25.402C8.53463 26.0486 7.54019 27.2111 6.87775 27.9854C4.82894 30.3801 4.53328 30.726 2.97366 32.5523C2.14088 33.5275 1.34231 34.46 1.19908 34.6244C1.05585 34.7888 0.938648 34.9406 0.938648 34.9617C0.938648 34.9864 1.46173 35 2.41239 35H3.8861L5.50629 33.1016C6.39741 32.0575 7.27646 31.0297 7.45971 30.8177C7.85601 30.3593 10.8782 26.8238 11.1322 26.5214C11.2295 26.4056 11.3707 26.2408 11.4462 26.1552C11.5216 26.0695 12.1162 25.375 12.7675 24.6118C13.4187 23.8486 13.9695 23.2054 13.9913 23.1826C14.0131 23.1597 14.3579 22.7564 14.7575 22.2864C15.157 21.8163 15.4963 21.4317 15.5113 21.4317C15.5264 21.4317 17.5789 24.4196 20.0724 28.0713C22.5659 31.7231 24.6506 34.7756 24.705 34.8546L24.8039 34.9983L29.859 34.9992C34.0162 34.9998 34.9107 34.991 34.8948 34.9494C34.8779 34.9051 32.456 31.3533 26.2426 22.2605C21.7696 15.7147 21.1748 14.8351 21.1919 14.7904C21.2084 14.747 21.8177 14.0306 25.8231 9.34427C26.5102 8.54042 27.4574 7.43172 27.9279 6.88051C28.3984 6.3293 28.8735 5.77423 28.9836 5.64703C29.0937 5.51982 29.6727 4.84334 30.2702 4.14372C30.8677 3.44411 31.8835 2.25534 32.5275 1.50203C33.1714 0.748723 33.722 0.102611 33.7509 0.0661843C33.8005 0.00385503 33.7163 0 32.3066 0H30.8097L30.1439 0.780562C29.2578 1.81938 27.656 3.69269 27.2012 4.22205C27.0003 4.45595 26.7496 4.7499 26.6441 4.87525C26.5387 5.00061 26.3307 5.24287 26.1819 5.41363C26.0331 5.58439 25.2833 6.46132 24.5155 7.36234C23.7479 8.26335 23.1092 9.00922 23.0964 9.01982C23.0835 9.03042 22.919 9.22227 22.7308 9.44618C22.4016 9.83781 22.0666 10.2298 20.5303 12.0212C19.8559 12.8076 19.8214 12.8413 19.7645 12.7691C19.7318 12.7274 17.7555 9.83751 15.3728 6.34707L11.0407 0.000809321L5.96784 0.000385839L0.89502 0L1.10319 0.298734ZM5.06245 2.37992C5.10056 2.4384 6.04835 3.80452 7.16869 5.41575C9.29349 8.47154 17.6431 20.4868 23.0128 28.2159C24.7287 30.6857 26.1536 32.7283 26.1792 32.755C26.2158 32.7931 26.7154 32.8014 28.5138 32.7935L30.8018 32.7836L24.8145 24.1685C21.5215 19.4302 16.7538 12.5699 14.2196 8.92346L9.61188 2.2935L7.30257 2.28356L4.99325 2.27361L5.06245 2.37992Z" fill="#FAFAFA"/>
</svg>
