<svg width="65" height="720" viewBox="0 0 65 720" fill="none" xmlns="http://www.w3.org/2000/svg">
<path d="M64.45 10.29V719.31" stroke="white" stroke-width="0.75" stroke-miterlimit="10"/>
<path d="M57.79 1H53.29V5.5H57.79V1Z" stroke="white" stroke-width="0.75" stroke-miterlimit="10"/>
<path d="M60.38 3.25H64.45" stroke="white" stroke-width="0.75" stroke-miterlimit="10"/>
<path d="M24.5499 1.91016V146.08" stroke="white" stroke-width="0.75" stroke-miterlimit="10"/>
<path d="M24.5499 199.47V343.64" stroke="white" stroke-width="0.25" stroke-miterlimit="10"/>
<path d="M31.628 156.983L38.788 156.983L38.788 155.513L31.628 155.513L31.628 156.983Z" stroke="white" stroke-width="0.25" stroke-miterlimit="10"/>
<path d="M31.628 188.082L38.788 188.082L38.788 186.612L31.628 186.612L31.628 188.082Z" stroke="white" stroke-width="0.25" stroke-miterlimit="10"/>
<path d="M11.7599 2.60986H1.06995V13.2999H11.7599V2.60986Z" stroke="black" stroke-width="0.25" stroke-miterlimit="10"/>
<path d="M11.7599 16.1299H1.06995V26.8199H11.7599V16.1299Z" stroke="black" stroke-width="0.25" stroke-miterlimit="10"/>
<path d="M11.7599 26.8198H1.06995V32.1598H11.7599V26.8198Z" stroke="black" stroke-width="0.25" stroke-miterlimit="10"/>
<path d="M11.7599 54.52H1.06995V59.86H11.7599V54.52Z" stroke="black" stroke-width="0.25" stroke-miterlimit="10"/>
<path d="M29.07 167.45H20.03V176.49H29.07V167.45Z" stroke="white" stroke-width="0.25" stroke-miterlimit="10"/>
<path d="M24.55 167.45H21.77L22.37 168.88H24.55H26.73L27.34 167.45H24.55Z" stroke="white" stroke-width="0.25" stroke-miterlimit="10"/>
<path d="M24.55 176.48H21.77L22.37 175.05H24.55H26.73L27.34 176.48H24.55Z" stroke="white" stroke-width="0.25" stroke-miterlimit="10"/>
<path d="M24.55 168.88V175.05" stroke="white" stroke-width="0.25" stroke-miterlimit="10"/>
<path d="M21.43 168.98H20.86V170.27H21.43V168.98Z" stroke="white" stroke-width="0.25" stroke-miterlimit="10"/>
<path d="M27.6779 170.271L28.2479 170.271L28.2479 168.981L27.6779 168.981L27.6779 170.271Z" stroke="white" stroke-width="0.25" stroke-miterlimit="10"/>
<path d="M21.43 173.6H20.86V174.89H21.43V173.6Z" stroke="white" stroke-width="0.25" stroke-miterlimit="10"/>
<path d="M27.6779 174.891L28.2479 174.891L28.2479 173.601L27.6779 173.601L27.6779 174.891Z" stroke="white" stroke-width="0.25" stroke-miterlimit="10"/>
<path d="M56.47 708.41L58.3 710.24" stroke="white" stroke-width="0.75" stroke-miterlimit="10"/>
<path d="M53.45 708.41L55.28 710.24" stroke="white" stroke-width="0.75" stroke-miterlimit="10"/>
<path d="M50.42 708.41L52.2601 710.24" stroke="white" stroke-width="0.75" stroke-miterlimit="10"/>
<path d="M47.4 708.41L49.23 710.24" stroke="white" stroke-width="0.75" stroke-miterlimit="10"/>
<path d="M56.47 711.43L58.3 713.27" stroke="white" stroke-width="0.75" stroke-miterlimit="10"/>
<path d="M53.45 711.43L55.28 713.27" stroke="white" stroke-width="0.75" stroke-miterlimit="10"/>
<path d="M50.42 711.43L52.2601 713.27" stroke="white" stroke-width="0.75" stroke-miterlimit="10"/>
<path d="M47.4 711.43L49.23 713.27" stroke="white" stroke-width="0.75" stroke-miterlimit="10"/>
<path d="M56.47 714.46L58.3 716.29" stroke="white" stroke-width="0.75" stroke-miterlimit="10"/>
<path d="M53.45 714.46L55.28 716.29" stroke="white" stroke-width="0.75" stroke-miterlimit="10"/>
<path d="M50.42 714.46L52.2601 716.29" stroke="white" stroke-width="0.75" stroke-miterlimit="10"/>
<path d="M47.4 714.46L49.23 716.29" stroke="white" stroke-width="0.75" stroke-miterlimit="10"/>
<path d="M56.47 717.48L58.3 719.31" stroke="white" stroke-width="0.75" stroke-miterlimit="10"/>
<path d="M53.45 717.48L55.28 719.31" stroke="white" stroke-width="0.75" stroke-miterlimit="10"/>
<path d="M50.42 717.48L52.2601 719.31" stroke="white" stroke-width="0.75" stroke-miterlimit="10"/>
<path d="M47.4 717.48L49.23 719.31" stroke="white" stroke-width="0.75" stroke-miterlimit="10"/>
<path d="M41.3698 698.65H39.9869V694.422H41.3551C42.1344 694.422 42.6031 694.812 42.6031 695.468C42.6031 695.934 42.3014 696.318 41.8766 696.391V696.435C42.4449 696.491 42.817 696.904 42.817 697.469C42.817 698.21 42.278 698.65 41.3698 698.65ZM40.4996 694.868V696.248H41.1588C41.7594 696.248 42.0817 696.004 42.0817 695.559C42.0817 695.117 41.777 694.868 41.2379 694.868H40.4996ZM40.4996 698.202H41.2584C41.9293 698.202 42.2809 697.938 42.2809 697.434C42.2809 696.936 41.9264 696.678 41.2408 696.678H40.4996V698.202ZM47.2614 697.525H47.7653C47.818 697.988 48.1901 698.269 48.7526 698.269C49.3151 698.269 49.6842 697.976 49.6842 697.522C49.6842 697.156 49.4381 696.936 48.8668 696.795L48.5035 696.705C47.7184 696.505 47.3639 696.133 47.3639 695.521C47.3639 694.8 47.9059 694.334 48.7496 694.334C49.5465 694.334 50.0944 694.794 50.1295 695.498H49.6256C49.5729 695.061 49.2506 694.803 48.7526 694.803C48.2106 694.803 47.8854 695.061 47.8854 695.492C47.8854 695.858 48.1198 696.069 48.6705 696.207L49.0397 696.3C49.86 696.502 50.2057 696.86 50.2057 697.496C50.2057 698.254 49.6344 698.738 48.7496 698.738C47.8766 698.738 47.3053 698.275 47.2614 697.525ZM53.5309 698.65H51.3043V698.19H52.1598V694.882H51.3043V694.422H53.5309V694.882H52.6754V698.19H53.5309V698.65ZM54.7408 694.422H55.9244C57.1227 694.422 57.7262 695.128 57.7262 696.529C57.7262 697.941 57.1227 698.65 55.9244 698.65H54.7408V694.422ZM55.2594 694.897V698.175H55.8776C56.774 698.175 57.1989 697.651 57.1989 696.532C57.1989 695.424 56.7711 694.897 55.8776 694.897H55.2594ZM61.151 698.175V698.65H58.6549V694.422H61.151V694.897H59.1735V696.268H61.0426V696.722H59.1735V698.175H61.151Z" fill="white"/>
</svg>
