<svg width="238" height="720" viewBox="0 0 238 720" fill="none" xmlns="http://www.w3.org/2000/svg">
<path d="M11.8937 78.0144V82.28H11.3282V78.0144H11.8937ZM13.6808 79.9333V80.3962H11.7706V79.9333H13.6808ZM13.9708 78.0144V78.4773H11.7706V78.0144H13.9708ZM15.7257 78.3923L14.3136 82.28H13.7365L15.3624 78.0144H15.7345L15.7257 78.3923ZM16.9093 82.28L15.4943 78.3923L15.4855 78.0144H15.8575L17.4894 82.28H16.9093ZM16.8361 80.7009V81.1638H14.4396V80.7009H16.8361ZM20.6007 80.9236H21.1632C21.1339 81.1931 21.0568 81.4343 20.9318 81.6472C20.8068 81.8601 20.63 82.0291 20.4015 82.1541C20.173 82.2771 19.8878 82.3386 19.546 82.3386C19.296 82.3386 19.0685 82.2917 18.8634 82.198C18.6603 82.1042 18.4855 81.9714 18.339 81.7996C18.1925 81.6257 18.0792 81.4177 17.9991 81.1755C17.921 80.9314 17.882 80.6599 17.882 80.3611V79.9363C17.882 79.6375 17.921 79.3669 17.9991 79.1248C18.0792 78.8806 18.1935 78.6716 18.3419 78.4978C18.4923 78.324 18.673 78.1902 18.8839 78.0964C19.0948 78.0027 19.3322 77.9558 19.5958 77.9558C19.9181 77.9558 20.1906 78.0164 20.4132 78.1375C20.6359 78.2585 20.8087 78.4265 20.9318 78.6414C21.0568 78.8542 21.1339 79.1013 21.1632 79.3826H20.6007C20.5734 79.1833 20.5226 79.0125 20.4484 78.8699C20.3741 78.7253 20.2687 78.614 20.132 78.5359C19.9952 78.4578 19.8165 78.4187 19.5958 78.4187C19.4064 78.4187 19.2394 78.4548 19.0948 78.5271C18.9523 78.5994 18.8322 78.7019 18.7345 78.8347C18.6388 78.9675 18.5665 79.1267 18.5177 79.3123C18.4689 79.4978 18.4445 79.7039 18.4445 79.9304V80.3611C18.4445 80.5701 18.4659 80.7664 18.5089 80.95C18.5538 81.1335 18.6212 81.2947 18.7111 81.4333C18.8009 81.572 18.9152 81.6814 19.0538 81.7615C19.1925 81.8396 19.3566 81.8787 19.546 81.8787C19.7863 81.8787 19.9777 81.8406 20.1202 81.7644C20.2628 81.6882 20.3702 81.5789 20.4425 81.4363C20.5167 81.2937 20.5695 81.1228 20.6007 80.9236ZM24.6437 81.8201V82.28H22.3849V81.8201H24.6437ZM22.4991 78.0144V82.28H21.9337V78.0144H22.4991ZM24.3448 79.8484V80.3083H22.3849V79.8484H24.3448ZM24.6144 78.0144V78.4773H22.3849V78.0144H24.6144ZM27.9865 82.28H27.0958L27.1017 81.8201H27.9865C28.2911 81.8201 28.545 81.7566 28.7482 81.6296C28.9513 81.5007 29.1036 81.321 29.2052 81.0906C29.3087 80.8582 29.3605 80.5867 29.3605 80.2761V80.0154C29.3605 79.7712 29.3312 79.5544 29.2726 79.365C29.214 79.1736 29.1281 79.0125 29.0148 78.8816C28.9015 78.7488 28.7628 78.6482 28.5988 78.5798C28.4366 78.5115 28.2501 78.4773 28.0392 78.4773H27.0782V78.0144H28.0392C28.3185 78.0144 28.5734 78.0613 28.8038 78.155C29.0343 78.2468 29.2325 78.3806 29.3986 78.5564C29.5665 78.7302 29.6954 78.9412 29.7853 79.1892C29.8751 79.4353 29.92 79.7126 29.92 80.0212V80.2761C29.92 80.5847 29.8751 80.863 29.7853 81.1111C29.6954 81.3572 29.5656 81.5671 29.3956 81.741C29.2277 81.9148 29.0245 82.0486 28.7863 82.1423C28.5499 82.2341 28.2833 82.28 27.9865 82.28ZM27.3976 78.0144V82.28H26.8322V78.0144H27.3976ZM33.4796 81.8201V82.28H31.2208V81.8201H33.4796ZM31.3351 78.0144V82.28H30.7697V78.0144H31.3351ZM33.1808 79.8484V80.3083H31.2208V79.8484H33.1808ZM33.4503 78.0144V78.4773H31.2208V78.0144H33.4503ZM35.8146 78.0144V82.28H35.2579V78.0144H35.8146ZM37.1857 78.0144V78.4773H33.8898V78.0144H37.1857ZM40.5284 81.8201V82.28H38.2697V81.8201H40.5284ZM38.3839 78.0144V82.28H37.8185V78.0144H38.3839ZM40.2296 79.8484V80.3083H38.2697V79.8484H40.2296ZM40.4991 78.0144V78.4773H38.2697V78.0144H40.4991ZM43.8038 80.9236H44.3663C44.337 81.1931 44.2599 81.4343 44.1349 81.6472C44.0099 81.8601 43.8331 82.0291 43.6046 82.1541C43.3761 82.2771 43.0909 82.3386 42.7491 82.3386C42.4991 82.3386 42.2716 82.2917 42.0665 82.198C41.8634 82.1042 41.6886 81.9714 41.5421 81.7996C41.3956 81.6257 41.2823 81.4177 41.2023 81.1755C41.1241 80.9314 41.0851 80.6599 41.0851 80.3611V79.9363C41.0851 79.6375 41.1241 79.3669 41.2023 79.1248C41.2823 78.8806 41.3966 78.6716 41.545 78.4978C41.6954 78.324 41.8761 78.1902 42.087 78.0964C42.298 78.0027 42.5353 77.9558 42.799 77.9558C43.1212 77.9558 43.3937 78.0164 43.6163 78.1375C43.839 78.2585 44.0118 78.4265 44.1349 78.6414C44.2599 78.8542 44.337 79.1013 44.3663 79.3826H43.8038C43.7765 79.1833 43.7257 79.0125 43.6515 78.8699C43.5773 78.7253 43.4718 78.614 43.3351 78.5359C43.1984 78.4578 43.0197 78.4187 42.799 78.4187C42.6095 78.4187 42.4425 78.4548 42.298 78.5271C42.1554 78.5994 42.0353 78.7019 41.9376 78.8347C41.8419 78.9675 41.7697 79.1267 41.7208 79.3123C41.672 79.4978 41.6476 79.7039 41.6476 79.9304V80.3611C41.6476 80.5701 41.6691 80.7664 41.712 80.95C41.757 81.1335 41.8243 81.2947 41.9142 81.4333C42.004 81.572 42.1183 81.6814 42.257 81.7615C42.3956 81.8396 42.5597 81.8787 42.7491 81.8787C42.9894 81.8787 43.1808 81.8406 43.3234 81.7644C43.4659 81.6882 43.5734 81.5789 43.6456 81.4363C43.7198 81.2937 43.7726 81.1228 43.8038 80.9236ZM46.6251 78.0144V82.28H46.0685V78.0144H46.6251ZM47.9962 78.0144V78.4773H44.7003V78.0144H47.9962ZM51.339 81.8201V82.28H49.0802V81.8201H51.339ZM49.1945 78.0144V82.28H48.629V78.0144H49.1945ZM51.0402 79.8484V80.3083H49.0802V79.8484H51.0402ZM51.3097 78.0144V78.4773H49.0802V78.0144H51.3097ZM53.1935 82.28H52.3029L52.3087 81.8201H53.1935C53.4982 81.8201 53.7521 81.7566 53.9552 81.6296C54.1583 81.5007 54.3107 81.321 54.4122 81.0906C54.5157 80.8582 54.5675 80.5867 54.5675 80.2761V80.0154C54.5675 79.7712 54.5382 79.5544 54.4796 79.365C54.421 79.1736 54.3351 79.0125 54.2218 78.8816C54.1085 78.7488 53.9698 78.6482 53.8058 78.5798C53.6437 78.5115 53.4572 78.4773 53.2462 78.4773H52.2853V78.0144H53.2462C53.5255 78.0144 53.7804 78.0613 54.0109 78.155C54.2413 78.2468 54.4396 78.3806 54.6056 78.5564C54.7736 78.7302 54.9025 78.9412 54.9923 79.1892C55.0822 79.4353 55.1271 79.7126 55.1271 80.0212V80.2761C55.1271 80.5847 55.0822 80.863 54.9923 81.1111C54.9025 81.3572 54.7726 81.5671 54.6027 81.741C54.4347 81.9148 54.2316 82.0486 53.9933 82.1423C53.757 82.2341 53.4904 82.28 53.1935 82.28ZM52.6046 78.0144V82.28H52.0392V78.0144H52.6046Z" fill="white"/>
<path d="M13.3663 66.3474V70.613H12.798L10.6505 67.323V70.613H10.0851V66.3474H10.6505L12.8068 69.6462V66.3474H13.3663ZM17.0782 70.1531V70.613H14.8195V70.1531H17.0782ZM14.9337 66.3474V70.613H14.3683V66.3474H14.9337ZM16.7794 68.1814V68.6414H14.8195V68.1814H16.7794ZM17.049 66.3474V66.8103H14.8195V66.3474H17.049ZM20.2189 66.3474H20.7814V69.2332C20.7814 69.5535 20.7101 69.8201 20.5675 70.033C20.4249 70.2458 20.2355 70.406 19.9991 70.5134C19.7648 70.6189 19.5099 70.6716 19.2345 70.6716C18.9454 70.6716 18.6837 70.6189 18.4493 70.5134C18.2169 70.406 18.0323 70.2458 17.8956 70.033C17.7609 69.8201 17.6935 69.5535 17.6935 69.2332V66.3474H18.2531V69.2332C18.2531 69.4558 18.2941 69.6394 18.3761 69.7839C18.4581 69.9285 18.5724 70.0359 18.7189 70.1062C18.8673 70.1765 19.0392 70.2117 19.2345 70.2117C19.4318 70.2117 19.6036 70.1765 19.7501 70.1062C19.8986 70.0359 20.0138 69.9285 20.0958 69.7839C20.1779 69.6394 20.2189 69.4558 20.2189 69.2332V66.3474ZM21.6691 66.3474H23.0812C23.4015 66.3474 23.672 66.3962 23.8927 66.4939C24.1154 66.5916 24.2843 66.7361 24.3995 66.9275C24.5167 67.1169 24.5753 67.3503 24.5753 67.6277C24.5753 67.823 24.5353 68.0017 24.4552 68.1638C24.3771 68.324 24.2638 68.4607 24.1154 68.574C23.9689 68.6853 23.7931 68.7683 23.588 68.823L23.4298 68.8845H22.1027L22.0968 68.4246H23.0988C23.3019 68.4246 23.4708 68.3894 23.6056 68.3191C23.7404 68.2468 23.8419 68.1501 23.9103 68.0291C23.9786 67.908 24.0128 67.7742 24.0128 67.6277C24.0128 67.4636 23.9806 67.3201 23.9161 67.197C23.8517 67.074 23.7501 66.9792 23.6115 66.9128C23.4747 66.8445 23.298 66.8103 23.0812 66.8103H22.2345V70.613H21.6691V66.3474ZM24.1622 70.613L23.1251 68.6794L23.714 68.6765L24.7657 70.5779V70.613H24.1622ZM26.9454 66.7253L25.5333 70.613H24.9562L26.5822 66.3474H26.9542L26.9454 66.7253ZM28.129 70.613L26.714 66.7253L26.7052 66.3474H27.0773L28.7091 70.613H28.129ZM28.0558 69.0339V69.4968H25.6593V69.0339H28.0558ZM31.8673 70.1531V70.613H29.7345V70.1531H31.8673ZM29.8458 66.3474V70.613H29.2804V66.3474H29.8458ZM36.713 70.1531V70.613H34.4542V70.1531H36.713ZM34.5685 66.3474V70.613H34.0031V66.3474H34.5685ZM36.4142 68.1814V68.6414H34.4542V68.1814H36.4142ZM36.6837 66.3474V66.8103H34.4542V66.3474H36.6837ZM40.6945 66.3474V70.613H40.1261L37.9786 67.323V70.613H37.4132V66.3474H37.9786L40.1349 69.6462V66.3474H40.6945ZM44.8488 68.489V70.0505C44.796 70.1287 44.712 70.2166 44.5968 70.3142C44.4816 70.4099 44.3224 70.4939 44.1193 70.5662C43.9181 70.6365 43.6583 70.6716 43.34 70.6716C43.0802 70.6716 42.8409 70.6267 42.6222 70.5369C42.4054 70.4451 42.2169 70.3123 42.0568 70.1384C41.8986 69.9626 41.7755 69.7498 41.6876 69.4998C41.6017 69.2478 41.5587 68.9626 41.5587 68.6443V68.3132C41.5587 67.9949 41.5958 67.7107 41.67 67.4607C41.7462 67.2107 41.8575 66.9988 42.004 66.825C42.1505 66.6492 42.3302 66.5164 42.5431 66.4265C42.756 66.3347 43.0001 66.2888 43.2755 66.2888C43.6017 66.2888 43.8741 66.3455 44.0929 66.4587C44.3136 66.5701 44.4855 66.7244 44.6085 66.9216C44.7335 67.1189 44.8136 67.3435 44.8488 67.5955H44.2833C44.2579 67.4412 44.2072 67.3005 44.131 67.1736C44.0568 67.0466 43.9503 66.9451 43.8116 66.8689C43.673 66.7908 43.4943 66.7517 43.2755 66.7517C43.0782 66.7517 42.9073 66.7878 42.7628 66.8601C42.6183 66.9324 42.4991 67.0359 42.4054 67.1707C42.3116 67.3054 42.2413 67.4685 42.1945 67.6599C42.1495 67.8513 42.1271 68.0671 42.1271 68.3074V68.6443C42.1271 68.8904 42.1554 69.1101 42.212 69.3035C42.2706 69.4968 42.3536 69.6619 42.4611 69.7986C42.5685 69.9333 42.6964 70.0359 42.8448 70.1062C42.9952 70.1765 43.1613 70.2117 43.3429 70.2117C43.5441 70.2117 43.7072 70.1951 43.8322 70.1619C43.9572 70.1267 44.0548 70.0857 44.1251 70.0388C44.1954 69.99 44.2491 69.9441 44.2863 69.9011V68.946H43.299V68.489H44.8488ZM46.3927 66.3474V70.613H45.8273V66.3474H46.3927ZM50.7023 66.3474V70.613H50.1339L47.9865 67.323V70.613H47.421V66.3474H47.9865L50.1427 69.6462V66.3474H50.7023ZM54.4142 70.1531V70.613H52.1554V70.1531H54.4142ZM52.2697 66.3474V70.613H51.7042V66.3474H52.2697ZM54.1154 68.1814V68.6414H52.1554V68.1814H54.1154ZM54.3849 66.3474V66.8103H52.1554V66.3474H54.3849Z" fill="white"/>
<path d="M64.93 73.8799H4.45996V84.7399H64.93V73.8799Z" stroke="white" stroke-width="0.5" stroke-miterlimit="10"/>
<path d="M40.9 1.91016V146.08" stroke="white" stroke-width="0.25" stroke-miterlimit="10"/>
<path d="M40.9 199.47V343.64" stroke="white" stroke-width="0.75" stroke-miterlimit="10"/>
<path d="M1 10.29V625.56" stroke="white" stroke-width="0.75" stroke-miterlimit="10"/>
<path d="M1 646.55V719.31" stroke="white" stroke-width="0.75" stroke-miterlimit="10"/>
<path d="M63.46 155.52L65.29 157.35" stroke="white" stroke-width="0.75" stroke-miterlimit="10"/>
<path d="M60.4401 155.52L62.2701 157.35" stroke="white" stroke-width="0.75" stroke-miterlimit="10"/>
<path d="M57.42 155.52L59.25 157.35" stroke="white" stroke-width="0.75" stroke-miterlimit="10"/>
<path d="M54.39 155.52L56.22 157.35" stroke="white" stroke-width="0.75" stroke-miterlimit="10"/>
<path d="M63.46 158.54L65.29 160.37" stroke="white" stroke-width="0.75" stroke-miterlimit="10"/>
<path d="M60.4401 158.54L62.2701 160.37" stroke="white" stroke-width="0.75" stroke-miterlimit="10"/>
<path d="M57.42 158.54L59.25 160.37" stroke="white" stroke-width="0.75" stroke-miterlimit="10"/>
<path d="M54.39 158.54L56.22 160.37" stroke="white" stroke-width="0.75" stroke-miterlimit="10"/>
<path d="M63.46 161.56L65.29 163.4" stroke="white" stroke-width="0.75" stroke-miterlimit="10"/>
<path d="M60.4401 161.56L62.2701 163.4" stroke="white" stroke-width="0.75" stroke-miterlimit="10"/>
<path d="M57.42 161.56L59.25 163.4" stroke="white" stroke-width="0.75" stroke-miterlimit="10"/>
<path d="M54.39 161.56L56.22 163.4" stroke="white" stroke-width="0.75" stroke-miterlimit="10"/>
<path d="M63.46 164.59L65.29 166.42" stroke="white" stroke-width="0.75" stroke-miterlimit="10"/>
<path d="M60.4401 164.59L62.2701 166.42" stroke="white" stroke-width="0.75" stroke-miterlimit="10"/>
<path d="M57.42 164.59L59.25 166.42" stroke="white" stroke-width="0.75" stroke-miterlimit="10"/>
<path d="M54.39 164.59L56.22 166.42" stroke="white" stroke-width="0.75" stroke-miterlimit="10"/>
<path d="M5.5 1H1V5.5H5.5V1Z" stroke="white" stroke-width="0.75" stroke-miterlimit="10"/>
<path d="M8.08997 3.25H12.17" stroke="white" stroke-width="0.75" stroke-miterlimit="10"/>
<path d="M33.82 155.52H26.66V156.99H33.82V155.52Z" stroke="white" stroke-width="0.25" stroke-miterlimit="10"/>
<path d="M33.82 186.62H26.66V188.09H33.82V186.62Z" stroke="white" stroke-width="0.25" stroke-miterlimit="10"/>
<path d="M64.6501 4.66016H58.0601V11.2502H64.6501V4.66016Z" stroke="black" stroke-width="0.25" stroke-miterlimit="10"/>
<path d="M27.2813 26.8227L27.2812 39.2827L28.7512 39.2827L28.7512 26.8227L27.2813 26.8227Z" stroke="white" stroke-width="0.3296" stroke-miterlimit="10"/>
<path d="M65.94 26.8198H31.14V39.2798H65.94V26.8198Z" stroke="white" stroke-width="0.1942" stroke-miterlimit="10"/>
<path d="M39.8712 33.1882V33.6482H37.5626V33.1882H39.8712ZM37.6505 31.3542V35.6199H37.0851V31.3542H37.6505ZM40.3634 31.3542V35.6199H39.8009V31.3542H40.3634ZM43.8087 31.3542H44.3712V34.24C44.3712 34.5603 44.2999 34.8269 44.1573 35.0398C44.0148 35.2527 43.8253 35.4128 43.589 35.5203C43.3546 35.6257 43.0997 35.6785 42.8243 35.6785C42.5353 35.6785 42.2736 35.6257 42.0392 35.5203C41.8068 35.4128 41.6222 35.2527 41.4855 35.0398C41.3507 34.8269 41.2833 34.5603 41.2833 34.24V31.3542H41.8429V34.24C41.8429 34.4626 41.8839 34.6462 41.9659 34.7908C42.048 34.9353 42.1622 35.0427 42.3087 35.113C42.4572 35.1833 42.629 35.2185 42.8243 35.2185C43.0216 35.2185 43.1935 35.1833 43.34 35.113C43.4884 35.0427 43.6036 34.9353 43.6857 34.7908C43.7677 34.6462 43.8087 34.4626 43.8087 34.24V31.3542ZM45.4376 31.3542H45.9855L47.3829 34.8318L48.7775 31.3542H49.3282L47.5939 35.6199H47.1661L45.4376 31.3542ZM45.2589 31.3542H45.7423L45.8214 33.9558V35.6199H45.2589V31.3542ZM49.0206 31.3542H49.504V35.6199H48.9415V33.9558L49.0206 31.3542ZM52.129 31.7322L50.7169 35.6199H50.1398L51.7657 31.3542H52.1378L52.129 31.7322ZM53.3126 35.6199L51.8976 31.7322L51.8888 31.3542H52.2609L53.8927 35.6199H53.3126ZM53.2394 34.0408V34.5037H50.8429V34.0408H53.2394ZM57.7452 31.3542V35.6199H57.1769L55.0294 32.3298V35.6199H54.464V31.3542H55.0294L57.1857 34.6531V31.3542H57.7452Z" fill="white"/>
<path d="M75.1519 26.8234L75.1519 39.2834L76.6218 39.2834L76.6218 26.8234L75.1519 26.8234Z" stroke="white" stroke-width="0.3296" stroke-miterlimit="10"/>
<path d="M128.14 26.8198H79.01V39.2798H128.14V26.8198Z" stroke="white" stroke-width="0.2308" stroke-miterlimit="10"/>
<path d="M85.1383 31.3542V35.6199H84.5729V31.3542H85.1383ZM86.9254 33.2732V33.7361H85.0153V33.2732H86.9254ZM87.2155 31.3542V31.8171H85.0153V31.3542H87.2155ZM88.9703 31.7322L87.5582 35.6199H86.9811L88.6071 31.3542H88.9791L88.9703 31.7322ZM90.1539 35.6199L88.7389 31.7322L88.7301 31.3542H89.1022L90.734 35.6199H90.1539ZM90.0807 34.0408V34.5037H87.6842V34.0408H90.0807ZM93.8453 34.2634H94.4078C94.3785 34.533 94.3014 34.7742 94.1764 34.9871C94.0514 35.2 93.8746 35.3689 93.6461 35.4939C93.4176 35.6169 93.1324 35.6785 92.7906 35.6785C92.5406 35.6785 92.3131 35.6316 92.108 35.5378C91.9049 35.4441 91.7301 35.3113 91.5836 35.1394C91.4371 34.9656 91.3239 34.7576 91.2438 34.5154C91.1656 34.2712 91.1266 33.9998 91.1266 33.7009V33.2761C91.1266 32.9773 91.1656 32.7068 91.2438 32.4646C91.3239 32.2205 91.4381 32.0115 91.5865 31.8376C91.7369 31.6638 91.9176 31.53 92.1285 31.4363C92.3395 31.3425 92.5768 31.2957 92.8405 31.2957C93.1627 31.2957 93.4352 31.3562 93.6578 31.4773C93.8805 31.5984 94.0533 31.7664 94.1764 31.9812C94.3014 32.1941 94.3785 32.4412 94.4078 32.7224H93.8453C93.818 32.5232 93.7672 32.3523 93.693 32.2097C93.6188 32.0652 93.5133 31.9539 93.3766 31.8757C93.2399 31.7976 93.0612 31.7585 92.8405 31.7585C92.651 31.7585 92.484 31.7947 92.3395 31.8669C92.1969 31.9392 92.0768 32.0417 91.9791 32.1746C91.8834 32.3074 91.8112 32.4666 91.7623 32.6521C91.7135 32.8376 91.6891 33.0437 91.6891 33.2703V33.7009C91.6891 33.9099 91.7106 34.1062 91.7535 34.2898C91.7985 34.4734 91.8658 34.6345 91.9557 34.7732C92.0455 34.9119 92.1598 35.0212 92.2985 35.1013C92.4371 35.1794 92.6012 35.2185 92.7906 35.2185C93.0309 35.2185 93.2223 35.1804 93.3649 35.1042C93.5074 35.0281 93.6149 34.9187 93.6871 34.7761C93.7614 34.6335 93.8141 34.4626 93.8453 34.2634ZM97.8883 35.1599V35.6199H95.6295V35.1599H97.8883ZM95.7438 31.3542V35.6199H95.1783V31.3542H95.7438ZM97.5895 33.1882V33.6482H95.6295V33.1882H97.5895ZM97.859 31.3542V31.8171H95.6295V31.3542H97.859ZM102.35 34.5417C102.35 34.4421 102.335 34.3542 102.303 34.2781C102.274 34.2 102.221 34.1296 102.145 34.0671C102.071 34.0046 101.967 33.9451 101.835 33.8884C101.704 33.8318 101.538 33.7742 101.337 33.7156C101.126 33.6531 100.935 33.5837 100.765 33.5076C100.595 33.4294 100.45 33.3406 100.329 33.241C100.208 33.1414 100.115 33.0271 100.05 32.8982C99.986 32.7693 99.9537 32.6218 99.9537 32.4558C99.9537 32.2898 99.9879 32.1365 100.056 31.9958C100.125 31.8552 100.222 31.7332 100.349 31.6296C100.478 31.5242 100.631 31.4421 100.809 31.3835C100.987 31.325 101.185 31.2957 101.404 31.2957C101.724 31.2957 101.996 31.3572 102.218 31.4802C102.443 31.6013 102.614 31.7605 102.731 31.9578C102.848 32.1531 102.907 32.3621 102.907 32.5847H102.344C102.344 32.4246 102.31 32.283 102.242 32.1599C102.173 32.0349 102.07 31.9373 101.931 31.8669C101.793 31.7947 101.617 31.7585 101.404 31.7585C101.203 31.7585 101.037 31.7888 100.906 31.8494C100.775 31.9099 100.677 31.9919 100.613 32.0955C100.55 32.199 100.519 32.3171 100.519 32.45C100.519 32.5398 100.538 32.6218 100.575 32.696C100.614 32.7683 100.673 32.8357 100.754 32.8982C100.836 32.9607 100.939 33.0183 101.064 33.071C101.191 33.1238 101.342 33.1746 101.518 33.2234C101.76 33.2917 101.969 33.3679 102.145 33.4519C102.321 33.5359 102.465 33.6306 102.579 33.7361C102.694 33.8396 102.779 33.9578 102.834 34.0906C102.89 34.2214 102.919 34.3699 102.919 34.5359C102.919 34.7097 102.883 34.8669 102.813 35.0076C102.743 35.1482 102.642 35.2683 102.511 35.3679C102.38 35.4675 102.223 35.5447 102.04 35.5994C101.858 35.6521 101.655 35.6785 101.43 35.6785C101.233 35.6785 101.039 35.6511 100.847 35.5964C100.658 35.5417 100.485 35.4597 100.329 35.3503C100.174 35.241 100.05 35.1062 99.9567 34.946C99.8649 34.7839 99.819 34.5964 99.819 34.3835H100.381C100.381 34.53 100.41 34.656 100.466 34.7615C100.523 34.865 100.6 34.9509 100.698 35.0193C100.797 35.0876 100.91 35.1384 101.035 35.1716C101.162 35.2029 101.294 35.2185 101.43 35.2185C101.628 35.2185 101.795 35.1912 101.931 35.1365C102.068 35.0818 102.172 35.0037 102.242 34.9021C102.314 34.8005 102.35 34.6804 102.35 34.5417ZM106.214 34.2634H106.777C106.748 34.533 106.671 34.7742 106.546 34.9871C106.421 35.2 106.244 35.3689 106.015 35.4939C105.787 35.6169 105.502 35.6785 105.16 35.6785C104.91 35.6785 104.682 35.6316 104.477 35.5378C104.274 35.4441 104.099 35.3113 103.953 35.1394C103.806 34.9656 103.693 34.7576 103.613 34.5154C103.535 34.2712 103.496 33.9998 103.496 33.7009V33.2761C103.496 32.9773 103.535 32.7068 103.613 32.4646C103.693 32.2205 103.807 32.0115 103.956 31.8376C104.106 31.6638 104.287 31.53 104.498 31.4363C104.709 31.3425 104.946 31.2957 105.21 31.2957C105.532 31.2957 105.804 31.3562 106.027 31.4773C106.25 31.5984 106.422 31.7664 106.546 31.9812C106.671 32.1941 106.748 32.4412 106.777 32.7224H106.214C106.187 32.5232 106.136 32.3523 106.062 32.2097C105.988 32.0652 105.882 31.9539 105.746 31.8757C105.609 31.7976 105.43 31.7585 105.21 31.7585C105.02 31.7585 104.853 31.7947 104.709 31.8669C104.566 31.9392 104.446 32.0417 104.348 32.1746C104.253 32.3074 104.18 32.4666 104.131 32.6521C104.083 32.8376 104.058 33.0437 104.058 33.2703V33.7009C104.058 33.9099 104.08 34.1062 104.123 34.2898C104.168 34.4734 104.235 34.6345 104.325 34.7732C104.415 34.9119 104.529 35.0212 104.668 35.1013C104.806 35.1794 104.97 35.2185 105.16 35.2185C105.4 35.2185 105.591 35.1804 105.734 35.1042C105.877 35.0281 105.984 34.9187 106.056 34.7761C106.13 34.6335 106.183 34.4626 106.214 34.2634ZM109.127 31.7322L107.714 35.6199H107.137L108.763 31.3542H109.135L109.127 31.7322ZM110.31 35.6199L108.895 31.7322L108.886 31.3542H109.258L110.89 35.6199H110.31ZM110.237 34.0408V34.5037H107.84V34.0408H110.237ZM114.743 31.3542V35.6199H114.174L112.027 32.3298V35.6199H111.462V31.3542H112.027L114.183 34.6531V31.3542H114.743Z" fill="white"/>
<path d="M137.514 26.8154L137.514 39.2754L138.984 39.2754L138.984 26.8154L137.514 26.8154Z" stroke="white" stroke-width="0.3296" stroke-miterlimit="10"/>
<path d="M209.99 26.8198H141.37V39.2798H209.99V26.8198Z" stroke="white" stroke-width="0.263" stroke-miterlimit="10"/>
<path d="M149.129 35.6199H148.238L148.244 35.1599H149.129C149.433 35.1599 149.687 35.0964 149.89 34.9695C150.093 34.8406 150.246 34.6609 150.347 34.4304C150.451 34.198 150.503 33.9265 150.503 33.616V33.3552C150.503 33.1111 150.473 32.8943 150.415 32.7048C150.356 32.5134 150.27 32.3523 150.157 32.2214C150.044 32.0886 149.905 31.988 149.741 31.9197C149.579 31.8513 149.392 31.8171 149.181 31.8171H148.22V31.3542H149.181C149.461 31.3542 149.715 31.4011 149.946 31.4949C150.176 31.5867 150.375 31.7205 150.541 31.8962C150.709 32.0701 150.838 32.281 150.927 32.5291C151.017 32.7751 151.062 33.0525 151.062 33.3611V33.616C151.062 33.9246 151.017 34.2029 150.927 34.4509C150.838 34.697 150.708 34.907 150.538 35.0808C150.37 35.2546 150.167 35.3884 149.928 35.4822C149.692 35.574 149.425 35.6199 149.129 35.6199ZM148.54 31.3542V35.6199H147.974V31.3542H148.54ZM154.622 35.1599V35.6199H152.363V35.1599H154.622ZM152.477 31.3542V35.6199H151.912V31.3542H152.477ZM154.323 33.1882V33.6482H152.363V33.1882H154.323ZM154.592 31.3542V31.8171H152.363V31.3542H154.592ZM156.895 33.947H155.755V33.4871H156.895C157.116 33.4871 157.295 33.4519 157.431 33.3816C157.568 33.3113 157.668 33.2136 157.73 33.0886C157.795 32.9636 157.827 32.821 157.827 32.6609C157.827 32.5144 157.795 32.3767 157.73 32.2478C157.668 32.1189 157.568 32.0154 157.431 31.9373C157.295 31.8572 157.116 31.8171 156.895 31.8171H155.887V35.6199H155.322V31.3542H156.895C157.217 31.3542 157.49 31.4099 157.713 31.5212C157.935 31.6326 158.104 31.7869 158.219 31.9841C158.335 32.1794 158.392 32.4031 158.392 32.655C158.392 32.9285 158.335 33.1619 158.219 33.3552C158.104 33.5486 157.935 33.696 157.713 33.7976C157.49 33.8972 157.217 33.947 156.895 33.947ZM160.683 31.3542V35.6199H160.127V31.3542H160.683ZM162.054 31.3542V31.8171H158.758V31.3542H162.054ZM165.473 33.1882V33.6482H163.165V33.1882H165.473ZM163.253 31.3542V35.6199H162.687V31.3542H163.253ZM165.965 31.3542V35.6199H165.403V31.3542H165.965ZM168.459 31.3542H169.871C170.191 31.3542 170.462 31.4031 170.682 31.5007C170.905 31.5984 171.074 31.7429 171.189 31.9343C171.306 32.1238 171.365 32.3572 171.365 32.6345C171.365 32.8298 171.325 33.0085 171.245 33.1707C171.167 33.3308 171.053 33.4675 170.905 33.5808C170.758 33.6921 170.583 33.7751 170.378 33.8298L170.219 33.8914H168.892L168.886 33.4314H169.888C170.091 33.4314 170.26 33.3962 170.395 33.3259C170.53 33.2537 170.631 33.157 170.7 33.0359C170.768 32.9148 170.802 32.781 170.802 32.6345C170.802 32.4705 170.77 32.3269 170.706 32.2039C170.641 32.0808 170.54 31.9861 170.401 31.9197C170.264 31.8513 170.088 31.8171 169.871 31.8171H169.024V35.6199H168.459V31.3542ZM170.952 35.6199L169.915 33.6863L170.504 33.6833L171.555 35.5847V35.6199H170.952ZM173.735 31.7322L172.323 35.6199H171.746L173.372 31.3542H173.744L173.735 31.7322ZM174.919 35.6199L173.504 31.7322L173.495 31.3542H173.867L175.499 35.6199H174.919ZM174.845 34.0408V34.5037H172.449V34.0408H174.845ZM177.224 35.6199H176.334L176.339 35.1599H177.224C177.529 35.1599 177.783 35.0964 177.986 34.9695C178.189 34.8406 178.341 34.6609 178.443 34.4304C178.547 34.198 178.598 33.9265 178.598 33.616V33.3552C178.598 33.1111 178.569 32.8943 178.51 32.7048C178.452 32.5134 178.366 32.3523 178.253 32.2214C178.139 32.0886 178.001 31.988 177.837 31.9197C177.674 31.8513 177.488 31.8171 177.277 31.8171H176.316V31.3542H177.277C177.556 31.3542 177.811 31.4011 178.042 31.4949C178.272 31.5867 178.47 31.7205 178.636 31.8962C178.804 32.0701 178.933 32.281 179.023 32.5291C179.113 32.7751 179.158 33.0525 179.158 33.3611V33.616C179.158 33.9246 179.113 34.2029 179.023 34.4509C178.933 34.697 178.803 34.907 178.633 35.0808C178.465 35.2546 178.262 35.3884 178.024 35.4822C177.788 35.574 177.521 35.6199 177.224 35.6199ZM176.635 31.3542V35.6199H176.07V31.3542H176.635ZM181.522 31.7322L180.11 35.6199H179.533L181.159 31.3542H181.531L181.522 31.7322ZM182.706 35.6199L181.291 31.7322L181.282 31.3542H181.654L183.286 35.6199H182.706ZM182.632 34.0408V34.5037H180.236V34.0408H182.632ZM183.857 31.3542H185.269C185.589 31.3542 185.86 31.4031 186.081 31.5007C186.303 31.5984 186.472 31.7429 186.588 31.9343C186.705 32.1238 186.763 32.3572 186.763 32.6345C186.763 32.8298 186.723 33.0085 186.643 33.1707C186.565 33.3308 186.452 33.4675 186.303 33.5808C186.157 33.6921 185.981 33.7751 185.776 33.8298L185.618 33.8914H184.291L184.285 33.4314H185.287C185.49 33.4314 185.659 33.3962 185.794 33.3259C185.928 33.2537 186.03 33.157 186.098 33.0359C186.167 32.9148 186.201 32.781 186.201 32.6345C186.201 32.4705 186.169 32.3269 186.104 32.2039C186.04 32.0808 185.938 31.9861 185.799 31.9197C185.663 31.8513 185.486 31.8171 185.269 31.8171H184.422V35.6199H183.857V31.3542ZM186.35 35.6199L185.313 33.6863L185.902 33.6833L186.954 35.5847V35.6199H186.35ZM188.937 35.3328C188.937 35.241 188.965 35.1638 189.022 35.1013C189.081 35.0369 189.165 35.0046 189.274 35.0046C189.383 35.0046 189.466 35.0369 189.523 35.1013C189.582 35.1638 189.611 35.241 189.611 35.3328C189.611 35.4226 189.582 35.4988 189.523 35.5613C189.466 35.6238 189.383 35.655 189.274 35.655C189.165 35.655 189.081 35.6238 189.022 35.5613C188.965 35.4988 188.937 35.4226 188.937 35.3328ZM188.94 32.7458C188.94 32.6541 188.968 32.5769 189.025 32.5144C189.084 32.45 189.168 32.4177 189.277 32.4177C189.386 32.4177 189.469 32.45 189.526 32.5144C189.585 32.5769 189.614 32.6541 189.614 32.7458C189.614 32.8357 189.585 32.9119 189.526 32.9744C189.469 33.0369 189.386 33.0681 189.277 33.0681C189.168 33.0681 189.084 33.0369 189.025 32.9744C188.968 32.9119 188.94 32.8357 188.94 32.7458ZM195.268 33.3523V33.6218C195.268 33.9421 195.228 34.2292 195.148 34.4832C195.068 34.7371 194.953 34.9529 194.802 35.1306C194.652 35.3083 194.471 35.4441 194.26 35.5378C194.051 35.6316 193.817 35.6785 193.557 35.6785C193.305 35.6785 193.074 35.6316 192.863 35.5378C192.654 35.4441 192.472 35.3083 192.318 35.1306C192.166 34.9529 192.047 34.7371 191.964 34.4832C191.88 34.2292 191.838 33.9421 191.838 33.6218V33.3523C191.838 33.032 191.879 32.7458 191.961 32.4939C192.045 32.24 192.163 32.0242 192.315 31.8464C192.467 31.6667 192.648 31.53 192.857 31.4363C193.068 31.3425 193.299 31.2957 193.551 31.2957C193.811 31.2957 194.046 31.3425 194.255 31.4363C194.465 31.53 194.646 31.6667 194.797 31.8464C194.949 32.0242 195.065 32.24 195.145 32.4939C195.227 32.7458 195.268 33.032 195.268 33.3523ZM194.709 33.6218V33.3464C194.709 33.0925 194.682 32.8679 194.63 32.6726C194.579 32.4773 194.504 32.3132 194.404 32.1804C194.304 32.0476 194.182 31.947 194.038 31.8787C193.895 31.8103 193.733 31.7761 193.551 31.7761C193.376 31.7761 193.216 31.8103 193.074 31.8787C192.933 31.947 192.812 32.0476 192.711 32.1804C192.611 32.3132 192.534 32.4773 192.479 32.6726C192.424 32.8679 192.397 33.0925 192.397 33.3464V33.6218C192.397 33.8777 192.424 34.1042 192.479 34.3015C192.534 34.4968 192.612 34.6619 192.714 34.7966C192.817 34.9294 192.939 35.03 193.08 35.0984C193.222 35.1667 193.381 35.2009 193.557 35.2009C193.741 35.2009 193.904 35.1667 194.047 35.0984C194.189 35.03 194.309 34.9294 194.407 34.7966C194.506 34.6619 194.582 34.4968 194.632 34.3015C194.683 34.1042 194.709 33.8777 194.709 33.6218ZM199.396 31.3542V35.6199H198.828L196.68 32.3298V35.6199H196.115V31.3542H196.68L198.837 34.6531V31.3542H199.396Z" fill="white"/>
<path d="M220.01 26.8217L220.01 39.2817L221.48 39.2817L221.48 26.8217L220.01 26.8217Z" stroke="white" stroke-width="0.3296" stroke-miterlimit="10"/>
<path d="M237.82 26.8198H223.86V39.2798H237.82V26.8198Z" stroke="white" stroke-width="0.123" stroke-miterlimit="10"/>
<path d="M228.852 34.1161C228.48 34.1161 228.225 33.8356 228.225 33.4644C228.225 33.0849 228.489 32.8127 228.852 32.8127C229.223 32.8127 229.479 33.0767 229.479 33.4644C229.479 33.8356 229.231 34.1161 228.852 34.1161ZM230.801 34.1161C230.43 34.1161 230.174 33.8356 230.174 33.4644C230.174 33.0849 230.438 32.8127 230.801 32.8127C231.173 32.8127 231.428 33.0767 231.428 33.4644C231.428 33.8356 231.181 34.1161 230.801 34.1161ZM232.751 34.1161C232.38 34.1161 232.124 33.8356 232.124 33.4644C232.124 33.0849 232.388 32.8127 232.751 32.8127C233.122 32.8127 233.378 33.0767 233.378 33.4644C233.378 33.8356 233.13 34.1161 232.751 34.1161Z" fill="#F0F0F0"/>
<path d="M141.22 3.68994H145.29" stroke="white" stroke-width="0.75" stroke-miterlimit="10"/>
<path d="M143.25 1.6499V5.7199" stroke="white" stroke-width="0.75" stroke-miterlimit="10"/>
<path d="M68.64 5.04004H66.58V7.10004H68.64V5.04004Z" stroke="white" stroke-width="0.25" stroke-miterlimit="10"/>
<path d="M72.9599 5.04004H70.8999V7.10004H72.9599V5.04004Z" stroke="white" stroke-width="0.25" stroke-miterlimit="10"/>
<path d="M69.1899 5.04004H70.3399" stroke="white" stroke-width="0.25" stroke-miterlimit="10"/>
<path d="M69.1899 7.1001H70.3399" stroke="white" stroke-width="0.25" stroke-miterlimit="10"/>
<path d="M68.64 8.81006H66.58V10.8701H68.64V8.81006Z" stroke="white" stroke-width="0.25" stroke-miterlimit="10"/>
<path d="M72.9599 8.81006H70.8999V10.8701H72.9599V8.81006Z" stroke="white" stroke-width="0.25" stroke-miterlimit="10"/>
<path d="M69.1899 8.81006H70.3399" stroke="white" stroke-width="0.25" stroke-miterlimit="10"/>
<path d="M69.1899 10.8701H70.3399" stroke="white" stroke-width="0.25" stroke-miterlimit="10"/>
<path d="M10.83 714.81H6.32996V719.31H10.83V714.81Z" stroke="white" stroke-width="0.75" stroke-miterlimit="10"/>
<path d="M13.42 717.06H17.49" stroke="white" stroke-width="0.75" stroke-miterlimit="10"/>
<path d="M6.71301 696.995H7.91418L7.32239 695.043H7.30774L6.71301 696.995ZM8.41516 698.65L8.04895 697.437H6.57825L6.20911 698.65H5.68469L7.047 694.422H7.59778L8.96008 698.65H8.41516ZM13.2931 697.525H13.797C13.8497 697.988 14.2218 698.269 14.7843 698.269C15.3468 698.269 15.7159 697.976 15.7159 697.522C15.7159 697.156 15.4698 696.936 14.8986 696.795L14.5353 696.705C13.7501 696.505 13.3956 696.133 13.3956 695.521C13.3956 694.8 13.9376 694.334 14.7814 694.334C15.5782 694.334 16.1261 694.794 16.1613 695.498H15.6573C15.6046 695.061 15.2823 694.803 14.7843 694.803C14.2423 694.803 13.9171 695.061 13.9171 695.492C13.9171 695.858 14.1515 696.069 14.7023 696.207L15.0714 696.3C15.8917 696.502 16.2374 696.86 16.2374 697.496C16.2374 698.254 15.6661 698.738 14.7814 698.738C13.9083 698.738 13.337 698.275 13.2931 697.525ZM19.5626 698.65H17.3361V698.19H18.1915V694.882H17.3361V694.422H19.5626V694.882H18.7072V698.19H19.5626V698.65ZM20.7726 694.422H21.9562C23.1544 694.422 23.7579 695.128 23.7579 696.529C23.7579 697.941 23.1544 698.65 21.9562 698.65H20.7726V694.422ZM21.2911 694.897V698.175H21.9093C22.8058 698.175 23.2306 697.651 23.2306 696.532C23.2306 695.424 22.8029 694.897 21.9093 694.897H21.2911ZM27.1827 698.175V698.65H24.6866V694.422H27.1827V694.897H25.2052V696.268H27.0743V696.722H25.2052V698.175H27.1827Z" fill="white"/>
</svg>
