<svg width="294" height="395" viewBox="0 0 294 395" fill="none" xmlns="http://www.w3.org/2000/svg">
<path d="M38.24 93.45C32.32 117.06 26.83 148.83 27.24 186.48C27.71 230.38 36.02 266.57 43.96 291.95" stroke="white" stroke-width="0.5" stroke-miterlimit="10"/>
<path d="M255.63 93.45C261.55 117.06 267.04 148.83 266.63 186.48C266.16 230.38 257.85 266.57 249.91 291.95" stroke="white" stroke-width="0.5" stroke-miterlimit="10"/>
<path d="M240.63 303.3C219.46 338.35 177.04 367.2 146.87 367.2C116.7 367.2 74.28 338.35 53.11 303.3" stroke="white" stroke-width="0.5" stroke-miterlimit="10"/>
<path d="M177.04 393.69C177.04 393.69 234.49 374.25 269.07 301.02C295.77 244.48 304.03 137.74 273.79 70.9702C243.55 4.20019 146.86 0.930176 146.86 0.930176C146.86 0.930176 50.17 4.20019 19.93 70.9702C-10.31 137.74 -2.05001 244.48 24.65 301.02C59.23 374.25 116.68 393.69 116.68 393.69" stroke="white" stroke-width="0.75" stroke-miterlimit="10"/>
<path d="M132.129 116.59H55.59V192.59H132.129V116.59Z" stroke="white" stroke-width="0.134752" stroke-miterlimit="10"/>
<path d="M105.179 143.54H82.5403V165.64H105.179V143.54Z" stroke="white" stroke-width="0.134752" stroke-miterlimit="10"/>
<line x1="88.4694" y1="154.051" x2="99.2495" y2="154.051" stroke="white" stroke-width="0.539007"/>
<line x1="94.129" y1="148.93" x2="94.129" y2="159.71" stroke="white" stroke-width="0.539007"/>
</svg>
