<svg width="38" height="36" viewBox="0 0 38 36" fill="none" xmlns="http://www.w3.org/2000/svg">
<path d="M17.6311 22.7325C17.6311 22.009 18.2902 21.3457 19.0691 21.3457C19.9079 21.3457 20.3873 21.9487 20.4472 22.7928C20.4472 23.6369 19.9079 24.2399 19.0691 24.2399C18.1703 24.1796 17.5712 23.5766 17.6311 22.7325Z" fill="#808080"/>
<path d="M10.5734 6.87988L6.9165 10.6399V16.8799H9.53994V11.7599L11.7659 9.51988V6.87988H10.5734Z" fill="#444444"/>
<path d="M27.4268 6.87988L31.0837 10.6399V16.8799H28.3808V11.7599L26.2344 9.51988V6.87988H27.4268Z" fill="#444444"/>
<path d="M10.5734 29.04L6.9165 25.36V19.04H9.53994V24.24L11.7659 26.48V29.04H10.5734Z" fill="#444444"/>
<path d="M27.4268 29.04L31.0837 25.36V19.04H28.3808V24.24L26.2344 26.48V29.04H27.4268Z" fill="#444444"/>
<path d="M19.0004 5.04004H14.7075V6.80004C15.3435 7.44004 15.6615 7.76004 16.218 8.32004H18.9209H21.6238C22.2598 7.68004 22.5778 7.36004 23.1343 6.80004V5.04004H19.0004Z" fill="#444444"/>
<path d="M19.0004 30.9602H14.7075V29.2002C15.3435 28.5602 15.6615 28.2402 16.218 27.6802H18.9209H21.6238C22.2598 28.3202 22.5778 28.6402 23.1343 29.2002V30.9602H19.0004Z" fill="#444444"/>
<path d="M17.8957 20L17.4897 12.5373C17.6927 12.2985 17.828 12.1791 18.0987 12H20.0607C20.2637 12.2388 20.399 12.3582 20.6697 12.5373L20.2637 20H17.8957Z" fill="#808080"/>
</svg>
