<svg width="73" height="79" viewBox="0 0 73 79" fill="none" xmlns="http://www.w3.org/2000/svg">
<path d="M27.8296 51.3843L20.3836 48.3116C17.7613 47.2294 14.7658 48.5496 13.7952 51.2153C12.9181 53.6242 14.0103 56.3057 16.321 57.4163L41.3782 69.4589C42.9727 70.2252 44.8103 70.2984 46.4598 69.6593C49.6972 68.405 55.0198 66.3428 60.2884 64.3015C67.4497 61.5269 69.9117 53.7095 67.5995 47.7418C67.5995 47.7418 59.6722 27.2812 57.6903 22.166" stroke="#BEBEBE" stroke-width="4" stroke-linecap="round" stroke-linejoin="round"/>
<path d="M49.3998 27.3393C49.3998 27.3393 49.2551 26.966 48.7392 25.6342C46.0967 18.814 55.0483 15.3458 57.6907 22.166" stroke="#BEBEBE" stroke-width="4" stroke-linecap="round" stroke-linejoin="round"/>
<path d="M40.4476 30.807C40.4476 30.807 39.4977 28.3553 38.4657 25.6918C35.8233 18.8716 44.7748 15.4034 47.4173 22.2236C47.6753 22.8895 48.4805 24.9679 48.7385 25.6337C49.2545 26.9655 49.3991 27.3388 49.3991 27.3388" stroke="#BEBEBE" stroke-width="4" stroke-linecap="round" stroke-linejoin="round"/>
<path d="M31.4961 34.2751C31.4961 34.2751 29.8958 30.1447 28.6059 26.8154C25.9634 19.9951 34.915 16.5269 37.5574 23.3471C37.5574 23.3471 38.2078 25.0257 38.4658 25.6916C39.4977 28.3551 40.4477 30.8069 40.4477 30.8069" stroke="#BEBEBE" stroke-width="4" stroke-linecap="round" stroke-linejoin="round"/>
<path d="M27.8299 51.3842L15.0305 18.3488C14.0728 15.8769 15.3003 13.0967 17.7722 12.1389C20.244 11.1812 23.0232 12.4057 23.9809 14.8776C25.3574 18.4304 27.2671 23.3594 28.6063 26.816C29.8963 30.1453 31.4965 34.2756 31.4965 34.2756" stroke="#BEBEBE" stroke-width="4" stroke-linecap="round" stroke-linejoin="round"/>
</svg>
