<svg width="69" height="76" viewBox="0 0 69 76" fill="none" xmlns="http://www.w3.org/2000/svg">
<path d="M20.5056 42.721L16.3604 35.8144C14.9007 33.382 11.7088 32.6555 9.34011 34.2167C7.19952 35.6274 6.47733 38.4313 7.67005 40.7007L20.604 65.3097C21.427 66.8756 22.8585 68.0302 24.5637 68.5007C27.9106 69.4243 33.4131 70.9427 38.8597 72.4457C46.263 74.4886 52.9009 69.6812 54.6034 63.5118C54.6034 63.5118 60.4403 42.3598 61.8995 37.0717" stroke="#BEBEBE" stroke-width="4" stroke-linecap="round" stroke-linejoin="round"/>
<path d="M52.1588 36.2807C52.1588 36.2807 52.2653 35.8948 52.6453 34.518C54.5909 27.4673 63.845 30.021 61.8993 37.0717" stroke="#BEBEBE" stroke-width="4" stroke-linecap="round" stroke-linejoin="round"/>
<path d="M42.9048 33.7265C42.9048 33.7265 43.6042 31.1919 44.364 28.4384C46.3097 21.3877 55.5637 23.9414 53.6181 30.9921C53.4281 31.6804 52.8352 33.8291 52.6453 34.5174C52.2653 35.8942 52.1588 36.2801 52.1588 36.2801" stroke="#BEBEBE" stroke-width="4" stroke-linecap="round" stroke-linejoin="round"/>
<path d="M33.651 31.1732C33.651 31.1732 34.8293 26.9032 35.779 23.4614C37.7247 16.4107 46.9788 18.9643 45.0331 26.015C45.0331 26.015 44.5542 27.7503 44.3643 28.4387C43.6045 31.1922 42.905 33.7269 42.905 33.7269" stroke="#BEBEBE" stroke-width="4" stroke-linecap="round" stroke-linejoin="round"/>
<path d="M20.5055 42.7207L29.9297 8.56893C30.6349 6.01348 33.2781 4.51355 35.8336 5.21872C38.3889 5.92387 39.8898 8.56402 39.1846 11.1195C38.1711 14.7924 36.765 19.8879 35.7789 23.4613C34.8291 26.9032 33.6508 31.1731 33.6508 31.1731" stroke="#BEBEBE" stroke-width="4" stroke-linecap="round" stroke-linejoin="round"/>
</svg>
