<svg width="217" height="30" viewBox="0 0 217 30" fill="none" xmlns="http://www.w3.org/2000/svg">
<path d="M44.4387 7.14494L41.6067 7.45694C41.4867 5.96894 40.6947 5.53694 40.0227 5.53694C39.0627 5.53694 38.5347 6.16094 38.5347 7.24094C38.5347 10.1929 44.5827 11.6089 44.5827 16.3129C44.5827 19.1689 42.6627 20.7529 39.8787 20.7529C37.1187 20.7529 35.5347 18.5449 35.4147 15.9529L38.2467 15.5449C38.3667 17.2969 39.0627 18.1609 40.0227 18.1609C41.0547 18.1609 41.7507 17.6089 41.7507 16.5769C41.7507 13.1449 35.7027 12.2329 35.7027 7.26494C35.7027 4.50494 37.3827 2.94494 40.3107 2.94494C42.7347 2.94494 44.1747 4.69694 44.4387 7.14494ZM49.2467 12.3529H52.2227V11.6809C52.2227 10.1929 51.6947 9.56894 50.7347 9.56894C49.7747 9.56894 49.2467 10.1929 49.2467 11.6809V12.3529ZM54.9107 12.1609V14.5609H49.2467V16.4329C49.2467 17.9209 49.7747 18.5449 50.7347 18.5449C51.6947 18.5449 52.2227 17.9209 52.2227 16.4329V16.1449H54.9107C54.8627 18.8809 53.7347 20.7529 50.7347 20.7529C47.6627 20.7529 46.5587 18.7849 46.5587 15.9529V12.1609C46.5587 9.32894 47.6627 7.36094 50.7347 7.36094C53.8067 7.36094 54.9107 9.32894 54.9107 12.1609ZM60.0788 20.5129H57.3908V3.18494H60.0788V20.5129ZM65.2311 12.3529H68.2071V11.6809C68.2071 10.1929 67.6791 9.56894 66.7191 9.56894C65.7591 9.56894 65.2311 10.1929 65.2311 11.6809V12.3529ZM70.8951 12.1609V14.5609H65.2311V16.4329C65.2311 17.9209 65.7591 18.5449 66.7191 18.5449C67.6791 18.5449 68.2071 17.9209 68.2071 16.4329V16.1449H70.8951C70.8471 18.8809 69.7191 20.7529 66.7191 20.7529C63.6471 20.7529 62.5431 18.7849 62.5431 15.9529V12.1609C62.5431 9.32894 63.6471 7.36094 66.7191 7.36094C69.7911 7.36094 70.8951 9.32894 70.8951 12.1609ZM81.5592 12.0169H78.8712V11.6809C78.8712 10.1929 78.3432 9.56894 77.3832 9.56894C76.4232 9.56894 75.8952 10.1929 75.8952 11.6809V16.4329C75.8952 17.9209 76.4232 18.5449 77.3832 18.5449C78.3432 18.5449 78.8712 17.9209 78.8712 16.4329V15.6169H81.5592V15.9529C81.5592 18.7849 80.4552 20.7529 77.3832 20.7529C74.3112 20.7529 73.2072 18.7849 73.2072 15.9529V12.1609C73.2072 9.32894 74.3112 7.36094 77.3832 7.36094C80.4072 7.36094 81.5112 9.25694 81.5592 12.0169ZM84.4472 9.80894H82.9592V7.60094H84.4472V4.12094H87.1352V7.60094H88.9352V9.80894H87.1352V17.2489C87.1352 17.9209 87.4232 18.3049 88.0472 18.3049H88.9352V20.6089C88.5752 20.7049 88.2632 20.7529 87.5912 20.7529C85.5752 20.7529 84.4472 19.8169 84.4472 17.8489V9.80894ZM99.4712 15.8569L101.103 7.60094H103.815L100.431 21.4729C99.8552 23.8249 98.7752 24.5689 96.7592 24.5689H95.6312V22.3609H96.2792C97.6232 22.3609 98.0552 21.6409 98.0552 20.2729C98.0552 19.7449 97.9352 19.1929 97.7672 18.5689L94.9592 7.60094H97.6952L99.4232 15.8569H99.4712ZM110.863 16.4329V11.6809C110.863 10.1929 110.335 9.56894 109.375 9.56894C108.415 9.56894 107.887 10.1929 107.887 11.6809V16.4329C107.887 17.9209 108.415 18.5449 109.375 18.5449C110.335 18.5449 110.863 17.9209 110.863 16.4329ZM105.199 15.9529V12.1609C105.199 9.32894 106.303 7.36094 109.375 7.36094C112.447 7.36094 113.551 9.32894 113.551 12.1609V15.9529C113.551 18.7849 112.447 20.7529 109.375 20.7529C106.303 20.7529 105.199 18.7849 105.199 15.9529ZM121.383 7.60094H124.071V20.5129H121.527V19.2169C120.399 20.1769 119.823 20.7529 118.263 20.7529C116.847 20.7529 116.007 19.7209 116.007 18.0409V7.60094H118.695V17.6089C118.695 18.2569 119.079 18.5449 119.655 18.5449C120.231 18.5449 120.759 18.1849 121.383 17.7289V7.60094ZM129.359 20.5129H126.671V7.60094H129.239V9.11294H129.287C129.935 8.00894 131.063 7.36094 132.335 7.36094H132.887V10.1689C132.407 10.0489 131.951 9.90494 131.159 9.90494C130.247 9.90494 129.359 10.4809 129.359 11.6329V20.5129ZM148.144 3.18494H152.056V20.5129H149.464V6.97694H149.416L146.728 20.5129H145.288L142.6 6.97694H142.552V20.5129H139.96V3.18494H143.872L145.984 13.3129H146.032L148.144 3.18494ZM157.776 12.7369V18.0649H159.024C160.608 18.0649 161.184 17.1529 161.184 15.4009C161.184 13.6249 160.512 12.7369 158.736 12.7369H157.776ZM157.776 5.63294V10.2889H158.856C159.984 10.2889 160.848 9.52094 160.848 8.08094C160.848 6.47294 160.224 5.63294 158.904 5.63294H157.776ZM154.8 20.5129V3.18494H159.216C162.408 3.18494 163.824 4.81694 163.824 7.76894C163.824 9.25694 163.2 10.8169 161.76 11.3929C163.272 12.0649 164.16 13.2649 164.16 15.4969C164.16 18.3529 162.888 20.5129 159.504 20.5129H154.8ZM168.528 20.5129V5.77694H165.648V3.18494H174.384V5.77694H171.504V20.5129H168.528ZM179.512 20.5129H176.536V3.18494H179.512V20.5129Z" fill="white"/>
<path d="M215.59 2.47595H211.09V20.1459H215.59V2.47595Z" fill="#FF0029" fill-opacity="0.31" stroke="#FF0029" stroke-miterlimit="10"/>
<path d="M5.5 2.47595H1V20.1459H5.5V2.47595Z" fill="#FF0029" fill-opacity="0.31" stroke="#FF0029" stroke-miterlimit="10"/>
</svg>
