<svg width="26" height="26" viewBox="0 0 26 26" fill="none" xmlns="http://www.w3.org/2000/svg">
<path d="M5.92999 1.10999C8.58999 1.10999 10.75 3.26999 10.75 5.92999C10.75 6.31999 10.7 6.69998 10.61 7.06998L14.89 8.94C15.85 7.44 17.52 6.44 19.43 6.44C22.4 6.44 24.82 8.84999 24.82 11.83C24.82 14.8 22.41 17.22 19.43 17.22C18 17.22 16.7 16.66 15.74 15.75L10.26 20.01C10.39 20.35 10.47 20.72 10.47 21.11C10.47 22.75 9.13999 24.09 7.48999 24.09C5.84999 24.09 4.51001 22.76 4.51001 21.11C4.51001 19.46 5.83999 18.13 7.48999 18.13C8.13999 18.13 8.74999 18.34 9.23999 18.7L14.72 14.44C14.29 13.67 14.05 12.78 14.05 11.83C14.05 11.36 14.12 10.9 14.23 10.46L9.95001 8.59C9.09001 9.89 7.60999 10.75 5.92999 10.75C3.26999 10.75 1.11002 8.58999 1.11002 5.92999C1.11002 3.26999 3.26999 1.10999 5.92999 1.10999ZM5.92999 0C2.65999 0 0 2.65999 0 5.92999C0 9.19999 2.65999 11.86 5.92999 11.86C7.59999 11.86 9.18001 11.16 10.29 9.94998L12.97 11.12C12.94 11.35 12.93 11.59 12.93 11.82C12.93 12.6 13.07 13.37 13.34 14.09L9.14001 17.35C8.62001 17.12 8.05999 17 7.48999 17C5.22999 17 3.39999 18.84 3.39999 21.09C3.39999 23.34 5.22999 25.18 7.48999 25.18C9.74999 25.18 11.58 23.35 11.58 21.09C11.58 20.86 11.56 20.64 11.52 20.42L15.72 17.16C16.8 17.92 18.09 18.32 19.42 18.32C23 18.32 25.92 15.4 25.92 11.82C25.92 8.23998 23 5.31998 19.42 5.31998C17.51 5.31998 15.74 6.14 14.52 7.56L11.84 6.38998C11.85 6.22998 11.86 6.07999 11.86 5.92999C11.87 2.65999 9.20999 0 5.92999 0Z" fill="white"/>
</svg>
