<svg width="25" height="26" viewBox="0 0 25 26" fill="none" xmlns="http://www.w3.org/2000/svg">
<path d="M24 5.01L19.15 0.16C19.05 0.0599998 18.91 0 18.77 0H1.02C0.46 0 0 0.46 0 1.02V24.9C0 25.46 0.46 25.92 1.02 25.92H3.53C3.53 25.92 3.54 25.92 3.55 25.92H20.61C20.61 25.92 20.62 25.92 20.63 25.92H23.14C23.7 25.92 24.16 25.46 24.16 24.9V5.39C24.16 5.25 24.1 5.11 24 5.01ZM4.04 1.07H15.29V8.7H4.04V1.07ZM6.41 15.77C6.83 16.19 7.12 16.49 7.46 16.82L7.98 17.34C8.08 17.44 8.22 17.5 8.36 17.5H15.82C15.96 17.5 16.1 17.44 16.2 17.34L16.74 16.8C17.07 16.47 17.36 16.18 17.78 15.76C17.88 15.66 17.93 15.52 17.93 15.38V14.49H20.07V24.84H4.08V14.49H6.26V15.38C6.26 15.52 6.32 15.66 6.41 15.76V15.77ZM16.86 14.5V15.17C16.53 15.5 16.27 15.76 15.99 16.04L15.61 16.42H8.59L8.22 16.06C7.93 15.77 7.67 15.51 7.33 15.17V14.5H16.86ZM23.09 24.84H21.15V13.96C21.15 13.66 20.91 13.42 20.61 13.42H3.55C3.25 13.42 3.01 13.66 3.01 13.96V24.89H1.07L1.02 1.07H3.06V9.19C3.06 9.46 3.28 9.68 3.55 9.68H15.79C16.06 9.68 16.28 9.46 16.28 9.19V1.07H18.55L23.09 5.61V24.85V24.84Z" fill="white"/>
</svg>
