<svg width="29" height="26" viewBox="0 0 29 26" fill="none" xmlns="http://www.w3.org/2000/svg">
<path d="M1.78408 13.8617L5.57977 13.8617C5.9743 13.8617 6.28722 14.1808 6.28722 14.583L6.28721 24.2787C6.28721 24.681 6.60011 25 6.99464 25L22.0142 25C22.4087 25 22.7216 24.681 22.7216 24.2787L22.7216 14.583C22.7216 14.1808 23.0345 13.8617 23.429 13.8617L27.2248 13.8617C27.9458 13.8617 28.2723 12.9601 27.7281 12.4746L21.8917 7.30086L14.9942 1.19766C14.7085 0.934115 14.2731 0.934115 13.9738 1.19766L7.07629 7.30086L1.23988 12.4746C0.736513 12.9463 1.07664 13.8617 1.78408 13.8617Z" stroke="white" stroke-miterlimit="10"/>
<rect x="11" y="18" width="5" height="7" stroke="white" stroke-miterlimit="10"/>
</svg>
