<svg width="23" height="26" viewBox="0 0 23 26" fill="none" xmlns="http://www.w3.org/2000/svg">
<path d="M22.23 16.8502C20.57 15.1802 19.64 14.2502 17.98 12.5902C17.89 12.5002 17.76 12.4502 17.63 12.4502H4.74C4.61 12.4502 4.49 12.5002 4.39 12.5902C2.73 14.2502 1.8 15.1802 0.139999 16.8502C0.0499994 16.9402 0 17.0702 0 17.2002V25.3702C0 25.6402 0.219998 25.8602 0.489998 25.8602H21.88C22.15 25.8602 22.37 25.6402 22.37 25.3702V17.2002C22.37 17.0702 22.32 16.9502 22.23 16.8502ZM14.14 13.4302L13.2 14.3702H9.49L8.55 13.4302H14.14ZM4.95 13.4302H7.16L8.94 15.2102C9.03 15.3002 9.16 15.3502 9.29 15.3502H13.41C13.54 15.3502 13.66 15.3002 13.76 15.2102L15.54 13.4302H17.44C18.03 14.0202 18.53 14.5202 19.01 15.0002L17.46 16.5502C17.36 16.6502 17.31 16.7802 17.31 16.9102V24.8802H5.39V16.9102C5.39 16.7702 5.34 16.6402 5.24 16.5502L3.54 14.8502C3.97 14.4202 4.43 13.9602 4.95 13.4302ZM0.989998 17.4002C1.69 16.7002 2.26 16.1302 2.82 15.5702L4.37 17.1202V24.8802H0.989998V17.4002ZM21.4 24.8802H18.33V17.1202L19.73 15.7202C20.24 16.2302 20.77 16.7602 21.4 17.4002V24.8802Z" fill="white"/>
<path d="M9.41009 11.54C9.51009 11.63 9.64009 11.69 9.77009 11.69H12.9101C13.0501 11.69 13.1801 11.64 13.2701 11.54L16.1801 8.63C16.2701 8.53 16.3301 8.4 16.3301 8.27V2.06C16.3301 1.92 16.2801 1.79 16.1801 1.7L14.6301 0.150002C14.5301 0.0500015 14.4001 0 14.2701 0H8.40009C8.27009 0 8.14008 0.0500015 8.04008 0.150002L6.49009 1.7C6.39009 1.8 6.34009 1.93 6.34009 2.06V8.27C6.34009 8.41 6.39009 8.54 6.49009 8.63L9.40009 11.54H9.41009ZM7.37009 2.27L8.62009 1.02H14.0701L15.3201 2.27V8.06L12.7101 10.67H9.99009L7.38008 8.06V2.27H7.37009Z" fill="white"/>
</svg>
