<svg width="33" height="20" viewBox="0 0 33 20" fill="none" xmlns="http://www.w3.org/2000/svg">
<path fill-rule="evenodd" clip-rule="evenodd" d="M19.8235 2.52512C19.7715 2.54046 19.7581 2.56501 19.7076 2.6095C19.666 2.64631 19.6319 2.67086 19.5918 2.70768C19.4997 2.78899 19.4462 2.83961 19.366 2.90864C18.9678 3.25535 18.4256 3.79535 18.035 4.17274C17.4289 4.75876 16.8822 5.32484 16.2999 5.9078C15.2021 7.00775 13.9588 8.3286 12.861 9.3902C11.9534 10.2662 11.175 11.0532 10.2257 11.9307C9.86328 12.2651 9.63452 12.5704 9.14134 12.5888C8.32729 12.6179 7.25179 11.9015 6.70216 11.5763C6.22235 11.2925 4.94631 10.5178 4.33132 10.4963L4.78143 11.136C5.10378 11.6438 5.64449 12.7483 5.90445 13.2868C6.79872 15.1354 8.00494 17.0699 9.53945 18.357C9.93162 18.6868 10.2881 18.963 10.7858 19.2744C11.0041 19.4109 11.227 19.5244 11.4721 19.6671C11.5567 19.7162 12.145 20 12.2178 20C12.0574 19.8328 11.891 19.6303 11.7603 19.4707C11.1765 18.7605 9.87517 17.3813 9.48448 16.6756C9.15619 16.0835 9.08192 15.7214 9.44586 15.1277C9.8618 14.4496 10.8333 13.609 11.4438 13.0705C12.9264 11.7604 14.2648 10.5745 15.8156 9.33037C16.551 8.74127 17.3145 8.13991 18.1063 7.55695C18.8817 6.98474 19.6616 6.43553 20.4712 5.88172L21.6937 5.07786C21.8066 5.01035 22.9207 4.32615 22.9386 4.30314L24.0289 3.68183C24.3943 3.46859 24.7509 3.29063 25.1371 3.07433C26.275 2.44228 28.5329 1.41137 29.8268 0.9404C30.2516 0.785457 30.6557 0.639718 31.0865 0.487842L32.3744 0.0705684C32.2704 0.0153409 30.8473 0 30.5859 0C29.5312 0 28.8835 0.0306819 27.8763 0.111989C27.1054 0.174887 25.6704 0.339035 24.9707 0.513922C24.8444 0.546138 24.6944 0.558411 24.5681 0.593695C24.3245 0.659661 24.0467 0.705684 23.7987 0.768582C23.2847 0.900514 22.8197 1.04932 22.3369 1.19813C21.8408 1.35154 21.3907 1.53256 20.9465 1.72125C20.6836 1.83631 19.8903 2.38398 19.8235 2.52512ZM30.1283 5.15763L31.0642 4.66365C31.3895 4.5041 31.7252 4.32001 32.0312 4.1666C32.6522 3.85365 33.0102 2.83808 32.9998 2.18762C32.8899 2.19222 32.4442 2.41006 32.3239 2.45609C32.2407 2.48677 32.1634 2.51438 32.0862 2.54813C31.5336 2.79052 30.7953 3.07739 30.2709 3.33359C30.1194 3.40723 29.9709 3.46859 29.8179 3.53762C29.6975 3.59132 29.4301 3.6987 29.3811 3.76314C29.2148 3.75393 25.8264 5.48899 25.4045 5.7145C24.8028 6.03513 24.0467 6.42019 23.4689 6.75309C23.4005 6.79297 21.6388 7.75485 21.5689 7.84843C21.4531 7.86837 20.2454 8.60934 20.0523 8.72133C17.6621 10.1143 15.0164 11.8662 12.7273 13.4694C12.0915 13.9142 11.279 14.5003 10.6387 14.9973L10.1262 15.3931C10.0668 15.4391 9.99698 15.4698 9.9643 15.5404C10.1931 15.7429 11.7038 16.3872 12.0648 16.5207C14.0895 17.2739 15.9835 17.7986 18.1137 18.176L19.4655 18.3892L20.5306 18.4858L19.6631 18.4076C19.8279 18.4276 19.9928 18.4552 20.1533 18.4705C20.3909 18.4935 20.6271 18.5135 20.8722 18.5395C21.3342 18.5871 21.8705 18.6193 22.3458 18.6285C22.9356 18.6393 23.2609 18.6699 23.7452 18.4598C24.121 18.2956 24.4255 18.0931 24.7241 17.8569C25.8353 16.9778 26.8231 15.6033 27.6119 14.3591C28.4364 13.0567 29.1806 11.6024 29.8208 10.1603C30.1476 9.42548 30.4536 8.65997 30.7418 7.87911C30.8874 7.48332 31.0152 7.10133 31.1459 6.68252C31.2187 6.45087 31.4846 5.60252 31.5054 5.41229C31.2023 5.45524 25.9036 8.40684 25.4 8.68605C24.7167 9.06497 24.0616 9.45923 23.3976 9.83202C22.7529 10.1941 22.071 10.6205 21.4293 10.9887C20.1265 11.7374 18.8134 12.5704 17.5121 13.3482C17.2892 13.4816 15.6314 14.4819 15.572 14.5524C15.6834 14.534 20.9376 12.2037 21.0654 12.15C21.3134 12.0442 26.4725 9.75838 26.5557 9.75378C26.526 9.87651 26.2066 10.4932 26.1264 10.6742C25.9927 10.9765 25.8308 11.3186 25.6837 11.6192C24.8519 13.319 23.9487 15.3594 22.1334 16.1126L22.025 16.1801C21.9269 16.1816 21.661 16.2936 21.5452 16.3274C21.3684 16.378 21.1976 16.4118 21.0208 16.4501C20.183 16.6265 18.9188 16.5345 18.0454 16.3933C17.0501 16.2323 16.3534 16.0528 15.3893 15.8119C15.1591 15.7552 13.4953 15.2719 13.3987 15.206C13.4522 15.1078 14.4044 14.4788 14.4876 14.419C16.3281 13.0981 19.3868 11.1559 21.3758 9.98696C21.5868 9.8627 21.7814 9.75071 21.9745 9.63719C22.1349 9.54207 22.4275 9.38406 22.5568 9.28741L23.4867 8.75968C23.8016 8.57866 24.0898 8.42372 24.4211 8.22735C25.048 7.85764 25.6823 7.54928 26.2987 7.1903C26.3879 7.13508 29.9085 5.22359 30.1283 5.15763ZM6.18818 15.1338C6.15105 15.0541 5.51526 14.3561 5.38899 14.2119C4.58683 13.2868 3.80992 12.4262 3.00329 11.4536C2.44178 10.777 1.94117 10.1526 1.46433 9.55435C1.26527 9.30429 0.168982 7.88371 0.0011215 7.59377C-0.0196753 7.649 0.25514 8.81338 0.296734 8.96679C0.359125 9.2015 0.408146 9.41474 0.470536 9.6556C1.09296 11.9966 1.71538 12.8833 3.86042 14.0155C4.12484 14.1536 6.04558 15.1124 6.18818 15.1338Z" fill="#FF0029"/>
</svg>
