<svg width="31" height="33" viewBox="0 0 31 33" fill="none" xmlns="http://www.w3.org/2000/svg">
<path d="M11.7514 22.3917L11.691 21.8953L11.7514 22.3917C11.9725 22.3647 12.1847 22.4873 12.2719 22.6922L14.1198 27.0339C14.6377 28.2507 16.3623 28.2507 16.8802 27.0339L18.7281 22.6922C18.8153 22.4873 19.0275 22.3647 19.2486 22.3917L23.9325 22.9622C25.2452 23.1221 26.1075 21.6285 25.3127 20.5717L22.4766 16.8005C22.3428 16.6225 22.3428 16.3775 22.4766 16.1995L25.3127 12.4283C26.1075 11.3715 25.2452 9.87787 23.9325 10.0378L19.2486 10.6083C19.0275 10.6353 18.8153 10.5127 18.7281 10.3078L16.8802 5.96611C16.3623 4.74934 14.6377 4.74934 14.1198 5.96611L12.2719 10.3078C12.1847 10.5127 11.9725 10.6353 11.7514 10.6083L7.06748 10.0378C5.75479 9.87787 4.89247 11.3715 5.68729 12.4283L8.52338 16.1995C8.65723 16.3775 8.65723 16.6225 8.52337 16.8005L5.68729 20.5717C4.89247 21.6285 5.7548 23.1221 7.06748 22.9622L11.7514 22.3917Z" stroke="white"/>
<g style="mix-blend-mode:screen" filter="url(#filter0_f_43_549)">
<path d="M11.7514 22.3917L11.691 21.8953L11.7514 22.3917C11.9725 22.3647 12.1847 22.4873 12.2719 22.6922L14.1198 27.0339C14.6377 28.2507 16.3623 28.2507 16.8802 27.0339L18.7281 22.6922C18.8153 22.4873 19.0275 22.3647 19.2486 22.3917L23.9325 22.9622C25.2452 23.1221 26.1075 21.6285 25.3127 20.5717L22.4766 16.8005C22.3428 16.6225 22.3428 16.3775 22.4766 16.1995L25.3127 12.4283C26.1075 11.3715 25.2452 9.87787 23.9325 10.0378L19.2486 10.6083C19.0275 10.6353 18.8153 10.5127 18.7281 10.3078L16.8802 5.96611C16.3623 4.74934 14.6377 4.74934 14.1198 5.96611L12.2719 10.3078C12.1847 10.5127 11.9725 10.6353 11.7514 10.6083L7.06748 10.0378C5.75479 9.87787 4.89247 11.3715 5.68729 12.4283L8.52338 16.1995C8.65723 16.3775 8.65723 16.6225 8.52337 16.8005L5.68729 20.5717C4.89247 21.6285 5.7548 23.1221 7.06748 22.9622L11.7514 22.3917Z" stroke="white"/>
</g>
<defs>
<filter id="filter0_f_43_549" x="0.880615" y="0.553467" width="29.2388" height="31.8931" filterUnits="userSpaceOnUse" color-interpolation-filters="sRGB">
<feFlood flood-opacity="0" result="BackgroundImageFix"/>
<feBlend mode="normal" in="SourceGraphic" in2="BackgroundImageFix" result="shape"/>
<feGaussianBlur stdDeviation="2" result="effect1_foregroundBlur_43_549"/>
</filter>
</defs>
</svg>
