<svg width="383" height="35" viewBox="0 0 383 35" fill="none" xmlns="http://www.w3.org/2000/svg">
<path d="M382.229 16.6182L372.03 26.818" stroke="white" stroke-width="0.5" stroke-miterlimit="10"/>
<path d="M374.203 24.645L372.03 26.818" stroke="white" stroke-miterlimit="10"/>
<path d="M382.281 16.5664L380.108 18.7394" stroke="white" stroke-miterlimit="10"/>
<path d="M374.713 16.6182L364.513 26.818" stroke="white" stroke-width="0.5" stroke-miterlimit="10"/>
<path d="M366.687 24.645L364.514 26.818" stroke="white" stroke-miterlimit="10"/>
<path d="M374.765 16.5664L372.592 18.7394" stroke="white" stroke-miterlimit="10"/>
<path d="M363.516 20.9077L200.305 20.9077" stroke="white" stroke-width="0.5" stroke-miterlimit="10"/>
<path d="M158.767 20.9482L1.07202 20.9482" stroke="white" stroke-width="0.5" stroke-miterlimit="10"/>
<path d="M212.9 15.418L200.305 15.418" stroke="white" stroke-width="2" stroke-miterlimit="10"/>
<path d="M357.604 27.9256L357.604 25.6758L346.561 25.6758L346.561 27.9256L357.604 27.9256Z" stroke="white" stroke-width="0.5" stroke-miterlimit="10"/>
<path d="M342.867 27.9256L342.867 25.6758L331.825 25.6758L331.825 27.9256L342.867 27.9256Z" stroke="white" stroke-width="0.5" stroke-miterlimit="10"/>
<path d="M188.66 21.7693L187.234 23.195M188.66 19.4167L187.234 20.8424M188.66 17.0646L187.234 18.4902M188.66 14.7124L187.234 16.1381M186.308 21.7693L184.882 23.195M186.308 19.4167L184.882 20.8424M186.308 17.0646L184.882 18.4902M186.308 14.7124L184.882 16.1381M183.956 21.7693L182.53 23.195M183.956 19.4167L182.53 20.8424M183.956 17.0646L182.53 18.4902M183.956 14.7124L182.53 16.1381M181.603 21.7693L180.178 23.195M181.603 19.4167L180.178 20.8424M181.603 17.0646L180.178 18.4902M181.603 14.7124L180.178 16.1381" stroke="white" stroke-width="0.75" stroke-miterlimit="10"/>
<path d="M173.32 5.86426L163.626 5.86426L163.626 7.00469L173.32 7.00469L173.32 5.86426Z" stroke="white" stroke-width="0.33" stroke-miterlimit="10"/>
<path d="M173.321 23.397L173.321 14.7124L163.722 14.7124L163.722 23.397L173.321 23.397Z" stroke="white" stroke-width="0.194" stroke-miterlimit="10"/>
<path d="M205.215 33.1162L205.059 33.3115C204.609 33.8356 203.952 34.0977 203.086 34.0977C202.318 34.0977 201.714 33.8437 201.274 33.3359C200.838 32.8249 200.615 32.1038 200.605 31.1729L200.605 29.7764C200.605 28.7803 200.804 28.0348 201.201 27.54C201.602 27.042 202.199 26.793 202.993 26.793C203.67 26.793 204.199 26.9818 204.58 27.3594C204.964 27.737 205.176 28.2757 205.215 28.9756L204.321 28.9756C204.285 28.5329 204.162 28.1878 203.95 27.9404C203.742 27.6898 203.424 27.5645 202.998 27.5645C202.487 27.5645 202.113 27.7321 201.875 28.0674C201.637 28.3994 201.514 28.9316 201.504 29.6641L201.504 31.1143C201.504 31.8304 201.641 32.3805 201.914 32.7646C202.188 33.1455 202.58 33.3359 203.091 33.3359C203.573 33.3359 203.939 33.2187 204.189 32.9844L204.321 32.8623L204.321 31.2217L203.022 31.2217L203.022 30.46L205.215 30.46L205.215 33.1162ZM210.083 30.7139L207.568 30.7139L207.568 33.2334L210.498 33.2334L210.498 34L206.675 34L206.675 26.8906L210.449 26.8906L210.449 27.6621L207.568 27.6621L207.568 29.9473L210.083 29.9473L210.083 30.7139ZM216.289 34L215.391 34L212.544 28.5215L212.544 34L211.646 34L211.646 26.8906L212.544 26.8906L215.4 32.3936L215.4 26.8906L216.289 26.8906L216.289 34ZM221.245 30.7139L218.73 30.7139L218.73 33.2334L221.66 33.2334L221.66 34L217.837 34L217.837 26.8906L221.611 26.8906L221.611 27.6621L218.73 27.6621L218.73 29.9473L221.245 29.9473L221.245 30.7139ZM224.956 31.124L223.706 31.124L223.706 34L222.808 34L222.808 26.8906L224.8 26.8906C225.496 26.8906 226.024 27.0729 226.382 27.4375C226.74 27.7988 226.919 28.3294 226.919 29.0293C226.919 29.4687 226.821 29.8529 226.626 30.1816C226.434 30.5072 226.16 30.7529 225.806 30.9189L227.183 33.9414L227.183 34L226.221 34L224.956 31.124ZM223.706 30.3574L224.79 30.3574C225.164 30.3574 225.462 30.237 225.684 29.9961C225.908 29.7552 226.021 29.4329 226.021 29.0293C226.021 28.1178 225.607 27.6621 224.78 27.6621L223.706 27.6621L223.706 30.3574ZM231.436 32.1445L229.033 32.1445L228.481 34L227.563 34L229.854 26.8906L230.62 26.8906L232.915 34L231.997 34L231.436 32.1445ZM229.268 31.373L231.206 31.373L230.234 28.1406L229.268 31.373ZM237.402 27.6621L235.532 27.6621L235.532 34L234.639 34L234.639 27.6621L232.773 27.6621L232.773 26.8906L237.402 26.8906L237.402 27.6621ZM239.385 34L238.491 34L238.491 26.8906L239.385 26.8906L239.385 34ZM245.596 34L244.697 34L241.851 28.5215L241.851 34L240.952 34L240.952 26.8906L241.851 26.8906L244.707 32.3935L244.707 26.8906L245.596 26.8906L245.596 34ZM251.592 33.1162L251.436 33.3115C250.986 33.8356 250.329 34.0976 249.463 34.0976C248.695 34.0976 248.091 33.8437 247.651 33.3359C247.215 32.8249 246.992 32.1038 246.982 31.1728L246.982 29.7764C246.982 28.7803 247.181 28.0348 247.578 27.54C247.979 27.042 248.576 26.793 249.37 26.793C250.047 26.793 250.576 26.9818 250.957 27.3594C251.341 27.737 251.553 28.2757 251.592 28.9756L250.698 28.9756C250.662 28.5329 250.539 28.1878 250.327 27.9404C250.119 27.6898 249.801 27.5644 249.375 27.5644C248.864 27.5644 248.49 27.7321 248.252 28.0674C248.014 28.3994 247.891 28.9316 247.881 29.6641L247.881 31.1142C247.881 31.8304 248.018 32.3805 248.291 32.7646C248.564 33.1455 248.957 33.3359 249.468 33.3359C249.95 33.3359 250.316 33.2187 250.566 32.9844L250.698 32.8623L250.698 31.2217L249.399 31.2217L249.399 30.46L251.592 30.46L251.592 33.1162Z" fill="#808080"/>
<path d="M12.042 3.24978L12.042 1L0.999714 1L0.999714 3.24978L12.042 3.24978Z" stroke="white" stroke-width="0.5" stroke-miterlimit="10"/>
</svg>
