<svg width="298" height="115" viewBox="0 0 298 115" fill="none" xmlns="http://www.w3.org/2000/svg">
<path d="M19.3562 13.4297L28.727 24.1248H20.634L8.28156 10.0608H19.8804V4.59879H7.23308V24.1248H0.286874V1.22998H26.63V13.4297H19.3562Z" fill="#E50017" style="mix-blend-mode:screen"/>
<path d="M35.1344 24.1248L29.5643 17.8124V1.22998H55.5798V24.1248H35.1344ZM36.4122 4.59879V16.3406L40.3113 20.756H48.7319V4.59879H36.4122Z" fill="#E50017" style="mix-blend-mode:screen"/>
<path d="M78.1076 11.6635H84.9555V24.1248H58.8417V1.22998H85.9712L83.0551 4.59879H65.8207V20.756H78.1076V11.6635Z" fill="#E50017" style="mix-blend-mode:screen"/>
<path d="M19.0067 76.2796C18.0129 77.4133 16.9659 78.3168 15.8656 78.99C14.7653 79.6632 13.523 79.9998 12.1388 79.9998C10.3641 79.9998 8.73138 79.7694 7.24066 79.3089C5.74993 78.8483 4.47217 78.1219 3.40737 77.1299C2.34257 76.1024 1.50847 74.7738 0.905082 73.144C0.301694 71.5142 0 69.5124 0 67.1385V53.427C0 51.0532 0.301694 49.0513 0.905082 47.4215C1.50847 45.7918 2.34257 44.4808 3.40737 43.4888C4.47217 42.4613 5.74993 41.7173 7.24066 41.2567C8.73138 40.7961 10.3641 40.5658 12.1388 40.5658C15.9011 40.5658 18.776 41.6464 20.7637 43.8077C22.7513 45.9335 23.8161 49.1931 23.9581 53.5864H16.6109C16.6109 51.1063 16.2027 49.4056 15.3864 48.4845C14.57 47.5278 13.4875 47.0495 12.1388 47.0495C10.648 47.0495 9.47675 47.4215 8.6249 48.1656C7.77306 48.9096 7.34714 50.3445 7.34714 52.4704V68.0951C7.34714 70.221 7.77306 71.6559 8.6249 72.3999C9.47675 73.144 10.648 73.516 12.1388 73.516C13.523 73.516 14.6055 73.0554 15.3864 72.1342C16.2027 71.1776 16.6109 69.8667 16.6109 68.2014V65.863H11.4466V59.8045H23.9581V79.4683H20.1248L19.0067 76.2796Z" fill="#E50017" style="mix-blend-mode:screen"/>
<path d="M38.1021 64.9064H45.396L41.8289 49.3879H41.7224L38.1021 64.9064ZM27.6137 79.4683L37.1437 41.0972H46.5672L55.831 79.4683H48.8033L46.9399 71.3902H36.771L34.6947 79.4683H27.6137Z" fill="#E50017" style="mix-blend-mode:screen"/>
<path d="M60.2321 79.4683V41.0972H70.5074L77.1624 66.2882H77.2689L83.9239 41.0972H94.1993V79.4683H87.9169V49.2816H87.8104L79.9842 79.4683H74.4472L66.6209 49.2816H66.5144V79.4683H60.2321Z" fill="#E50017" style="mix-blend-mode:screen"/>
<path d="M101.244 79.4683V41.0972H121.369V47.581H108.591V56.4031H118.334V62.8869H108.591V72.9845H121.901V79.4683H101.244Z" fill="#E50017" style="mix-blend-mode:screen"/>
<path d="M135.211 57.7849H138.991C140.624 57.7849 141.902 57.3775 142.825 56.5626C143.747 55.7122 144.209 54.3482 144.209 52.4704C144.209 50.5926 143.747 49.2462 142.825 48.4313C141.902 47.581 140.624 47.1558 138.991 47.1558H135.211V57.7849ZM145.114 79.4683L138.725 63.8435H135.211V79.4683H127.864V41.0972H138.512C142.949 41.0972 146.232 42.107 148.362 44.1265C150.491 46.1106 151.556 48.9273 151.556 52.5767C151.556 54.9859 151.095 57.0232 150.172 58.6884C149.284 60.3536 147.811 61.576 145.753 62.3554L152.993 79.4683H145.114Z" fill="#E50017" style="mix-blend-mode:screen"/>
<path d="M178.974 68.0951C178.974 70.221 179.4 71.6559 180.252 72.3999C181.103 73.144 182.275 73.516 183.765 73.516C185.256 73.516 186.427 73.144 187.279 72.3999C188.131 71.6559 188.557 70.221 188.557 68.0951V65.5442H195.904V67.1385C195.904 69.5124 195.602 71.5142 194.999 73.144C194.396 74.7738 193.562 76.1024 192.497 77.1299C191.432 78.1219 190.154 78.8483 188.663 79.3089C187.173 79.7694 185.54 79.9998 183.765 79.9998C181.991 79.9998 180.358 79.7694 178.867 79.3089C177.377 78.8483 176.099 78.1219 175.034 77.1299C173.969 76.1024 173.135 74.7738 172.532 73.144C171.928 71.5142 171.627 69.5124 171.627 67.1385V53.427C171.627 51.0532 171.928 49.0513 172.532 47.4215C173.135 45.7918 173.969 44.4808 175.034 43.4888C176.099 42.4613 177.377 41.7173 178.867 41.2567C180.358 40.7961 181.991 40.5658 183.765 40.5658C185.54 40.5658 187.173 40.7961 188.663 41.2567C190.154 41.7173 191.432 42.4613 192.497 43.4888C193.562 44.4808 194.396 45.7918 194.999 47.4215C195.602 49.0513 195.904 51.0532 195.904 53.427V53.5333H188.557V52.4704C188.557 50.3445 188.131 48.9096 187.279 48.1656C186.427 47.4215 185.256 47.0495 183.765 47.0495C182.275 47.0495 181.103 47.4215 180.252 48.1656C179.4 48.9096 178.974 50.3445 178.974 52.4704V68.0951Z" fill="#E50017" style="mix-blend-mode:screen"/>
<path d="M209.729 64.9064H217.023L213.455 49.3879H213.349L209.729 64.9064ZM199.24 79.4683L208.77 41.0972H218.194L227.458 79.4683H220.43L218.567 71.3902H208.398L206.321 79.4683H199.24Z" fill="#E50017" style="mix-blend-mode:screen"/>
<path d="M238.78 57.7849H242.56C244.193 57.7849 245.47 57.3775 246.393 56.5626C247.316 55.7122 247.777 54.3482 247.777 52.4704C247.777 50.5926 247.316 49.2462 246.393 48.4313C245.47 47.581 244.193 47.1558 242.56 47.1558H238.78V57.7849ZM248.683 79.4683L242.294 63.8435H238.78V79.4683H231.433V41.0972H242.081C246.517 41.0972 249.801 42.107 251.93 44.1265C254.06 46.1106 255.125 48.9273 255.125 52.5767C255.125 54.9859 254.663 57.0232 253.74 58.6884C252.853 60.3536 251.38 61.576 249.321 62.3554L256.562 79.4683H248.683Z" fill="#E50017" style="mix-blend-mode:screen"/>
<path d="M268.364 72.9845H270.919C272.942 72.9845 274.504 72.4354 275.604 71.337C276.74 70.2033 277.308 68.2014 277.308 65.3316V55.2339C277.308 52.5058 276.811 50.5571 275.817 49.3879C274.859 48.1833 273.226 47.581 270.919 47.581H268.364V72.9845ZM261.016 41.0972H271.239C273.333 41.0972 275.196 41.3452 276.829 41.8413C278.461 42.3019 279.846 43.0636 280.981 44.1265C282.117 45.1894 282.987 46.5712 283.59 48.2719C284.229 49.9371 284.584 51.9743 284.655 54.3836V66.1819C284.584 68.5912 284.229 70.6461 283.59 72.3468C282.987 74.012 282.117 75.3761 280.981 76.439C279.846 77.5019 278.461 78.2814 276.829 78.7774C275.196 79.238 273.333 79.4683 271.239 79.4683H261.016V41.0972Z" fill="#E50017" style="mix-blend-mode:screen"/>
<path d="M3.83008 108.467H9.40625V110H2.0332V95.7812H3.83008V108.467ZM10.9395 104.229C10.9395 102.692 11.3105 101.478 12.0527 100.586C12.8014 99.6875 13.7878 99.2383 15.0117 99.2383C16.2357 99.2383 17.2188 99.6745 17.9609 100.547C18.7096 101.419 19.0938 102.607 19.1133 104.111V105.225C19.1133 106.755 18.7422 107.965 18 108.857C17.2578 109.749 16.2682 110.195 15.0312 110.195C13.8073 110.195 12.8242 109.762 12.082 108.896C11.3464 108.031 10.9655 106.859 10.9395 105.381V104.229ZM12.668 105.225C12.668 106.312 12.8796 107.168 13.3027 107.793C13.7324 108.411 14.3086 108.721 15.0312 108.721C16.5547 108.721 17.3392 107.62 17.3848 105.42V104.229C17.3848 103.148 17.1699 102.295 16.7402 101.67C16.3105 101.038 15.7344 100.723 15.0117 100.723C14.3021 100.723 13.7324 101.038 13.3027 101.67C12.8796 102.295 12.668 103.145 12.668 104.219V105.225ZM22.9707 99.4336L23.0195 100.576C23.6901 99.6842 24.5462 99.2383 25.5879 99.2383C27.4564 99.2383 28.4036 100.485 28.4297 102.979V110H26.7109V103.057C26.7109 102.23 26.571 101.644 26.291 101.299C26.0176 100.947 25.6042 100.771 25.0508 100.771C24.6211 100.771 24.2337 100.915 23.8887 101.201C23.5501 101.488 23.2767 101.862 23.0684 102.324V110H21.3398V99.4336H22.9707ZM30.6855 104.238C30.6855 102.591 30.985 101.348 31.584 100.508C32.1829 99.6615 33.0586 99.2383 34.2109 99.2383C35.2852 99.2383 36.1022 99.6973 36.6621 100.615L36.75 99.4336H38.3125V110.098C38.3125 111.406 37.9772 112.409 37.3066 113.105C36.6361 113.809 35.7018 114.16 34.5039 114.16C33.9831 114.16 33.3971 114.03 32.7461 113.77C32.1016 113.516 31.6165 113.2 31.291 112.822L31.9941 111.631C32.7103 112.334 33.5013 112.686 34.3672 112.686C35.806 112.686 36.5449 111.901 36.584 110.332V108.955C36.0241 109.782 35.2298 110.195 34.2012 110.195C33.1074 110.195 32.2546 109.785 31.6426 108.965C31.0306 108.138 30.7116 106.953 30.6855 105.41V104.238ZM32.4141 105.225C32.4141 106.41 32.5866 107.282 32.9316 107.842C33.2832 108.395 33.8561 108.672 34.6504 108.672C35.5098 108.672 36.1543 108.232 36.584 107.354V102.07C36.1348 101.204 35.4967 100.771 34.6699 100.771C33.8757 100.771 33.3027 101.051 32.9512 101.611C32.5996 102.165 32.4206 103.018 32.4141 104.17V105.225ZM53.1172 105.225C53.1172 106.898 52.8145 108.145 52.209 108.965C51.61 109.785 50.7604 110.195 49.6602 110.195C48.599 110.195 47.7819 109.795 47.209 108.994V114.062H45.4902V99.4336H47.0527L47.1406 100.605C47.7201 99.694 48.5501 99.2383 49.6309 99.2383C50.7897 99.2383 51.6556 99.6419 52.2285 100.449C52.8014 101.257 53.0977 102.464 53.1172 104.072V105.225ZM51.3984 104.238C51.3984 103.053 51.2161 102.181 50.8516 101.621C50.487 101.055 49.901 100.771 49.0938 100.771C48.2669 100.771 47.6387 101.185 47.209 102.012V107.51C47.6322 108.317 48.2669 108.721 49.1133 108.721C49.8945 108.721 50.4674 108.441 50.832 107.881C51.2031 107.314 51.3919 106.452 51.3984 105.293V104.238ZM59.709 101.055C59.4681 101.009 59.2077 100.986 58.9277 100.986C58.0423 100.986 57.4238 101.471 57.0723 102.441V110H55.3438V99.4336H57.0234L57.0527 100.508C57.515 99.6615 58.1693 99.2383 59.0156 99.2383C59.2891 99.2383 59.5169 99.2839 59.6992 99.375L59.709 101.055ZM65.0215 110.195C63.7064 110.195 62.6973 109.805 61.9941 109.023C61.291 108.236 60.9329 107.083 60.9199 105.566V104.287C60.9199 102.712 61.2617 101.478 61.9453 100.586C62.6354 99.6875 63.5957 99.2383 64.8262 99.2383C66.0632 99.2383 66.9876 99.6322 67.5996 100.42C68.2116 101.208 68.5241 102.435 68.5371 104.102V105.234H62.6387V105.479C62.6387 106.611 62.8503 107.435 63.2734 107.949C63.7031 108.464 64.3184 108.721 65.1191 108.721C65.627 108.721 66.0729 108.626 66.457 108.438C66.8477 108.242 67.2122 107.936 67.5508 107.52L68.4492 108.613C67.7005 109.668 66.5579 110.195 65.0215 110.195ZM64.8262 100.723C64.11 100.723 63.5794 100.97 63.2344 101.465C62.8893 101.953 62.694 102.715 62.6484 103.75H66.8086V103.516C66.763 102.513 66.5807 101.797 66.2617 101.367C65.9492 100.938 65.4707 100.723 64.8262 100.723ZM75.7539 107.295C75.7539 106.924 75.6139 106.605 75.334 106.338C75.054 106.071 74.5137 105.758 73.7129 105.4C72.7819 105.016 72.1243 104.688 71.7402 104.414C71.3626 104.141 71.0794 103.831 70.8906 103.486C70.7018 103.135 70.6074 102.718 70.6074 102.236C70.6074 101.377 70.9199 100.664 71.5449 100.098C72.1764 99.5247 72.9805 99.2383 73.957 99.2383C74.9857 99.2383 75.8125 99.5378 76.4375 100.137C77.0625 100.736 77.375 101.504 77.375 102.441H75.6562C75.6562 101.966 75.4967 101.562 75.1777 101.23C74.8587 100.892 74.4518 100.723 73.957 100.723C73.4492 100.723 73.0488 100.856 72.7559 101.123C72.4694 101.383 72.3262 101.735 72.3262 102.178C72.3262 102.529 72.4303 102.812 72.6387 103.027C72.8535 103.242 73.3646 103.525 74.1719 103.877C75.4544 104.378 76.3268 104.87 76.7891 105.352C77.2513 105.827 77.4824 106.432 77.4824 107.168C77.4824 108.086 77.1667 108.822 76.5352 109.375C75.9036 109.922 75.0573 110.195 73.9961 110.195C72.8958 110.195 72.0039 109.88 71.3203 109.248C70.6367 108.617 70.2949 107.816 70.2949 106.846H72.0332C72.0527 107.432 72.2318 107.891 72.5703 108.223C72.9089 108.555 73.3841 108.721 73.9961 108.721C74.569 108.721 75.0052 108.594 75.3047 108.34C75.6042 108.079 75.7539 107.731 75.7539 107.295ZM84.875 107.295C84.875 106.924 84.735 106.605 84.4551 106.338C84.1751 106.071 83.6348 105.758 82.834 105.4C81.903 105.016 81.2454 104.688 80.8613 104.414C80.4837 104.141 80.2005 103.831 80.0117 103.486C79.8229 103.135 79.7285 102.718 79.7285 102.236C79.7285 101.377 80.041 100.664 80.666 100.098C81.2975 99.5247 82.1016 99.2383 83.0781 99.2383C84.1068 99.2383 84.9336 99.5378 85.5586 100.137C86.1836 100.736 86.4961 101.504 86.4961 102.441H84.7773C84.7773 101.966 84.6178 101.562 84.2988 101.23C83.9798 100.892 83.5729 100.723 83.0781 100.723C82.5703 100.723 82.1699 100.856 81.877 101.123C81.5905 101.383 81.4473 101.735 81.4473 102.178C81.4473 102.529 81.5514 102.812 81.7598 103.027C81.9746 103.242 82.4857 103.525 83.293 103.877C84.5755 104.378 85.4479 104.87 85.9102 105.352C86.3724 105.827 86.6035 106.432 86.6035 107.168C86.6035 108.086 86.2878 108.822 85.6562 109.375C85.0247 109.922 84.1784 110.195 83.1172 110.195C82.0169 110.195 81.125 109.88 80.4414 109.248C79.7578 108.617 79.416 107.816 79.416 106.846H81.1543C81.1738 107.432 81.3529 107.891 81.6914 108.223C82.0299 108.555 82.5052 108.721 83.1172 108.721C83.6901 108.721 84.1263 108.594 84.4258 108.34C84.7253 108.079 84.875 107.731 84.875 107.295ZM95.7148 96.875V99.4336H97.3066V100.83H95.7148V107.383C95.7148 107.799 95.7832 108.115 95.9199 108.33C96.0566 108.545 96.291 108.652 96.623 108.652C96.8509 108.652 97.082 108.613 97.3164 108.535L97.2969 110C96.9062 110.13 96.5059 110.195 96.0957 110.195C95.4121 110.195 94.8913 109.951 94.5332 109.463C94.1751 108.975 93.9961 108.285 93.9961 107.393V100.83H92.3848V99.4336H93.9961V96.875H95.7148ZM101.096 100.518C101.753 99.6647 102.593 99.2383 103.615 99.2383C105.484 99.2383 106.431 100.485 106.457 102.979V110H104.738V103.057C104.738 102.23 104.598 101.644 104.318 101.299C104.045 100.947 103.632 100.771 103.078 100.771C102.648 100.771 102.261 100.915 101.916 101.201C101.577 101.488 101.304 101.862 101.096 102.324V110H99.3672V95H101.096V100.518ZM112.814 110.195C111.499 110.195 110.49 109.805 109.787 109.023C109.084 108.236 108.726 107.083 108.713 105.566V104.287C108.713 102.712 109.055 101.478 109.738 100.586C110.428 99.6875 111.389 99.2383 112.619 99.2383C113.856 99.2383 114.781 99.6322 115.393 100.42C116.005 101.208 116.317 102.435 116.33 104.102V105.234H110.432V105.479C110.432 106.611 110.643 107.435 111.066 107.949C111.496 108.464 112.111 108.721 112.912 108.721C113.42 108.721 113.866 108.626 114.25 108.438C114.641 108.242 115.005 107.936 115.344 107.52L116.242 108.613C115.493 109.668 114.351 110.195 112.814 110.195ZM112.619 100.723C111.903 100.723 111.372 100.97 111.027 101.465C110.682 101.953 110.487 102.715 110.441 103.75H114.602V103.516C114.556 102.513 114.374 101.797 114.055 101.367C113.742 100.938 113.264 100.723 112.619 100.723ZM124.865 110H123.137V99.4336H124.865V110ZM125.002 96.6309C125.002 96.9238 124.921 97.168 124.758 97.3633C124.595 97.5586 124.348 97.6562 124.016 97.6562C123.69 97.6562 123.446 97.5586 123.283 97.3633C123.12 97.168 123.039 96.9238 123.039 96.6309C123.039 96.3379 123.12 96.0905 123.283 95.8887C123.446 95.6868 123.69 95.5859 124.016 95.5859C124.341 95.5859 124.585 95.6901 124.748 95.8984C124.917 96.1003 125.002 96.3444 125.002 96.6309ZM129.221 99.4336L129.26 100.41C129.904 99.6289 130.754 99.2383 131.809 99.2383C132.987 99.2383 133.811 99.7493 134.279 100.771C134.943 99.7493 135.868 99.2383 137.053 99.2383C138.999 99.2383 139.995 100.452 140.041 102.881V110H138.322V103.047C138.322 102.279 138.186 101.709 137.912 101.338C137.639 100.96 137.176 100.771 136.525 100.771C136.005 100.771 135.581 100.973 135.256 101.377C134.93 101.781 134.742 102.295 134.689 102.92V110H132.951V102.969C132.932 101.504 132.336 100.771 131.164 100.771C130.292 100.771 129.676 101.208 129.318 102.08V110H127.6V99.4336H129.221ZM148.088 110C147.984 109.772 147.909 109.388 147.863 108.848C147.251 109.746 146.47 110.195 145.52 110.195C144.562 110.195 143.814 109.928 143.273 109.395C142.74 108.854 142.473 108.096 142.473 107.119C142.473 106.045 142.837 105.192 143.566 104.561C144.296 103.929 145.295 103.607 146.564 103.594H147.834V102.471C147.834 101.839 147.694 101.39 147.414 101.123C147.134 100.856 146.708 100.723 146.135 100.723C145.614 100.723 145.191 100.879 144.865 101.191C144.54 101.497 144.377 101.888 144.377 102.363H142.648C142.648 101.823 142.808 101.309 143.127 100.82C143.446 100.326 143.876 99.9382 144.416 99.6582C144.956 99.3783 145.559 99.2383 146.223 99.2383C147.303 99.2383 148.124 99.5085 148.684 100.049C149.25 100.583 149.54 101.364 149.553 102.393V107.725C149.559 108.538 149.67 109.245 149.885 109.844V110H148.088ZM145.783 108.623C146.206 108.623 146.61 108.506 146.994 108.271C147.378 108.037 147.658 107.744 147.834 107.393V104.873H146.857C146.037 104.886 145.389 105.072 144.914 105.43C144.439 105.781 144.201 106.276 144.201 106.914C144.201 107.513 144.322 107.949 144.562 108.223C144.803 108.49 145.21 108.623 145.783 108.623ZM151.896 104.238C151.896 102.591 152.196 101.348 152.795 100.508C153.394 99.6615 154.27 99.2383 155.422 99.2383C156.496 99.2383 157.313 99.6973 157.873 100.615L157.961 99.4336H159.523V110.098C159.523 111.406 159.188 112.409 158.518 113.105C157.847 113.809 156.913 114.16 155.715 114.16C155.194 114.16 154.608 114.03 153.957 113.77C153.312 113.516 152.827 113.2 152.502 112.822L153.205 111.631C153.921 112.334 154.712 112.686 155.578 112.686C157.017 112.686 157.756 111.901 157.795 110.332V108.955C157.235 109.782 156.441 110.195 155.412 110.195C154.318 110.195 153.465 109.785 152.854 108.965C152.242 108.138 151.923 106.953 151.896 105.41V104.238ZM153.625 105.225C153.625 106.41 153.798 107.282 154.143 107.842C154.494 108.395 155.067 108.672 155.861 108.672C156.721 108.672 157.365 108.232 157.795 107.354V102.07C157.346 101.204 156.708 100.771 155.881 100.771C155.087 100.771 154.514 101.051 154.162 101.611C153.811 102.165 153.632 103.018 153.625 104.17V105.225ZM165.881 110.195C164.566 110.195 163.557 109.805 162.854 109.023C162.15 108.236 161.792 107.083 161.779 105.566V104.287C161.779 102.712 162.121 101.478 162.805 100.586C163.495 99.6875 164.455 99.2383 165.686 99.2383C166.923 99.2383 167.847 99.6322 168.459 100.42C169.071 101.208 169.383 102.435 169.396 104.102V105.234H163.498V105.479C163.498 106.611 163.71 107.435 164.133 107.949C164.562 108.464 165.178 108.721 165.979 108.721C166.486 108.721 166.932 108.626 167.316 108.438C167.707 108.242 168.072 107.936 168.41 107.52L169.309 108.613C168.56 109.668 167.417 110.195 165.881 110.195ZM165.686 100.723C164.969 100.723 164.439 100.97 164.094 101.465C163.749 101.953 163.553 102.715 163.508 103.75H167.668V103.516C167.622 102.513 167.44 101.797 167.121 101.367C166.809 100.938 166.33 100.723 165.686 100.723ZM178.332 96.875V99.4336H179.924V100.83H178.332V107.383C178.332 107.799 178.4 108.115 178.537 108.33C178.674 108.545 178.908 108.652 179.24 108.652C179.468 108.652 179.699 108.613 179.934 108.535L179.914 110C179.523 110.13 179.123 110.195 178.713 110.195C178.029 110.195 177.508 109.951 177.15 109.463C176.792 108.975 176.613 108.285 176.613 107.393V100.83H175.002V99.4336H176.613V96.875H178.332ZM181.428 104.229C181.428 102.692 181.799 101.478 182.541 100.586C183.29 99.6875 184.276 99.2383 185.5 99.2383C186.724 99.2383 187.707 99.6745 188.449 100.547C189.198 101.419 189.582 102.607 189.602 104.111V105.225C189.602 106.755 189.23 107.965 188.488 108.857C187.746 109.749 186.757 110.195 185.52 110.195C184.296 110.195 183.312 109.762 182.57 108.896C181.835 108.031 181.454 106.859 181.428 105.381V104.229ZM183.156 105.225C183.156 106.312 183.368 107.168 183.791 107.793C184.221 108.411 184.797 108.721 185.52 108.721C187.043 108.721 187.827 107.62 187.873 105.42V104.229C187.873 103.148 187.658 102.295 187.229 101.67C186.799 101.038 186.223 100.723 185.5 100.723C184.79 100.723 184.221 101.038 183.791 101.67C183.368 102.295 183.156 103.145 183.156 104.219V105.225ZM196.057 104.238C196.057 102.611 196.359 101.37 196.965 100.518C197.577 99.6647 198.452 99.2383 199.592 99.2383C200.601 99.2383 201.389 99.6484 201.955 100.469V95H203.684V110H202.102L202.014 108.867C201.447 109.753 200.637 110.195 199.582 110.195C198.488 110.195 197.629 109.772 197.004 108.926C196.385 108.073 196.07 106.872 196.057 105.322V104.238ZM197.785 105.225C197.785 106.41 197.961 107.282 198.312 107.842C198.664 108.395 199.237 108.672 200.031 108.672C200.891 108.672 201.532 108.239 201.955 107.373V102.041C201.512 101.195 200.874 100.771 200.041 100.771C199.247 100.771 198.674 101.051 198.322 101.611C197.971 102.165 197.792 103.018 197.785 104.17V105.225ZM205.979 104.229C205.979 102.692 206.35 101.478 207.092 100.586C207.84 99.6875 208.827 99.2383 210.051 99.2383C211.275 99.2383 212.258 99.6745 213 100.547C213.749 101.419 214.133 102.607 214.152 104.111V105.225C214.152 106.755 213.781 107.965 213.039 108.857C212.297 109.749 211.307 110.195 210.07 110.195C208.846 110.195 207.863 109.762 207.121 108.896C206.385 108.031 206.005 106.859 205.979 105.381V104.229ZM207.707 105.225C207.707 106.312 207.919 107.168 208.342 107.793C208.771 108.411 209.348 108.721 210.07 108.721C211.594 108.721 212.378 107.62 212.424 105.42V104.229C212.424 103.148 212.209 102.295 211.779 101.67C211.35 101.038 210.773 100.723 210.051 100.723C209.341 100.723 208.771 101.038 208.342 101.67C207.919 102.295 207.707 103.145 207.707 104.219V105.225ZM224.26 106.963L225.861 99.4336H227.57L224.982 110H223.605L221.545 102.441L219.533 110H218.146L215.578 99.4336H217.277L218.918 106.777L220.881 99.4336H222.248L224.26 106.963ZM231.018 99.4336L231.066 100.576C231.737 99.6842 232.593 99.2383 233.635 99.2383C235.503 99.2383 236.451 100.485 236.477 102.979V110H234.758V103.057C234.758 102.23 234.618 101.644 234.338 101.299C234.064 100.947 233.651 100.771 233.098 100.771C232.668 100.771 232.281 100.915 231.936 101.201C231.597 101.488 231.324 101.862 231.115 102.324V110H229.387V99.4336H231.018ZM240.939 110H239.211V95H240.939V110ZM243.303 104.229C243.303 102.692 243.674 101.478 244.416 100.586C245.165 99.6875 246.151 99.2383 247.375 99.2383C248.599 99.2383 249.582 99.6745 250.324 100.547C251.073 101.419 251.457 102.607 251.477 104.111V105.225C251.477 106.755 251.105 107.965 250.363 108.857C249.621 109.749 248.632 110.195 247.395 110.195C246.171 110.195 245.188 109.762 244.445 108.896C243.71 108.031 243.329 106.859 243.303 105.381V104.229ZM245.031 105.225C245.031 106.312 245.243 107.168 245.666 107.793C246.096 108.411 246.672 108.721 247.395 108.721C248.918 108.721 249.702 107.62 249.748 105.42V104.229C249.748 103.148 249.533 102.295 249.104 101.67C248.674 101.038 248.098 100.723 247.375 100.723C246.665 100.723 246.096 101.038 245.666 101.67C245.243 102.295 245.031 103.145 245.031 104.219V105.225ZM259.143 110C259.038 109.772 258.964 109.388 258.918 108.848C258.306 109.746 257.525 110.195 256.574 110.195C255.617 110.195 254.868 109.928 254.328 109.395C253.794 108.854 253.527 108.096 253.527 107.119C253.527 106.045 253.892 105.192 254.621 104.561C255.35 103.929 256.35 103.607 257.619 103.594H258.889V102.471C258.889 101.839 258.749 101.39 258.469 101.123C258.189 100.856 257.762 100.723 257.189 100.723C256.669 100.723 256.245 100.879 255.92 101.191C255.594 101.497 255.432 101.888 255.432 102.363H253.703C253.703 101.823 253.863 101.309 254.182 100.82C254.501 100.326 254.93 99.9382 255.471 99.6582C256.011 99.3783 256.613 99.2383 257.277 99.2383C258.358 99.2383 259.178 99.5085 259.738 100.049C260.305 100.583 260.594 101.364 260.607 102.393V107.725C260.614 108.538 260.725 109.245 260.939 109.844V110H259.143ZM256.838 108.623C257.261 108.623 257.665 108.506 258.049 108.271C258.433 108.037 258.713 107.744 258.889 107.393V104.873H257.912C257.092 104.886 256.444 105.072 255.969 105.43C255.493 105.781 255.256 106.276 255.256 106.914C255.256 107.513 255.376 107.949 255.617 108.223C255.858 108.49 256.265 108.623 256.838 108.623ZM262.932 104.238C262.932 102.611 263.234 101.37 263.84 100.518C264.452 99.6647 265.327 99.2383 266.467 99.2383C267.476 99.2383 268.264 99.6484 268.83 100.469V95H270.559V110H268.977L268.889 108.867C268.322 109.753 267.512 110.195 266.457 110.195C265.363 110.195 264.504 109.772 263.879 108.926C263.26 108.073 262.945 106.872 262.932 105.322V104.238ZM264.66 105.225C264.66 106.41 264.836 107.282 265.188 107.842C265.539 108.395 266.112 108.672 266.906 108.672C267.766 108.672 268.407 108.239 268.83 107.373V102.041C268.387 101.195 267.749 100.771 266.916 100.771C266.122 100.771 265.549 101.051 265.197 101.611C264.846 102.165 264.667 103.018 264.66 104.17V105.225ZM273.332 109.053C273.332 108.74 273.423 108.48 273.605 108.271C273.794 108.063 274.074 107.959 274.445 107.959C274.816 107.959 275.096 108.063 275.285 108.271C275.48 108.48 275.578 108.74 275.578 109.053C275.578 109.352 275.48 109.603 275.285 109.805C275.096 110.007 274.816 110.107 274.445 110.107C274.074 110.107 273.794 110.007 273.605 109.805C273.423 109.603 273.332 109.352 273.332 109.053Z" fill="#999999"/>
</svg>
