<svg width="382" height="106" viewBox="0 0 382 106" fill="none" xmlns="http://www.w3.org/2000/svg">
<path d="M18.2012 19.3063L25.8048 28H19.238L9.21503 16.5679H18.6265V12.128H8.36427V28H2.728V9.38966H24.1033V19.3063H18.2012ZM31.0039 28L26.4842 22.8689V9.38966H47.5937V28H31.0039ZM32.0407 12.128V21.6725L35.2045 25.2616H42.0372V12.128H32.0407ZM65.8731 17.8707H71.4297V28H50.2405V9.38966H72.2538L69.8877 12.128H55.9033V25.2616H65.8731V17.8707Z" fill="#E50017"/>
<path d="M21.8592 50.9184H15.8976V49.8816C15.8688 48.5568 15.5808 47.52 15.0336 46.7712C14.5152 46.0224 13.5072 45.648 12.0096 45.648C10.6272 45.648 9.6336 46.008 9.0288 46.728C8.424 47.448 8.1216 48.4992 8.1216 49.8816V62.928C8.1216 64.3392 8.424 65.4048 9.0288 66.1248C9.6336 66.816 10.6272 67.1616 12.0096 67.1616C13.6224 67.1616 14.6736 66.744 15.1632 65.9088C15.6528 65.0736 15.8976 63.936 15.8976 62.496V60.6816H21.8592V62.064C21.8592 65.376 21.0528 67.9392 19.44 69.7536C17.856 71.5392 15.3792 72.432 12.0096 72.432C8.7264 72.432 6.264 71.5536 4.6224 69.7968C2.9808 68.0112 2.16 65.4768 2.16 62.1936V50.616C2.16 47.304 2.9808 44.7696 4.6224 43.0128C6.264 41.256 8.7264 40.3776 12.0096 40.3776C18.576 40.3776 21.8592 43.8912 21.8592 50.9184ZM41.7599 72L40.2479 65.4336H31.9967L30.3119 72H24.5663L32.2991 40.8096H39.9455L47.4623 72H41.7599ZM38.9951 60.1632L36.1007 47.5488H36.0143L33.0767 60.1632H38.9951ZM69.9118 50.1408C69.9118 54.2592 68.3422 56.9088 65.203 58.0896L71.0782 72H64.6846L59.5006 59.2992H56.6494V72H50.6878V40.8096H59.4574C62.7118 40.8096 65.2606 41.5872 67.1038 43.1424C68.9758 44.6688 69.9118 47.0016 69.9118 50.1408ZM63.9502 50.0544C63.9502 48.6432 63.5902 47.5776 62.8702 46.8576C62.179 46.1088 61.1566 45.7344 59.803 45.7344H56.6494V54.3744H59.8462C61.171 54.3744 62.179 54.0144 62.8702 53.2944C63.5902 52.5456 63.9502 51.4656 63.9502 50.0544ZM85.7949 46.08V72H79.8333V46.08H72.8781V40.8096H92.7501V46.08H85.7949ZM109.766 72L108.254 65.4336H100.003L98.3181 72H92.5725L100.305 40.8096H107.952L115.469 72H109.766ZM107.001 60.1632L104.107 47.5488H104.021L101.083 60.1632H107.001ZM149.898 51.912V60.8976C149.898 68.2992 146.341 72 139.228 72H130.717V40.8096H139.228C146.341 40.8096 149.898 44.5104 149.898 51.912ZM143.937 60.6816V52.0848C143.937 50.0112 143.533 48.4992 142.727 47.5488C141.921 46.5696 140.596 46.08 138.753 46.08H136.679V66.7296H138.537C140.524 66.7296 141.921 66.2256 142.727 65.2176C143.533 64.2096 143.937 62.6976 143.937 60.6816ZM160.684 46.08V53.2512H168.589V58.5216H160.684V66.7296H171.484V72H154.722V40.8096H171.052V46.08H160.684ZM188.95 72.432C188.058 72.432 187.107 72.3888 186.099 72.3024V67.032C186.819 67.1184 187.41 67.1616 187.87 67.1616C189.051 67.1616 189.872 66.96 190.333 66.5568C190.822 66.1248 191.067 65.376 191.067 64.3104V40.8096H197.029V65.3904C197.029 67.6656 196.294 69.408 194.826 70.6176C193.386 71.8272 191.427 72.432 188.95 72.432ZM213.229 67.1616C216.052 67.1616 217.463 65.7072 217.463 62.7984V40.8096H223.424V62.8848C223.424 65.9376 222.56 68.2992 220.832 69.9696C219.104 71.6112 216.57 72.432 213.229 72.432C209.917 72.432 207.397 71.5968 205.669 69.9264C203.941 68.256 203.077 65.9088 203.077 62.8848V40.8096H209.039V62.7984C209.039 65.7072 210.436 67.1616 213.229 67.1616ZM248.062 50.9616H242.101V50.832C242.101 47.376 240.877 45.648 238.429 45.648C237.018 45.648 236.024 46.0224 235.448 46.7712C234.872 47.4912 234.584 48.5568 234.584 49.968V62.928C234.584 64.3104 234.886 65.3616 235.491 66.0816C236.096 66.8016 237.075 67.1616 238.429 67.1616C239.581 67.1616 240.474 66.7728 241.107 65.9952C241.77 65.2176 242.101 64.1376 242.101 62.7552V60.9408H237.91V56.016H248.062V72H244.952L244.045 69.408C243.181 70.3872 242.288 71.136 241.366 71.6544C240.474 72.1728 239.451 72.432 238.299 72.432C235.102 72.432 232.683 71.5536 231.042 69.7968C229.429 68.0112 228.622 65.4624 228.622 62.1504V50.7888C228.622 43.848 231.906 40.3776 238.472 40.3776C241.525 40.3776 243.858 41.2704 245.47 43.056C247.083 44.8128 247.947 47.448 248.062 50.9616ZM268.222 72L266.71 65.4336H258.459L256.774 72H251.029L258.762 40.8096H266.408L273.925 72H268.222ZM265.458 60.1632L262.563 47.5488H262.477L259.539 60.1632H265.458ZM296.331 51.912V60.8976C296.331 68.2992 292.774 72 285.661 72H277.15V40.8096H285.661C292.774 40.8096 296.331 44.5104 296.331 51.912ZM290.369 60.6816V52.0848C290.369 50.0112 289.966 48.4992 289.16 47.5488C288.353 46.5696 287.029 46.08 285.185 46.08H283.112V66.7296H284.969C286.957 66.7296 288.353 66.2256 289.16 65.2176C289.966 64.2096 290.369 62.6976 290.369 60.6816ZM320.336 50.616V62.1936C320.336 65.4768 319.515 68.0112 317.873 69.7968C316.232 71.5536 313.769 72.432 310.486 72.432C307.203 72.432 304.741 71.5536 303.099 69.7968C301.457 68.0112 300.637 65.4768 300.637 62.1936V50.616C300.637 47.3328 301.457 44.8128 303.099 43.056C304.769 41.2704 307.232 40.3776 310.486 40.3776C313.856 40.3776 316.333 41.2848 317.917 43.0992C319.529 44.9136 320.336 47.4192 320.336 50.616ZM310.486 67.1616C311.869 67.1616 312.862 66.816 313.467 66.1248C314.072 65.4048 314.374 64.3392 314.374 62.928V49.8816C314.374 48.4992 314.072 47.448 313.467 46.728C312.862 46.008 311.854 45.648 310.443 45.648C309.089 45.648 308.11 46.008 307.505 46.728C306.901 47.448 306.598 48.4992 306.598 49.8816V62.928C306.598 64.3392 306.901 65.4048 307.505 66.1248C308.11 66.816 309.104 67.1616 310.486 67.1616ZM344.384 50.1408C344.384 54.2592 342.814 56.9088 339.675 58.0896L345.55 72H339.156L333.972 59.2992H331.121V72H325.16V40.8096H333.929C337.184 40.8096 339.732 41.5872 341.576 43.1424C343.448 44.6688 344.384 47.0016 344.384 50.1408ZM338.422 50.0544C338.422 48.6432 338.062 47.5776 337.342 46.8576C336.651 46.1088 335.628 45.7344 334.275 45.7344H331.121V54.3744H334.318C335.643 54.3744 336.651 54.0144 337.342 53.2944C338.062 52.5456 338.422 51.4656 338.422 50.0544Z" fill="#E50017"/>
<path d="M5.83789 86.7812L9.54883 98.3828L13.2598 86.7812H15.5645V101H13.7773V95.4629L13.9434 89.916L10.2227 101H8.85547L5.1543 89.9551L5.32031 95.4629V101H3.5332V86.7812H5.83789ZM23.8457 101C23.7415 100.772 23.6667 100.388 23.6211 99.8477C23.0091 100.746 22.2279 101.195 21.2773 101.195C20.3203 101.195 19.5716 100.928 19.0312 100.395C18.4974 99.8542 18.2305 99.0957 18.2305 98.1191C18.2305 97.0449 18.5951 96.1921 19.3242 95.5605C20.0534 94.929 21.0527 94.6068 22.3223 94.5938H23.5918V93.4707C23.5918 92.8392 23.4518 92.39 23.1719 92.123C22.8919 91.8561 22.4655 91.7227 21.8926 91.7227C21.3717 91.7227 20.9486 91.8789 20.623 92.1914C20.2975 92.4974 20.1348 92.888 20.1348 93.3633H18.4062C18.4062 92.8229 18.5658 92.3086 18.8848 91.8203C19.2038 91.3255 19.6335 90.9382 20.1738 90.6582C20.7142 90.3783 21.3164 90.2383 21.9805 90.2383C23.0612 90.2383 23.8815 90.5085 24.4414 91.0488C25.0078 91.5827 25.2975 92.3639 25.3105 93.3926V98.7246C25.3171 99.5384 25.4277 100.245 25.6426 100.844V101H23.8457ZM21.541 99.623C21.9642 99.623 22.3678 99.5059 22.752 99.2715C23.1361 99.0371 23.416 98.7441 23.5918 98.3926V95.873H22.6152C21.7949 95.8861 21.1471 96.0716 20.6719 96.4297C20.1966 96.7812 19.959 97.276 19.959 97.9141C19.959 98.513 20.0794 98.9492 20.3203 99.2227C20.5612 99.4896 20.9681 99.623 21.541 99.623ZM29.627 90.4336L29.6758 91.5762C30.3464 90.6842 31.2025 90.2383 32.2441 90.2383C34.1126 90.2383 35.0599 91.485 35.0859 93.9785V101H33.3672V94.0566C33.3672 93.2298 33.2272 92.6439 32.9473 92.2988C32.6738 91.9473 32.2604 91.7715 31.707 91.7715C31.2773 91.7715 30.89 91.9147 30.5449 92.2012C30.2064 92.4876 29.9329 92.862 29.7246 93.3242V101H27.9961V90.4336H29.627ZM39.9492 87.875V90.4336H41.541V91.8301H39.9492V98.3828C39.9492 98.7995 40.0176 99.1152 40.1543 99.3301C40.291 99.5449 40.5254 99.6523 40.8574 99.6523C41.0853 99.6523 41.3164 99.6133 41.5508 99.5352L41.5312 101C41.1406 101.13 40.7402 101.195 40.3301 101.195C39.6465 101.195 39.1257 100.951 38.7676 100.463C38.4095 99.9746 38.2305 99.2845 38.2305 98.3926V91.8301H36.6191V90.4336H38.2305V87.875H39.9492ZM47.3809 101.195C46.0658 101.195 45.0566 100.805 44.3535 100.023C43.6504 99.2357 43.2923 98.0833 43.2793 96.5664V95.2871C43.2793 93.7116 43.6211 92.4779 44.3047 91.5859C44.9948 90.6875 45.9551 90.2383 47.1855 90.2383C48.4225 90.2383 49.347 90.6322 49.959 91.4199C50.571 92.2077 50.8835 93.4349 50.8965 95.1016V96.2344H44.998V96.4785C44.998 97.6113 45.2096 98.4349 45.6328 98.9492C46.0625 99.4635 46.6777 99.7207 47.4785 99.7207C47.9863 99.7207 48.4323 99.6263 48.8164 99.4375C49.207 99.2422 49.5716 98.9362 49.9102 98.5195L50.8086 99.6133C50.0599 100.668 48.9173 101.195 47.3809 101.195ZM47.1855 91.7227C46.4694 91.7227 45.9388 91.9701 45.5938 92.4648C45.2487 92.9531 45.0534 93.7148 45.0078 94.75H49.168V94.5156C49.1224 93.513 48.9401 92.7969 48.6211 92.3672C48.3086 91.9375 47.8301 91.7227 47.1855 91.7227ZM48.0254 86H50.2129L47.5957 88.8711H46.1406L48.0254 86ZM54.6074 90.4336L54.6562 91.5762C55.3268 90.6842 56.1829 90.2383 57.2246 90.2383C59.0931 90.2383 60.0404 91.485 60.0664 93.9785V101H58.3477V94.0566C58.3477 93.2298 58.2077 92.6439 57.9277 92.2988C57.6543 91.9473 57.2409 91.7715 56.6875 91.7715C56.2578 91.7715 55.8704 91.9147 55.5254 92.2012C55.1868 92.4876 54.9134 92.862 54.7051 93.3242V101H52.9766V90.4336H54.6074ZM74.8906 96.2246C74.8906 97.8978 74.5879 99.1445 73.9824 99.9648C73.3835 100.785 72.5339 101.195 71.4336 101.195C70.3724 101.195 69.5553 100.795 68.9824 99.9941V105.062H67.2637V90.4336H68.8262L68.9141 91.6055C69.4935 90.694 70.3236 90.2383 71.4043 90.2383C72.5632 90.2383 73.429 90.6419 74.002 91.4492C74.5749 92.2565 74.8711 93.4642 74.8906 95.0723V96.2246ZM73.1719 95.2383C73.1719 94.0534 72.9896 93.181 72.625 92.6211C72.2604 92.0547 71.6745 91.7715 70.8672 91.7715C70.0404 91.7715 69.4121 92.1849 68.9824 93.0117V98.5098C69.4056 99.3171 70.0404 99.7207 70.8867 99.7207C71.668 99.7207 72.2409 99.4408 72.6055 98.8809C72.9766 98.3145 73.1654 97.4518 73.1719 96.293V95.2383ZM81.4824 92.0547C81.2415 92.0091 80.9811 91.9863 80.7012 91.9863C79.8158 91.9863 79.1973 92.4714 78.8457 93.4414V101H77.1172V90.4336H78.7969L78.8262 91.5078C79.2884 90.6615 79.9427 90.2383 80.7891 90.2383C81.0625 90.2383 81.2904 90.2839 81.4727 90.375L81.4824 92.0547ZM86.7949 101.195C85.4798 101.195 84.4707 100.805 83.7676 100.023C83.0645 99.2357 82.7064 98.0833 82.6934 96.5664V95.2871C82.6934 93.7116 83.0352 92.4779 83.7188 91.5859C84.4089 90.6875 85.3691 90.2383 86.5996 90.2383C87.8366 90.2383 88.7611 90.6322 89.373 91.4199C89.985 92.2077 90.2975 93.4349 90.3105 95.1016V96.2344H84.4121V96.4785C84.4121 97.6113 84.6237 98.4349 85.0469 98.9492C85.4766 99.4635 86.0918 99.7207 86.8926 99.7207C87.4004 99.7207 87.8464 99.6263 88.2305 99.4375C88.6211 99.2422 88.9857 98.9362 89.3242 98.5195L90.2227 99.6133C89.474 100.668 88.3314 101.195 86.7949 101.195ZM86.5996 91.7227C85.8835 91.7227 85.3529 91.9701 85.0078 92.4648C84.6628 92.9531 84.4674 93.7148 84.4219 94.75H88.582V94.5156C88.5365 93.513 88.3542 92.7969 88.0352 92.3672C87.7227 91.9375 87.2441 91.7227 86.5996 91.7227ZM97.5273 98.2949C97.5273 97.9238 97.3874 97.6048 97.1074 97.3379C96.8275 97.071 96.2871 96.7585 95.4863 96.4004C94.5553 96.0163 93.8978 95.6875 93.5137 95.4141C93.1361 95.1406 92.8529 94.8314 92.6641 94.4863C92.4753 94.1348 92.3809 93.7181 92.3809 93.2363C92.3809 92.377 92.6934 91.6641 93.3184 91.0977C93.9499 90.5247 94.7539 90.2383 95.7305 90.2383C96.7591 90.2383 97.5859 90.5378 98.2109 91.1367C98.8359 91.7357 99.1484 92.5039 99.1484 93.4414H97.4297C97.4297 92.9661 97.2702 92.5625 96.9512 92.2305C96.6322 91.8919 96.2253 91.7227 95.7305 91.7227C95.2227 91.7227 94.8223 91.8561 94.5293 92.123C94.2428 92.3835 94.0996 92.735 94.0996 93.1777C94.0996 93.5293 94.2038 93.8125 94.4121 94.0273C94.627 94.2422 95.138 94.5254 95.9453 94.877C97.2279 95.3783 98.1003 95.8698 98.5625 96.3516C99.0247 96.8268 99.2559 97.4323 99.2559 98.168C99.2559 99.0859 98.9401 99.8216 98.3086 100.375C97.6771 100.922 96.8307 101.195 95.7695 101.195C94.6693 101.195 93.7773 100.88 93.0938 100.248C92.4102 99.6165 92.0684 98.8158 92.0684 97.8457H93.8066C93.8262 98.4316 94.0052 98.8906 94.3438 99.2227C94.6823 99.5547 95.1576 99.7207 95.7695 99.7207C96.3424 99.7207 96.7786 99.5938 97.0781 99.3398C97.3776 99.0794 97.5273 98.7311 97.5273 98.2949ZM103.377 101H101.648V90.4336H103.377V101ZM103.514 87.6309C103.514 87.9238 103.432 88.168 103.27 88.3633C103.107 88.5586 102.859 88.6562 102.527 88.6562C102.202 88.6562 101.958 88.5586 101.795 88.3633C101.632 88.168 101.551 87.9238 101.551 87.6309C101.551 87.3379 101.632 87.0905 101.795 86.8887C101.958 86.6868 102.202 86.5859 102.527 86.5859C102.853 86.5859 103.097 86.6901 103.26 86.8984C103.429 87.1003 103.514 87.3444 103.514 87.6309ZM105.74 95.2285C105.74 93.6921 106.111 92.4779 106.854 91.5859C107.602 90.6875 108.589 90.2383 109.812 90.2383C111.036 90.2383 112.02 90.6745 112.762 91.5469C113.51 92.4193 113.895 93.6074 113.914 95.1113V96.2246C113.914 97.7546 113.543 98.9655 112.801 99.8574C112.059 100.749 111.069 101.195 109.832 101.195C108.608 101.195 107.625 100.762 106.883 99.8965C106.147 99.0306 105.766 97.8587 105.74 96.3809V95.2285ZM107.469 96.2246C107.469 97.3118 107.68 98.168 108.104 98.793C108.533 99.4115 109.109 99.7207 109.832 99.7207C111.355 99.7207 112.14 98.6204 112.186 96.4199V95.2285C112.186 94.1478 111.971 93.2949 111.541 92.6699C111.111 92.0384 110.535 91.7227 109.812 91.7227C109.103 91.7227 108.533 92.0384 108.104 92.6699C107.68 93.2949 107.469 94.1445 107.469 95.2188V96.2246ZM117.771 90.4336L117.82 91.5762C118.491 90.6842 119.347 90.2383 120.389 90.2383C122.257 90.2383 123.204 91.485 123.23 93.9785V101H121.512V94.0566C121.512 93.2298 121.372 92.6439 121.092 92.2988C120.818 91.9473 120.405 91.7715 119.852 91.7715C119.422 91.7715 119.035 91.9147 118.689 92.2012C118.351 92.4876 118.077 92.862 117.869 93.3242V101H116.141V90.4336H117.771ZM131.268 101C131.163 100.772 131.089 100.388 131.043 99.8477C130.431 100.746 129.65 101.195 128.699 101.195C127.742 101.195 126.993 100.928 126.453 100.395C125.919 99.8542 125.652 99.0957 125.652 98.1191C125.652 97.0449 126.017 96.1921 126.746 95.5605C127.475 94.929 128.475 94.6068 129.744 94.5938H131.014V93.4707C131.014 92.8392 130.874 92.39 130.594 92.123C130.314 91.8561 129.887 91.7227 129.314 91.7227C128.794 91.7227 128.37 91.8789 128.045 92.1914C127.719 92.4974 127.557 92.888 127.557 93.3633H125.828C125.828 92.8229 125.988 92.3086 126.307 91.8203C126.626 91.3255 127.055 90.9382 127.596 90.6582C128.136 90.3783 128.738 90.2383 129.402 90.2383C130.483 90.2383 131.303 90.5085 131.863 91.0488C132.43 91.5827 132.719 92.3639 132.732 93.3926V98.7246C132.739 99.5384 132.85 100.245 133.064 100.844V101H131.268ZM128.963 99.623C129.386 99.623 129.79 99.5059 130.174 99.2715C130.558 99.0371 130.838 98.7441 131.014 98.3926V95.873H130.037C129.217 95.8861 128.569 96.0716 128.094 96.4297C127.618 96.7812 127.381 97.276 127.381 97.9141C127.381 98.513 127.501 98.9492 127.742 99.2227C127.983 99.4896 128.39 99.623 128.963 99.623ZM135.057 95.2383C135.057 93.6107 135.359 92.3704 135.965 91.5176C136.577 90.6647 137.452 90.2383 138.592 90.2383C139.601 90.2383 140.389 90.6484 140.955 91.4688V86H142.684V101H141.102L141.014 99.8672C140.447 100.753 139.637 101.195 138.582 101.195C137.488 101.195 136.629 100.772 136.004 99.9258C135.385 99.0729 135.07 97.8717 135.057 96.3223V95.2383ZM136.785 96.2246C136.785 97.4095 136.961 98.2819 137.312 98.8418C137.664 99.3952 138.237 99.6719 139.031 99.6719C139.891 99.6719 140.532 99.2389 140.955 98.373V93.041C140.512 92.1947 139.874 91.7715 139.041 91.7715C138.247 91.7715 137.674 92.0514 137.322 92.6113C136.971 93.1647 136.792 94.0176 136.785 95.1699V96.2246ZM150.779 101C150.675 100.772 150.6 100.388 150.555 99.8477C149.943 100.746 149.161 101.195 148.211 101.195C147.254 101.195 146.505 100.928 145.965 100.395C145.431 99.8542 145.164 99.0957 145.164 98.1191C145.164 97.0449 145.529 96.1921 146.258 95.5605C146.987 94.929 147.986 94.6068 149.256 94.5938H150.525V93.4707C150.525 92.8392 150.385 92.39 150.105 92.123C149.826 91.8561 149.399 91.7227 148.826 91.7227C148.305 91.7227 147.882 91.8789 147.557 92.1914C147.231 92.4974 147.068 92.888 147.068 93.3633H145.34C145.34 92.8229 145.499 92.3086 145.818 91.8203C146.137 91.3255 146.567 90.9382 147.107 90.6582C147.648 90.3783 148.25 90.2383 148.914 90.2383C149.995 90.2383 150.815 90.5085 151.375 91.0488C151.941 91.5827 152.231 92.3639 152.244 93.3926V98.7246C152.251 99.5384 152.361 100.245 152.576 100.844V101H150.779ZM148.475 99.623C148.898 99.623 149.301 99.5059 149.686 99.2715C150.07 99.0371 150.35 98.7441 150.525 98.3926V95.873H149.549C148.729 95.8861 148.081 96.0716 147.605 96.4297C147.13 96.7812 146.893 97.276 146.893 97.9141C146.893 98.513 147.013 98.9492 147.254 99.2227C147.495 99.4896 147.902 99.623 148.475 99.623ZM161.385 101H159.656V86H161.385V101ZM169.549 101C169.445 100.772 169.37 100.388 169.324 99.8477C168.712 100.746 167.931 101.195 166.98 101.195C166.023 101.195 165.275 100.928 164.734 100.395C164.201 99.8542 163.934 99.0957 163.934 98.1191C163.934 97.0449 164.298 96.1921 165.027 95.5605C165.757 94.929 166.756 94.6068 168.025 94.5938H169.295V93.4707C169.295 92.8392 169.155 92.39 168.875 92.123C168.595 91.8561 168.169 91.7227 167.596 91.7227C167.075 91.7227 166.652 91.8789 166.326 92.1914C166.001 92.4974 165.838 92.888 165.838 93.3633H164.109C164.109 92.8229 164.269 92.3086 164.588 91.8203C164.907 91.3255 165.337 90.9382 165.877 90.6582C166.417 90.3783 167.02 90.2383 167.684 90.2383C168.764 90.2383 169.585 90.5085 170.145 91.0488C170.711 91.5827 171.001 92.3639 171.014 93.3926V98.7246C171.02 99.5384 171.131 100.245 171.346 100.844V101H169.549ZM167.244 99.623C167.667 99.623 168.071 99.5059 168.455 99.2715C168.839 99.0371 169.119 98.7441 169.295 98.3926V95.873H168.318C167.498 95.8861 166.85 96.0716 166.375 96.4297C165.9 96.7812 165.662 97.276 165.662 97.9141C165.662 98.513 165.783 98.9492 166.023 99.2227C166.264 99.4896 166.671 99.623 167.244 99.623ZM180.154 101H178.426V90.4336H180.154V101ZM180.291 87.6309C180.291 87.9238 180.21 88.168 180.047 88.3633C179.884 88.5586 179.637 88.6562 179.305 88.6562C178.979 88.6562 178.735 88.5586 178.572 88.3633C178.41 88.168 178.328 87.9238 178.328 87.6309C178.328 87.3379 178.41 87.0905 178.572 86.8887C178.735 86.6868 178.979 86.5859 179.305 86.5859C179.63 86.5859 179.874 86.6901 180.037 86.8984C180.206 87.1003 180.291 87.3444 180.291 87.6309ZM184.51 90.4336L184.549 91.4102C185.193 90.6289 186.043 90.2383 187.098 90.2383C188.276 90.2383 189.1 90.7493 189.568 91.7715C190.232 90.7493 191.157 90.2383 192.342 90.2383C194.288 90.2383 195.285 91.4525 195.33 93.8809V101H193.611V94.0469C193.611 93.2786 193.475 92.709 193.201 92.3379C192.928 91.9603 192.465 91.7715 191.814 91.7715C191.294 91.7715 190.87 91.9733 190.545 92.377C190.219 92.7806 190.031 93.2949 189.979 93.9199V101H188.24V93.9688C188.221 92.5039 187.625 91.7715 186.453 91.7715C185.581 91.7715 184.965 92.2077 184.607 93.0801V101H182.889V90.4336H184.51ZM203.377 101C203.273 100.772 203.198 100.388 203.152 99.8477C202.54 100.746 201.759 101.195 200.809 101.195C199.852 101.195 199.103 100.928 198.562 100.395C198.029 99.8542 197.762 99.0957 197.762 98.1191C197.762 97.0449 198.126 96.1921 198.855 95.5605C199.585 94.929 200.584 94.6068 201.854 94.5938H203.123V93.4707C203.123 92.8392 202.983 92.39 202.703 92.123C202.423 91.8561 201.997 91.7227 201.424 91.7227C200.903 91.7227 200.48 91.8789 200.154 92.1914C199.829 92.4974 199.666 92.888 199.666 93.3633H197.938C197.938 92.8229 198.097 92.3086 198.416 91.8203C198.735 91.3255 199.165 90.9382 199.705 90.6582C200.245 90.3783 200.848 90.2383 201.512 90.2383C202.592 90.2383 203.413 90.5085 203.973 91.0488C204.539 91.5827 204.829 92.3639 204.842 93.3926V98.7246C204.848 99.5384 204.959 100.245 205.174 100.844V101H203.377ZM201.072 99.623C201.495 99.623 201.899 99.5059 202.283 99.2715C202.667 99.0371 202.947 98.7441 203.123 98.3926V95.873H202.146C201.326 95.8861 200.678 96.0716 200.203 96.4297C199.728 96.7812 199.49 97.276 199.49 97.9141C199.49 98.513 199.611 98.9492 199.852 99.2227C200.092 99.4896 200.499 99.623 201.072 99.623ZM207.186 95.2383C207.186 93.5911 207.485 92.3477 208.084 91.5078C208.683 90.6615 209.559 90.2383 210.711 90.2383C211.785 90.2383 212.602 90.6973 213.162 91.6152L213.25 90.4336H214.812V101.098C214.812 102.406 214.477 103.409 213.807 104.105C213.136 104.809 212.202 105.16 211.004 105.16C210.483 105.16 209.897 105.03 209.246 104.77C208.602 104.516 208.117 104.2 207.791 103.822L208.494 102.631C209.21 103.334 210.001 103.686 210.867 103.686C212.306 103.686 213.045 102.901 213.084 101.332V99.9551C212.524 100.782 211.73 101.195 210.701 101.195C209.607 101.195 208.755 100.785 208.143 99.9648C207.531 99.138 207.212 97.9531 207.186 96.4102V95.2383ZM208.914 96.2246C208.914 97.4095 209.087 98.2819 209.432 98.8418C209.783 99.3952 210.356 99.6719 211.15 99.6719C212.01 99.6719 212.654 99.2324 213.084 98.3535V93.0703C212.635 92.2044 211.997 91.7715 211.17 91.7715C210.376 91.7715 209.803 92.0514 209.451 92.6113C209.1 93.1647 208.921 94.0176 208.914 95.1699V96.2246ZM221.17 101.195C219.855 101.195 218.846 100.805 218.143 100.023C217.439 99.2357 217.081 98.0833 217.068 96.5664V95.2871C217.068 93.7116 217.41 92.4779 218.094 91.5859C218.784 90.6875 219.744 90.2383 220.975 90.2383C222.212 90.2383 223.136 90.6322 223.748 91.4199C224.36 92.2077 224.673 93.4349 224.686 95.1016V96.2344H218.787V96.4785C218.787 97.6113 218.999 98.4349 219.422 98.9492C219.852 99.4635 220.467 99.7207 221.268 99.7207C221.775 99.7207 222.221 99.6263 222.605 99.4375C222.996 99.2422 223.361 98.9362 223.699 98.5195L224.598 99.6133C223.849 100.668 222.706 101.195 221.17 101.195ZM220.975 91.7227C220.258 91.7227 219.728 91.9701 219.383 92.4648C219.038 92.9531 218.842 93.7148 218.797 94.75H222.957V94.5156C222.911 93.513 222.729 92.7969 222.41 92.3672C222.098 91.9375 221.619 91.7227 220.975 91.7227ZM228.396 90.4336L228.445 91.5762C229.116 90.6842 229.972 90.2383 231.014 90.2383C232.882 90.2383 233.829 91.485 233.855 93.9785V101H232.137V94.0566C232.137 93.2298 231.997 92.6439 231.717 92.2988C231.443 91.9473 231.03 91.7715 230.477 91.7715C230.047 91.7715 229.66 91.9147 229.314 92.2012C228.976 92.4876 228.702 92.862 228.494 93.3242V101H226.766V90.4336H228.396ZM248.68 96.2246C248.68 97.8978 248.377 99.1445 247.771 99.9648C247.173 100.785 246.323 101.195 245.223 101.195C244.161 101.195 243.344 100.795 242.771 99.9941V105.062H241.053V90.4336H242.615L242.703 91.6055C243.283 90.694 244.113 90.2383 245.193 90.2383C246.352 90.2383 247.218 90.6419 247.791 91.4492C248.364 92.2565 248.66 93.4642 248.68 95.0723V96.2246ZM246.961 95.2383C246.961 94.0534 246.779 93.181 246.414 92.6211C246.049 92.0547 245.464 91.7715 244.656 91.7715C243.829 91.7715 243.201 92.1849 242.771 93.0117V98.5098C243.195 99.3171 243.829 99.7207 244.676 99.7207C245.457 99.7207 246.03 99.4408 246.395 98.8809C246.766 98.3145 246.954 97.4518 246.961 96.293V95.2383ZM256.346 101C256.242 100.772 256.167 100.388 256.121 99.8477C255.509 100.746 254.728 101.195 253.777 101.195C252.82 101.195 252.072 100.928 251.531 100.395C250.997 99.8542 250.73 99.0957 250.73 98.1191C250.73 97.0449 251.095 96.1921 251.824 95.5605C252.553 94.929 253.553 94.6068 254.822 94.5938H256.092V93.4707C256.092 92.8392 255.952 92.39 255.672 92.123C255.392 91.8561 254.965 91.7227 254.393 91.7227C253.872 91.7227 253.449 91.8789 253.123 92.1914C252.798 92.4974 252.635 92.888 252.635 93.3633H250.906C250.906 92.8229 251.066 92.3086 251.385 91.8203C251.704 91.3255 252.133 90.9382 252.674 90.6582C253.214 90.3783 253.816 90.2383 254.48 90.2383C255.561 90.2383 256.382 90.5085 256.941 91.0488C257.508 91.5827 257.798 92.3639 257.811 93.3926V98.7246C257.817 99.5384 257.928 100.245 258.143 100.844V101H256.346ZM254.041 99.623C254.464 99.623 254.868 99.5059 255.252 99.2715C255.636 99.0371 255.916 98.7441 256.092 98.3926V95.873H255.115C254.295 95.8861 253.647 96.0716 253.172 96.4297C252.697 96.7812 252.459 97.276 252.459 97.9141C252.459 98.513 252.579 98.9492 252.82 99.2227C253.061 99.4896 253.468 99.623 254.041 99.623ZM264.861 92.0547C264.62 92.0091 264.36 91.9863 264.08 91.9863C263.195 91.9863 262.576 92.4714 262.225 93.4414V101H260.496V90.4336H262.176L262.205 91.5078C262.667 90.6615 263.322 90.2383 264.168 90.2383C264.441 90.2383 264.669 90.2839 264.852 90.375L264.861 92.0547ZM271.639 101C271.535 100.772 271.46 100.388 271.414 99.8477C270.802 100.746 270.021 101.195 269.07 101.195C268.113 101.195 267.365 100.928 266.824 100.395C266.29 99.8542 266.023 99.0957 266.023 98.1191C266.023 97.0449 266.388 96.1921 267.117 95.5605C267.846 94.929 268.846 94.6068 270.115 94.5938H271.385V93.4707C271.385 92.8392 271.245 92.39 270.965 92.123C270.685 91.8561 270.258 91.7227 269.686 91.7227C269.165 91.7227 268.742 91.8789 268.416 92.1914C268.09 92.4974 267.928 92.888 267.928 93.3633H266.199C266.199 92.8229 266.359 92.3086 266.678 91.8203C266.997 91.3255 267.426 90.9382 267.967 90.6582C268.507 90.3783 269.109 90.2383 269.773 90.2383C270.854 90.2383 271.674 90.5085 272.234 91.0488C272.801 91.5827 273.09 92.3639 273.104 93.3926V98.7246C273.11 99.5384 273.221 100.245 273.436 100.844V101H271.639ZM269.334 99.623C269.757 99.623 270.161 99.5059 270.545 99.2715C270.929 99.0371 271.209 98.7441 271.385 98.3926V95.873H270.408C269.588 95.8861 268.94 96.0716 268.465 96.4297C267.99 96.7812 267.752 97.276 267.752 97.9141C267.752 98.513 267.872 98.9492 268.113 99.2227C268.354 99.4896 268.761 99.623 269.334 99.623ZM280.018 95.2383C280.018 93.6107 280.32 92.3704 280.926 91.5176C281.538 90.6647 282.413 90.2383 283.553 90.2383C284.562 90.2383 285.35 90.6484 285.916 91.4688V86H287.645V101H286.062L285.975 99.8672C285.408 100.753 284.598 101.195 283.543 101.195C282.449 101.195 281.59 100.772 280.965 99.9258C280.346 99.0729 280.031 97.8717 280.018 96.3223V95.2383ZM281.746 96.2246C281.746 97.4095 281.922 98.2819 282.273 98.8418C282.625 99.3952 283.198 99.6719 283.992 99.6719C284.852 99.6719 285.493 99.2389 285.916 98.373V93.041C285.473 92.1947 284.835 91.7715 284.002 91.7715C283.208 91.7715 282.635 92.0514 282.283 92.6113C281.932 93.1647 281.753 94.0176 281.746 95.1699V96.2246ZM294.08 101.195C292.765 101.195 291.756 100.805 291.053 100.023C290.35 99.2357 289.992 98.0833 289.979 96.5664V95.2871C289.979 93.7116 290.32 92.4779 291.004 91.5859C291.694 90.6875 292.654 90.2383 293.885 90.2383C295.122 90.2383 296.046 90.6322 296.658 91.4199C297.27 92.2077 297.583 93.4349 297.596 95.1016V96.2344H291.697V96.4785C291.697 97.6113 291.909 98.4349 292.332 98.9492C292.762 99.4635 293.377 99.7207 294.178 99.7207C294.686 99.7207 295.132 99.6263 295.516 99.4375C295.906 99.2422 296.271 98.9362 296.609 98.5195L297.508 99.6133C296.759 100.668 295.617 101.195 294.08 101.195ZM293.885 91.7227C293.169 91.7227 292.638 91.9701 292.293 92.4648C291.948 92.9531 291.753 93.7148 291.707 94.75H295.867V94.5156C295.822 93.513 295.639 92.7969 295.32 92.3672C295.008 91.9375 294.529 91.7227 293.885 91.7227ZM304.812 98.2949C304.812 97.9238 304.673 97.6048 304.393 97.3379C304.113 97.071 303.572 96.7585 302.771 96.4004C301.84 96.0163 301.183 95.6875 300.799 95.4141C300.421 95.1406 300.138 94.8314 299.949 94.4863C299.76 94.1348 299.666 93.7181 299.666 93.2363C299.666 92.377 299.979 91.6641 300.604 91.0977C301.235 90.5247 302.039 90.2383 303.016 90.2383C304.044 90.2383 304.871 90.5378 305.496 91.1367C306.121 91.7357 306.434 92.5039 306.434 93.4414H304.715C304.715 92.9661 304.555 92.5625 304.236 92.2305C303.917 91.8919 303.51 91.7227 303.016 91.7227C302.508 91.7227 302.107 91.8561 301.814 92.123C301.528 92.3835 301.385 92.735 301.385 93.1777C301.385 93.5293 301.489 93.8125 301.697 94.0273C301.912 94.2422 302.423 94.5254 303.23 94.877C304.513 95.3783 305.385 95.8698 305.848 96.3516C306.31 96.8268 306.541 97.4323 306.541 98.168C306.541 99.0859 306.225 99.8216 305.594 100.375C304.962 100.922 304.116 101.195 303.055 101.195C301.954 101.195 301.062 100.88 300.379 100.248C299.695 99.6165 299.354 98.8158 299.354 97.8457H301.092C301.111 98.4316 301.29 98.8906 301.629 99.2227C301.967 99.5547 302.443 99.7207 303.055 99.7207C303.628 99.7207 304.064 99.5938 304.363 99.3398C304.663 99.0794 304.812 98.7311 304.812 98.2949ZM312.469 99.7207C313.042 99.7207 313.501 99.5449 313.846 99.1934C314.191 98.8353 314.38 98.3275 314.412 97.6699H316.043C316.004 98.6855 315.643 99.5286 314.959 100.199C314.282 100.863 313.452 101.195 312.469 101.195C311.16 101.195 310.161 100.785 309.471 99.9648C308.787 99.138 308.445 97.9108 308.445 96.2832V95.1211C308.445 93.526 308.787 92.3151 309.471 91.4883C310.154 90.6549 311.15 90.2383 312.459 90.2383C313.54 90.2383 314.396 90.5801 315.027 91.2637C315.665 91.9473 316.004 92.8815 316.043 94.0664H314.412C314.373 93.2852 314.184 92.6992 313.846 92.3086C313.514 91.918 313.051 91.7227 312.459 91.7227C311.691 91.7227 311.121 91.9766 310.75 92.4844C310.379 92.9857 310.187 93.8125 310.174 94.9648V96.3125C310.174 97.556 310.356 98.4349 310.721 98.9492C311.092 99.4635 311.674 99.7207 312.469 99.7207ZM323.475 101C323.37 100.772 323.296 100.388 323.25 99.8477C322.638 100.746 321.857 101.195 320.906 101.195C319.949 101.195 319.201 100.928 318.66 100.395C318.126 99.8542 317.859 99.0957 317.859 98.1191C317.859 97.0449 318.224 96.1921 318.953 95.5605C319.682 94.929 320.682 94.6068 321.951 94.5938H323.221V93.4707C323.221 92.8392 323.081 92.39 322.801 92.123C322.521 91.8561 322.094 91.7227 321.521 91.7227C321.001 91.7227 320.577 91.8789 320.252 92.1914C319.926 92.4974 319.764 92.888 319.764 93.3633H318.035C318.035 92.8229 318.195 92.3086 318.514 91.8203C318.833 91.3255 319.262 90.9382 319.803 90.6582C320.343 90.3783 320.945 90.2383 321.609 90.2383C322.69 90.2383 323.51 90.5085 324.07 91.0488C324.637 91.5827 324.926 92.3639 324.939 93.3926V98.7246C324.946 99.5384 325.057 100.245 325.271 100.844V101H323.475ZM321.17 99.623C321.593 99.623 321.997 99.5059 322.381 99.2715C322.765 99.0371 323.045 98.7441 323.221 98.3926V95.873H322.244C321.424 95.8861 320.776 96.0716 320.301 96.4297C319.826 96.7812 319.588 97.276 319.588 97.9141C319.588 98.513 319.708 98.9492 319.949 99.2227C320.19 99.4896 320.597 99.623 321.17 99.623ZM331.99 92.0547C331.749 92.0091 331.489 91.9863 331.209 91.9863C330.324 91.9863 329.705 92.4714 329.354 93.4414V101H327.625V90.4336H329.305L329.334 91.5078C329.796 90.6615 330.451 90.2383 331.297 90.2383C331.57 90.2383 331.798 90.2839 331.98 90.375L331.99 92.0547ZM333.182 95.2383C333.182 93.5911 333.481 92.3477 334.08 91.5078C334.679 90.6615 335.555 90.2383 336.707 90.2383C337.781 90.2383 338.598 90.6973 339.158 91.6152L339.246 90.4336H340.809V101.098C340.809 102.406 340.473 103.409 339.803 104.105C339.132 104.809 338.198 105.16 337 105.16C336.479 105.16 335.893 105.03 335.242 104.77C334.598 104.516 334.113 104.2 333.787 103.822L334.49 102.631C335.206 103.334 335.997 103.686 336.863 103.686C338.302 103.686 339.041 102.901 339.08 101.332V99.9551C338.52 100.782 337.726 101.195 336.697 101.195C335.604 101.195 334.751 100.785 334.139 99.9648C333.527 99.138 333.208 97.9531 333.182 96.4102V95.2383ZM334.91 96.2246C334.91 97.4095 335.083 98.2819 335.428 98.8418C335.779 99.3952 336.352 99.6719 337.146 99.6719C338.006 99.6719 338.65 99.2324 339.08 98.3535V93.0703C338.631 92.2044 337.993 91.7715 337.166 91.7715C336.372 91.7715 335.799 92.0514 335.447 92.6113C335.096 93.1647 334.917 94.0176 334.91 95.1699V96.2246ZM348.826 101C348.722 100.772 348.647 100.388 348.602 99.8477C347.99 100.746 347.208 101.195 346.258 101.195C345.301 101.195 344.552 100.928 344.012 100.395C343.478 99.8542 343.211 99.0957 343.211 98.1191C343.211 97.0449 343.576 96.1921 344.305 95.5605C345.034 94.929 346.033 94.6068 347.303 94.5938H348.572V93.4707C348.572 92.8392 348.432 92.39 348.152 92.123C347.872 91.8561 347.446 91.7227 346.873 91.7227C346.352 91.7227 345.929 91.8789 345.604 92.1914C345.278 92.4974 345.115 92.888 345.115 93.3633H343.387C343.387 92.8229 343.546 92.3086 343.865 91.8203C344.184 91.3255 344.614 90.9382 345.154 90.6582C345.695 90.3783 346.297 90.2383 346.961 90.2383C348.042 90.2383 348.862 90.5085 349.422 91.0488C349.988 91.5827 350.278 92.3639 350.291 93.3926V98.7246C350.298 99.5384 350.408 100.245 350.623 100.844V101H348.826ZM346.521 99.623C346.945 99.623 347.348 99.5059 347.732 99.2715C348.117 99.0371 348.396 98.7441 348.572 98.3926V95.873H347.596C346.775 95.8861 346.128 96.0716 345.652 96.4297C345.177 96.7812 344.939 97.276 344.939 97.9141C344.939 98.513 345.06 98.9492 345.301 99.2227C345.542 99.4896 345.949 99.623 346.521 99.623ZM357.342 92.0547C357.101 92.0091 356.84 91.9863 356.561 91.9863C355.675 91.9863 355.057 92.4714 354.705 93.4414V101H352.977V90.4336H354.656L354.686 91.5078C355.148 90.6615 355.802 90.2383 356.648 90.2383C356.922 90.2383 357.15 90.2839 357.332 90.375L357.342 92.0547ZM360.936 101H359.207V86H360.936V101ZM369.1 101C368.995 100.772 368.921 100.388 368.875 99.8477C368.263 100.746 367.482 101.195 366.531 101.195C365.574 101.195 364.826 100.928 364.285 100.395C363.751 99.8542 363.484 99.0957 363.484 98.1191C363.484 97.0449 363.849 96.1921 364.578 95.5605C365.307 94.929 366.307 94.6068 367.576 94.5938H368.846V93.4707C368.846 92.8392 368.706 92.39 368.426 92.123C368.146 91.8561 367.719 91.7227 367.146 91.7227C366.626 91.7227 366.202 91.8789 365.877 92.1914C365.551 92.4974 365.389 92.888 365.389 93.3633H363.66C363.66 92.8229 363.82 92.3086 364.139 91.8203C364.458 91.3255 364.887 90.9382 365.428 90.6582C365.968 90.3783 366.57 90.2383 367.234 90.2383C368.315 90.2383 369.135 90.5085 369.695 91.0488C370.262 91.5827 370.551 92.3639 370.564 93.3926V98.7246C370.571 99.5384 370.682 100.245 370.896 100.844V101H369.1ZM366.795 99.623C367.218 99.623 367.622 99.5059 368.006 99.2715C368.39 99.0371 368.67 98.7441 368.846 98.3926V95.873H367.869C367.049 95.8861 366.401 96.0716 365.926 96.4297C365.451 96.7812 365.213 97.276 365.213 97.9141C365.213 98.513 365.333 98.9492 365.574 99.2227C365.815 99.4896 366.222 99.623 366.795 99.623ZM373.367 100.053C373.367 99.7402 373.458 99.4798 373.641 99.2715C373.829 99.0632 374.109 98.959 374.48 98.959C374.852 98.959 375.132 99.0632 375.32 99.2715C375.516 99.4798 375.613 99.7402 375.613 100.053C375.613 100.352 375.516 100.603 375.32 100.805C375.132 101.007 374.852 101.107 374.48 101.107C374.109 101.107 373.829 101.007 373.641 100.805C373.458 100.603 373.367 100.352 373.367 100.053Z" fill="#999999"/>
</svg>
