<svg width="11" height="13" viewBox="0 0 11 13" fill="none" xmlns="http://www.w3.org/2000/svg">
<path d="M0.44 0.832C0.44 0.496 0.6 0.328 0.92 0.328C1.016 0.328 1.096 0.36 1.16 0.424L5.264 3.592L9.368 0.424C9.432 0.36 9.512 0.328 9.608 0.328C9.928 0.328 10.088 0.496 10.088 0.832C10.088 0.976 10.04 1.08 9.944 1.144L5.648 4.48C5.536 4.576 5.408 4.624 5.264 4.624C5.136 4.624 4.976 4.552 4.784 4.408L0.584 1.144C0.488 1.08 0.44 0.976 0.44 0.832ZM0.44 8.63669C0.44 8.30069 0.6 8.13269 0.92 8.13269C1.016 8.13269 1.096 8.16469 1.16 8.22869L5.264 11.3967L9.368 8.22869C9.432 8.16469 9.512 8.13269 9.608 8.13269C9.928 8.13269 10.088 8.30069 10.088 8.63669C10.088 8.78069 10.04 8.88469 9.944 8.94869L5.648 12.2847C5.536 12.3807 5.408 12.4287 5.264 12.4287C5.136 12.4287 4.976 12.3567 4.784 12.2127L0.584 8.94869C0.488 8.88469 0.44 8.78069 0.44 8.63669Z" fill="white"/>
</svg>
