<?xml version="1.0" encoding="UTF-8"?>
<svg id="_圖層_2" data-name="圖層 2" xmlns="http://www.w3.org/2000/svg" viewBox="0 0 77.33 35.94">
  <defs>
    <style>
      .cls-1 {
        fill: #fff;
      }

      .cls-2 {
        fill: #b3b3b3;
      }

      .cls-3 {
        fill: #333;
      }

      .cls-4 {
        fill: #1a1a1a;
      }

      .cls-5 {
        fill: gray;
      }

      .cls-6 {
        fill: #4d4d4d;
      }
    </style>
  </defs>
  <g id="Layer_2" data-name="Layer 2">
    <g>
      <g>
        <path class="cls-4" d="M71.99,1.39c.27,.16,.93,.61,1.66,1.24-.71-1.06-1.96-1.88-3.63-1.88h-4.65l-.4,.38c3.03-.04,6.53-.02,7.02,.26Z"/>
        <circle class="cls-3" cx="72.77" cy="7.27" r=".75"/>
        <circle class="cls-6" cx="69.81" cy="10.34" r=".75"/>
        <circle class="cls-6" cx="7.3" cy="7.27" r="1.72"/>
        <rect class="cls-3" x="17.46" y="5.95" width="42.47" height="24.45"/>
        <path class="cls-5" d="M5.7,2.05c-.51,.3-2.84,1.94-3.78,3.83-.04,.09-.09,.22-.13,.37,.2,1.19,2.89,16.73,4.56,21.22,1.57,4.22,5.14,6.63,5.69,6.98h3.23V1.94c-1.78-.04-3.62-.07-5.22-.07-2.28,0-4.05,.05-4.35,.18Zm8.08,15.7c0,1.89-1.54,3.42-3.42,3.42s-3.42-1.54-3.42-3.42,1.54-3.42,3.42-3.42,3.42,1.54,3.42,3.42Zm-2.26-10.47c0,2.26-1.84,4.11-4.11,4.11s-4.11-1.84-4.11-4.11S5.15,3.17,7.41,3.17s4.11,1.84,4.11,4.11Z"/>
        <path class="cls-5" d="M16.01,34.44H61.31V1.95H16.01V34.44Zm.69-29.23H60.68V31.15H16.71V5.2Z"/>
        <circle class="cls-3" cx="66.73" cy="7.27" r=".75"/>
        <path class="cls-2" d="M4.06,7.27c0,1.85,1.51,3.36,3.36,3.36s3.36-1.5,3.36-3.36-1.51-3.36-3.36-3.36-3.36,1.5-3.36,3.36Zm5.72,0c0,1.36-1.11,2.47-2.47,2.47s-2.47-1.11-2.47-2.47,1.11-2.47,2.47-2.47,2.47,1.11,2.47,2.47Z"/>
        <path class="cls-6" d="M69.81,5.15c.41,0,.75-.34,.75-.75s-.34-.75-.75-.75-.75,.34-.75,.75,.34,.75,.75,.75Z"/>
        <path class="cls-2" d="M67.76,14.39c-1.85,0-3.36,1.5-3.36,3.36s1.51,3.36,3.36,3.36,3.35-1.5,3.35-3.36-1.5-3.36-3.35-3.36Zm-.11,5.83c-1.36,0-2.47-1.11-2.47-2.47s1.11-2.47,2.47-2.47,2.47,1.11,2.47,2.47-1.11,2.47-2.47,2.47Z"/>
        <path class="cls-6" d="M5.64,27.73c-1.38-3.72-3.38-14.48-4.22-19.19-.57,5.29-.83,16.42-.59,19.11,.31,3.39,2.48,7.09,3.41,7.46,.7,.28,4.15-.12,6.68-.51-1.32-.98-3.96-3.28-5.29-6.86Z"/>
        <path class="cls-5" d="M71.04,27.46c1.63-4.37,4.21-19.21,4.54-21.09-.05-.22-.11-.39-.16-.5-.95-1.88-3.27-3.53-3.8-3.83-.5-.21-5.23-.21-9.55-.1V34.44h3.29c.57-.36,4.12-2.77,5.68-6.97Zm1.73-21.69c.83,0,1.5,.67,1.5,1.5s-.67,1.5-1.5,1.5-1.5-.67-1.5-1.5,.67-1.5,1.5-1.5Zm-2.96-2.87c.83,0,1.5,.67,1.5,1.5s-.67,1.5-1.5,1.5-1.5-.67-1.5-1.5,.67-1.5,1.5-1.5Zm0,5.94c.83,0,1.5,.67,1.5,1.5s-.67,1.5-1.5,1.5-1.5-.67-1.5-1.5,.67-1.5,1.5-1.5Zm-3.08-3.07c.83,0,1.5,.67,1.5,1.5s-.67,1.5-1.5,1.5-1.5-.67-1.5-1.5,.67-1.5,1.5-1.5Zm-3.08,11.97c0-2.26,1.84-4.11,4.11-4.11s4.1,1.84,4.1,4.11-1.84,4.11-4.1,4.11-4.11-1.84-4.11-4.11Z"/>
        <path class="cls-4" d="M12.35,1.13l-.4-.38H7.31c-1.67,0-2.92,.82-3.63,1.88,.73-.63,1.38-1.08,1.66-1.24,.48-.28,3.99-.3,7.02-.26Z"/>
        <path class="cls-6" d="M7.68,17.75c0,1.47,1.2,2.67,2.67,2.67s2.67-1.2,2.67-2.67-1.2-2.67-2.67-2.67-2.67,1.2-2.67,2.67Z"/>
        <path class="cls-6" d="M71.74,27.73c-1.34,3.59-3.98,5.9-5.3,6.87,2.56,.39,5.94,.78,6.64,.5,.94-.38,3.11-4.07,3.41-7.46,.24-2.66,0-13.55-.57-18.91-.86,4.81-2.82,15.33-4.18,19Z"/>
        <path class="cls-6" d="M67.65,16.02c-.95,0-1.72,.77-1.72,1.72s.77,1.72,1.72,1.72,1.72-.77,1.72-1.72-.77-1.72-1.72-1.72Z"/>
        <path class="cls-1" d="M4.83,7.27c0,1.36,1.11,2.47,2.47,2.47s2.47-1.11,2.47-2.47-1.11-2.47-2.47-2.47-2.47,1.11-2.47,2.47Zm4.2,0c0,.95-.77,1.72-1.72,1.72s-1.72-.77-1.72-1.72,.77-1.72,1.72-1.72,1.72,.77,1.72,1.72Z"/>
        <path class="cls-1" d="M6.93,17.75c0,1.89,1.54,3.42,3.42,3.42s3.42-1.54,3.42-3.42-1.54-3.42-3.42-3.42-3.42,1.54-3.42,3.42Zm6.1,0c0,1.47-1.2,2.67-2.67,2.67s-2.67-1.2-2.67-2.67,1.2-2.67,2.67-2.67,2.67,1.2,2.67,2.67Z"/>
        <path class="cls-1" d="M3.31,7.27c0,2.26,1.84,4.11,4.11,4.11s4.11-1.84,4.11-4.11-1.84-4.11-4.11-4.11S3.31,5.01,3.31,7.27Zm7.46,0c0,1.85-1.51,3.36-3.36,3.36s-3.36-1.5-3.36-3.36,1.51-3.36,3.36-3.36,3.36,1.5,3.36,3.36Z"/>
        <path class="cls-1" d="M67.65,15.27c-1.36,0-2.47,1.11-2.47,2.47s1.11,2.47,2.47,2.47,2.47-1.11,2.47-2.47-1.11-2.47-2.47-2.47Zm0,4.2c-.95,0-1.72-.77-1.72-1.72s.77-1.72,1.72-1.72,1.72,.77,1.72,1.72-.77,1.72-1.72,1.72Z"/>
        <path class="cls-1" d="M71.87,17.75c0-2.26-1.84-4.11-4.1-4.11s-4.11,1.84-4.11,4.11,1.84,4.11,4.11,4.11,4.1-1.84,4.1-4.11Zm-4.1,3.36c-1.85,0-3.36-1.5-3.36-3.36s1.51-3.36,3.36-3.36,3.35,1.5,3.35,3.36-1.5,3.36-3.35,3.36Z"/>
        <path class="cls-1" d="M76.35,6.3h-.03c-.07-.33-.15-.6-.23-.76-.28-.55-.66-1.08-1.08-1.56-.37-1.99-2.17-3.97-4.98-3.97h-4.95l-1.19,1.15c-.84,.02-1.61,.03-2.2,.05H15.65c-.6-.02-1.36-.03-2.2-.05l-1.19-1.15H7.31C4.49,0,2.69,1.98,2.32,3.97c-.42,.49-.8,1.01-1.08,1.56C.18,7.66-.19,24.64,.09,27.71c.3,3.36,2.51,7.54,3.88,8.09,.25,.1,.69,.14,1.24,.14,2.21,0,6.22-.67,6.72-.76H62.06s3.28,0,3.28,0c.55,.09,4.56,.76,6.78,.76,.55,0,.99-.04,1.23-.14,1.37-.55,3.57-4.73,3.88-8.09,.25-2.81-.03-17.29-.9-21.33,0-.03,.01-.06,.01-.08ZM7.31,.75h4.65l.4,.38c-3.03-.04-6.53-.02-7.02,.26-.27,.16-.93,.61-1.66,1.24,.71-1.06,1.96-1.88,3.63-1.88Zm-3.06,34.35c-.94-.38-3.11-4.07-3.41-7.46-.24-2.69,.01-13.82,.59-19.11,.84,4.71,2.83,15.48,4.22,19.19,1.33,3.58,3.97,5.88,5.29,6.86-2.53,.39-5.98,.8-6.68,.51Zm11.02-.67h-3.23c-.55-.35-4.12-2.75-5.69-6.97C4.67,22.98,1.99,7.44,1.79,6.25c.04-.15,.08-.29,.13-.37,.95-1.88,3.27-3.53,3.78-3.83,.3-.13,2.07-.18,4.35-.18,1.59,0,3.44,.03,5.22,.07V34.44Zm46.05,0H16.01V1.95H61.31V34.44ZM65.37,.75h4.65c1.67,0,2.92,.82,3.63,1.88-.73-.63-1.38-1.08-1.66-1.24-.48-.28-3.99-.3-7.02-.26l.4-.38Zm-3.31,33.69V1.94c4.32-.11,9.05-.1,9.55,.1,.52,.31,2.85,1.95,3.8,3.83,.06,.11,.11,.28,.16,.5-.32,1.88-2.91,16.72-4.54,21.09-1.56,4.2-5.12,6.61-5.68,6.97h-3.29Zm14.43-6.79c-.31,3.39-2.48,7.09-3.41,7.46-.7,.28-4.08-.11-6.64-.5,1.32-.98,3.97-3.28,5.3-6.87,1.36-3.67,3.32-14.19,4.18-19,.56,5.36,.81,16.25,.57,18.91Z"/>
        <path class="cls-1" d="M69.81,5.9c.83,0,1.5-.67,1.5-1.5s-.67-1.5-1.5-1.5-1.5,.67-1.5,1.5,.67,1.5,1.5,1.5Zm0-2.25c.41,0,.75,.34,.75,.75s-.34,.75-.75,.75-.75-.34-.75-.75,.34-.75,.75-.75Z"/>
        <path class="cls-1" d="M66.73,8.77c.83,0,1.5-.67,1.5-1.5s-.67-1.5-1.5-1.5-1.5,.67-1.5,1.5,.67,1.5,1.5,1.5Zm0-2.25c.41,0,.75,.34,.75,.75s-.34,.75-.75,.75-.75-.34-.75-.75,.34-.75,.75-.75Z"/>
        <path class="cls-1" d="M69.81,11.84c.83,0,1.5-.67,1.5-1.5s-.67-1.5-1.5-1.5-1.5,.67-1.5,1.5,.67,1.5,1.5,1.5Zm0-2.25c.41,0,.75,.34,.75,.75s-.34,.75-.75,.75-.75-.34-.75-.75,.34-.75,.75-.75Z"/>
        <path class="cls-1" d="M72.77,8.77c.83,0,1.5-.67,1.5-1.5s-.67-1.5-1.5-1.5-1.5,.67-1.5,1.5,.67,1.5,1.5,1.5Zm0-2.25c.41,0,.75,.34,.75,.75s-.34,.75-.75,.75-.75-.34-.75-.75,.34-.75,.75-.75Z"/>
        <path class="cls-1" d="M60.68,5.2H16.71V31.15H60.68V5.2Zm-.75,25.2H17.46V5.95H59.93V30.4Z"/>
      </g>
      <g>
        <path class="cls-1" d="M34.18,21.81c1.81,1.12,6.38,2.71,9.58,2.71,3.56,0,6.95-8.7,6.95-8.7-6.15,2.46-10.22,4.58-10.22,4.58l6.46-1.93s-2.03,4.52-4.38,4.52c-2.72,0-5.89-1.25-5.89-1.25,5.48-3.64,13.9-6.95,14.36-7.16,.45-.2,.83-.97,.83-1.32-.24,0-3.47,.35-6.64,1.89-4.76,2.32-11.06,6.66-11.06,6.66Z"/>
        <path class="cls-1" d="M27.15,20.26c.82,.8,3.72,1.56,3.72,1.56l-5.42-4.75s.89,2.39,1.7,3.19Z"/>
        <path class="cls-1" d="M35.52,19.52c3.44-2.59,6.48-4.71,9.51-6.26,2.85-1.46,4.47-1.85,5.68-2.31-.3,0-.95,0-1.65,0-2.06,0-5.12,.41-7.39,1.37-1.89,.8-7.44,6.32-7.8,6.66-.56,.53-.7,.64-1.5,.37-1.27-.4-3.25-1.49-3.25-1.49,0,0,2.16,3.3,2.92,4.3,1.17,1.54,3.16,2.34,3.16,2.34,0,0-1.48-1.57-1.86-2.26-.35-.63,.09-1.18,2.17-2.75Z"/>
      </g>
    </g>
  </g>
</svg>