<?xml version="1.0" encoding="UTF-8"?>
<svg id="_圖層_2" data-name="圖層 2" xmlns="http://www.w3.org/2000/svg" viewBox="0 0 52.2 56.05">
  <defs>
    <style>
      .cls-1 {
        fill: #fff;
      }

      .cls-2 {
        fill: #b3b3b3;
      }

      .cls-3 {
        fill: #333;
      }

      .cls-4 {
        fill: gray;
      }

      .cls-5 {
        fill: #4d4d4d;
      }
    </style>
  </defs>
  <g id="Layer_2" data-name="Layer 2">
    <g>
      <path class="cls-5" d="M41.75,7.88l-.18-.34s-1.61-2.12-15.46-2.21c-11.51,.08-14.56,1.55-15.27,2.07L43.98,41.46c0-.46,0-.93,0-1.41,0-6.4-.28-14.44-.73-20.98-.19-2.7-.68-9.86-1.51-11.19Zm-17.02,8.73c-.47-.46-.99-1.84-.99-1.84l3.14,2.75s-1.68-.44-2.15-.9Zm2.83,1.12c-.44-.58-1.69-2.49-1.69-2.49,0,0,1.15,.63,1.88,.86,.46,.16,.54,.09,.87-.22,.21-.2,3.42-3.39,4.52-3.86,1.32-.56,3.09-.79,4.28-.79,.4,0,.78,0,.95,0-.7,.27-1.64,.49-3.29,1.33-1.75,.9-3.51,2.12-5.5,3.62-1.21,.91-1.46,1.23-1.26,1.59,.22,.4,1.08,1.3,1.08,1.3,0,0-1.16-.46-1.83-1.35Zm11-4.39c-.27,.12-5.14,2.03-8.31,4.14,0,0,1.83,.72,3.41,.72,1.36,0,2.54-2.61,2.54-2.61l-3.74,1.12s2.35-1.23,5.91-2.65c0,0-1.96,5.03-4.02,5.03-1.85,0-4.5-.92-5.54-1.57,0,0,3.65-2.51,6.4-3.85,1.83-.89,3.7-1.09,3.84-1.09,0,.2-.22,.65-.48,.76Z"/>
      <path class="cls-3" d="M6.4,15.93c.31-4.44-1.77-9.34-2.69-11.27C1.57,12.99-.1,37.08,1.24,41.66c1.11,3.81,3.49,5.48,4.38,6-.12-1.87-.17-4.34-.17-7.61,0-6.46,.28-14.57,.74-21.17,.07-1.07,.15-2.04,.22-2.94h0Z"/>
      <path class="cls-4" d="M44.15,6.45c.51,.81,.9,2.31,1.24,5.04,.73-3.79,2.36-7.07,2.78-7.87-.71-1.29-1.83-2.2-3.22-2.62-1.49-.46-3.12-.29-4.48,.47-1.11,.62-2.5,1.27-3.93,1.69,4.42,.62,6.94,1.71,7.61,3.3Z"/>
      <path class="cls-4" d="M8.11,6.4c.65-1.55,3.15-2.63,7.56-3.25-1.43-.42-2.82-1.07-3.93-1.69-1.36-.75-2.99-.92-4.48-.47-1.41,.43-2.54,1.36-3.22,2.62,.42,.8,2.07,4.13,2.8,7.96,.35-2.79,.74-4.33,1.28-5.18Z"/>
      <path class="cls-5" d="M8.97,19.07c-.45,6.53-.73,14.57-.73,20.98,0,6.72,.26,10.47,.78,11.15l.07,.1c.09,.12,1.74,1.88,17.02,1.96h0c14.15-.08,16.62-1.58,16.94-1.84l.04-.11,.14-.24c.33-.53,.45-2,.52-2.97,.03-.44,.07-.93,.09-1.45L12.84,15.03l.54-.53,30.52,31.11c.04-.93,.06-1.96,.08-3.1L10.41,8.03c-.78,1.61-1.26,8.42-1.44,11.03Z"/>
      <path class="cls-2" d="M45.08,15.98h-.03c-.01-.17-.01-.34-.02-.51-.43-5.15-.89-7.61-1.55-8.68-.68-1.58-4.22-3.43-17.38-3.51-13.14,.09-16.68,1.93-17.33,3.46-.83,1.33-1.32,4.62-1.84,12.18-.45,6.58-.74,14.67-.74,21.12,0,7.99,.31,11.23,1.2,12.39,1.16,1.85,7.45,2.8,18.71,2.86h.01c11.92-.06,18.08-1.07,18.83-3.09,.62-1.02,.75-2.58,.85-3.95,.16-1.99,.24-4.75,.24-8.21,0-6.44-.28-14.54-.74-21.12-.07-1.07-.15-2.04-.22-2.94Zm-.57,32.17c-.09,1.17-.21,2.62-.63,3.3l-.21,.41c-.29,.34-2.52,2.05-17.54,2.13h0c-14.81-.08-17.21-1.71-17.59-2.2l-.07-.11c-.85-1.12-.97-6.51-.97-11.64,0-6.42,.28-14.48,.73-21.03,.34-4.97,.8-10.23,1.62-11.53l.12-.23c.12-.27,1.55-2.57,16.15-2.67,14.66,.1,16.04,2.41,16.15,2.67l.12,.23c.82,1.31,1.28,6.56,1.62,11.53,.45,6.55,.73,14.61,.73,21.03,0,3.43-.08,6.15-.23,8.11Z"/>
      <path class="cls-3" d="M45.79,15.46c.09,1.03,.17,2.16,.26,3.42,.46,6.6,.74,14.71,.74,21.17,0,3.11-.06,5.66-.19,7.6,.9-.52,3.26-2.19,4.37-5.99,1.34-4.58-.34-28.67-2.48-37-.89,1.87-2.84,6.49-2.7,10.8Z"/>
      <path class="cls-1" d="M42.38,7.49l-.12-.23c-.11-.26-1.5-2.58-16.15-2.67-14.6,.1-16.03,2.4-16.15,2.67l-.12,.23c-.82,1.31-1.28,6.56-1.62,11.53-.45,6.55-.73,14.61-.73,21.03,0,5.13,.11,10.53,.97,11.64l.07,.11c.38,.5,2.77,2.12,17.59,2.2h0c15.02-.08,17.25-1.79,17.54-2.13l.21-.41c.43-.69,.54-2.14,.63-3.3,.15-1.95,.23-4.68,.23-8.11,0-6.42-.28-14.48-.73-21.03-.34-4.97-.8-10.23-1.62-11.53Zm1.51,38.13L13.37,14.51l-.54,.53,31.01,31.61c-.03,.52-.06,1.01-.09,1.45-.08,.97-.19,2.43-.52,2.97l-.14,.24-.04,.11c-.32,.26-2.78,1.76-16.94,1.84h0c-15.29-.08-16.93-1.84-17.02-1.96l-.07-.1c-.52-.68-.78-4.43-.78-11.15s.28-14.44,.73-20.98c.18-2.62,.65-9.42,1.44-11.03L43.97,42.52c-.01,1.13-.04,2.17-.08,3.1Zm.09-4.16L10.84,7.4c.72-.52,3.76-2,15.27-2.07,13.85,.09,15.45,2.21,15.46,2.21l.18,.34c.83,1.32,1.32,8.49,1.51,11.19,.45,6.53,.73,14.57,.73,20.98,0,.49,0,.95,0,1.41Z"/>
      <path class="cls-1" d="M28.8,17.52c1.05,.65,3.69,1.57,5.54,1.57,2.06,0,4.02-5.03,4.02-5.03-3.56,1.42-5.91,2.65-5.91,2.65l3.74-1.12s-1.17,2.61-2.54,2.61c-1.57,0-3.41-.72-3.41-.72,3.17-2.11,8.04-4.02,8.31-4.14,.26-.11,.48-.56,.48-.76-.14,0-2.01,.2-3.84,1.09-2.75,1.34-6.4,3.85-6.4,3.85Z"/>
      <path class="cls-1" d="M24.73,16.62c.48,.46,2.15,.9,2.15,.9l-3.14-2.75s.51,1.38,.99,1.84Z"/>
      <path class="cls-1" d="M29.57,16.19c1.99-1.5,3.75-2.72,5.5-3.62,1.65-.84,2.58-1.07,3.29-1.33-.18,0-.55,0-.95,0-1.19,0-2.96,.24-4.28,.79-1.09,.46-4.31,3.66-4.52,3.86-.32,.3-.4,.37-.87,.22-.73-.23-1.88-.86-1.88-.86,0,0,1.25,1.91,1.69,2.49,.67,.89,1.83,1.35,1.83,1.35,0,0-.86-.91-1.08-1.3-.2-.36,.05-.68,1.26-1.59Z"/>
      <path class="cls-1" d="M48.98,3.56l-.09-.18c-.76-1.5-2.08-2.6-3.72-3.1-1.68-.52-3.53-.32-5.06,.53-1.9,1.05-4.63,2.26-6.89,1.99h0c-2.08-.16-4.44-.25-7.12-.27-2.67,.02-5.04,.11-7.11,.27h0c-2.26,.26-4.99-.94-6.89-1.99C10.57-.04,8.72-.23,7.04,.28c-1.64,.5-2.96,1.6-3.76,3.17l-.09,.18,.02,.04C.88,11.43-.93,36.93,.52,41.87c1.49,5.08,5.01,6.6,5.16,6.66h0c.2,2.35,.55,3.62,1.1,4.34,.83,1.33,3.74,3.1,19.32,3.18h.03c16.15-.09,18.91-1.96,19.49-3.51,.66-1.06,.8-2.6,.91-4.01,.16-.07,3.67-1.59,5.16-6.66,1.45-4.95-.38-30.6-2.72-38.28v-.03Zm-8.5-2.09c1.36-.75,2.99-.92,4.48-.47,1.38,.42,2.51,1.33,3.22,2.62-.42,.8-2.04,4.08-2.78,7.87-.34-2.73-.73-4.23-1.24-5.04-.67-1.58-3.19-2.67-7.61-3.3,1.43-.42,2.82-1.07,3.93-1.69ZM7.26,1c1.49-.46,3.12-.29,4.48,.47,1.11,.62,2.5,1.27,3.93,1.69-4.41,.62-6.9,1.7-7.56,3.25-.53,.85-.93,2.39-1.28,5.18-.73-3.83-2.38-7.16-2.8-7.96,.67-1.26,1.81-2.19,3.22-2.62Zm-1.81,39.04c0,3.27,.05,5.73,.17,7.61-.89-.51-3.27-2.19-4.38-6C-.1,37.08,1.57,12.99,3.71,4.66c.92,1.93,2.99,6.84,2.69,11.27h0c-.07,.9-.15,1.88-.22,2.94-.46,6.6-.74,14.71-.74,21.17Zm40.35,8.21c-.11,1.37-.23,2.93-.85,3.95-.75,2.02-6.91,3.03-18.83,3.09h-.01c-11.26-.06-17.55-1.01-18.71-2.86-.89-1.16-1.2-4.4-1.2-12.39,0-6.44,.28-14.54,.74-21.12,.52-7.56,1.01-10.85,1.84-12.18,.65-1.53,4.18-3.37,17.33-3.46,13.17,.09,16.71,1.93,17.38,3.51,.67,1.06,1.12,3.53,1.55,8.68,0,.17,0,.34,.02,.51h.03c.07,.9,.15,1.88,.22,2.94,.45,6.58,.74,14.67,.74,21.12,0,3.45-.08,6.22-.24,8.21Zm5.17-6.6c-1.11,3.8-3.48,5.48-4.37,5.99,.13-1.94,.19-4.49,.19-7.6,0-6.46-.28-14.57-.74-21.17-.09-1.26-.17-2.38-.26-3.42-.14-4.3,1.81-8.93,2.7-10.8,2.14,8.33,3.82,32.42,2.48,37Z"/>
    </g>
  </g>
</svg>