<?xml version="1.0" encoding="UTF-8"?>
<svg id="_圖層_2" data-name="圖層 2" xmlns="http://www.w3.org/2000/svg" viewBox="0 0 39.52 64.17">
  <defs>
    <style>
      .cls-1 {
        fill: #fff;
      }

      .cls-2 {
        fill: #b3b3b3;
      }

      .cls-3 {
        fill: #333;
      }

      .cls-4 {
        fill: gray;
      }

      .cls-5 {
        fill: #4d4d4d;
      }
    </style>
  </defs>
  <g id="Layer_2" data-name="Layer 2">
    <g>
      <polygon class="cls-3" points="16.9 10.38 16.52 9.92 13.49 12.76 13.49 13.91 17.34 11.6 19.76 11.6 22.18 11.6 26.03 13.91 26.03 12.76 23 9.92 22.62 10.38 19.76 10.38 16.9 10.38"/>
      <path class="cls-4" d="M12.76,19.01l3.48-2.05h7.04l3.48,2.05c1.78-2.37,4.75-4.58,5.5-5.12-.02-.16-.06-.3-.11-.42-.7-1.59-2.41-2.58-4.06-3.54l-.62-.36c-1.28-.76-2.02-1.64-2.38-2.18l-1.6,1.95,3.3,3.1v2.8l-4.8-2.89h-4.43l-4.8,2.89v-2.8l3.3-3.1-1.6-1.95c-.37,.54-1.1,1.42-2.38,2.18l-.62,.36c-1.65,.96-3.36,1.95-4.06,3.54-.05,.12-.09,.27-.11,.42,.75,.54,3.72,2.75,5.5,5.12Z"/>
      <path class="cls-2" d="M10.45,35.82c-.2-1.72-.31-4.4,.31-7.24,.62-2.82,1.11-8.47,1.19-9.41-1.45-1.82-3.61-3.55-4.66-4.34,.13,1.13,.61,2.56,1.03,3.8,.43,1.28,.84,2.49,.88,3.31,.04,1-.44,2.37-.94,3.81-.55,1.58-1.18,3.36-1.18,4.86,0,1.89,.25,2.74,.39,3.08,1.24,.14,2.25,1.1,3.01,2.12Z"/>
      <path class="cls-3" d="M5.76,34.14c.17-.17,.36-.3,.59-.36,.1-.03,.2-.03,.3-.05-.07-.21-.13-.48-.19-.83-.29,.1-.53,.39-.7,1.24Z"/>
      <polygon class="cls-5" points="19.76 9.63 22.27 9.63 24.71 6.65 22.94 .75 19.76 .75 16.58 .75 14.81 6.65 17.25 9.63 19.76 9.63"/>
      <path class="cls-5" d="M28.05,37.51c.11-.49,.92-4.5-.01-8.76-.53-2.4-.95-6.68-1.13-8.64-1.5,2.26-2.2,4.69-2.2,7.62,0,2.38-.04,8.16-.16,10.76,1.57-.09,2.71-.2,3.16-.25,.07-.17,.18-.42,.34-.73Z"/>
      <path class="cls-2" d="M27.58,19.17c.08,.95,.57,6.59,1.19,9.41,.62,2.84,.5,5.52,.31,7.24,.75-1.03,1.78-1.98,3.01-2.13,.14-.33,.38-1.18,.38-3.08,0-1.5-.63-3.28-1.18-4.86-.51-1.44-.99-2.81-.94-3.81,.04-.82,.44-2.03,.88-3.31,.42-1.24,.89-2.67,1.03-3.8-1.05,.79-3.21,2.52-4.66,4.34Z"/>
      <path class="cls-3" d="M33.76,34.14c-.16-.85-.41-1.14-.7-1.24-.06,.35-.12,.62-.19,.83,.1,.02,.2,.02,.3,.05,.23,.06,.42,.19,.59,.36Z"/>
      <path class="cls-3" d="M4.81,37.56h-.02c0-3.37,.26-5.11,1.57-5.4-.03-.34-.05-.72-.06-1.17H2.64c-.56,0-1.36,.48-1.72,.8,1.39,.11,2.22,1.72,2.25,1.79l.04,.17v8.26l.47,.41v2.94l.52,.5h2.34c-.79-1.19-1.31-3.13-1.56-4.99-.13-.94-.22-2.16-.17-3.33Z"/>
      <path class="cls-5" d="M11.49,28.75c-.93,4.25-.12,8.25-.01,8.76,.16,.32,.27,.57,.34,.74,.45,.05,1.59,.16,3.16,.25-.12-2.61-.16-8.38-.16-10.76,0-2.93-.71-5.36-2.2-7.62-.18,1.96-.6,6.23-1.13,8.64Z"/>
      <path class="cls-3" d="M15.73,38.54c1.19,.06,2.56,.1,4.03,.1s2.85-.04,4.03-.1c.12-2.55,.16-8.4,.16-10.8,0-3.11,.76-5.7,2.37-8.11l-3.25-1.91h-6.63l-3.25,1.91c1.61,2.41,2.37,4.99,2.37,8.11,0,2.4,.04,8.26,.16,10.8Z"/>
      <path class="cls-3" d="M34.51,59.01c0,.74,.6,1.34,1.34,1.34s1.34-.6,1.34-1.34-.6-1.34-1.34-1.34-1.34,.6-1.34,1.34Z"/>
      <path class="cls-2" d="M32.97,34.5c-2.12-.59-3.8,2.39-4.4,3.67,.05,0,.1,0,.16,0,.64,0,1.49,.1,1.99,.58,.74,.71,1.19,1.13,1.14,2.41l-.2,5.02c.91-.49,1.77-2.61,2.15-5.39,.48-3.49-.04-6.06-.83-6.28Z"/>
      <path class="cls-4" d="M30.19,39.29c-.47-.45-1.76-.38-2.17-.32h0s0,0,0,0l-.62,.09v-.02c-1.21,.12-4.14,.36-7.62,.36s-6.41-.24-7.63-.36v.02s-.61-.09-.61-.09c0,0,0,0,0,0h0s0,0,0,0c-.41-.06-1.7-.12-2.17,.32-.69,.66-.94,.9-.91,1.83l.21,5.15H30.89l.21-5.15c.04-.93-.22-1.18-.91-1.83Z"/>
      <path class="cls-3" d="M33.21,30.99c0,.44-.03,.83-.06,1.17,1.31,.29,1.57,2.03,1.57,5.4h-.02c.04,1.16-.04,2.38-.17,3.33-.25,1.86-.77,3.8-1.56,4.99h2.34l.52-.5v-2.94l.47-.41,.04-8.43c.04-.07,.86-1.68,2.25-1.79-.36-.32-1.16-.8-1.72-.8h-3.67Z"/>
      <path class="cls-3" d="M16.19,47.03l1.72,1.74c.07,.07,.11,.17,.11,.26v3.05c0,.21-.16,.37-.37,.38-.08,0-8.13,.16-13.92,3.61l1.74,.64c.79-.39,4.54-2.07,10.1-2.07,.18,0,.34,.13,.37,.31s-.07,.36-.24,.42c-.05,.02-4.5,1.63-7.06,3.86,1.33,.39,2.65,.75,2.87,.75,.04-.02,.41-.25,.77-.47,1.52-.92,4.64-2.82,7.48-2.78,0,0,0,0,0,0,0,0,0,0,0,0,0,0,0,0,0,0,0,0,0,0,0,0,2.83-.01,5.96,1.86,7.48,2.78,.36,.22,.73,.44,.83,.47,.17-.01,1.48-.37,2.81-.76-2.56-2.23-7.02-3.85-7.06-3.86-.17-.06-.27-.24-.24-.42s.19-.31,.37-.31c5.56,0,9.31,1.68,10.1,2.07l1.74-.64c-5.79-3.45-13.84-3.61-13.92-3.61-.21,0-.37-.17-.37-.38v-3.05c0-.1,.04-.19,.11-.26l1.72-1.74h-7.15Z"/>
      <path class="cls-3" d="M3.67,57.66c-.74,0-1.34,.6-1.34,1.34s.6,1.34,1.34,1.34,1.34-.6,1.34-1.34-.6-1.34-1.34-1.34Z"/>
      <path class="cls-2" d="M8.81,38.75c.54-.52,1.5-.6,2.15-.58-.55-1.17-1.99-3.75-3.85-3.75-.18,0-.37,.02-.55,.08-.78,.22-1.3,2.79-.83,6.28,.38,2.78,1.24,4.9,2.15,5.39l-.2-5.02c-.05-1.27,.4-1.7,1.14-2.41Z"/>
      <path class="cls-3" d="M10.14,60.73c-.74,0-1.34,.6-1.34,1.34s.6,1.34,1.34,1.34,1.34-.6,1.34-1.34-.6-1.34-1.34-1.34Z"/>
      <path class="cls-3" d="M28.04,62.07c0,.74,.6,1.34,1.34,1.34s1.34-.6,1.34-1.34-.6-1.34-1.34-1.34-1.34,.6-1.34,1.34Z"/>
      <path class="cls-1" d="M36.88,30.24h-3.68c-.09-1.53-.68-3.22-1.21-4.73-.48-1.37-.94-2.67-.9-3.53,.03-.71,.42-1.88,.84-3.11,.73-2.17,1.48-4.41,.91-5.72-.8-1.81-2.61-2.86-4.37-3.88l-.62-.36c-1.66-.98-2.32-2.22-2.37-2.32l-1.98-6.6h-7.48l-1.98,6.6c-.05,.11-.71,1.34-2.37,2.32l-.62,.36c-1.75,1.02-3.57,2.07-4.37,3.88-.58,1.31,.18,3.55,.91,5.72,.41,1.23,.81,2.39,.84,3.11,.04,.86-.42,2.16-.9,3.53-.53,1.51-1.12,3.2-1.21,4.73H2.64c-.96,0-2.64,1-2.64,1.72,0,.2,.11,.38,.29,.48,.12,.07,.28,.1,.48,.1,.88,0,1.52,1.03,1.69,1.31v8.5l.47,.41v2.92l.97,.93h3.31c.32,.26,.67,.41,1.06,.41h6.86l2.14,2.15v2.54c-1.76,.07-9.22,.58-14.59,4.12-.12,.08-.18,.22-.17,.36,.02,.14,.11,.26,.24,.31l1.19,.43c-.09-.01-.18-.03-.27-.03-1.15,0-2.09,.94-2.09,2.09s.94,2.09,2.09,2.09,2.09-.94,2.09-2.09c0-.72-.37-1.36-.93-1.74l.53,.19c.1,.04,.21,.03,.3-.02,.03-.02,3.04-1.58,7.79-1.97-1.75,.79-4.26,2.08-5.83,3.67-.09,.09-.13,.23-.1,.36,.03,.13,.13,.23,.26,.27,.3,.09,.86,.26,1.47,.43-.71,.34-1.2,1.05-1.2,1.89,0,1.15,.94,2.09,2.09,2.09s2.09-.94,2.09-2.09c0-.53-.21-1.02-.54-1.39,.18-.06,.43-.21,.96-.53,1.44-.87,4.43-2.67,7-2.67,.03,0,.08,0,.1,0h0c2.62-.03,5.64,1.79,7.1,2.67,.53,.32,.78,.47,.96,.53-.33,.37-.54,.85-.54,1.39,0,1.15,.94,2.09,2.09,2.09s2.09-.94,2.09-2.09c0-.83-.49-1.55-1.2-1.89,.6-.17,1.17-.34,1.47-.43,.13-.04,.22-.14,.26-.27,.03-.13,0-.26-.1-.36-1.57-1.58-4.08-2.88-5.83-3.67,4.75,.39,7.76,1.95,7.79,1.97,.09,.05,.21,.06,.3,.02l.53-.19c-.56,.38-.93,1.01-.93,1.74,0,1.15,.94,2.09,2.09,2.09s2.09-.94,2.09-2.09-.94-2.09-2.09-2.09c-.09,0-.18,.02-.27,.03l1.19-.43c.13-.05,.23-.17,.24-.31,.02-.14-.05-.28-.17-.36-5.38-3.55-12.84-4.05-14.59-4.12v-2.54l2.14-2.15h6.86c.39,0,.74-.15,1.06-.41h3.31l.97-.93v-2.92l.47-.41v-8.5c.16-.29,.81-1.31,1.69-1.31,.2,0,.36-.03,.48-.1,.19-.1,.29-.27,.29-.48,0-.73-1.68-1.72-2.64-1.72Zm-3.82,2.65c.29,.1,.53,.39,.7,1.24-.17-.17-.36-.3-.59-.36-.1-.03-.2-.03-.3-.05,.07-.21,.13-.48,.19-.83Zm-1.84-14.26c-.43,1.28-.84,2.49-.88,3.31-.04,1,.44,2.37,.94,3.81,.55,1.58,1.18,3.36,1.18,4.86,0,1.9-.25,2.75-.38,3.08-1.24,.14-2.26,1.1-3.01,2.13,.2-1.72,.31-4.4-.31-7.24-.62-2.82-1.11-8.47-1.19-9.41,1.45-1.82,3.61-3.55,4.66-4.34-.13,1.13-.61,2.56-1.03,3.8Zm-18.02,.99l3.25-1.91h6.63l3.25,1.91c-1.61,2.41-2.37,4.99-2.37,8.11,0,2.4-.04,8.26-.16,10.8-1.19,.06-2.56,.1-4.03,.1s-2.85-.04-4.03-.1c-.12-2.55-.16-8.4-.16-10.8,0-3.11-.76-5.7-2.37-8.11Zm1.78,18.87c-1.57-.09-2.71-.2-3.16-.25-.07-.17-.18-.42-.34-.74-.11-.51-.92-4.51,.01-8.76,.53-2.4,.95-6.68,1.13-8.64,1.5,2.26,2.2,4.69,2.2,7.62,0,2.38,.04,8.16,.16,10.76Zm9.73-10.76c0-2.93,.71-5.36,2.2-7.62,.18,1.96,.6,6.23,1.13,8.64,.93,4.26,.12,8.28,.01,8.76-.16,.31-.27,.57-.34,.73-.45,.05-1.59,.16-3.16,.25,.12-2.61,.16-8.38,.16-10.76ZM16.58,.75h6.36l1.77,5.9-2.44,2.97h-5.01l-2.44-2.97,1.77-5.9Zm6.42,9.17l3.03,2.85v1.15l-3.85-2.31h-4.84l-3.85,2.31v-1.15l3.03-2.85,.38,.46h5.72l.38-.46Zm-15.63,3.55c.7-1.59,2.41-2.58,4.06-3.54l.62-.36c1.28-.76,2.02-1.64,2.38-2.18l1.6,1.95-3.3,3.1v2.8l4.8-2.89h4.43l4.8,2.89v-2.8l-3.3-3.1,1.6-1.95c.37,.54,1.1,1.42,2.38,2.18l.62,.36c1.65,.96,3.36,1.95,4.06,3.54,.05,.12,.09,.27,.11,.42-.75,.54-3.72,2.75-5.5,5.12l-3.48-2.05h-7.04l-3.48,2.05c-1.78-2.37-4.75-4.58-5.5-5.12,.02-.16,.06-.3,.11-.42Zm.86,12.3c.51-1.44,.99-2.81,.94-3.81-.04-.82-.44-2.03-.88-3.31-.42-1.24-.89-2.67-1.03-3.8,1.05,.79,3.21,2.52,4.66,4.34-.08,.95-.57,6.59-1.19,9.41-.62,2.84-.51,5.52-.31,7.24-.75-1.03-1.77-1.98-3.01-2.12-.14-.34-.39-1.19-.39-3.08,0-1.5,.63-3.28,1.18-4.86Zm-1.58,7.97c-.1,.02-.2,.02-.3,.05-.23,.06-.42,.19-.59,.36,.16-.85,.41-1.14,.7-1.24,.06,.35,.12,.62,.19,.83Zm-2.45,12.14l-.52-.5v-2.94l-.47-.41v-8.26l-.04-.17c-.04-.07-.86-1.68-2.25-1.79,.36-.32,1.16-.8,1.72-.8h3.67c0,.44,.03,.83,.06,1.17-1.31,.29-1.57,2.03-1.57,5.4h.02c-.04,1.16,.04,2.38,.17,3.33,.25,1.86,.77,3.8,1.56,4.99h-2.34Zm3.67,.3c-.91-.49-1.77-2.61-2.15-5.39-.48-3.49,.04-6.06,.83-6.28,.19-.05,.37-.08,.55-.08,1.86,0,3.3,2.58,3.85,3.75-.65-.02-1.61,.06-2.15,.58-.74,.71-1.19,1.13-1.14,2.41l.2,5.02Zm-2.87,12.84c0,.74-.6,1.34-1.34,1.34s-1.34-.6-1.34-1.34,.6-1.34,1.34-1.34,1.34,.6,1.34,1.34Zm5.13,4.41c-.74,0-1.34-.6-1.34-1.34s.6-1.34,1.34-1.34,1.34,.6,1.34,1.34-.6,1.34-1.34,1.34Zm20.58-1.34c0,.74-.6,1.34-1.34,1.34s-1.34-.6-1.34-1.34,.6-1.34,1.34-1.34,1.34,.6,1.34,1.34Zm5.13-4.41c.74,0,1.34,.6,1.34,1.34s-.6,1.34-1.34,1.34-1.34-.6-1.34-1.34,.6-1.34,1.34-1.34Zm-14.24-8.9c-.07,.07-.11,.17-.11,.26v3.05c0,.21,.16,.37,.37,.38,.08,0,8.13,.16,13.92,3.61l-1.74,.64c-.79-.39-4.54-2.07-10.1-2.07-.18,0-.34,.13-.37,.31s.07,.36,.24,.42c.05,.02,4.5,1.63,7.06,3.86-1.33,.39-2.64,.75-2.81,.76-.1-.03-.47-.26-.83-.47-1.52-.92-4.65-2.79-7.48-2.78,0,0,0,0,0,0,0,0,0,0,0,0,0,0,0,0,0,0,0,0,0,0,0,0-2.84-.04-5.96,1.86-7.48,2.78-.36,.22-.73,.44-.77,.47-.22,0-1.54-.36-2.87-.75,2.56-2.23,7.02-3.85,7.06-3.86,.17-.06,.27-.24,.24-.42s-.19-.31-.37-.31c-5.56,0-9.31,1.68-10.1,2.07l-1.74-.64c5.79-3.45,13.84-3.61,13.92-3.61,.21,0,.37-.17,.37-.38v-3.05c0-.1-.04-.19-.11-.26l-1.72-1.74h7.15l-1.72,1.74Zm9.48-7.64l-.21,5.15H8.63l-.21-5.15c-.04-.93,.22-1.18,.91-1.83,.47-.45,1.76-.38,2.17-.32h0s0,0,0,0l.62,.09v-.02c1.21,.12,4.14,.36,7.62,.36s6.41-.24,7.63-.36v.02s.61-.09,.61-.09c0,0,0,0,0,0h0s0,0,0,0c.41-.06,1.7-.12,2.17,.32,.69,.66,.94,.9,.91,1.83Zm.55,5.05l.2-5.02c.05-1.27-.4-1.7-1.14-2.41-.5-.48-1.35-.58-1.99-.58-.05,0-.11,0-.16,0,.61-1.28,2.28-4.26,4.4-3.67,.78,.22,1.3,2.79,.83,6.28-.38,2.78-1.24,4.9-2.15,5.39Zm4.7-12.58l-.04,8.43-.47,.41v2.94l-.52,.5h-2.34c.79-1.19,1.31-3.13,1.56-4.99,.13-.94,.22-2.16,.17-3.33h.02c0-3.37-.26-5.11-1.57-5.4,.03-.34,.05-.72,.06-1.17h3.67c.56,0,1.36,.48,1.72,.8-1.39,.11-2.22,1.72-2.25,1.79Z"/>
    </g>
  </g>
</svg>