<?xml version="1.0" encoding="UTF-8"?>
<svg id="_圖層_2" data-name="圖層 2" xmlns="http://www.w3.org/2000/svg" viewBox="0 0 72.15 42.2">
  <defs>
    <style>
      .cls-1 {
        fill: #fff;
      }

      .cls-2 {
        fill: #b3b3b3;
      }

      .cls-3 {
        fill: #333;
      }

      .cls-4 {
        fill: #4d4d4d;
      }
    </style>
  </defs>
  <g id="Layer_2" data-name="Layer 2">
    <g>
      <path class="cls-4" d="M39.73,20.55l1.38-1.38V2.38l-1.38-1.38H22.93l-1.38,1.38V19.18l1.38,1.38h16.8ZM31.33,1.37c5.18,0,9.4,4.22,9.4,9.4s-4.22,9.4-9.4,9.4-9.4-4.22-9.4-9.4S26.15,1.37,31.33,1.37Z"/>
      <path class="cls-2" d="M10.78,19.18c4.63,0,8.4-3.77,8.4-8.4S15.41,2.37,10.78,2.37,2.37,6.14,2.37,10.78s3.77,8.4,8.4,8.4Zm0-10.78c1.31,0,2.38,1.07,2.38,2.38s-1.07,2.38-2.38,2.38-2.38-1.07-2.38-2.38,1.07-2.38,2.38-2.38Z"/>
      <circle class="cls-4" cx="10.78" cy="10.78" r="1.38"/>
      <path class="cls-2" d="M31.33,19.18c4.63,0,8.4-3.77,8.4-8.4s-3.77-8.4-8.4-8.4-8.4,3.77-8.4,8.4,3.77,8.4,8.4,8.4Zm0-10.78c1.31,0,2.38,1.07,2.38,2.38s-1.07,2.38-2.38,2.38-2.38-1.07-2.38-2.38,1.07-2.38,2.38-2.38Z"/>
      <path class="cls-2" d="M51.89,19.18c4.63,0,8.4-3.77,8.4-8.4s-3.77-8.4-8.4-8.4-8.4,3.77-8.4,8.4,3.77,8.4,8.4,8.4Zm0-10.78c1.31,0,2.38,1.07,2.38,2.38s-1.07,2.38-2.38,2.38-2.38-1.07-2.38-2.38,1.07-2.38,2.38-2.38Z"/>
      <path class="cls-4" d="M60.29,20.55l1.37-1.38V2.38l-1.37-1.38h-16.81l-1.37,1.38V19.18l1.37,1.38h16.81ZM51.89,1.37c5.19,0,9.4,4.22,9.4,9.4s-4.22,9.4-9.4,9.4-9.4-4.22-9.4-9.4S46.7,1.37,51.89,1.37Z"/>
      <circle class="cls-4" cx="51.89" cy="10.78" r="1.38"/>
      <circle class="cls-4" cx="31.33" cy="10.78" r="1.38"/>
      <rect class="cls-3" x="62.66" y="3.4" width="1.47" height="2.16"/>
      <path class="cls-4" d="M2.37,21.64l-1.37,1.38v16.8l1.37,1.38H19.18l1.37-1.38V23.02l-1.37-1.38H2.37Zm16.63,13.84l-2.18,2.18H2.55v-11.26l2.18-2.18h14.29v11.26Z"/>
      <polygon class="cls-3" points="3.55 36.66 16.42 36.66 18.01 35.07 18.01 25.23 5.14 25.23 3.55 26.82 3.55 36.66"/>
      <rect class="cls-3" x="62.66" y="9.4" width="1.47" height="2.16"/>
      <path class="cls-4" d="M19.18,20.55l1.37-1.38V2.38l-1.37-1.38H2.37l-1.37,1.38V19.18l1.37,1.38H19.18ZM10.78,1.37c5.19,0,9.4,4.22,9.4,9.4s-4.22,9.4-9.4,9.4S1.37,15.96,1.37,10.78,5.59,1.37,10.78,1.37Z"/>
      <path class="cls-1" d="M10.78,20.18c5.19,0,9.4-4.22,9.4-9.4S15.96,1.37,10.78,1.37,1.37,5.59,1.37,10.78s4.22,9.4,9.4,9.4Zm0-17.81c4.63,0,8.4,3.77,8.4,8.4s-3.77,8.4-8.4,8.4S2.37,15.41,2.37,10.78,6.14,2.37,10.78,2.37Z"/>
      <path class="cls-1" d="M10.78,13.16c1.31,0,2.38-1.07,2.38-2.38s-1.07-2.38-2.38-2.38-2.38,1.07-2.38,2.38,1.07,2.38,2.38,2.38Zm0-3.76c.76,0,1.38,.62,1.38,1.38s-.62,1.38-1.38,1.38-1.38-.62-1.38-1.38,.62-1.38,1.38-1.38Z"/>
      <path class="cls-1" d="M31.33,20.18c5.18,0,9.4-4.22,9.4-9.4S36.52,1.37,31.33,1.37s-9.4,4.22-9.4,9.4,4.22,9.4,9.4,9.4Zm0-17.81c4.63,0,8.4,3.77,8.4,8.4s-3.77,8.4-8.4,8.4-8.4-3.77-8.4-8.4S26.7,2.37,31.33,2.37Z"/>
      <path class="cls-1" d="M31.33,13.16c1.31,0,2.38-1.07,2.38-2.38s-1.07-2.38-2.38-2.38-2.38,1.07-2.38,2.38,1.07,2.38,2.38,2.38Zm0-3.76c.76,0,1.38,.62,1.38,1.38s-.62,1.38-1.38,1.38-1.38-.62-1.38-1.38,.62-1.38,1.38-1.38Z"/>
      <path class="cls-1" d="M51.89,20.18c5.19,0,9.4-4.22,9.4-9.4S57.07,1.37,51.89,1.37s-9.4,4.22-9.4,9.4,4.22,9.4,9.4,9.4Zm0-17.81c4.63,0,8.4,3.77,8.4,8.4s-3.77,8.4-8.4,8.4-8.4-3.77-8.4-8.4,3.77-8.4,8.4-8.4Z"/>
      <path class="cls-1" d="M51.89,13.16c1.31,0,2.38-1.07,2.38-2.38s-1.07-2.38-2.38-2.38-2.38,1.07-2.38,2.38,1.07,2.38,2.38,2.38Zm0-3.76c.76,0,1.38,.62,1.38,1.38s-.62,1.38-1.38,1.38-1.38-.62-1.38-1.38,.62-1.38,1.38-1.38Z"/>
      <path class="cls-1" d="M2.55,26.4v11.26h14.29l2.18-2.18v-11.26H4.72l-2.18,2.18Zm15.46-1.18v9.84l-1.59,1.59H3.55v-9.84l1.59-1.59h12.87Z"/>
      <path class="cls-1" d="M65.13,3.5v-1.1h-2.47v-.43l-1.96-1.96h-17.63l-1.46,1.46-1.46-1.46H22.52l-1.46,1.46-1.46-1.46H1.96L0,1.96V19.59l1.51,1.51-1.51,1.51v17.63l1.96,1.96H19.59l1.96-1.96v-4.8h43.08c4.14,0,7.51-3.37,7.51-7.51V10.99c0-3.97-3.1-7.23-7.01-7.49Zm-2.47-.1h1.47v2.16h-1.47V3.4Zm0,6h1.47v2.16h-1.47v-2.16ZM42.11,2.38l1.37-1.38h16.81l1.37,1.38V19.18l-1.37,1.38h-16.81l-1.37-1.38V2.38Zm-20.55,0l1.38-1.38h16.8l1.38,1.38V19.18l-1.38,1.38H22.93l-1.38-1.38V2.38ZM1,19.18V2.38l1.37-1.38H19.18l1.37,1.38V19.18l-1.37,1.38H2.37l-1.37-1.38Zm19.55,20.64l-1.37,1.38H2.37l-1.37-1.38V23.02l1.37-1.38H19.18l1.37,1.38v16.8Zm-.51-18.72l1.01-1.01,1.46,1.46h17.63l1.46-1.46,1.46,1.46h17.63l1.96-1.96v-7.04h2.47v-1c.77,.22,1.34,.92,1.34,1.76v12.6c0,1.02-.83,1.84-1.84,1.84H21.55v-5.15l-1.51-1.51Zm50.1,6.83c0,3.04-2.47,5.51-5.51,5.51H21.55v-3.68h43.08c2.12,0,3.84-1.72,3.84-3.84V13.32c0-1.95-1.46-3.54-3.34-3.79v-1.13h-2.47v-1.85h2.47v-1.05c2.81,.25,5.01,2.62,5.01,5.49V27.93Z"/>
    </g>
  </g>
</svg>