<?xml version="1.0" encoding="UTF-8"?>
<svg id="_圖層_2" data-name="圖層 2" xmlns="http://www.w3.org/2000/svg" viewBox="0 0 65.02 57.63">
  <defs>
    <style>
      .cls-1 {
        fill: #fff;
      }

      .cls-2 {
        fill: #b3b3b3;
      }

      .cls-3 {
        fill: #333;
      }

      .cls-4 {
        fill: #4d4d4d;
      }
    </style>
  </defs>
  <g id="Layer_2" data-name="Layer 2">
    <g>
      <path class="cls-4" d="M32.51,.75C16.48,.75,10.44,13.15,9.47,15.42l3.46,1.13c.74-1.87,5.45-12.14,19.58-12.14s18.77,10.12,19.58,12.14l3.46-1.13c-.92-2.16-6.95-14.67-23.05-14.67Z"/>
      <path class="cls-2" d="M8.48,20.44l2.33,.27,1.81-3.48-3.38-1.1c-.19,.81-.64,2.85-.76,4.31Z"/>
      <path class="cls-2" d="M5.79,30.94c.33,1.77-.33,2.86-1.94,5.52-.52,.86-1.16,1.91-1.9,3.21-3.1,5.42,.77,11.88,1.51,12.75,.16-.03,.48-.17,.82-.36-.83-1.26-3.38-5.71-1.74-10.92,1.94-6.15,9.24-11.19,12.18-11.19h.03c2.77,.03,8.53,6.6,9.95,8.27l.36-.34c.17-.14-.05-.49-.05-.5-2.23-2.89-7.62-8.05-9.56-8.45-1.28-.27-2.25-.88-2.84-1.35-.31-.25-.76-.29-1.14-.12l-5.03,2.3c-.46,.21-.73,.7-.64,1.17Z"/>
      <path class="cls-4" d="M24.37,39.01c-1.92-2.3-7.4-8.28-9.63-8.3h-.02c-2.68,0-9.65,4.91-11.46,10.66-1.76,5.59,1.74,10.41,1.86,10.57,.13,.14,2.45,2.63,5.71,3.92,6.2,2.44,15.16,.13,18.87-2.6,1.23-.91,1.88-1.85,1.82-2.65-.25-3.43-5.11-10.31-6.25-11.88l-.63,.59-.25-.3Zm3.98,7.52c1.5,2.26,2.06,3.93,1.66,4.96-.78,2-5.93,3.14-10.39,3.35-.52,.03-1.06,.04-1.6,.04-4.48,0-9.2-.92-10.53-3.55-1.22-2.43,1.24-8.61,3.49-12.14,.96-1.5,2.8-4.01,4.47-3.96,2.85,.09,9.68,6.44,12.89,11.3Z"/>
      <path class="cls-4" d="M54.94,24.11c.28,.94,.17,1.89,.05,2.61-.02,.14-.02,.29,0,.44l3.4,1.56h0s.27-.84,.27-.84c.19-.59,.1-1.23-.23-1.76l-.88-1.37c-.38-.6-.64-1.3-.73-2l-.21-1.56-2.2,.26c.07,.58,.24,1.73,.52,2.66Z"/>
      <path class="cls-3" d="M15.43,35.98s-.02,0-.03,0c-.93,0-2.34,1.35-3.79,3.62-2.43,3.81-4.44,9.43-3.45,11.39,1.33,2.63,6.98,3.32,11.42,3.1,4.92-.24,9.19-1.5,9.72-2.87,.29-.76-.28-2.32-1.58-4.28-3.34-5.05-9.89-10.89-12.29-10.96Z"/>
      <path class="cls-4" d="M6.63,28.73l3.4-1.56c.03-.15,.03-.3,0-.44-.12-.72-.23-1.67,.05-2.61,.27-.93,.44-2.09,.52-2.66l-2.2-.26-.2,1.56c-.09,.71-.35,1.4-.73,2l-.88,1.37c-.33,.52-.42,1.16-.23,1.76l.27,.84Z"/>
      <path class="cls-2" d="M61.17,36.46c-1.6-2.65-2.27-3.75-1.94-5.51,.09-.46-.18-.95-.64-1.17l-5.03-2.3c-.38-.18-.82-.13-1.14,.12-.59,.47-1.56,1.08-2.84,1.35-1.93,.4-7.33,5.56-9.57,8.47,0,0-.21,.34-.06,.47l.38,.35c1.42-1.67,7.18-8.24,9.95-8.27h.03c2.94,0,10.24,5.03,12.18,11.19,1.64,5.21-.91,9.66-1.74,10.92,.34,.19,.66,.33,.82,.36,.74-.87,4.6-7.33,1.51-12.75-.74-1.3-1.38-2.35-1.9-3.21Z"/>
      <path class="cls-4" d="M61.77,41.37c-1.81-5.75-8.78-10.66-11.46-10.66h-.02c-2.24,.02-7.71,6-9.63,8.3l-.25,.3-.63-.59c-1.14,1.57-6,8.45-6.25,11.88-.06,.8,.59,1.74,1.82,2.65,3.7,2.73,12.67,5.04,18.87,2.6,3.26-1.28,5.58-3.78,5.71-3.92,.12-.16,3.62-4.98,1.86-10.57Zm-4.23,9.95c-1.33,2.63-6.05,3.55-10.53,3.56-.54,0-1.07-.01-1.6-.04-4.46-.21-9.61-1.35-10.39-3.35-.4-1.03,.16-2.7,1.66-4.96,3.21-4.86,10.04-11.21,12.89-11.3,.02,0,.03,0,.05,0,1.65,0,3.47,2.47,4.42,3.96,2.25,3.53,4.71,9.71,3.49,12.14Z"/>
      <path class="cls-2" d="M55.78,16.13l-3.38,1.1,1.79,3.48,2.36-.28c-.13-1.47-.57-3.47-.76-4.31Z"/>
      <path class="cls-3" d="M49.62,35.98s-.02,0-.03,0c-2.4,.07-8.95,5.91-12.29,10.96-1.3,1.96-1.88,3.52-1.58,4.28,.53,1.38,4.81,2.64,9.72,2.87,4.44,.21,10.09-.47,11.42-3.1,.99-1.97-1.02-7.59-3.45-11.4-1.45-2.27-2.86-3.61-3.79-3.61Z"/>
      <path class="cls-1" d="M15.45,35.23c-1.67-.04-3.52,2.46-4.47,3.96-2.25,3.53-4.71,9.71-3.49,12.14,1.33,2.63,6.05,3.55,10.53,3.55,.54,0,1.07-.01,1.6-.04,4.46-.21,9.61-1.35,10.39-3.35,.4-1.03-.16-2.7-1.66-4.96-3.21-4.86-10.04-11.21-12.89-11.3Zm13.85,15.99c-.53,1.38-4.81,2.64-9.72,2.87-4.44,.21-10.09-.47-11.42-3.1-.99-1.97,1.02-7.58,3.45-11.39,1.45-2.27,2.86-3.62,3.79-3.62,.01,0,.02,0,.03,0,2.4,.07,8.95,5.91,12.29,10.96,1.3,1.96,1.87,3.52,1.58,4.28Z"/>
      <path class="cls-1" d="M61.81,36.07c-1.59-2.62-2.12-3.5-1.84-4.99,.14-.76-.25-1.52-.95-1.9l.02-.02,.33-1.05c.26-.8,.14-1.67-.31-2.39l-.88-1.37c-.33-.51-.54-1.1-.62-1.7l-.25-1.9c-.09-1.91-.87-5.06-.91-5.23-.06-.16-5.81-15.52-23.9-15.52S8.67,15.37,8.6,15.56c-.03,.13-.81,3.29-.9,5.16l-.25,1.93c-.08,.6-.29,1.19-.62,1.7l-.88,1.38c-.46,.71-.57,1.58-.31,2.39l.33,1.05,.02,.02c-.7,.39-1.09,1.14-.95,1.9,.28,1.48-.26,2.37-1.85,4.99-.53,.87-1.16,1.92-1.91,3.23-3.61,6.32,1.4,13.57,1.79,13.8,.05,.03,.13,.08,.3,.08,.24,0,.66-.12,1.36-.52,.66,.67,2.82,2.74,5.79,3.9,1.91,.75,4.08,1.07,6.28,1.07,5.2,0,10.6-1.77,13.3-3.76,1.47-1.08,2.2-2.23,2.12-3.31-.28-3.78-5.49-11.04-6.48-12.39,.19-.38,.08-.85-.17-1.21-2.15-2.79-7.72-8.27-10.01-8.74-1.14-.24-2-.78-2.53-1.2-.54-.43-1.27-.51-1.92-.22l-.36,.16c0-.12,0-.24-.02-.36-.16-.95-.15-1.66,.03-2.28,.36-1.21,.54-2.74,.58-3.09l2.12-4.1c.04-.12,4.06-11.98,19-11.98s18.96,11.86,19.03,12.03l2.1,4.04c.04,.35,.22,1.88,.58,3.09,.23,.79,.14,1.63,.03,2.28-.02,.12-.02,.24-.02,.36l-.36-.16c-.64-.29-1.38-.21-1.91,.22-.53,.42-1.39,.97-2.53,1.2-2.29,.48-7.86,5.96-10.02,8.76-.24,.35-.35,.82-.16,1.2-.99,1.35-6.2,8.61-6.48,12.39-.08,1.08,.65,2.23,2.12,3.31,2.7,1.99,8.1,3.76,13.31,3.76,2.2,0,4.37-.32,6.28-1.07,2.97-1.17,5.14-3.23,5.79-3.9,.7,.4,1.13,.52,1.36,.52,.17,0,.25-.05,.3-.08,.39-.23,5.39-7.49,1.79-13.8-.75-1.31-1.38-2.36-1.91-3.23Zm-4.99-13.32c.09,.71,.35,1.4,.73,2l.88,1.37c.33,.52,.42,1.16,.23,1.76l-.27,.84h0s-3.4-1.56-3.4-1.56c-.03-.15-.03-.3,0-.44,.12-.72,.23-1.67-.05-2.61-.27-.93-.44-2.09-.52-2.66l2.2-.26,.21,1.56ZM6.59,26.13l.88-1.37c.39-.6,.64-1.3,.73-2l.2-1.56,2.2,.26c-.07,.58-.24,1.73-.52,2.66-.28,.94-.17,1.89-.05,2.61,.02,.14,.02,.29,0,.44l-3.4,1.56-.27-.84c-.19-.59-.11-1.23,.23-1.76Zm24.92,24.48c.06,.8-.59,1.74-1.82,2.65-3.7,2.73-12.67,5.04-18.87,2.6-3.26-1.28-5.58-3.78-5.71-3.92-.12-.16-3.62-4.98-1.86-10.57,1.81-5.76,8.78-10.66,11.46-10.66h.02c2.24,.02,7.71,6,9.63,8.3l.25,.3,.63-.59c1.14,1.57,6,8.45,6.25,11.88ZM11.46,27.48c.38-.17,.82-.13,1.14,.12,.59,.47,1.56,1.08,2.84,1.35,1.93,.4,7.33,5.56,9.56,8.45,0,0,.23,.35,.05,.5l-.36,.34c-1.42-1.67-7.18-8.24-9.95-8.27h-.03c-2.94,0-10.24,5.04-12.18,11.19-1.64,5.21,.91,9.66,1.74,10.92-.34,.19-.66,.33-.82,.36-.74-.87-4.61-7.33-1.51-12.75,.74-1.3,1.37-2.34,1.9-3.21,1.61-2.65,2.27-3.75,1.94-5.52-.09-.46,.18-.95,.64-1.17l5.03-2.3Zm-.66-6.76l-2.33-.27c.12-1.46,.57-3.5,.76-4.31l3.38,1.1-1.81,3.48ZM32.51,4.4c-14.13,0-18.85,10.27-19.58,12.14l-3.46-1.13c.97-2.27,7.02-14.67,23.05-14.67s22.13,12.51,23.05,14.67l-3.46,1.13c-.81-2.03-5.56-12.14-19.58-12.14Zm21.68,16.32l-1.79-3.48,3.38-1.1c.19,.83,.64,2.84,.76,4.31l-2.36,.28Zm5.72,31.23c-.13,.14-2.45,2.63-5.71,3.92-6.2,2.44-15.16,.13-18.87-2.6-1.23-.91-1.88-1.85-1.82-2.65,.25-3.43,5.11-10.31,6.25-11.88l.63,.59,.25-.3c1.92-2.3,7.4-8.28,9.63-8.3h.02c2.68,0,9.65,4.91,11.46,10.66,1.76,5.59-1.74,10.41-1.86,10.57Zm1.65,.48c-.16-.03-.48-.17-.82-.36,.83-1.26,3.38-5.71,1.74-10.92-1.94-6.15-9.24-11.19-12.18-11.19h-.03c-2.77,.03-8.53,6.6-9.95,8.27l-.38-.35c-.15-.13,.06-.47,.06-.47,2.24-2.91,7.64-8.07,9.57-8.47,1.28-.27,2.25-.88,2.84-1.35,.32-.25,.75-.3,1.14-.12l5.03,2.3c.46,.21,.73,.7,.64,1.17-.33,1.77,.33,2.86,1.94,5.51,.52,.86,1.16,1.91,1.9,3.21,3.1,5.42-.77,11.88-1.51,12.75Z"/>
      <path class="cls-1" d="M49.62,35.23s-.03,0-.05,0c-2.85,.09-9.68,6.44-12.89,11.3-1.5,2.26-2.06,3.93-1.66,4.96,.78,2,5.93,3.14,10.39,3.35,.53,.03,1.06,.04,1.6,.04,4.48,0,9.2-.92,10.53-3.56,1.22-2.43-1.24-8.61-3.49-12.14-.95-1.49-2.77-3.96-4.42-3.96Zm7.24,15.76c-1.33,2.63-6.98,3.31-11.42,3.1-4.92-.24-9.19-1.5-9.72-2.87-.29-.76,.28-2.32,1.58-4.28,3.34-5.05,9.89-10.89,12.29-10.96,0,0,.02,0,.03,0,.93,0,2.34,1.35,3.79,3.61,2.43,3.81,4.45,9.43,3.45,11.4Z"/>
    </g>
  </g>
</svg>