<?xml version="1.0" encoding="UTF-8"?>
<svg id="_圖層_2" data-name="圖層 2" xmlns="http://www.w3.org/2000/svg" viewBox="0 0 52.81 61.37">
  <defs>
    <style>
      .cls-1 {
        fill: #fff;
      }

      .cls-2 {
        fill: #b3b3b3;
      }

      .cls-3 {
        fill: #333;
      }

      .cls-4 {
        fill: #4d4d4d;
      }
    </style>
  </defs>
  <g id="Layer_2" data-name="Layer 2">
    <g>
      <path class="cls-3" d="M22.11,.87l-1.67,1.67V60.5h1.31L43.67,.87H22.11Zm2.81,8.63c-.46-.45-.96-1.8-.96-1.8l3.07,2.69s-1.64-.43-2.11-.88Zm2.76,1.09c-.43-.57-1.65-2.43-1.65-2.43,0,0,1.12,.61,1.84,.84,.45,.15,.53,.09,.85-.21,.2-.19,3.35-3.32,4.42-3.77,1.29-.55,3.02-.78,4.18-.78,.39,0,.76,0,.93,0-.69,.26-1.6,.48-3.22,1.3-1.71,.88-3.43,2.07-5.38,3.54-1.18,.89-1.43,1.2-1.23,1.55,.22,.39,1.05,1.28,1.05,1.28,0,0-1.13-.45-1.79-1.32Zm10.75-4.3c-.26,.12-5.03,1.99-8.13,4.05,0,0,1.79,.71,3.33,.71,1.33,0,2.48-2.56,2.48-2.56l-3.66,1.09s2.3-1.2,5.78-2.59c0,0-1.92,4.92-3.93,4.92-1.81,0-4.4-.9-5.42-1.54,0,0,3.57-2.46,6.26-3.77,1.79-.87,3.62-1.07,3.75-1.07,0,.2-.21,.63-.47,.75Z"/>
      <polygon class="cls-3" points="47.5 21.31 41.85 31.94 41.83 31.93 42.38 34.23 47.77 24.5 47.5 21.31"/>
      <polygon class="cls-3" points="26.14 60.5 45.07 60.5 47.2 58.38 39.22 24.69 26.14 60.5"/>
      <polygon class="cls-2" points="14.72 57.96 16.79 56.3 16.79 14.68 15.44 13.48 4.76 23.99 3.43 27.14 3.43 56.03 5.37 57.96 14.72 57.96"/>
      <path class="cls-4" d="M.87,60.5H19.57V4.68L.87,22.71V60.5ZM2.59,26.88l1.49-3.46L15.41,12.28l2.25,2.01V56.72l-2.63,2.12H5.01l-2.45-2.45,.03-29.51Z"/>
      <polygon class="cls-2" points="44.6 .87 22.69 60.5 25.21 60.5 46.99 .87 44.6 .87"/>
      <polygon class="cls-4" points="47.01 3.37 39.76 23.2 41.53 30.67 51.93 11.09 51.93 5.8 49.5 3.37 47.01 3.37"/>
      <polygon class="cls-3" points="49.21 34.03 44.44 42.93 44.85 44.69 49.21 36.82 49.21 34.03"/>
      <polygon class="cls-4" points="50.09 37.04 45.15 45.96 48.6 60.5 51.93 60.5 51.93 28.96 50.09 32.4 50.09 37.04"/>
      <polygon class="cls-4" points="48.66 24.69 42.68 35.48 42.67 35.47 44.13 41.65 51.93 27.11 51.93 12.96 48.25 19.88 48.66 24.69"/>
      <path class="cls-1" d="M15.03,58.84l2.63-2.12V14.29l-2.25-2.01L4.08,23.42l-1.49,3.46-.03,29.51,2.45,2.45H15.03ZM3.43,27.14l1.32-3.15L15.44,13.48l1.34,1.2V56.3l-2.07,1.67H5.37l-1.93-1.93V27.14Z"/>
      <path class="cls-1" d="M47.33,2.5l.91-2.5H21.75l-2.18,2.18v1.28L0,22.34V61.37H45.44l2-2,.47,2h4.9V5.44l-2.94-2.94h-2.54Zm-27.76,3.82V60.5H.87V22.71L19.57,4.68v1.64Zm.87,54.18V2.54l1.67-1.67h21.56L21.75,60.5h-1.31Zm4.76,0h-2.52L44.6,.87h2.38L25.21,60.5Zm19.87,0H26.14l13.08-35.81,7.98,33.68-2.12,2.12Zm-3.24-28.57h.02s5.65-10.62,5.65-10.62l.27,3.19-5.39,9.73-.54-2.3Zm2.61,11l4.77-8.9v2.78l-4.36,7.88-.42-1.76Zm7.49,17.57h-3.33l-3.45-14.54,4.93-8.92v-4.64l1.85-3.44v31.53Zm0-33.39l-7.8,14.53-1.46-6.17h.01s5.98-10.78,5.98-10.78l-.41-4.81,3.68-6.93v14.16Zm0-16.02l-10.4,19.58-1.77-7.47L47.01,3.37h2.5l2.43,2.43v5.29Z"/>
      <path class="cls-1" d="M35.16,6.62c-2.69,1.31-6.26,3.77-6.26,3.77,1.02,.63,3.61,1.54,5.42,1.54,2.02,0,3.93-4.92,3.93-4.92-3.48,1.39-5.78,2.59-5.78,2.59l3.66-1.09s-1.15,2.56-2.48,2.56c-1.54,0-3.33-.71-3.33-.71,3.1-2.06,7.86-3.93,8.13-4.05,.25-.11,.47-.55,.47-.75-.14,0-1.96,.2-3.75,1.07Z"/>
      <path class="cls-1" d="M24.92,9.5c.47,.45,2.11,.88,2.11,.88l-3.07-2.69s.5,1.35,.96,1.8Z"/>
      <path class="cls-1" d="M29.65,9.09c1.95-1.47,3.67-2.66,5.38-3.54,1.61-.83,2.53-1.04,3.22-1.3-.17,0-.54,0-.93,0-1.16,0-2.9,.23-4.18,.78-1.07,.45-4.21,3.58-4.42,3.77-.31,.3-.39,.36-.85,.21-.72-.23-1.84-.84-1.84-.84,0,0,1.22,1.87,1.65,2.43,.66,.87,1.79,1.32,1.79,1.32,0,0-.84-.89-1.05-1.28-.2-.35,.05-.67,1.23-1.55Z"/>
    </g>
  </g>
</svg>