<?xml version="1.0" encoding="UTF-8"?>
<svg id="_圖層_2" data-name="圖層 2" xmlns="http://www.w3.org/2000/svg" viewBox="0 0 77.73 46.89">
  <defs>
    <style>
      .cls-1 {
        fill: #fff;
      }

      .cls-2 {
        fill: #b3b3b3;
      }

      .cls-3 {
        fill: #333;
      }

      .cls-4 {
        fill: #4d4d4d;
      }
    </style>
  </defs>
  <g id="Layer_2" data-name="Layer 2">
    <g>
      <path class="cls-3" d="M42.9,17.19l2.66,.04s.03-.02,.03-.04v-2.62l-2.66-.04-.04,2.66Z"/>
      <rect class="cls-3" x="42.9" y="9.05" width="2.7" height="2.7" rx=".38" ry=".38"/>
      <path class="cls-3" d="M11.18,17.19v-2.62l-7.49-.04c-.07,0-.12,.06-.12,.12v2.54l7.58,.04s.04-.02,.04-.04Z"/>
      <rect class="cls-3" x="37.98" y="20.01" width="2.7" height="2.7" rx=".22" ry=".22"/>
      <rect class="cls-3" x="42.9" y="20.01" width="2.7" height="2.7" rx=".22" ry=".22"/>
      <rect class="cls-3" x="23.23" y="25.5" width="22.36" height="2.7" rx=".18" ry=".18"/>
      <rect class="cls-2" x="33.07" y="3.36" width="2.7" height="2.7" rx=".38" ry=".38"/>
      <rect class="cls-3" x="47.82" y="20.01" width="2.7" height="2.7" rx=".22" ry=".22"/>
      <rect class="cls-3" x="3.56" y="9.05" width="2.7" height="2.7" rx=".38" ry=".38"/>
      <rect class="cls-3" x="28.15" y="20.01" width="2.7" height="2.7" rx=".22" ry=".22"/>
      <rect class="cls-3" x="37.98" y="9.05" width="2.7" height="2.7" rx=".38" ry=".38"/>
      <path class="cls-3" d="M47.82,17.19l2.66,.04s.04-.02,.04-.04v-2.62l-2.66-.04-.03,2.66Z"/>
      <rect class="cls-3" x="47.82" y="25.5" width="2.7" height="2.7" rx=".18" ry=".18"/>
      <path class="cls-3" d="M40.68,17.19v-2.62l-2.66-.04-.04,2.66,2.66,.04s.04-.02,.04-.04Z"/>
      <rect class="cls-2" x="42.9" y="3.36" width="2.7" height="2.7" rx=".38" ry=".38"/>
      <path class="cls-2" d="M13.4,17.19l2.66,.04s.04-.02,.04-.04v-2.62l-2.66-.04-.04,2.66Z"/>
      <rect class="cls-3" x="13.4" y="9.05" width="2.7" height="2.7" rx=".38" ry=".38"/>
      <rect class="cls-3" x="33.07" y="20.01" width="2.7" height="2.7" rx=".22" ry=".22"/>
      <rect class="cls-3" x="8.48" y="25.5" width="2.7" height="2.7" rx=".18" ry=".18"/>
      <rect class="cls-3" x="13.4" y="25.5" width="2.7" height="2.7" rx=".18" ry=".18"/>
      <rect class="cls-2" x="18.31" y="9.05" width="2.7" height="2.7" rx=".38" ry=".38"/>
      <rect class="cls-3" x="13.4" y="3.36" width="17.45" height="2.7" rx=".38" ry=".38"/>
      <rect class="cls-3" x="3.56" y="20.01" width="12.53" height="2.7" rx=".22" ry=".22"/>
      <rect class="cls-3" x="3.56" y="25.5" width="2.7" height="2.7" rx=".18" ry=".18"/>
      <path class="cls-2" d="M18.31,17.19l2.66,.04s.03-.02,.03-.04v-2.62l-2.66-.04-.04,2.66Z"/>
      <rect class="cls-3" x="33.07" y="9.05" width="2.7" height="2.7" rx=".38" ry=".38"/>
      <path class="cls-3" d="M35.76,17.19v-2.62l-2.66-.04-.04,2.66,2.66,.04s.04-.02,.04-.04Z"/>
      <rect class="cls-3" x="18.31" y="25.5" width="2.7" height="2.7" rx=".18" ry=".18"/>
      <path class="cls-3" d="M28.15,17.19l2.66,.04s.04-.02,.04-.04v-2.62l-2.66-.04-.03,2.66Z"/>
      <path class="cls-3" d="M20.79,20.01h-2.35c-.07,0-.12,.06-.12,.12v2.35c0,.12,.1,.22,.22,.22h2.26c.12,0,.22-.1,.22-.22v-2.26c0-.12-.1-.22-.22-.22Z"/>
      <polygon class="cls-3" points="43.13 32.76 56.48 46.11 65.56 46.11 52.21 32.76 43.13 32.76"/>
      <rect class="cls-3" x="71.44" y="20.01" width="2.7" height="2.7" rx=".22" ry=".22"/>
      <rect class="cls-2" x="62.54" y="25.5" width="2.7" height="2.7" rx=".18" ry=".18"/>
      <path class="cls-3" d="M71.44,17.19l2.66,.04s.04-.02,.04-.04v-2.62l-2.66-.04-.03,2.66Z"/>
      <rect class="cls-2" x="67.42" y="25.5" width="2.7" height="2.7" rx=".18" ry=".18"/>
      <path class="cls-4" d="M2.66,32.76l-1.91,1.91v9.53l1.91,1.91H55.42l-13.35-13.35H2.66Zm1.42,8.33c-.51-.5-1.07-2.01-1.07-2.01l3.42,2.99s-1.83-.48-2.34-.98Zm3.08,1.22c-.48-.63-1.84-2.71-1.84-2.71,0,0,1.25,.68,2.04,.94,.5,.17,.59,.1,.94-.23,.23-.22,3.73-3.69,4.92-4.2,1.43-.61,3.36-.87,4.66-.87,.44,0,.85,0,1.04,0-.77,.29-1.79,.53-3.58,1.45-1.91,.98-3.82,2.31-5.99,3.94-1.31,.99-1.59,1.34-1.37,1.73,.24,.43,1.17,1.42,1.17,1.42,0,0-1.26-.5-1.99-1.47Zm11.97-4.79c-.29,.13-5.6,2.21-9.05,4.51,0,0,2,.79,3.71,.79,1.48,0,2.76-2.85,2.76-2.85l-4.07,1.22s2.56-1.34,6.44-2.88c0,0-2.14,5.48-4.38,5.48-2.02,0-4.9-1-6.04-1.71,0,0,3.97-2.73,6.97-4.19,1.99-.97,4.03-1.19,4.18-1.19,0,.22-.24,.71-.52,.83Z"/>
      <rect class="cls-2" x="62.54" y="20.01" width="2.7" height="2.7" rx=".22" ry=".22"/>
      <path class="cls-3" d="M62.91,11.74h4.67c.21,0,.38-.17,.38-.38v-1.95c0-.21-.17-.38-.38-.38h-4.92c-.07,0-.12,.06-.12,.12v2.2c0,.21,.17,.38,.38,.38Z"/>
      <polygon class="cls-2" points="53.27 32.76 66.62 46.11 75.06 46.11 76.98 44.2 76.98 34.67 75.06 32.76 53.27 32.76"/>
      <rect class="cls-3" x="23.23" y="20.01" width="2.7" height="2.7" rx=".22" ry=".22"/>
      <path class="cls-4" d="M2.66,.75L.75,2.66V30.1l1.91,1.91H75.06l1.91-1.91V2.66l-1.91-1.91H2.66ZM61.79,9.17c0-.48,.39-.88,.88-.88h4.92c.62,0,1.12,.5,1.12,1.12v1.95c0,.62-.5,1.12-1.12,1.12h-4.67c-.62,0-1.12-.5-1.12-1.12v-2.2Zm-4.88-5.43c0-.63,.51-1.13,1.13-1.13h2.19c.48,0,.88,.39,.88,.88v2.19c0,.63-.51,1.13-1.14,1.13h-1.93c-.63,0-1.13-.51-1.13-1.13v-1.93Zm0,5.68c0-.62,.5-1.12,1.12-1.12h1.95c.62,0,1.12,.5,1.12,1.12v1.95c0,.62-.5,1.12-1.12,1.12h-1.95c-.62,0-1.12-.5-1.12-1.12v-1.95Zm0,5.14c0-.43,.35-.79,.79-.79h10.24c.43,0,.78,.35,.78,.79v2.62c0,.43-.35,.79-.78,.79h-10.24c-.43,0-.79-.35-.79-.79v-2.62ZM37.23,3.74c0-.63,.51-1.13,1.13-1.13h1.93c.63,0,1.14,.51,1.14,1.13v1.93c0,.63-.51,1.13-1.14,1.13h-1.93c-.63,0-1.13-.51-1.13-1.13v-1.93Zm0,5.68c0-.62,.5-1.12,1.12-1.12h1.95c.62,0,1.12,.5,1.12,1.12v1.95c0,.62-.5,1.12-1.12,1.12h-1.95c-.62,0-1.12-.5-1.12-1.12v-1.95Zm0,5.14c0-.43,.35-.79,.79-.79h2.63c.43,0,.79,.35,.79,.79v2.62c0,.43-.35,.79-.79,.79h-2.63c-.43,0-.79-.35-.79-.79v-2.62Zm0,5.67c0-.53,.44-.97,.97-.97h2.26c.54,0,.97,.44,.97,.97v2.26c0,.53-.44,.97-.97,.97h-2.26c-.53,0-.97-.44-.97-.97v-2.26ZM32.32,3.74c0-.63,.51-1.13,1.14-1.13h1.93c.63,0,1.13,.51,1.13,1.13v1.93c0,.63-.51,1.13-1.13,1.13h-1.93c-.63,0-1.14-.51-1.14-1.13v-1.93Zm0,5.68c0-.62,.5-1.12,1.12-1.12h1.95c.62,0,1.12,.5,1.12,1.12v1.95c0,.62-.5,1.12-1.12,1.12h-1.95c-.62,0-1.12-.5-1.12-1.12v-1.95Zm0,5.14c0-.43,.35-.79,.79-.79h2.63c.43,0,.79,.35,.79,.79v2.62c0,.43-.35,.79-.79,.79h-2.63c-.43,0-.79-.35-.79-.79v-2.62Zm0,5.67c0-.53,.44-.97,.97-.97h2.26c.53,0,.97,.44,.97,.97v2.26c0,.53-.44,.97-.97,.97h-2.26c-.54,0-.97-.44-.97-.97v-2.26ZM12.65,3.74c0-.63,.51-1.13,1.14-1.13H30.46c.63,0,1.13,.51,1.13,1.13v1.93c0,.63-.51,1.13-1.13,1.13H13.78c-.63,0-1.14-.51-1.14-1.13v-1.93Zm18.16,14.23h-2.63c-.43,0-.78-.35-.78-.79v-2.62c0-.43,.35-.79,.78-.79h2.63c.43,0,.79,.35,.79,.79v2.62c0,.43-.35,.79-.79,.79Zm.79,2.26v2.26c0,.53-.44,.97-.97,.97h-2.26c-.53,0-.97-.44-.97-.97v-2.26c0-.53,.44-.97,.97-.97h2.26c.53,0,.97,.44,.97,.97Zm-1.12-7.74h-1.95c-.62,0-1.12-.5-1.12-1.12v-1.95c0-.62,.5-1.12,1.12-1.12h1.95c.62,0,1.12,.5,1.12,1.12v1.95c0,.62-.5,1.12-1.12,1.12Zm-4.58,5.48h-2.63c-.43,0-.79-.35-.79-.79v-2.62c0-.43,.35-.79,.79-.79h2.63c.43,0,.78,.35,.78,.79v2.62c0,.43-.35,.79-.78,.79Zm.78,2.26v2.26c0,.53-.44,.97-.97,.97h-2.26c-.53,0-.97-.44-.97-.97v-2.26c0-.53,.44-.97,.97-.97h2.26c.53,0,.97,.44,.97,.97Zm-1.12-7.74h-1.95c-.62,0-1.12-.5-1.12-1.12v-1.95c0-.62,.5-1.12,1.12-1.12h1.95c.62,0,1.12,.5,1.12,1.12v1.95c0,.62-.5,1.12-1.12,1.12ZM7.73,3.74c0-.63,.51-1.13,1.13-1.13h1.93c.63,0,1.13,.51,1.13,1.13v1.93c0,.63-.51,1.13-1.13,1.13h-1.93c-.63,0-1.13-.51-1.13-1.13v-1.93Zm0,5.68c0-.62,.5-1.12,1.12-1.12h1.95c.62,0,1.12,.5,1.12,1.12v1.95c0,.62-.5,1.12-1.12,1.12h-1.95c-.62,0-1.12-.5-1.12-1.12v-1.95Zm-4.92,0c0-.62,.5-1.12,1.12-1.12h1.95c.62,0,1.12,.5,1.12,1.12v1.95c0,.62-.5,1.12-1.12,1.12h-1.95c-.62,0-1.12-.5-1.12-1.12v-1.95Zm0,5.23c0-.48,.39-.88,.88-.88h7.45c.43,0,.79,.35,.79,.79v2.62c0,.43-.35,.79-.79,.79H3.6c-.43,0-.79-.35-.79-.79v-2.54Zm4.2,13.36c0,.51-.42,.93-.93,.93H3.74c-.51,0-.93-.42-.93-.93v-2.33c0-.51,.42-.93,.93-.93h2.33c.51,0,.93,.42,.93,.93v2.33Zm4.92,0c0,.51-.42,.93-.93,.93h-2.33c-.51,0-.93-.42-.93-.93v-2.33c0-.51,.42-.93,.93-.93h2.33c.51,0,.93,.42,.93,.93v2.33Zm4.92,0c0,.51-.42,.93-.93,.93h-2.33c-.51,0-.93-.42-.93-.93v-2.33c0-.51,.42-.93,.93-.93h2.33c.51,0,.93,.42,.93,.93v2.33Zm0-5.52c0,.53-.44,.97-.97,.97H3.78c-.53,0-.97-.44-.97-.97v-2.26c0-.53,.44-.97,.97-.97H15.87c.53,0,.97,.44,.97,.97v2.26Zm0-5.3c0,.43-.35,.79-.79,.79h-2.63c-.43,0-.79-.35-.79-.79v-2.62c0-.43,.35-.79,.79-.79h2.63c.43,0,.79,.35,.79,.79v2.62Zm0-5.82c0,.62-.5,1.12-1.12,1.12h-1.95c-.62,0-1.12-.5-1.12-1.12v-1.95c0-.62,.5-1.12,1.12-1.12h1.95c.62,0,1.12,.5,1.12,1.12v1.95Zm4.92,16.64c0,.51-.42,.93-.93,.93h-2.33c-.51,0-.93-.42-.93-.93v-2.33c0-.51,.42-.93,.93-.93h2.33c.51,0,.93,.42,.93,.93v2.33Zm0-5.52c0,.53-.44,.97-.97,.97h-2.26c-.53,0-.97-.44-.97-.97v-2.35c0-.48,.39-.88,.88-.88h2.35c.53,0,.97,.44,.97,.97v2.26Zm0-5.3c0,.43-.35,.79-.78,.79h-2.63c-.43,0-.79-.35-.79-.79v-2.62c0-.43,.35-.79,.79-.79h2.63c.43,0,.78,.35,.78,.79v2.62Zm0-5.82c0,.62-.5,1.12-1.12,1.12h-1.95c-.62,0-1.12-.5-1.12-1.12v-1.95c0-.62,.5-1.12,1.12-1.12h1.95c.62,0,1.12,.5,1.12,1.12v1.95Zm24.59,16.64c0,.51-.42,.93-.93,.93H23.41c-.51,0-.93-.42-.93-.93v-2.33c0-.51,.42-.93,.93-.93h22c.51,0,.93,.42,.93,.93v2.33Zm0-5.52c0,.53-.44,.97-.97,.97h-2.26c-.53,0-.97-.44-.97-.97v-2.26c0-.53,.44-.97,.97-.97h2.26c.53,0,.97,.44,.97,.97v2.26Zm0-5.3c0,.43-.35,.79-.78,.79h-2.63c-.43,0-.79-.35-.79-.79v-2.62c0-.43,.35-.79,.79-.79h2.63c.43,0,.78,.35,.78,.79v2.62Zm0-5.82c0,.62-.5,1.12-1.12,1.12h-1.95c-.62,0-1.12-.5-1.12-1.12v-1.95c0-.62,.5-1.12,1.12-1.12h1.95c.62,0,1.12,.5,1.12,1.12v1.95Zm0-5.7c0,.63-.51,1.13-1.13,1.13h-1.93c-.63,0-1.13-.51-1.13-1.13v-1.93c0-.63,.51-1.13,1.13-1.13h1.93c.63,0,1.13,.51,1.13,1.13v1.93Zm4.92,22.34c0,.51-.42,.93-.93,.93h-2.33c-.51,0-.93-.42-.93-.93v-2.33c0-.51,.42-.93,.93-.93h2.33c.51,0,.93,.42,.93,.93v2.33Zm0-5.52c0,.53-.44,.97-.97,.97h-2.26c-.53,0-.97-.44-.97-.97v-2.26c0-.53,.44-.97,.97-.97h2.26c.53,0,.97,.44,.97,.97v2.26Zm0-5.3c0,.43-.35,.79-.79,.79h-2.63c-.43,0-.78-.35-.78-.79v-2.62c0-.43,.35-.79,.78-.79h2.63c.43,0,.79,.35,.79,.79v2.62Zm0-5.82c0,.62-.5,1.12-1.12,1.12h-1.95c-.62,0-1.12-.5-1.12-1.12v-1.95c0-.62,.5-1.12,1.12-1.12h1.95c.62,0,1.12,.5,1.12,1.12v1.95Zm0-5.7c0,.63-.51,1.13-1.13,1.13h-1.93c-.63,0-1.13-.51-1.13-1.13v-1.93c0-.63,.51-1.13,1.13-1.13h1.93c.63,0,1.13,.51,1.13,1.13v1.93Zm4.92,16.82c0,.53-.44,.97-.97,.97h-2.26c-.54,0-.97-.44-.97-.97v-2.26c0-.53,.44-.97,.97-.97h2.26c.53,0,.97,.44,.97,.97v2.26Zm0-5.3c0,.43-.35,.79-.79,.79h-2.63c-.43,0-.79-.35-.79-.79v-2.62c0-.43,.35-.79,.79-.79h2.63c.43,0,.79,.35,.79,.79v2.62Zm0-5.82c0,.62-.5,1.12-1.12,1.12h-1.95c-.62,0-1.12-.5-1.12-1.12v-1.95c0-.62,.5-1.12,1.12-1.12h1.95c.62,0,1.12,.5,1.12,1.12v1.95Zm0-5.7c0,.63-.51,1.13-1.13,1.13h-1.93c-.63,0-1.14-.51-1.14-1.13v-1.93c0-.63,.51-1.13,1.14-1.13h1.93c.63,0,1.13,.51,1.13,1.13v1.93Zm4.92,22.34c0,.51-.42,.93-.93,.93h-2.33c-.51,0-.93-.42-.93-.93v-2.33c0-.51,.42-.93,.93-.93h2.33c.51,0,.93,.42,.93,.93v2.33Zm4.88,0c0,.51-.42,.93-.93,.93h-2.33c-.51,0-.93-.42-.93-.93v-2.33c0-.51,.42-.93,.93-.93h2.33c.51,0,.93,.42,.93,.93v2.33Zm0-5.52c0,.53-.44,.97-.97,.97h-2.26c-.54,0-.97-.44-.97-.97v-2.26c0-.53,.44-.97,.97-.97h2.26c.53,0,.97,.44,.97,.97v2.26Zm4.88,5.52c0,.51-.42,.93-.93,.93h-2.33c-.51,0-.93-.42-.93-.93v-2.33c0-.51,.42-.93,.93-.93h2.33c.51,0,.93,.42,.93,.93v2.33Zm4.01-5.52c0,.53-.44,.97-.97,.97h-2.26c-.53,0-.97-.44-.97-.97v-2.26c0-.53,.44-.97,.97-.97h2.26c.53,0,.97,.44,.97,.97v2.26Zm0-5.3c0,.43-.35,.79-.79,.79h-2.63c-.43,0-.78-.35-.78-.79v-2.62c0-.43,.35-.79,.78-.79h2.63c.43,0,.79,.35,.79,.79v2.62Zm0-5.82c0,.62-.5,1.12-1.12,1.12h-1.95c-.62,0-1.12-.5-1.12-1.12v-1.95c0-.62,.5-1.12,1.12-1.12h1.95c.62,0,1.12,.5,1.12,1.12v1.95Zm0-6.05c0,.82-.67,1.49-1.49,1.49h-10.17c-.79,0-1.44-.65-1.44-1.44v-1.31c0-.79,.65-1.44,1.44-1.44h10.21c.79,0,1.44,.65,1.44,1.44v1.27Z"/>
      <path class="cls-3" d="M73.44,3.36h-10.21c-.38,0-.69,.31-.69,.69v1.31c0,.38,.31,.69,.69,.69h10.17c.41,0,.74-.33,.74-.74v-1.27c0-.38-.31-.69-.69-.69Z"/>
      <path class="cls-2" d="M23.23,17.19l2.66,.04s.03-.02,.03-.04v-2.62l-2.66-.04-.04,2.66Z"/>
      <rect class="cls-3" x="71.44" y="9.05" width="2.7" height="2.7" rx=".38" ry=".38"/>
      <rect class="cls-3" x="23.23" y="9.05" width="2.7" height="2.7" rx=".38" ry=".38"/>
      <rect class="cls-2" x="47.82" y="3.36" width="2.7" height="2.7" rx=".38" ry=".38"/>
      <path class="cls-3" d="M52.74,17.19l2.66,.04s.04-.02,.04-.04v-2.62l-2.66-.04-.04,2.66Z"/>
      <rect class="cls-3" x="28.15" y="9.05" width="2.7" height="2.7" rx=".37" ry=".37"/>
      <path class="cls-3" d="M67.96,17.19v-2.62l-10.27-.04-.04,2.66,10.27,.04s.03-.02,.03-.04Z"/>
      <rect class="cls-2" x="37.98" y="3.36" width="2.7" height="2.7" rx=".38" ry=".38"/>
      <rect class="cls-3" x="8.48" y="9.05" width="2.7" height="2.7" rx=".38" ry=".38"/>
      <rect class="cls-3" x="52.74" y="20.01" width="2.7" height="2.7" rx=".22" ry=".22"/>
      <path class="cls-2" d="M58.04,6.05h1.93c.21,0,.39-.17,.39-.38V3.48c0-.07-.06-.12-.12-.12h-2.19c-.21,0-.38,.17-.38,.38v1.93c0,.21,.17,.38,.38,.38Z"/>
      <rect class="cls-2" x="57.65" y="25.5" width="2.7" height="2.7" rx=".18" ry=".18"/>
      <rect class="cls-3" x="47.82" y="9.05" width="2.7" height="2.7" rx=".38" ry=".38"/>
      <rect class="cls-3" x="8.48" y="3.36" width="2.7" height="2.7" rx=".38" ry=".38"/>
      <rect class="cls-2" x="52.74" y="3.36" width="2.7" height="2.7" rx=".38" ry=".38"/>
      <rect class="cls-3" x="52.74" y="9.05" width="2.7" height="2.7" rx=".38" ry=".38"/>
      <rect class="cls-3" x="57.65" y="9.05" width="2.7" height="2.7" rx=".38" ry=".38"/>
      <path class="cls-1" d="M13.78,6.8H30.46c.63,0,1.13-.51,1.13-1.13v-1.93c0-.63-.51-1.13-1.13-1.13H13.78c-.63,0-1.14,.51-1.14,1.13v1.93c0,.63,.51,1.13,1.14,1.13Zm-.39-3.06c0-.21,.17-.38,.39-.38H30.46c.21,0,.38,.17,.38,.38v1.93c0,.21-.17,.38-.38,.38H13.78c-.21,0-.39-.17-.39-.38v-1.93Z"/>
      <path class="cls-1" d="M30.62,19.26h-2.26c-.53,0-.97,.44-.97,.97v2.26c0,.53,.44,.97,.97,.97h2.26c.53,0,.97-.44,.97-.97v-2.26c0-.53-.44-.97-.97-.97Zm.22,3.23c0,.12-.1,.22-.22,.22h-2.26c-.12,0-.22-.1-.22-.22v-2.26c0-.12,.1-.22,.22-.22h2.26c.12,0,.22,.1,.22,.22v2.26Z"/>
      <path class="cls-1" d="M31.59,14.56c0-.43-.35-.79-.79-.79h-2.63c-.43,0-.78,.35-.78,.79v2.62c0,.43,.35,.79,.78,.79h2.63c.43,0,.79-.35,.79-.79v-2.62Zm-.75,2.62s-.02,.04-.04,.04l-2.66-.04,.03-2.66,2.66,.04v2.62Z"/>
      <path class="cls-1" d="M33.1,17.98h2.63c.43,0,.79-.35,.79-.79v-2.62c0-.43-.35-.79-.79-.79h-2.63c-.43,0-.79,.35-.79,.79v2.62c0,.43,.35,.79,.79,.79Zm0-3.45l2.66,.04v2.62s-.02,.04-.04,.04l-2.66-.04,.04-2.66Z"/>
      <path class="cls-1" d="M57.69,17.98h10.24c.43,0,.78-.35,.78-.79v-2.62c0-.43-.35-.79-.78-.79h-10.24c-.43,0-.79,.35-.79,.79v2.62c0,.43,.35,.79,.79,.79Zm0-3.45l10.27,.04v2.62s-.02,.04-.03,.04l-10.27-.04,.04-2.66Z"/>
      <path class="cls-1" d="M58.03,12.49h1.95c.62,0,1.12-.5,1.12-1.12v-1.95c0-.62-.5-1.12-1.12-1.12h-1.95c-.62,0-1.12,.5-1.12,1.12v1.95c0,.62,.5,1.12,1.12,1.12Zm-.38-3.07c0-.21,.17-.38,.38-.38h1.95c.21,0,.38,.17,.38,.38v1.95c0,.21-.17,.38-.38,.38h-1.95c-.21,0-.38-.17-.38-.38v-1.95Z"/>
      <path class="cls-1" d="M62.91,12.49h4.67c.62,0,1.12-.5,1.12-1.12v-1.95c0-.62-.5-1.12-1.12-1.12h-4.92c-.48,0-.88,.39-.88,.88v2.2c0,.62,.5,1.12,1.12,1.12Zm-.38-3.32c0-.07,.06-.12,.12-.12h4.92c.21,0,.38,.17,.38,.38v1.95c0,.21-.17,.38-.38,.38h-4.67c-.21,0-.38-.17-.38-.38v-2.2Z"/>
      <path class="cls-1" d="M58.04,6.8h1.93c.63,0,1.14-.51,1.14-1.13V3.48c0-.48-.39-.88-.88-.88h-2.19c-.63,0-1.13,.51-1.13,1.13v1.93c0,.63,.51,1.13,1.13,1.13Zm-.38-3.06c0-.21,.17-.38,.38-.38h2.19c.07,0,.12,.06,.12,.12v2.19c0,.21-.17,.38-.39,.38h-1.93c-.21,0-.38-.17-.38-.38v-1.93Z"/>
      <path class="cls-1" d="M8.51,42.07c1.14,.7,4.02,1.71,6.04,1.71,2.25,0,4.38-5.48,4.38-5.48-3.88,1.55-6.44,2.88-6.44,2.88l4.07-1.22s-1.28,2.85-2.76,2.85c-1.71,0-3.71-.79-3.71-.79,3.45-2.3,8.76-4.38,9.05-4.51,.28-.13,.52-.61,.52-.83-.15,0-2.19,.22-4.18,1.19-3,1.46-6.97,4.19-6.97,4.19Z"/>
      <path class="cls-1" d="M4.09,41.09c.52,.51,2.34,.98,2.34,.98l-3.42-2.99s.56,1.51,1.07,2.01Z"/>
      <path class="cls-1" d="M9.36,40.63c2.17-1.63,4.08-2.97,5.99-3.94,1.8-.92,2.81-1.16,3.58-1.45-.19,0-.6,0-1.04,0-1.3,0-3.22,.26-4.66,.87-1.19,.51-4.69,3.98-4.92,4.2-.35,.33-.44,.41-.94,.23-.8-.25-2.04-.94-2.04-.94,0,0,1.36,2.08,1.84,2.71,.73,.97,1.99,1.47,1.99,1.47,0,0-.93-.99-1.17-1.42-.22-.4,.06-.74,1.37-1.73Z"/>
      <path class="cls-1" d="M38.36,12.49h1.95c.62,0,1.12-.5,1.12-1.12v-1.95c0-.62-.5-1.12-1.12-1.12h-1.95c-.62,0-1.12,.5-1.12,1.12v1.95c0,.62,.5,1.12,1.12,1.12Zm-.38-3.07c0-.21,.17-.38,.38-.38h1.95c.21,0,.38,.17,.38,.38v1.95c0,.21-.17,.38-.38,.38h-1.95c-.21,0-.38-.17-.38-.38v-1.95Z"/>
      <path class="cls-1" d="M33.44,12.49h1.95c.62,0,1.12-.5,1.12-1.12v-1.95c0-.62-.5-1.12-1.12-1.12h-1.95c-.62,0-1.12,.5-1.12,1.12v1.95c0,.62,.5,1.12,1.12,1.12Zm-.38-3.07c0-.21,.17-.38,.38-.38h1.95c.21,0,.38,.17,.38,.38v1.95c0,.21-.17,.38-.38,.38h-1.95c-.21,0-.38-.17-.38-.38v-1.95Z"/>
      <path class="cls-1" d="M26.68,14.56c0-.43-.35-.79-.78-.79h-2.63c-.43,0-.79,.35-.79,.79v2.62c0,.43,.35,.79,.79,.79h2.63c.43,0,.78-.35,.78-.79v-2.62Zm-.75,2.62s-.02,.04-.03,.04l-2.66-.04,.04-2.66,2.66,.04v2.62Z"/>
      <path class="cls-1" d="M33.45,6.8h1.93c.63,0,1.13-.51,1.13-1.13v-1.93c0-.63-.51-1.13-1.13-1.13h-1.93c-.63,0-1.14,.51-1.14,1.13v1.93c0,.63,.51,1.13,1.14,1.13Zm-.39-3.06c0-.21,.17-.38,.39-.38h1.93c.21,0,.38,.17,.38,.38v1.93c0,.21-.17,.38-.38,.38h-1.93c-.21,0-.39-.17-.39-.38v-1.93Z"/>
      <path class="cls-1" d="M38.37,6.8h1.93c.63,0,1.14-.51,1.14-1.13v-1.93c0-.63-.51-1.13-1.14-1.13h-1.93c-.63,0-1.13,.51-1.13,1.13v1.93c0,.63,.51,1.13,1.13,1.13Zm-.38-3.06c0-.21,.17-.38,.38-.38h1.93c.21,0,.39,.17,.39,.38v1.93c0,.21-.17,.38-.39,.38h-1.93c-.21,0-.38-.17-.38-.38v-1.93Z"/>
      <path class="cls-1" d="M33.29,23.46h2.26c.53,0,.97-.44,.97-.97v-2.26c0-.53-.44-.97-.97-.97h-2.26c-.54,0-.97,.44-.97,.97v2.26c0,.53,.44,.97,.97,.97Zm-.22-3.23c0-.12,.1-.22,.22-.22h2.26c.12,0,.22,.1,.22,.22v2.26c0,.12-.1,.22-.22,.22h-2.26c-.12,0-.22-.1-.22-.22v-2.26Z"/>
      <path class="cls-1" d="M38.2,23.46h2.26c.54,0,.97-.44,.97-.97v-2.26c0-.53-.44-.97-.97-.97h-2.26c-.53,0-.97,.44-.97,.97v2.26c0,.53,.44,.97,.97,.97Zm-.22-3.23c0-.12,.1-.22,.22-.22h2.26c.12,0,.22,.1,.22,.22v2.26c0,.12-.1,.22-.22,.22h-2.26c-.12,0-.22-.1-.22-.22v-2.26Z"/>
      <path class="cls-1" d="M38.02,17.98h2.63c.43,0,.79-.35,.79-.79v-2.62c0-.43-.35-.79-.79-.79h-2.63c-.43,0-.79,.35-.79,.79v2.62c0,.43,.35,.79,.79,.79Zm0-3.45l2.66,.04v2.62s-.02,.04-.04,.04l-2.66-.04,.04-2.66Z"/>
      <path class="cls-1" d="M31.59,9.42c0-.62-.5-1.12-1.12-1.12h-1.95c-.62,0-1.12,.5-1.12,1.12v1.95c0,.62,.5,1.12,1.12,1.12h1.95c.62,0,1.12-.5,1.12-1.12v-1.95Zm-.75,1.95c0,.21-.17,.38-.38,.38h-1.95c-.21,0-.38-.17-.38-.38v-1.95c0-.21,.17-.38,.38-.38h1.95c.21,0,.38,.17,.38,.38v1.95Z"/>
      <path class="cls-1" d="M50.13,2.61h-1.93c-.63,0-1.13,.51-1.13,1.13v1.93c0,.63,.51,1.13,1.13,1.13h1.93c.63,0,1.13-.51,1.13-1.13v-1.93c0-.63-.51-1.13-1.13-1.13Zm.38,3.06c0,.21-.17,.38-.38,.38h-1.93c-.21,0-.38-.17-.38-.38v-1.93c0-.21,.17-.38,.38-.38h1.93c.21,0,.38,.17,.38,.38v1.93Z"/>
      <path class="cls-1" d="M55.05,2.61h-1.93c-.63,0-1.14,.51-1.14,1.13v1.93c0,.63,.51,1.13,1.14,1.13h1.93c.63,0,1.13-.51,1.13-1.13v-1.93c0-.63-.51-1.13-1.13-1.13Zm.38,3.06c0,.21-.17,.38-.38,.38h-1.93c-.21,0-.39-.17-.39-.38v-1.93c0-.21,.17-.38,.39-.38h1.93c.21,0,.38,.17,.38,.38v1.93Z"/>
      <path class="cls-1" d="M55.4,13.78h-2.63c-.43,0-.79,.35-.79,.79v2.62c0,.43,.35,.79,.79,.79h2.63c.43,0,.79-.35,.79-.79v-2.62c0-.43-.35-.79-.79-.79Zm.04,3.41s-.02,.04-.04,.04l-2.66-.04,.04-2.66,2.66,.04v2.62Z"/>
      <path class="cls-1" d="M55.06,8.3h-1.95c-.62,0-1.12,.5-1.12,1.12v1.95c0,.62,.5,1.12,1.12,1.12h1.95c.62,0,1.12-.5,1.12-1.12v-1.95c0-.62-.5-1.12-1.12-1.12Zm.38,3.07c0,.21-.17,.38-.38,.38h-1.95c-.21,0-.38-.17-.38-.38v-1.95c0-.21,.17-.38,.38-.38h1.95c.21,0,.38,.17,.38,.38v1.95Z"/>
      <path class="cls-1" d="M55.21,19.26h-2.26c-.54,0-.97,.44-.97,.97v2.26c0,.53,.44,.97,.97,.97h2.26c.53,0,.97-.44,.97-.97v-2.26c0-.53-.44-.97-.97-.97Zm.22,3.23c0,.12-.1,.22-.22,.22h-2.26c-.12,0-.22-.1-.22-.22v-2.26c0-.12,.1-.22,.22-.22h2.26c.12,0,.22,.1,.22,.22v2.26Z"/>
      <path class="cls-1" d="M50.33,24.75h-2.33c-.51,0-.93,.42-.93,.93v2.33c0,.51,.42,.93,.93,.93h2.33c.51,0,.93-.42,.93-.93v-2.33c0-.51-.42-.93-.93-.93Zm.18,3.26c0,.1-.08,.18-.18,.18h-2.33c-.1,0-.18-.08-.18-.18v-2.33c0-.1,.08-.18,.18-.18h2.33c.1,0,.18,.08,.18,.18v2.33Z"/>
      <path class="cls-1" d="M50.14,8.3h-1.95c-.62,0-1.12,.5-1.12,1.12v1.95c0,.62,.5,1.12,1.12,1.12h1.95c.62,0,1.12-.5,1.12-1.12v-1.95c0-.62-.5-1.12-1.12-1.12Zm.38,3.07c0,.21-.17,.38-.38,.38h-1.95c-.21,0-.38-.17-.38-.38v-1.95c0-.21,.17-.38,.38-.38h1.95c.21,0,.38,.17,.38,.38v1.95Z"/>
      <path class="cls-1" d="M50.29,19.26h-2.26c-.53,0-.97,.44-.97,.97v2.26c0,.53,.44,.97,.97,.97h2.26c.53,0,.97-.44,.97-.97v-2.26c0-.53-.44-.97-.97-.97Zm.22,3.23c0,.12-.1,.22-.22,.22h-2.26c-.12,0-.22-.1-.22-.22v-2.26c0-.12,.1-.22,.22-.22h2.26c.12,0,.22,.1,.22,.22v2.26Z"/>
      <path class="cls-1" d="M50.48,13.78h-2.63c-.43,0-.78,.35-.78,.79v2.62c0,.43,.35,.79,.78,.79h2.63c.43,0,.79-.35,.79-.79v-2.62c0-.43-.35-.79-.79-.79Zm.04,3.41s-.02,.04-.04,.04l-2.66-.04,.03-2.66,2.66,.04v2.62Z"/>
      <path class="cls-1" d="M60.17,24.75h-2.33c-.51,0-.93,.42-.93,.93v2.33c0,.51,.42,.93,.93,.93h2.33c.51,0,.93-.42,.93-.93v-2.33c0-.51-.42-.93-.93-.93Zm.18,3.26c0,.1-.08,.18-.18,.18h-2.33c-.1,0-.18-.08-.18-.18v-2.33c0-.1,.08-.18,.18-.18h2.33c.1,0,.18,.08,.18,.18v2.33Z"/>
      <path class="cls-1" d="M45.21,2.61h-1.93c-.63,0-1.13,.51-1.13,1.13v1.93c0,.63,.51,1.13,1.13,1.13h1.93c.63,0,1.13-.51,1.13-1.13v-1.93c0-.63-.51-1.13-1.13-1.13Zm.38,3.06c0,.21-.17,.38-.38,.38h-1.93c-.21,0-.38-.17-.38-.38v-1.93c0-.21,.17-.38,.38-.38h1.93c.21,0,.38,.17,.38,.38v1.93Z"/>
      <path class="cls-1" d="M73.44,2.61h-10.21c-.79,0-1.44,.65-1.44,1.44v1.31c0,.79,.65,1.44,1.44,1.44h10.17c.82,0,1.49-.67,1.49-1.49v-1.27c0-.79-.65-1.44-1.44-1.44Zm.69,2.71c0,.41-.33,.74-.74,.74h-10.17c-.38,0-.69-.31-.69-.69v-1.31c0-.38,.31-.69,.69-.69h10.21c.38,0,.69,.31,.69,.69v1.27Z"/>
      <path class="cls-1" d="M74.1,13.78h-2.63c-.43,0-.78,.35-.78,.79v2.62c0,.43,.35,.79,.78,.79h2.63c.43,0,.79-.35,.79-.79v-2.62c0-.43-.35-.79-.79-.79Zm.04,3.41s-.02,.04-.04,.04l-2.66-.04,.03-2.66,2.66,.04v2.62Z"/>
      <path class="cls-1" d="M2.35,0L0,2.35V30.41l1.98,1.98-1.98,1.98v10.15l2.35,2.35H56.17l.03,.03,.03-.03h19.15l2.35-2.35v-10.15l-1.98-1.98,1.98-1.98V2.35l-2.35-2.35H2.35Zm.31,46.11l-1.91-1.91v-9.53l1.91-1.91H42.07l13.35,13.35H2.66Zm53.82,0l-13.35-13.35h9.08l13.35,13.35h-9.08Zm20.5-11.44v9.53l-1.91,1.91h-8.45l-13.35-13.35h21.8l1.91,1.91Zm0-4.57l-1.91,1.91H2.66l-1.91-1.91V2.66L2.66,.75H75.06l1.91,1.91V30.1Z"/>
      <path class="cls-1" d="M73.76,8.3h-1.95c-.62,0-1.12,.5-1.12,1.12v1.95c0,.62,.5,1.12,1.12,1.12h1.95c.62,0,1.12-.5,1.12-1.12v-1.95c0-.62-.5-1.12-1.12-1.12Zm.38,3.07c0,.21-.17,.38-.38,.38h-1.95c-.21,0-.38-.17-.38-.38v-1.95c0-.21,.17-.38,.38-.38h1.95c.21,0,.38,.17,.38,.38v1.95Z"/>
      <path class="cls-1" d="M65.05,24.75h-2.33c-.51,0-.93,.42-.93,.93v2.33c0,.51,.42,.93,.93,.93h2.33c.51,0,.93-.42,.93-.93v-2.33c0-.51-.42-.93-.93-.93Zm.18,3.26c0,.1-.08,.18-.18,.18h-2.33c-.1,0-.18-.08-.18-.18v-2.33c0-.1,.08-.18,.18-.18h2.33c.1,0,.18,.08,.18,.18v2.33Z"/>
      <path class="cls-1" d="M65.01,19.26h-2.26c-.54,0-.97,.44-.97,.97v2.26c0,.53,.44,.97,.97,.97h2.26c.53,0,.97-.44,.97-.97v-2.26c0-.53-.44-.97-.97-.97Zm.22,3.23c0,.12-.1,.22-.22,.22h-2.26c-.12,0-.22-.1-.22-.22v-2.26c0-.12,.1-.22,.22-.22h2.26c.12,0,.22,.1,.22,.22v2.26Z"/>
      <path class="cls-1" d="M69.94,24.75h-2.33c-.51,0-.93,.42-.93,.93v2.33c0,.51,.42,.93,.93,.93h2.33c.51,0,.93-.42,.93-.93v-2.33c0-.51-.42-.93-.93-.93Zm.18,3.26c0,.1-.08,.18-.18,.18h-2.33c-.1,0-.18-.08-.18-.18v-2.33c0-.1,.08-.18,.18-.18h2.33c.1,0,.18,.08,.18,.18v2.33Z"/>
      <path class="cls-1" d="M73.91,19.26h-2.26c-.53,0-.97,.44-.97,.97v2.26c0,.53,.44,.97,.97,.97h2.26c.53,0,.97-.44,.97-.97v-2.26c0-.53-.44-.97-.97-.97Zm.22,3.23c0,.12-.1,.22-.22,.22h-2.26c-.12,0-.22-.1-.22-.22v-2.26c0-.12,.1-.22,.22-.22h2.26c.12,0,.22,.1,.22,.22v2.26Z"/>
      <path class="cls-1" d="M20.79,19.26h-2.35c-.48,0-.88,.39-.88,.88v2.35c0,.53,.44,.97,.97,.97h2.26c.53,0,.97-.44,.97-.97v-2.26c0-.53-.44-.97-.97-.97Zm.22,3.23c0,.12-.1,.22-.22,.22h-2.26c-.12,0-.22-.1-.22-.22v-2.35c0-.07,.06-.12,.12-.12h2.35c.12,0,.22,.1,.22,.22v2.26Z"/>
      <path class="cls-1" d="M3.6,17.98h7.54c.43,0,.79-.35,.79-.79v-2.62c0-.43-.35-.79-.79-.79H3.69c-.48,0-.88,.39-.88,.88v2.54c0,.43,.35,.79,.79,.79Zm-.04-3.32c0-.07,.06-.12,.12-.12l7.49,.04v2.62s-.02,.04-.04,.04l-7.58-.04v-2.54Z"/>
      <path class="cls-1" d="M6.08,24.75H3.74c-.51,0-.93,.42-.93,.93v2.33c0,.51,.42,.93,.93,.93h2.33c.51,0,.93-.42,.93-.93v-2.33c0-.51-.42-.93-.93-.93Zm.18,3.26c0,.1-.08,.18-.18,.18H3.74c-.1,0-.18-.08-.18-.18v-2.33c0-.1,.08-.18,.18-.18h2.33c.1,0,.18,.08,.18,.18v2.33Z"/>
      <path class="cls-1" d="M10.99,24.75h-2.33c-.51,0-.93,.42-.93,.93v2.33c0,.51,.42,.93,.93,.93h2.33c.51,0,.93-.42,.93-.93v-2.33c0-.51-.42-.93-.93-.93Zm.18,3.26c0,.1-.08,.18-.18,.18h-2.33c-.1,0-.18-.08-.18-.18v-2.33c0-.1,.08-.18,.18-.18h2.33c.1,0,.18,.08,.18,.18v2.33Z"/>
      <path class="cls-1" d="M15.91,24.75h-2.33c-.51,0-.93,.42-.93,.93v2.33c0,.51,.42,.93,.93,.93h2.33c.51,0,.93-.42,.93-.93v-2.33c0-.51-.42-.93-.93-.93Zm.18,3.26c0,.1-.08,.18-.18,.18h-2.33c-.1,0-.18-.08-.18-.18v-2.33c0-.1,.08-.18,.18-.18h2.33c.1,0,.18,.08,.18,.18v2.33Z"/>
      <path class="cls-1" d="M8.86,6.8h1.93c.63,0,1.13-.51,1.13-1.13v-1.93c0-.63-.51-1.13-1.13-1.13h-1.93c-.63,0-1.13,.51-1.13,1.13v1.93c0,.63,.51,1.13,1.13,1.13Zm-.38-3.06c0-.21,.17-.38,.38-.38h1.93c.21,0,.38,.17,.38,.38v1.93c0,.21-.17,.38-.38,.38h-1.93c-.21,0-.38-.17-.38-.38v-1.93Z"/>
      <path class="cls-1" d="M26.68,9.42c0-.62-.5-1.12-1.12-1.12h-1.95c-.62,0-1.12,.5-1.12,1.12v1.95c0,.62,.5,1.12,1.12,1.12h1.95c.62,0,1.12-.5,1.12-1.12v-1.95Zm-.75,1.95c0,.21-.17,.38-.38,.38h-1.95c-.21,0-.38-.17-.38-.38v-1.95c0-.21,.17-.38,.38-.38h1.95c.21,0,.38,.17,.38,.38v1.95Z"/>
      <path class="cls-1" d="M3.94,12.49h1.95c.62,0,1.12-.5,1.12-1.12v-1.95c0-.62-.5-1.12-1.12-1.12h-1.95c-.62,0-1.12,.5-1.12,1.12v1.95c0,.62,.5,1.12,1.12,1.12Zm-.38-3.07c0-.21,.17-.38,.38-.38h1.95c.21,0,.38,.17,.38,.38v1.95c0,.21-.17,.38-.38,.38h-1.95c-.21,0-.38-.17-.38-.38v-1.95Z"/>
      <path class="cls-1" d="M45.22,8.3h-1.95c-.62,0-1.12,.5-1.12,1.12v1.95c0,.62,.5,1.12,1.12,1.12h1.95c.62,0,1.12-.5,1.12-1.12v-1.95c0-.62-.5-1.12-1.12-1.12Zm.38,3.07c0,.21-.17,.38-.38,.38h-1.95c-.21,0-.38-.17-.38-.38v-1.95c0-.21,.17-.38,.38-.38h1.95c.21,0,.38,.17,.38,.38v1.95Z"/>
      <path class="cls-1" d="M8.85,12.49h1.95c.62,0,1.12-.5,1.12-1.12v-1.95c0-.62-.5-1.12-1.12-1.12h-1.95c-.62,0-1.12,.5-1.12,1.12v1.95c0,.62,.5,1.12,1.12,1.12Zm-.38-3.07c0-.21,.17-.38,.38-.38h1.95c.21,0,.38,.17,.38,.38v1.95c0,.21-.17,.38-.38,.38h-1.95c-.21,0-.38-.17-.38-.38v-1.95Z"/>
      <path class="cls-1" d="M15.87,19.26H3.78c-.53,0-.97,.44-.97,.97v2.26c0,.53,.44,.97,.97,.97H15.87c.53,0,.97-.44,.97-.97v-2.26c0-.53-.44-.97-.97-.97Zm.22,3.23c0,.12-.1,.22-.22,.22H3.78c-.12,0-.22-.1-.22-.22v-2.26c0-.12,.1-.22,.22-.22H15.87c.12,0,.22,.1,.22,.22v2.26Z"/>
      <path class="cls-1" d="M45.42,24.75H23.41c-.51,0-.93,.42-.93,.93v2.33c0,.51,.42,.93,.93,.93h22c.51,0,.93-.42,.93-.93v-2.33c0-.51-.42-.93-.93-.93Zm.18,3.26c0,.1-.08,.18-.18,.18H23.41c-.1,0-.18-.08-.18-.18v-2.33c0-.1,.08-.18,.18-.18h22c.1,0,.18,.08,.18,.18v2.33Z"/>
      <path class="cls-1" d="M45.38,19.26h-2.26c-.53,0-.97,.44-.97,.97v2.26c0,.53,.44,.97,.97,.97h2.26c.53,0,.97-.44,.97-.97v-2.26c0-.53-.44-.97-.97-.97Zm.22,3.23c0,.12-.1,.22-.22,.22h-2.26c-.12,0-.22-.1-.22-.22v-2.26c0-.12,.1-.22,.22-.22h2.26c.12,0,.22,.1,.22,.22v2.26Z"/>
      <path class="cls-1" d="M45.56,13.78h-2.63c-.43,0-.79,.35-.79,.79v2.62c0,.43,.35,.79,.79,.79h2.63c.43,0,.78-.35,.78-.79v-2.62c0-.43-.35-.79-.78-.79Zm.03,3.41s-.02,.04-.03,.04l-2.66-.04,.04-2.66,2.66,.04v2.62Z"/>
      <path class="cls-1" d="M20.63,8.3h-1.95c-.62,0-1.12,.5-1.12,1.12v1.95c0,.62,.5,1.12,1.12,1.12h1.95c.62,0,1.12-.5,1.12-1.12v-1.95c0-.62-.5-1.12-1.12-1.12Zm.38,3.07c0,.21-.17,.38-.38,.38h-1.95c-.21,0-.38-.17-.38-.38v-1.95c0-.21,.17-.38,.38-.38h1.95c.21,0,.38,.17,.38,.38v1.95Z"/>
      <path class="cls-1" d="M16.06,13.78h-2.63c-.43,0-.79,.35-.79,.79v2.62c0,.43,.35,.79,.79,.79h2.63c.43,0,.79-.35,.79-.79v-2.62c0-.43-.35-.79-.79-.79Zm.04,3.41s-.02,.04-.04,.04l-2.66-.04,.04-2.66,2.66,.04v2.62Z"/>
      <path class="cls-1" d="M20.83,24.75h-2.33c-.51,0-.93,.42-.93,.93v2.33c0,.51,.42,.93,.93,.93h2.33c.51,0,.93-.42,.93-.93v-2.33c0-.51-.42-.93-.93-.93Zm.18,3.26c0,.1-.08,.18-.18,.18h-2.33c-.1,0-.18-.08-.18-.18v-2.33c0-.1,.08-.18,.18-.18h2.33c.1,0,.18,.08,.18,.18v2.33Z"/>
      <path class="cls-1" d="M20.98,13.78h-2.63c-.43,0-.79,.35-.79,.79v2.62c0,.43,.35,.79,.79,.79h2.63c.43,0,.78-.35,.78-.79v-2.62c0-.43-.35-.79-.78-.79Zm.03,3.41s-.02,.04-.03,.04l-2.66-.04,.04-2.66,2.66,.04v2.62Z"/>
      <path class="cls-1" d="M15.72,8.3h-1.95c-.62,0-1.12,.5-1.12,1.12v1.95c0,.62,.5,1.12,1.12,1.12h1.95c.62,0,1.12-.5,1.12-1.12v-1.95c0-.62-.5-1.12-1.12-1.12Zm.38,3.07c0,.21-.17,.38-.38,.38h-1.95c-.21,0-.38-.17-.38-.38v-1.95c0-.21,.17-.38,.38-.38h1.95c.21,0,.38,.17,.38,.38v1.95Z"/>
      <path class="cls-1" d="M25.71,19.26h-2.26c-.53,0-.97,.44-.97,.97v2.26c0,.53,.44,.97,.97,.97h2.26c.53,0,.97-.44,.97-.97v-2.26c0-.53-.44-.97-.97-.97Zm.22,3.23c0,.12-.1,.22-.22,.22h-2.26c-.12,0-.22-.1-.22-.22v-2.26c0-.12,.1-.22,.22-.22h2.26c.12,0,.22,.1,.22,.22v2.26Z"/>
    </g>
  </g>
</svg>