<?xml version="1.0" encoding="UTF-8"?>
<svg id="_圖層_2" data-name="圖層 2" xmlns="http://www.w3.org/2000/svg" xmlns:xlink="http://www.w3.org/1999/xlink" viewBox="0 0 68.17 60.89">
  <defs>
    <style>
      .cls-1 {
        fill: #fff;
      }

      .cls-2 {
        fill: #b3b3b3;
      }

      .cls-3 {
        fill: #4d4d4d;
      }

      .cls-4 {
        filter: url(#drop-shadow-1);
      }
    </style>
    <filter id="drop-shadow-1" filterUnits="userSpaceOnUse">
      <feOffset dx="7" dy="7"/>
      <feGaussianBlur result="blur" stdDeviation="5"/>
      <feFlood flood-color="#000" flood-opacity=".75"/>
      <feComposite in2="blur" operator="in"/>
      <feComposite in="SourceGraphic"/>
    </filter>
  </defs>
  <g id="Layer_2" data-name="Layer 2">
    <g>
      <rect class="cls-1" x="7.11" width="53.96" height="33.07" rx="1.18" ry="1.18"/>
      <rect class="cls-3" x="18.32" y="-9.68" width="31.53" height="52.42" rx=".41" ry=".41" transform="translate(50.62 -17.55) rotate(90)"/>
      <path class="cls-1" d="M66.9,55.42H1.28c-.9,0-1.51-.9-1.19-1.74l6.7-17.14c.19-.49,.66-.81,1.19-.81H60.2c.53,0,1,.32,1.19,.81l6.7,17.14c.33,.84-.29,1.74-1.19,1.74Z"/>
      <g class="cls-4">
        <g>
          <path class="cls-2" d="M8.69,37.73c-.12,0-.24,.05-.26,.11-.26,.65-.38,.98-.64,1.63-.02,.06,.06,.11,.19,.11h3.39c.13,0,.25-.05,.27-.11,.22-.65,.33-.98,.54-1.63,.02-.06-.06-.11-.19-.11h-3.3Z"/>
          <path class="cls-2" d="M13.97,37.73c-.12,0-.24,.05-.26,.11-.2,.65-.3,.98-.51,1.63-.02,.06,.07,.11,.19,.11h3.39c.13,0,.24-.05,.26-.11,.17-.65,.25-.98,.41-1.63,.02-.06-.07-.11-.19-.11h-3.3Z"/>
          <path class="cls-2" d="M19.25,37.73c-.12,0-.23,.05-.25,.11-.15,.65-.23,.98-.38,1.63-.01,.06,.08,.11,.2,.11h3.39c.13,0,.24-.05,.25-.11,.11-.65,.17-.98,.28-1.63,.01-.06-.08-.11-.2-.11h-3.3Z"/>
          <path class="cls-2" d="M27.65,39.58c.13,0,.23-.05,.24-.11,.06-.65,.09-.98,.15-1.63,0-.06-.09-.11-.21-.11h-3.3c-.12,0-.23,.05-.24,.11-.1,.65-.15,.98-.24,1.63,0,.06,.09,.11,.21,.11h3.39Z"/>
          <path class="cls-2" d="M33.07,39.58c.13,0,.23-.05,.23-.11,0-.65,.01-.98,.02-1.63,0-.06-.1-.11-.22-.11h-3.3c-.12,0-.23,.05-.23,.11-.04,.65-.07,.98-.11,1.63,0,.06,.09,.11,.22,.11h3.39Z"/>
          <path class="cls-2" d="M38.5,39.58c.13,0,.23-.05,.22-.11-.04-.65-.07-.98-.11-1.63,0-.06-.11-.11-.23-.11h-3.3c-.12,0-.22,.05-.22,.11,0,.65,.01,.98,.02,1.63,0,.06,.1,.11,.23,.11h3.39Z"/>
          <path class="cls-2" d="M40.35,37.73c-.12,0-.22,.05-.21,.11,.06,.65,.09,.98,.15,1.63,0,.06,.11,.11,.24,.11h3.39c.13,0,.22-.05,.21-.11-.1-.65-.15-.98-.24-1.63,0-.06-.12-.11-.24-.11h-3.3Z"/>
          <path class="cls-2" d="M45.63,37.73c-.12,0-.21,.05-.2,.11,.11,.65,.17,.98,.28,1.63,.01,.06,.12,.11,.25,.11h3.39c.13,0,.22-.05,.2-.11-.15-.65-.23-.98-.38-1.63-.01-.06-.13-.11-.25-.11h-3.3Z"/>
          <path class="cls-2" d="M54.77,39.58c.13,0,.21-.05,.19-.11-.2-.65-.3-.98-.51-1.63-.02-.06-.13-.11-.26-.11h-3.3c-.12,0-.21,.05-.19,.11,.17,.65,.25,.98,.41,1.63,.02,.06,.13,.11,.26,.11h3.39Z"/>
          <path class="cls-2" d="M59.48,37.73h-3.3c-.12,0-.21,.05-.19,.11,.22,.65,.33,.98,.54,1.63,.02,.06,.14,.11,.26,.11h3.39c.13,0,.21-.05,.19-.11-.26-.65-.38-.98-.64-1.63-.02-.06-.14-.11-.26-.11Z"/>
          <path class="cls-2" d="M7.66,40.4c-.13,0-.25,.05-.27,.11-.26,.65-.38,.98-.64,1.63-.02,.06,.06,.11,.19,.11h3.53c.13,0,.25-.05,.27-.11,.22-.65,.33-.98,.54-1.63,.02-.06-.07-.11-.19-.11h-3.43Z"/>
          <path class="cls-2" d="M13.15,40.4c-.13,0-.25,.05-.27,.11-.2,.65-.3,.98-.51,1.63-.02,.06,.07,.11,.2,.11h3.53c.13,0,.25-.05,.27-.11,.17-.65,.25-.98,.41-1.63,.02-.06-.08-.11-.2-.11h-3.43Z"/>
          <path class="cls-2" d="M18.64,40.4c-.13,0-.24,.05-.26,.11-.15,.65-.23,.98-.38,1.63-.01,.06,.08,.11,.21,.11h3.53c.13,0,.25-.05,.26-.11,.11-.65,.17-.98,.28-1.63,.01-.06-.09-.11-.21-.11h-3.43Z"/>
          <path class="cls-2" d="M27.39,42.25c.13,0,.24-.05,.25-.11,.06-.65,.09-.98,.15-1.63,0-.06-.09-.11-.22-.11h-3.44c-.13,0-.24,.05-.25,.11-.1,.65-.15,.98-.24,1.63,0,.06,.09,.11,.22,.11h3.53Z"/>
          <path class="cls-2" d="M33.03,42.25c.13,0,.24-.05,.24-.11,0-.65,.01-.98,.02-1.63,0-.06-.1-.11-.23-.11h-3.43c-.13,0-.23,.05-.24,.11-.04,.65-.07,.98-.11,1.63,0,.06,.1,.11,.23,.11h3.53Z"/>
          <path class="cls-2" d="M38.67,42.25c.13,0,.23-.05,.23-.11-.04-.65-.07-.98-.11-1.63,0-.06-.11-.11-.24-.11h-3.44c-.13,0-.23,.05-.23,.11,0,.65,.01,.98,.02,1.63,0,.06,.11,.11,.24,.11h3.53Z"/>
          <path class="cls-2" d="M40.61,40.4c-.13,0-.23,.05-.22,.11,.06,.65,.09,.98,.15,1.63,0,.06,.12,.11,.25,.11h3.53c.13,0,.23-.05,.22-.11-.1-.65-.15-.98-.24-1.63,0-.06-.12-.11-.25-.11h-3.44Z"/>
          <path class="cls-2" d="M46.1,40.4c-.13,0-.22,.05-.21,.11,.11,.65,.17,.98,.28,1.63,.01,.06,.13,.11,.26,.11h3.53c.13,0,.23-.05,.21-.11-.15-.65-.23-.98-.38-1.63-.01-.06-.13-.11-.26-.11h-3.43Z"/>
          <path class="cls-2" d="M55.59,42.25c.13,0,.22-.05,.2-.11-.2-.65-.3-.98-.51-1.63-.02-.06-.14-.11-.27-.11h-3.43c-.13,0-.22,.05-.2,.11,.17,.65,.25,.98,.41,1.63,.02,.06,.13,.11,.27,.11h3.53Z"/>
          <path class="cls-2" d="M57.09,40.4c-.13,0-.22,.05-.2,.11,.33,.99,.49,1.48,.82,2.46,.02,.05-.06,.09-.17,.09h-5.25c-.14,0-.24,.05-.22,.12,.16,.65,.25,.97,.41,1.62,.02,.06,.15,.12,.29,.12h9.5c.14,0,.23-.05,.2-.11-.67-1.72-1.01-2.58-1.68-4.3-.02-.06-.15-.11-.29-.11h-3.41Z"/>
          <path class="cls-2" d="M6.67,43.07c-.16,0-.3,.06-.33,.13-.25,.64-.37,.96-.62,1.59-.03,.07,.08,.13,.24,.13h3.58c.16,0,.31-.06,.33-.13,.21-.64,.32-.96,.53-1.59,.02-.07-.08-.13-.24-.13h-3.49Z"/>
          <path class="cls-2" d="M12.37,43.07c-.16,0-.3,.06-.32,.13-.2,.64-.3,.96-.49,1.59-.02,.07,.09,.13,.25,.13h3.58c.16,0,.3-.06,.32-.13,.16-.64,.24-.96,.4-1.59,.02-.07-.09-.13-.25-.13h-3.49Z"/>
          <path class="cls-2" d="M18.08,43.07c-.16,0-.29,.06-.31,.13-.15,.64-.22,.96-.37,1.59-.02,.07,.1,.13,.26,.13h3.58c.16,0,.3-.06,.31-.13,.11-.64,.17-.96,.28-1.59,.01-.07-.1-.13-.26-.13h-3.49Z"/>
          <path class="cls-2" d="M27.09,44.92c.16,0,.29-.06,.3-.13,.06-.64,.09-.96,.15-1.59,0-.07-.11-.13-.27-.13h-3.49c-.16,0-.29,.06-.3,.13-.1,.64-.14,.96-.24,1.59-.01,.07,.11,.13,.27,.13h3.58Z"/>
          <path class="cls-2" d="M32.95,44.92c.16,0,.29-.06,.29-.13,0-.64,.01-.96,.02-1.59,0-.07-.13-.13-.28-.13h-3.49c-.16,0-.29,.06-.29,.13-.04,.64-.07,.96-.11,1.59,0,.07,.12,.13,.28,.13h3.58Z"/>
          <path class="cls-2" d="M38.8,44.92c.16,0,.29-.06,.28-.13-.04-.64-.07-.96-.11-1.59,0-.07-.14-.13-.29-.13h-3.49c-.16,0-.28,.06-.28,.13,0,.64,.01,.96,.02,1.59,0,.07,.13,.13,.29,.13h3.58Z"/>
          <path class="cls-2" d="M40.9,43.07c-.16,0-.28,.06-.27,.13,.06,.64,.09,.96,.15,1.59,0,.07,.14,.13,.3,.13h3.58c.16,0,.28-.06,.27-.13-.1-.64-.14-.96-.24-1.59-.01-.07-.15-.13-.3-.13h-3.49Z"/>
          <path class="cls-2" d="M46.61,43.07c-.16,0-.27,.06-.26,.13,.11,.64,.17,.96,.28,1.59,.01,.07,.15,.13,.31,.13h3.58c.16,0,.28-.06,.26-.13-.15-.64-.22-.96-.37-1.59-.02-.07-.16-.13-.31-.13h-3.49Z"/>
          <path class="cls-2" d="M5.63,45.74c-.16,0-.31,.06-.34,.13-.25,.64-.37,.96-.62,1.59-.03,.07,.08,.13,.25,.13h3.71c.16,0,.32-.06,.34-.13,.21-.64,.32-.96,.53-1.59,.02-.07-.09-.13-.25-.13h-3.62Z"/>
          <path class="cls-2" d="M11.55,45.74c-.16,0-.31,.06-.33,.13-.2,.64-.3,.96-.49,1.59-.02,.07,.09,.13,.26,.13h3.71c.17,0,.31-.06,.33-.13,.16-.64,.24-.96,.4-1.59,.02-.07-.1-.13-.26-.13h-3.62Z"/>
          <path class="cls-2" d="M17.47,45.74c-.16,0-.31,.06-.32,.13-.15,.64-.22,.96-.37,1.59-.02,.07,.11,.13,.27,.13h3.71c.17,0,.31-.06,.32-.13,.11-.64,.17-.96,.28-1.59,.01-.07-.11-.13-.27-.13h-3.62Z"/>
          <path class="cls-2" d="M44.72,45.74H23.45c-.19,0-.36,.07-.37,.15-.09,.62-.14,.93-.23,1.55-.01,.08,.14,.15,.33,.15h21.81c.2,0,.35-.07,.33-.15-.09-.62-.14-.93-.23-1.55-.01-.08-.18-.15-.37-.15Z"/>
          <path class="cls-2" d="M44.11,48.59H24.06c-.77,0-1.43,.26-1.48,.59-.22,1.46-.33,2.19-.55,3.65-.05,.32,.58,.59,1.39,.59h21.31c.81,0,1.44-.26,1.39-.59-.22-1.46-.33-2.19-.55-3.65-.05-.32-.71-.59-1.48-.59Z"/>
          <path class="cls-2" d="M47.08,45.74c-.16,0-.28,.06-.27,.13,.11,.64,.17,.96,.28,1.59,.01,.07,.16,.13,.32,.13h3.71c.17,0,.29-.06,.27-.13-.15-.64-.22-.96-.37-1.59-.02-.07-.16-.13-.32-.13h-3.62Z"/>
          <path class="cls-2" d="M53,45.74c-.16,0-.28,.06-.26,.13,.16,.64,.24,.96,.4,1.59,.02,.07,.17,.13,.33,.13h3.71c.17,0,.28-.06,.26-.13-.2-.64-.3-.96-.49-1.59-.02-.07-.17-.13-.33-.13h-3.62Z"/>
          <path class="cls-2" d="M58.93,45.74c-.16,0-.27,.06-.25,.13,.21,.64,.32,.96,.53,1.59,.02,.07,.18,.13,.34,.13h3.71c.17,0,.28-.06,.25-.13-.25-.64-.37-.96-.62-1.59-.03-.07-.18-.13-.34-.13h-3.62Z"/>
        </g>
      </g>
    </g>
  </g>
</svg>