<?xml version="1.0" encoding="UTF-8"?>
<svg id="_圖層_2" data-name="圖層 2" xmlns="http://www.w3.org/2000/svg" xmlns:xlink="http://www.w3.org/1999/xlink" viewBox="0 0 46.31 63.91">
  <defs>
    <style>
      .cls-1 {
        fill: url(#linear-gradient);
      }

      .cls-2 {
        fill: #fff;
      }

      .cls-3 {
        fill: #b3b3b3;
      }

      .cls-4 {
        fill: #333;
      }

      .cls-5 {
        fill: gray;
      }

      .cls-6 {
        fill: #4d4d4d;
      }
    </style>
    <linearGradient id="linear-gradient" x1="23.16" y1="-1.39" x2="23.16" y2="29.42" gradientUnits="userSpaceOnUse">
      <stop offset="0" stop-color="#b3b3b3"/>
      <stop offset="1" stop-color="#333"/>
    </linearGradient>
  </defs>
  <g id="Layer_2" data-name="Layer 2">
    <g>
      <g>
        <path class="cls-4" d="M23.16,49.01c-3.91,0-6.41,.94-6.73,1.69,.38,.42,2.03,1.86,6.73,1.86s6.35-1.44,6.73-1.86c-.32-.75-2.82-1.69-6.73-1.69Z"/>
        <path class="cls-6" d="M25.79,54.46v-.9l-.25-.22c-.77,.08-1.58,.13-2.38,.13s-1.58-.04-2.33-.12l-.24,.22v.9c0,.16-.1,.29-.24,.35l-11.3,4.34-.24,.28,.63,.42h27.52l.63-.42-.24-.29-11.3-4.34c-.14-.06-.24-.19-.24-.35Z"/>
        <polygon class="cls-5" points="14.32 63.16 23.19 63.16 32.05 63.16 35.83 60.61 10.54 60.61 14.32 63.16"/>
        <path class="cls-4" d="M29.92,27.44V8.21c-.76-.32-3.51-1.38-6.77-1.38s-6.01,1.06-6.77,1.38V27.44c1.01-.15,3.66-.49,6.77-.49s5.76,.34,6.77,.49Z"/>
        <path class="cls-3" d="M29.92,7.4v-1.5c-.31-.26-1.81-1.26-6.77-1.26s-6.44,.99-6.77,1.26v1.5c1.08-.43,3.67-1.32,6.77-1.32s5.69,.89,6.77,1.32Z"/>
        <path class="cls-6" d="M36.88,34.05l-6.2-5.35v1.49c0,.21-.17,.38-.38,.38s-.38-.17-.38-.38v-1.99c-.89-.13-3.59-.49-6.77-.49s-5.88,.36-6.77,.49v1.99c0,.21-.17,.38-.38,.38s-.38-.17-.38-.38v-1.49l-6.22,5.37-.83,.82-.23,2.8,1.28,1.5c.12,.15,.12,.36-.02,.5l-.62,.64,.2,3.62,6.45,3.51v-3.68l-.24,.29c-.06,.08-.16,.13-.26,.14,0,0-.02,0-.03,0-.09,0-.18-.03-.25-.1l-1.59-1.45c-.08-.07-.12-.17-.12-.28v-5.11l-.39-.36c-.14-.13-.16-.35-.05-.5l2.15-2.85c.08-.1,.2-.17,.34-.15,.13,.01,.24,.09,.3,.21l.15,.31v-2.03c0-.21,.17-.38,.38-.38s.38,.17,.38,.38v17.78c2.56-1.83,10.97-1.83,13.53,0V31.45c0-.21,.17-.38,.38-.38s.38,.17,.38,.38v2.48l.15-.31c.06-.12,.17-.2,.3-.21,.13-.02,.26,.04,.34,.15l2.15,2.85c.12,.15,.1,.37-.05,.5l-.39,.36v5.11c0,.11-.04,.21-.12,.28l-1.59,1.45c-.07,.06-.16,.1-.25,.1,0,0-.02,0-.03,0-.1,0-.2-.06-.26-.14l-.24-.29v3.68l6.45-3.51,.2-3.62-.62-.64c-.13-.14-.14-.36-.02-.5l1.28-1.5-.23-2.8-.85-.84Zm-13.69,1.32c-1.28,0-2.33-.96-2.33-2.15s1.04-2.15,2.33-2.15,2.33,.96,2.33,2.15-1.04,2.15-2.33,2.15Z"/>
        <path class="cls-4" d="M23.19,31.82c-.87,0-1.58,.63-1.58,1.4s.71,1.4,1.58,1.4,1.58-.63,1.58-1.4-.71-1.4-1.58-1.4Z"/>
        <path class="cls-2" d="M38.35,34.45l-.97-.96-6.71-5.79V5.75c0-.08-.02-.15-.07-.21-.12-.17-1.32-1.65-7.45-1.65s-7.33,1.48-7.45,1.65c-.04,.06-.07,.14-.07,.21V27.71l-6.73,5.81-.95,.94c-.06,.06-.1,.15-.11,.23l-.26,3.09c0,.1,.02,.2,.09,.27l1.16,1.36-.5,.52c-.07,.08-.11,.18-.1,.28l.22,3.99c0,.13,.08,.25,.2,.31l6.99,3.8v2.47s0,.02,0,.03c0,.02,0,.03,0,.05,0,1.2,1.85,1.99,4.24,2.36-.03,.05-.05,.11-.05,.17v.8l-11.15,4.29c-.06,.02-.11,.06-.15,.11l-.57,.68c-.07,.08-.1,.19-.09,.29s.07,.2,.16,.26l5.97,4.01c.06,.04,.13,.06,.21,.06h17.96c.07,0,.15-.02,.21-.06l5.97-4.01c.09-.06,.15-.15,.16-.26,.01-.11-.02-.21-.09-.29l-.57-.68s-.09-.09-.15-.11l-11.15-4.29v-.8c0-.06-.02-.12-.05-.18,2.37-.37,4.19-1.17,4.19-2.35,0-.02,0-.03,0-.05,0,0,0-.02,0-.03v-2.47l6.99-3.8c.11-.06,.19-.18,.2-.31l.22-3.99c0-.1-.03-.2-.1-.28l-.5-.52,1.16-1.36c.06-.08,.1-.17,.09-.27l-.26-3.09c0-.09-.05-.17-.11-.23ZM16.39,5.9c.33-.28,1.83-1.26,6.77-1.26s6.46,1,6.77,1.26v1.5c-1.08-.43-3.67-1.32-6.77-1.32s-5.69,.89-6.77,1.32v-1.5Zm0,2.31c.76-.32,3.51-1.38,6.77-1.38s6.01,1.06,6.77,1.38V27.44c-1.01-.15-3.66-.49-6.77-.49s-5.76,.34-6.77,.49V8.21Zm-.75,34.39l-.57,.69-1.18-1.07v-5.11c0-.11-.04-.21-.12-.28l-.26-.24,1.57-2.09,.56,1.17v6.93Zm16.41,20.56H14.32l-3.78-2.54h25.29l-3.78,2.54Zm5.28-4l.24,.29-.63,.42H9.43l-.63-.42,.24-.28,11.3-4.34c.15-.06,.24-.19,.24-.35v-.9l.24-.22c.76,.08,1.54,.12,2.33,.12s1.61-.04,2.38-.13l.25,.22v.9c0,.16,.1,.29,.24,.35l11.3,4.34Zm-14.17-6.59c-4.7,0-6.35-1.44-6.73-1.86,.32-.75,2.82-1.69,6.73-1.69s6.4,.94,6.73,1.69c-.38,.42-2.03,1.86-6.73,1.86Zm13.52-13.37c-.12,.15-.12,.36,.02,.5l.62,.64-.2,3.62-6.45,3.51v-3.68l.24,.29c.06,.08,.16,.13,.26,.14,0,0,.02,0,.03,0,.09,0,.18-.03,.25-.1l1.59-1.45c.08-.07,.12-.17,.12-.28v-5.11l.39-.36c.14-.13,.16-.35,.05-.5l-2.15-2.85c-.08-.1-.2-.16-.34-.15-.13,.01-.24,.09-.3,.21l-.15,.31v-2.48c0-.21-.17-.38-.38-.38s-.38,.17-.38,.38v18.22c-2.56-1.83-10.97-1.83-13.53,0V31.89c0-.21-.17-.38-.38-.38s-.38,.17-.38,.38v2.03l-.15-.31c-.06-.12-.17-.2-.3-.21-.14-.02-.26,.04-.34,.15l-2.15,2.85c-.12,.15-.1,.37,.05,.5l.39,.36v5.11c0,.11,.04,.21,.12,.28l1.59,1.45c.07,.06,.16,.1,.25,.1,0,0,.02,0,.03,0,.1,0,.2-.06,.26-.14l.24-.29v3.68l-6.45-3.51-.2-3.62,.62-.64c.13-.14,.14-.36,.02-.5l-1.28-1.5,.23-2.8,.83-.82,6.22-5.37v1.49c0,.21,.17,.38,.38,.38s.38-.17,.38-.38v-1.99c.89-.13,3.59-.49,6.77-.49s5.88,.36,6.77,.49v1.99c0,.21,.17,.38,.38,.38s.38-.17,.38-.38v-1.49l6.2,5.35,.85,.84,.23,2.8-1.28,1.5Zm-6.01,3.41v-6.93l.56-1.16,1.57,2.09-.26,.24c-.08,.07-.12,.17-.12,.28v5.11l-1.18,1.07-.57-.69Z"/>
        <path class="cls-2" d="M23.19,31.07c-1.28,0-2.33,.96-2.33,2.15s1.04,2.15,2.33,2.15,2.33-.96,2.33-2.15-1.04-2.15-2.33-2.15Zm0,3.54c-.87,0-1.58-.63-1.58-1.4s.71-1.4,1.58-1.4,1.58,.63,1.58,1.4-.71,1.4-1.58,1.4Z"/>
      </g>
      <path class="cls-1" d="M7.25,31.11c.12,.25,.02,.55-.22,.67-.07,.04-.15,.05-.22,.05-.18,0-.36-.1-.45-.28-1.31-2.62-1.98-5.45-1.98-8.4,0-6.25,3.09-12.07,8.28-15.57,.23-.15,.54-.09,.69,.13,.15,.23,.09,.54-.13,.69-4.91,3.32-7.84,8.83-7.84,14.74,0,2.8,.63,5.47,1.88,7.96ZM12.57,13.24c-2.53,2.7-3.92,6.22-3.92,9.92,0,1.96,.38,3.86,1.14,5.65,.08,.19,.27,.31,.46,.31,.06,0,.13-.01,.19-.04,.25-.11,.37-.4,.27-.66-.7-1.67-1.06-3.43-1.06-5.26,0-3.44,1.3-6.73,3.65-9.24,.19-.2,.18-.52-.02-.71-.2-.19-.52-.18-.71,.02Zm21.09-5.65c-.23-.15-.54-.09-.69,.13-.15,.23-.09,.54,.13,.69,4.91,3.32,7.84,8.83,7.84,14.74,0,2.8-.63,5.47-1.88,7.96-.12,.25-.02,.55,.22,.67,.07,.04,.15,.05,.22,.05,.18,0,.36-.1,.45-.28,1.32-2.62,1.98-5.45,1.98-8.4,0-6.25-3.1-12.07-8.28-15.57ZM23.16,0C10.39,0,0,10.39,0,23.16c0,3.83,.95,7.62,2.76,10.97,.09,.17,.26,.26,.44,.26,.08,0,.16-.02,.24-.06,.24-.13,.33-.43,.2-.68-1.73-3.2-2.64-6.83-2.64-10.5C1,10.94,10.94,1,23.16,1s22.16,9.94,22.16,22.16c0,3.66-.91,7.29-2.64,10.5-.13,.24-.04,.55,.2,.68,.08,.04,.16,.06,.24,.06,.18,0,.35-.1,.44-.26,1.8-3.35,2.76-7.14,2.76-10.97C46.31,10.39,35.93,0,23.16,0Zm9.88,13.21c-.2,.19-.21,.51-.02,.71,2.35,2.51,3.65,5.79,3.65,9.24,0,1.82-.36,3.59-1.06,5.26-.11,.25,.01,.55,.27,.66,.06,.03,.13,.04,.19,.04,.19,0,.38-.11,.46-.31,.76-1.79,1.14-3.69,1.14-5.65,0-3.7-1.39-7.22-3.92-9.92-.19-.2-.51-.21-.71-.02Z"/>
      <path class="cls-5" d="M20.76,12c-.21,0-.38-.17-.38-.38v-1.35c0-.21,.17-.38,.38-.38s.38,.17,.38,.38v1.35c0,.21-.17,.38-.38,.38Zm.38,11.15v-1.35c0-.21-.17-.38-.38-.38s-.38,.17-.38,.38v1.35c0,.21,.17,.38,.38,.38s.38-.17,.38-.38Zm0-3.17v-6.1c0-.21-.17-.38-.38-.38s-.38,.17-.38,.38v6.1c0,.21,.17,.38,.38,.38s.38-.17,.38-.38Zm-2.48-7.47v-3.14c0-.21-.17-.38-.38-.38s-.38,.17-.38,.38v3.14c0,.21,.17,.38,.38,.38s.38-.17,.38-.38Zm0,3.19v-1.35c0-.21-.17-.38-.38-.38s-.38,.17-.38,.38v1.35c0,.21,.17,.38,.38,.38s.38-.17,.38-.38Zm0,5.36v-3.14c0-.21-.17-.38-.38-.38s-.38,.17-.38,.38v3.14c0,.21,.17,.38,.38,.38s.38-.17,.38-.38Zm0,3.19v-1.35c0-.21-.17-.38-.38-.38s-.38,.17-.38,.38v1.35c0,.21,.17,.38,.38,.38s.38-.17,.38-.38Zm7.27-12.63v-1.35c0-.21-.17-.38-.38-.38s-.38,.17-.38,.38v1.35c0,.21,.17,.38,.38,.38s.38-.17,.38-.38Zm0,11.53v-1.35c0-.21-.17-.38-.38-.38s-.38,.17-.38,.38v1.35c0,.21,.17,.38,.38,.38s.38-.17,.38-.38Zm0-3.17v-6.1c0-.21-.17-.38-.38-.38s-.38,.17-.38,.38v6.1c0,.21,.17,.38,.38,.38s.38-.17,.38-.38Zm2.48-7.47v-3.14c0-.21-.17-.38-.38-.38s-.38,.17-.38,.38v3.14c0,.21,.17,.38,.38,.38s.38-.17,.38-.38Zm0,3.19v-1.35c0-.21-.17-.38-.38-.38s-.38,.17-.38,.38v1.35c0,.21,.17,.38,.38,.38s.38-.17,.38-.38Zm0,5.36v-3.14c0-.21-.17-.38-.38-.38s-.38,.17-.38,.38v3.14c0,.21,.17,.38,.38,.38s.38-.17,.38-.38Zm0,3.19v-1.35c0-.21-.17-.38-.38-.38s-.38,.17-.38,.38v1.35c0,.21,.17,.38,.38,.38s.38-.17,.38-.38Zm-4.88-11.74v-3.14c0-.21-.17-.38-.38-.38s-.38,.17-.38,.38v3.14c0,.21,.17,.38,.38,.38s.38-.17,.38-.38Zm0,3.19v-1.35c0-.21-.17-.38-.38-.38s-.38,.17-.38,.38v1.35c0,.21,.17,.38,.38,.38s.38-.17,.38-.38Zm0,5.36v-3.14c0-.21-.17-.38-.38-.38s-.38,.17-.38,.38v3.14c0,.21,.17,.38,.38,.38s.38-.17,.38-.38Zm0,3.19v-1.35c0-.21-.17-.38-.38-.38s-.38,.17-.38,.38v1.35c0,.21,.17,.38,.38,.38s.38-.17,.38-.38Z"/>
    </g>
  </g>
</svg>