<?xml version="1.0" encoding="UTF-8"?>
<svg id="_圖層_2" data-name="圖層 2" xmlns="http://www.w3.org/2000/svg" viewBox="0 0 33.59 61.13">
  <defs>
    <style>
      .cls-1 {
        fill: #fff;
      }

      .cls-2 {
        fill: #b3b3b3;
      }

      .cls-3 {
        fill: #333;
      }

      .cls-4 {
        fill: #4d4d4d;
      }
    </style>
  </defs>
  <g id="Layer_2" data-name="Layer 2">
    <g>
      <rect class="cls-3" x="14.84" y="7.16" width="3.59" height="9.54" rx="1.73" ry="1.73"/>
      <path class="cls-2" d="M18.43,16.77c-.45,.43-1.06,.7-1.73,.7h-.14c-.77,0-1.44-.35-1.9-.9l-.02,1.82c.52,.23,1.94,.9,3.78,2v-3.63Z"/>
      <path class="cls-4" d="M28.03,28.41c.32,.39,.64,.79,.94,1.2l.83-11.19h0c.06-2.34,.32-5.26,.51-7.43,.11-1.18,.19-2.15,.21-2.68,.04-.91,.07-1.73-.5-2.59l-1.86,22.7h-.14Z"/>
      <path class="cls-4" d="M27.46,27.75l1.87-22.83c-.65-.6-1.63-1.24-3.13-1.96-3.89-1.87-6.33-1.98-6.84-1.98l-.16,.11V20.87c2.5,1.57,5.58,3.86,8.26,6.88Z"/>
      <path class="cls-2" d="M14.64,19.23l-.03,2.78c1.49-.54,2.64-.83,3.4-.98-1.51-.9-2.72-1.5-3.37-1.8Z"/>
      <path class="cls-2" d="M16.71,6.4c.67,0,1.28,.27,1.73,.7V1.25l-3.59-.21-.07,6.13c.45-.47,1.09-.77,1.8-.77h.14Z"/>
      <path class="cls-4" d="M13.84,22.31l.23-21.4-.32-.14c-5.6,.03-10.41,2.69-11.39,3.27l1.67,23.77c3.96-2.82,7.3-4.51,9.81-5.5Z"/>
      <path class="cls-3" d="M30.24,23l-.56,7.58c1.48,2.19,2.42,4.37,3,6.12-.36-5.09-1.37-9.28-2.09-12.23-.13-.54-.25-1.03-.35-1.48Z"/>
      <path class="cls-4" d="M1.46,29.74c.63-.49,1.24-.96,1.84-1.4L1.67,5.1l-.49,.85c.05,1.07,.44,9.5,.48,17.18,.01,2.46-.07,4.61-.19,6.61Z"/>
      <path class="cls-2" d="M28.89,30.83v-.03c-.06-.09-.12-.19-.19-.28-2.86-4.01-6.67-6.95-9.68-8.86-.99,.12-7.76,1.18-17.61,9.1-.06,.91-.13,1.8-.19,2.68-.23,3.11-.47,6.33-.44,10.38,.06,8.22,5.37,16.53,15.4,16.53,4.92,0,9.13-2.02,12.18-5.83,2.89-3.62,4.48-8.62,4.48-14.09-.04-.28-.75-5.02-3.91-9.61h-.03Z"/>
      <path class="cls-1" d="M30.66,21.24c-.3-2.08,.13-6.95,.42-10.18,.11-1.2,.19-2.18,.22-2.71,.1-2.25-.18-3.88-4.76-6.08C21.95,.06,19.32,.21,19.21,.21h-.11s-.4,.29-.4,.29l-4.15-.22-.57-.25-.15-.03C7.31,0,1.98,3.37,1.76,3.51L.4,5.76v.11c0,.09,.44,9.09,.49,17.26,.02,4-.21,7.18-.44,10.26C.21,36.51-.03,39.75,0,43.83c.07,8.59,5.64,17.3,16.16,17.3,5.16,0,9.58-2.11,12.77-6.12,3-3.76,4.65-8.94,4.65-14.59,0-6.88-1.36-12.44-2.25-16.12-.32-1.29-.57-2.32-.67-3.06Zm-.13-12.92c-.02,.53-.11,1.49-.21,2.68-.19,2.17-.45,5.09-.51,7.43h0s-.83,11.19-.83,11.19c-.31-.41-.62-.81-.94-1.2h.14s1.86-22.69,1.86-22.69c.56,.86,.53,1.68,.5,2.59Zm-11.33,6.66V1.09l.16-.11c.51,0,2.95,.11,6.84,1.98,1.5,.72,2.48,1.36,3.13,1.96l-1.87,22.83c-2.68-3.02-5.75-5.31-8.26-6.88v-5.89ZM14.84,1.04l3.59,.21V7.1c-.45-.43-1.06-.7-1.73-.7h-.14c-.71,0-1.34,.3-1.8,.77l.07-6.13Zm3.59,7.85v6.09c0,.95-.77,1.73-1.73,1.73h-.14c-.95,0-1.73-.77-1.73-1.73v-6.09c0-.95,.77-1.73,1.73-1.73h.14c.95,0,1.73,.77,1.73,1.73Zm-3.76,7.68c.46,.54,1.14,.9,1.9,.9h.14c.67,0,1.28-.27,1.73-.7v3.63c-1.85-1.1-3.26-1.77-3.78-2l.02-1.82Zm-.03,2.66c.65,.3,1.86,.9,3.37,1.8-.76,.15-1.91,.44-3.4,.98l.03-2.78ZM13.75,.77l.32,.14-.23,21.4c-2.51,.99-5.84,2.68-9.81,5.5L2.36,4.04c.98-.58,5.79-3.25,11.39-3.27ZM1.67,5.1l1.63,23.23c-.6,.44-1.21,.91-1.84,1.4,.12-2.01,.2-4.15,.19-6.61-.04-7.68-.43-16.1-.48-17.18l.49-.85ZM28.34,54.53c-3.05,3.81-7.26,5.83-12.18,5.83C6.14,60.36,.83,52.04,.77,43.83c-.03-4.05,.21-7.27,.44-10.38,.07-.88,.13-1.77,.19-2.68,9.86-7.93,16.63-8.99,17.61-9.1,3.01,1.91,6.82,4.85,9.68,8.86,.07,.09,.13,.19,.19,.28v.03s.02,0,.02,0c3.16,4.59,3.87,9.33,3.91,9.61,0,5.47-1.59,10.47-4.48,14.09Zm1.33-23.94l.56-7.58c.1,.45,.22,.94,.35,1.48,.72,2.95,1.73,7.14,2.09,12.23-.58-1.75-1.52-3.93-3-6.12Z"/>
    </g>
  </g>
</svg>