<?xml version="1.0" encoding="UTF-8"?>
<svg id="_圖層_2" data-name="圖層 2" xmlns="http://www.w3.org/2000/svg" xmlns:xlink="http://www.w3.org/1999/xlink" viewBox="0 0 46.83 58.52">
  <defs>
    <style>
      .cls-1 {
        fill: #e6e6e6;
      }

      .cls-2 {
        fill: #fff;
      }

      .cls-3 {
        fill: #b3b3b3;
      }

      .cls-4 {
        fill: gray;
      }

      .cls-5 {
        fill: #4d4d4d;
      }

      .cls-6 {
        filter: url(#drop-shadow-1);
      }
    </style>
    <filter id="drop-shadow-1" filterUnits="userSpaceOnUse">
      <feOffset dx="7" dy="7"/>
      <feGaussianBlur result="blur" stdDeviation="5"/>
      <feFlood flood-color="#000" flood-opacity=".75"/>
      <feComposite in2="blur" operator="in"/>
      <feComposite in="SourceGraphic"/>
    </filter>
  </defs>
  <g id="Layer_2" data-name="Layer 2">
    <g class="cls-6">
      <polygon class="cls-3" points="34.08 8.68 34.08 4.54 12.09 4.54 16.23 8.68 34.08 8.68"/>
      <polygon class="cls-3" points="12.85 29.56 12.85 10.29 6.4 3.91 6.19 3.7 3.31 .85 .85 .85 .85 30.12 12.3 30.12 12.85 29.56"/>
      <polygon class="cls-5" points="13.7 29.92 12.65 30.97 4.4 30.97 4.4 33.35 26.72 33.35 23.09 29.72 13.7 29.72 13.7 29.92"/>
      <polygon class="cls-5" points="10.04 3.7 11.24 3.7 34.51 3.7 34.93 3.7 39.86 3.7 39.86 2.17 39.34 1.65 5.32 1.65 7.39 3.7 10.04 3.7"/>
      <rect class="cls-1" x="21.88" y="14.8" width="7.69" height="10.55" rx=".61" ry=".61"/>
      <polygon class="cls-5" points="16.1 9.75 10.89 4.54 8.25 4.54 11.05 7.32 13.7 9.94 13.7 10.11 13.83 27.86 16.1 25.6 16.1 9.75"/>
      <polygon class="cls-4" points="41.51 37.14 34.08 37.14 9.26 37.14 29.79 57.67 45.98 57.67 45.98 37.14 42.36 37.14 41.51 37.14"/>
      <rect class="cls-5" x="42.36" y="5.32" width="3.62" height="30.98"/>
      <path class="cls-5" d="M34.93,9.11v27.19h6.58V4.54h-6.58v4.56Zm3.89-1.42h.85V31.65h-.85V7.69Zm-2.37,0h.85V31.65h-.85V7.69Z"/>
      <path class="cls-5" d="M42.36,4.47h3.39v-1.87c0-.35-.29-.64-.64-.64h-4.41v1.74h1.65v.77Z"/>
      <polygon class="cls-4" points="4.4 37.14 4.4 57.66 28.57 57.66 8.06 37.14 4.4 37.14"/>
      <path class="cls-5" d="M8.41,36.29h25.67V9.53H16.95V25.95l-2.92,2.92h9.42l5.33,5.33H3.55v-3.23H1.18v26.7H3.55v-21.38h4.86Zm14.07-10.09c-.8,0-1.45-.65-1.45-1.45V15.41c0-.8,.65-1.45,1.45-1.45h6.48c.8,0,1.45,.65,1.45,1.45v9.34c0,.8-.65,1.45-1.45,1.45h-6.48Z"/>
      <path class="cls-2" d="M46.6,2.6c0-.82-.67-1.49-1.49-1.49h-5.12l-.31-.31H4.47l-.81-.8H0V30.97H.33v27.55H3.97s25.45,0,25.45,0h0s17.4,0,17.4,0V4.47h-.23v-1.87Zm-5.9-.64h4.41c.35,0,.64,.29,.64,.64v1.87h-3.39v-.77h-1.65V1.96Zm-.42,2.58h1.23v31.75h-6.58V4.54h5.35Zm-.95-2.9l.52,.52v1.53H7.39L5.32,1.65H39.34ZM13.7,10.11v-.18l-2.65-2.62-2.8-2.77h2.64l5.21,5.21v15.85l-2.26,2.26-.14-17.75Zm9.39,19.61l3.63,3.63H4.4v-2.39H12.65l1.05-1.05v-.19h9.39ZM12.09,4.54h22v4.14H16.23l-4.14-4.14ZM.85,.85H3.31l2.88,2.85,.21,.21,6.45,6.38V29.56l-.55,.55H.85V.85ZM3.55,36.29v21.37H1.18s0-26.7,0-26.7H3.55v3.23H28.77l-5.33-5.33H14.02l2.92-2.92V9.53h17.14v26.76H8.41s-4.86,0-4.86,0Zm.85,21.37v-20.52h3.66l20.51,20.52H4.4Zm41.59,0H29.79L9.26,37.14H45.98v20.53Zm0-21.38h-3.62V5.32h3.62v30.98Z"/>
      <rect class="cls-2" x="38.82" y="7.69" width=".85" height="23.96"/>
      <rect class="cls-2" x="36.45" y="7.69" width=".85" height="23.96"/>
      <path class="cls-2" d="M30.41,24.75V15.41c0-.8-.65-1.45-1.45-1.45h-6.48c-.8,0-1.45,.65-1.45,1.45v9.34c0,.8,.65,1.45,1.45,1.45h6.48c.8,0,1.45-.65,1.45-1.45Zm-8.53,0V15.41c0-.33,.27-.61,.61-.61h6.48c.33,0,.61,.27,.61,.61v9.34c0,.33-.27,.61-.61,.61h-6.48c-.33,0-.61-.27-.61-.61Z"/>
    </g>
  </g>
</svg>