<?xml version="1.0" encoding="UTF-8"?>
<svg id="_圖層_2" data-name="圖層 2" xmlns="http://www.w3.org/2000/svg" viewBox="0 0 42.87 64.86">
  <defs>
    <style>
      .cls-1 {
        fill: #fff;
      }

      .cls-2 {
        fill: #333;
      }

      .cls-3 {
        fill: #4d4d4d;
      }
    </style>
  </defs>
  <g id="Layer_2" data-name="Layer 2">
    <g>
      <path class="cls-3" d="M9.97,44.53l18.72,6.78,1.91,3.53,4.41,.87,1.99-2.03-.5-48.57L3.93,1.75l-1.72,1.85v.5l10.8,15.51-.62,.43L2.21,5.41V49.26l3.98,.78,3.78-5.51Zm10.26-10.77c-.44,.45-1.77,.95-1.77,.95l2.64-3.02s-.42,1.61-.87,2.07Zm3.5,.95l11.71,15.96-.6,.44-11.71-15.96,.6-.44Zm-6.65-14.24c.11,.26,1.95,4.94,3.98,7.99,0,0,.69-1.76,.69-3.27,0-1.31-2.51-2.44-2.51-2.44l1.07,3.59s-1.18-2.26-2.55-5.68c0,0,4.84,1.88,4.84,3.87,0,1.78-.89,4.32-1.51,5.33,0,0-2.41-3.5-3.7-6.15-.86-1.76-1.05-3.56-1.05-3.69,.2,0,.62,.21,.73,.46Zm-.74,3.35c.86,1.68,2.04,3.37,3.48,5.29,.87,1.16,1.18,1.4,1.53,1.21,.38-.21,1.25-1.03,1.25-1.03,0,0-.44,1.11-1.3,1.76-.56,.42-2.39,1.62-2.39,1.62,0,0,.6-1.1,.83-1.8,.15-.44,.09-.52-.21-.83-.19-.2-3.26-3.29-3.71-4.34-.54-1.27-.76-2.97-.76-4.11,0-.39,0-.75,0-.91,.26,.68,.47,1.58,1.28,3.16Z"/>
      <polygon class="cls-2" points="29.56 56.12 5.73 52.2 4.69 55.77 29.04 57.38 29.56 56.12"/>
      <polygon class="cls-2" points="5.73 50.72 2.28 50.04 2.6 52.31 4.29 53.94 4.45 53.95 5.15 51.56 5.73 50.72"/>
      <polygon class="cls-2" points="37.74 52.92 38.31 52.34 37.9 4.24 37.25 4.92 37.74 52.92"/>
      <polygon class="cls-2" points="10.26 45.44 6.1 51.5 29.86 55.4 29.94 55.2 28.17 51.92 10.26 45.44"/>
      <polygon class="cls-2" points="25.6 57.91 24.87 57.86 10.84 56.93 8.7 62.14 23.99 62.14 25.6 57.91"/>
      <polygon class="cls-2" points="37.74 3.32 35.13 .76 9.39 1.56 36.73 4.38 37.74 3.32"/>
      <polygon class="cls-2" points="24.51 62.89 24.25 62.89 8.14 62.89 7.58 62.89 2.93 62.89 1.76 64.11 41.16 64.11 40.03 62.89 24.51 62.89"/>
      <rect class="cls-1" x="28.91" y="33.02" width=".75" height="19.79" transform="translate(-19.71 25.63) rotate(-36.26)"/>
      <path class="cls-1" d="M21.1,29.86c.62-1.01,1.51-3.55,1.51-5.33,0-1.98-4.84-3.87-4.84-3.87,1.37,3.42,2.55,5.68,2.55,5.68l-1.07-3.59s2.51,1.13,2.51,2.44c0,1.51-.69,3.27-.69,3.27-2.03-3.04-3.86-7.73-3.98-7.99-.11-.25-.54-.46-.73-.46,0,.13,.19,1.93,1.05,3.69,1.29,2.65,3.7,6.15,3.7,6.15Z"/>
      <path class="cls-1" d="M20.23,33.76c.45-.46,.87-2.07,.87-2.07l-2.64,3.02s1.33-.49,1.77-.95Z"/>
      <path class="cls-1" d="M15.83,25.69c.45,1.05,3.52,4.14,3.71,4.34,.29,.31,.36,.39,.21,.83-.22,.7-.83,1.8-.83,1.8,0,0,1.84-1.2,2.39-1.62,.86-.65,1.3-1.76,1.3-1.76,0,0-.87,.82-1.25,1.03-.35,.19-.65-.05-1.53-1.21-1.44-1.91-2.62-3.6-3.48-5.29-.81-1.59-1.03-2.48-1.28-3.16,0,.17,0,.53,0,.91,0,1.14,.23,2.85,.76,4.11Z"/>
      <path class="cls-1" d="M24.79,62.14l1.59-4.18,3.14,.21,.81-1.95,4.95,.29,3.78-3.86-.42-49.5-3.22-3.15L3.62,.99,1.46,3.3V49.62s.44,3.05,.44,3.05l2.07,2,.26,.02-.52,1.77,6.35,.42-2.16,5.26H2.61l-2.61,2.72H42.87l-2.51-2.72h-15.57Zm5.06-6.73l-23.76-3.9,4.16-6.06,17.91,6.48,1.77,3.28-.08,.21Zm8.46-3.06l-.57,.58-.49-48,.65-.68,.41,48.11ZM35.13,.76l2.62,2.56-1.01,1.06L9.39,1.56l25.73-.8ZM2.21,5.41l10.19,14.63,.62-.43L2.21,4.09v-.5l1.72-1.85,32.58,3.36,.5,48.57-1.99,2.03-4.41-.87-1.91-3.53-18.72-6.78-3.78,5.51-3.98-.78V5.41Zm2.08,48.53l-1.69-1.63-.33-2.28,3.45,.68-.58,.85-.7,2.39h-.15Zm.39,1.83l1.04-3.57,23.84,3.92-.52,1.27-24.35-1.61Zm6.16,1.16l14.02,.93,.74,.05-1.61,4.23H8.7l2.14-5.2Zm-9.08,7.18l1.17-1.22H40.03l1.13,1.22H1.76Z"/>
    </g>
  </g>
</svg>