<?xml version="1.0" encoding="UTF-8"?>
<svg id="_圖層_2" data-name="圖層 2" xmlns="http://www.w3.org/2000/svg" viewBox="0 0 31.16 64.92">
  <defs>
    <style>
      .cls-1 {
        fill: #fff;
      }

      .cls-2 {
        fill: #333;
      }

      .cls-3 {
        fill: #4d4d4d;
      }
    </style>
  </defs>
  <g id="Layer_2" data-name="Layer 2">
    <g>
      <path class="cls-2" d="M14.74,9.02c.58,0,1.06-.48,1.06-1.06s-.48-1.06-1.06-1.06-1.06,.48-1.06,1.06,.48,1.06,1.06,1.06Z"/>
      <path class="cls-2" d="M7.22,7.2c1.21,0,2.2-.99,2.2-2.2s-.99-2.2-2.2-2.2-2.2,.99-2.2,2.2,.99,2.2,2.2,2.2Z"/>
      <path class="cls-2" d="M15.37,14.16l2.51-2.51c.1-.1,.16-.23,.16-.37v-.8l-3.83,3.83h.79c.14,0,.27-.06,.37-.15Z"/>
      <path class="cls-3" d="M3.34,13.62c0,.78,.63,1.41,1.41,1.41h7.1c.38,0,.73-.15,1-.41l5.22-5.22,.07-.08h0c.23-.26,.35-.59,.35-.92V2.53c0-.78-.63-1.41-1.41-1.41H4.75c-.78,0-1.41,.63-1.41,1.41V13.62ZM14.74,1.75c1,0,1.81,.81,1.81,1.81s-.81,1.81-1.81,1.81-1.81-.81-1.81-1.81,.81-1.81,1.81-1.81Zm0,4.4c1,0,1.81,.81,1.81,1.81s-.81,1.81-1.81,1.81-1.81-.81-1.81-1.81,.81-1.81,1.81-1.81Zm-7.52,4.79c-.4,0-.72-.32-.72-.72s.32-.72,.72-.72,.72,.32,.72,.72-.32,.72-.72,.72Zm0-8.89c1.63,0,2.95,1.32,2.95,2.95s-1.32,2.95-2.95,2.95-2.95-1.32-2.95-2.95,1.32-2.95,2.95-2.95Z"/>
      <circle class="cls-2" cx="14.74" cy="3.56" r="1.06"/>
      <path class="cls-3" d="M1.1,62.8c0,.75,.61,1.36,1.36,1.36H29.04c.75,0,1.36-.61,1.36-1.36V7.76L1.1,36.7v26.11Zm15.46-9.17c-.35,.36-1.4,.75-1.4,.75l2.08-2.38s-.33,1.27-.68,1.63Zm-2.49-10.49c.09,.21,1.54,3.9,3.14,6.3,0,0,.55-1.39,.55-2.58,0-1.03-1.98-1.92-1.98-1.92l.85,2.84s-.93-1.79-2.01-4.49c0,0,3.82,1.49,3.82,3.05,0,1.4-.7,3.41-1.19,4.2,0,0-1.91-2.77-2.92-4.86-.68-1.39-.83-2.81-.83-2.91,.16,0,.49,.17,.58,.36Zm-.58,2.64c.68,1.33,1.61,2.66,2.75,4.17,.69,.91,.93,1.11,1.21,.95,.3-.17,.99-.82,.99-.82,0,0-.35,.88-1.03,1.39-.44,.33-1.89,1.28-1.89,1.28,0,0,.48-.87,.65-1.42,.12-.35,.07-.41-.16-.66-.15-.16-2.57-2.6-2.93-3.43-.42-1-.6-2.34-.6-3.25,0-.3,0-.59,0-.72,.2,.53,.37,1.24,1.01,2.5Z"/>
      <path class="cls-2" d="M29.04,.75h-10.76c.57,.39,.94,1.04,.94,1.78v5.86c0,.46-.16,.91-.44,1.28v1.6c0,.34-.14,.67-.38,.91l-2.51,2.51c-.24,.24-.56,.37-.9,.37h-1.54l-.07,.07c-.41,.41-.95,.63-1.53,.63H4.75c-1.19,0-2.16-.97-2.16-2.16V2.53c0-.74,.38-1.39,.94-1.78h-1.07c-.75,0-1.36,.61-1.36,1.36V35.64L30.41,6.71V2.11c0-.75-.61-1.36-1.36-1.36Z"/>
      <path class="cls-1" d="M7.22,7.95c1.63,0,2.95-1.32,2.95-2.95s-1.32-2.95-2.95-2.95-2.95,1.32-2.95,2.95,1.32,2.95,2.95,2.95Zm0-5.15c1.21,0,2.2,.99,2.2,2.2s-.99,2.2-2.2,2.2-2.2-.99-2.2-2.2,.99-2.2,2.2-2.2Z"/>
      <path class="cls-1" d="M14.74,5.37c1,0,1.81-.81,1.81-1.81s-.81-1.81-1.81-1.81-1.81,.81-1.81,1.81,.81,1.81,1.81,1.81Zm0-2.87c.58,0,1.06,.48,1.06,1.06s-.48,1.06-1.06,1.06-1.06-.48-1.06-1.06,.48-1.06,1.06-1.06Z"/>
      <path class="cls-1" d="M14.74,9.77c1,0,1.81-.81,1.81-1.81s-.81-1.81-1.81-1.81-1.81,.81-1.81,1.81,.81,1.81,1.81,1.81Zm0-2.87c.58,0,1.06,.48,1.06,1.06s-.48,1.06-1.06,1.06-1.06-.48-1.06-1.06,.48-1.06,1.06-1.06Z"/>
      <circle class="cls-1" cx="7.22" cy="10.23" r=".72"/>
      <path class="cls-1" d="M29.04,0H2.47C1.3,0,.35,.95,.35,2.11v14.43c-.2,.01-.35,.17-.35,.37v7.77c0,.2,.16,.36,.35,.37v2.8c-.2,.01-.35,.17-.35,.37v2.2c0,.2,.16,.36,.35,.37V62.8c0,1.16,.95,2.11,2.11,2.11H29.04c1.16,0,2.11-.95,2.11-2.11V2.11c0-1.16-.95-2.11-2.11-2.11ZM4.75,1.12h12.31c.78,0,1.41,.63,1.41,1.41v5.86c0,.33-.12,.66-.35,.92h0s-.07,.08-.07,.08l-5.22,5.22c-.27,.27-.62,.41-1,.41H4.75c-.78,0-1.41-.63-1.41-1.41V2.53c0-.78,.63-1.41,1.41-1.41Zm13.28,9.36v.8c0,.14-.06,.28-.16,.37l-2.51,2.51c-.1,.1-.23,.15-.37,.15h-.79l3.83-3.83Zm12.37,52.32c0,.75-.61,1.36-1.36,1.36H2.47c-.75,0-1.36-.61-1.36-1.36v-26.11L30.41,7.76V62.8Zm0-56.1L1.1,35.64V2.11c0-.75,.61-1.36,1.36-1.36h1.07c-.57,.39-.94,1.04-.94,1.78V13.62c0,1.19,.97,2.16,2.16,2.16h7.1c.58,0,1.12-.22,1.53-.63l.07-.07h1.54c.34,0,.66-.13,.9-.37l2.51-2.51c.24-.24,.38-.57,.38-.91v-1.6c.28-.38,.44-.82,.44-1.28V2.53c0-.74-.38-1.39-.94-1.78h10.76c.75,0,1.36,.61,1.36,1.36V6.71Z"/>
      <path class="cls-1" d="M17.24,50.55c.49-.79,1.19-2.8,1.19-4.2,0-1.56-3.82-3.05-3.82-3.05,1.08,2.7,2.01,4.49,2.01,4.49l-.85-2.84s1.98,.89,1.98,1.92c0,1.19-.55,2.58-.55,2.58-1.6-2.4-3.05-6.1-3.14-6.3-.09-.2-.42-.36-.58-.36,0,.11,.15,1.52,.83,2.91,1.02,2.09,2.92,4.86,2.92,4.86Z"/>
      <path class="cls-1" d="M16.56,53.63c.35-.36,.68-1.63,.68-1.63l-2.08,2.38s1.05-.39,1.4-.75Z"/>
      <path class="cls-1" d="M13.08,47.26c.35,.83,2.78,3.27,2.93,3.43,.23,.24,.28,.31,.16,.66-.18,.56-.65,1.42-.65,1.42,0,0,1.45-.95,1.89-1.28,.68-.51,1.03-1.39,1.03-1.39,0,0-.69,.65-.99,.82-.28,.15-.52-.04-1.21-.95-1.14-1.51-2.07-2.84-2.75-4.17-.64-1.25-.81-1.96-1.01-2.5,0,.13,0,.42,0,.72,0,.9,.18,2.25,.6,3.25Z"/>
    </g>
  </g>
</svg>