<?xml version="1.0" encoding="UTF-8"?>
<svg id="_圖層_2" data-name="圖層 2" xmlns="http://www.w3.org/2000/svg" viewBox="0 0 60.91 45.91">
  <defs>
    <style>
      .cls-1 {
        fill: #fff;
      }

      .cls-2 {
        fill: #b3b3b3;
      }

      .cls-3 {
        fill: #333;
      }

      .cls-4 {
        fill: #4d4d4d;
      }
    </style>
  </defs>
  <g id="Layer_2" data-name="Layer 2">
    <g>
      <polygon class="cls-2" points="51.68 17.07 17.24 17.65 21.78 19 49.64 18.53 51.68 17.07"/>
      <polygon class="cls-2" points="43.42 22.96 45.44 21.52 31.09 21.77 35.13 22.96 43.42 22.96"/>
      <polygon class="cls-3" points="54.8 14.85 10.32 15.6 14.85 16.94 52.76 16.3 54.8 14.85"/>
      <polygon class="cls-3" points="42.27 6.36 12.12 6.87 9.5 8.34 46.95 7.71 42.27 6.36"/>
      <polygon class="cls-3" points="48.56 19.3 24.17 19.71 28.7 21.06 46.52 20.75 48.56 19.3"/>
      <polygon class="cls-2" points="57.93 12.62 3.39 13.54 7.93 14.89 55.88 14.08 57.93 12.62"/>
      <polygon class="cls-2" points="49.41 8.42 8.13 9.11 5.1 10.81 54.13 9.77 49.41 8.42"/>
      <polygon class="cls-3" points="59.68 11.37 56.56 10.47 3.71 11.59 1.52 12.82 59 11.85 59.68 11.37"/>
      <path class="cls-3" d="M14,17.47l22.95,26.51,2.86,1.05,.3-16.48-5.22-4.88-20.89-6.2Zm13.15,14.03c-.41-.6-.85-2.12-.85-2.12l2.7,3.7s-1.44-.97-1.85-1.58Zm11.88,1.26c-.23,.03-4.42,.33-7.14,1.37,0,0,1.57,1.3,2.93,1.81,1.17,.44,2.18-1.74,2.18-1.74l-3.21-.12s2.02-.44,5.08-.68c0,0-1.69,4.29-3.46,3.62-1.59-.6-3.86-2.35-4.76-3.32,0,0,3.13-1.28,5.5-1.7,1.57-.28,3.18,.13,3.3,.17,0,.2-.19,.56-.41,.59Zm-.98-2.42c.34,.13,.67,.25,.82,.31-.61,.03-1.41-.05-2.83,.24-1.51,.31-3.02,.94-4.73,1.76-1.04,.5-1.25,.73-1.08,1.15,.19,.46,.92,1.62,.92,1.62,0,0-.99-.82-1.57-1.91-.38-.71-1.45-2.98-1.45-2.98,0,0,.98,.98,1.61,1.45,.4,.3,.47,.26,.74,.07,.18-.13,2.94-2.21,3.88-2.31,1.13-.12,2.65,.22,3.68,.6Z"/>
      <polygon class="cls-3" points="36.01 23.7 40.4 27.8 42.87 23.71 36.01 23.7"/>
      <polygon class="cls-2" points="34.58 4.16 16.41 4.46 13.5 6.1 39.8 5.66 34.58 4.16"/>
      <polygon class="cls-4" points="40.85 28.5 40.55 44.77 59.61 29.59 60.14 11.96 43.82 23.6 40.85 28.5"/>
      <polygon class="cls-3" points="22.92 .81 17.79 3.69 32.12 3.45 22.92 .81"/>
      <polygon class="cls-4" points=".77 13.54 1.37 30.93 35.49 43.45 12.66 17.07 .77 13.54"/>
      <path class="cls-1" d="M60.64,10.86L22.98,.04l-.15-.04L.19,12.71l.08,.13-.27,.21L.63,31.21l.25,.34,39.16,14.37,.36-.06,19.82-15.79,.14-.28,.55-18.55-.33-.18,.06-.2ZM22.92,.81l9.19,2.64-14.33,.24L22.92,.81Zm-6.51,3.66l18.17-.31,5.22,1.5-26.3,.44,2.91-1.64Zm-4.29,2.41l30.15-.51,4.68,1.34-37.44,.63,2.61-1.47Zm-3.99,2.24l41.29-.7,4.72,1.35L5.1,10.81l3.03-1.7Zm-4.42,2.48l52.85-1.12,3.12,.9-.68,.48L1.52,12.82l2.19-1.23Zm24.99,9.46l-4.53-1.35,24.39-.41-2.04,1.46-17.81,.3Zm16.73,.47l-2.02,1.44h-8.29l-4.03-1.2,14.34-.24Zm-23.66-2.52l-4.54-1.35,34.44-.58-2.04,1.46-27.86,.47Zm-6.93-2.06l-4.53-1.35,44.49-.75-2.04,1.46-37.91,.64Zm-6.93-2.06l-4.54-1.35,54.53-.92-2.04,1.46-47.95,.81ZM1.37,30.93L.77,13.54l11.89,3.53,22.83,26.37L1.37,30.93Zm38.43,14.1l-2.86-1.05L14,17.47l20.89,6.2,5.22,4.88-.3,16.48Zm-3.79-21.33h6.87s-2.48,4.1-2.48,4.1l-4.39-4.1Zm23.6,5.89l-19.06,15.18,.3-16.27,2.97-4.9,16.32-11.63-.52,17.62Z"/>
      <path class="cls-1" d="M36.13,31.99c-2.37,.42-5.5,1.7-5.5,1.7,.9,.97,3.17,2.73,4.76,3.32,1.77,.67,3.46-3.62,3.46-3.62-3.06,.24-5.08,.68-5.08,.68l3.21,.12s-1.01,2.18-2.18,1.74c-1.35-.51-2.93-1.81-2.93-1.81,2.72-1.04,6.91-1.34,7.14-1.37,.22-.03,.41-.39,.41-.59-.12-.05-1.73-.45-3.3-.17Z"/>
      <path class="cls-1" d="M27.14,31.5c.41,.61,1.85,1.58,1.85,1.58l-2.7-3.7s.44,1.52,.85,2.12Z"/>
      <path class="cls-1" d="M30.48,32.05c-.28,.19-.35,.23-.74-.07-.63-.46-1.61-1.45-1.61-1.45,0,0,1.07,2.27,1.45,2.98,.58,1.09,1.57,1.91,1.57,1.91,0,0-.74-1.16-.92-1.62-.17-.42,.04-.65,1.08-1.15,1.71-.83,3.22-1.45,4.73-1.76,1.42-.29,2.22-.21,2.83-.24-.15-.06-.47-.18-.82-.31-1.02-.38-2.54-.73-3.68-.6-.94,.1-3.7,2.19-3.88,2.31Z"/>
    </g>
  </g>
</svg>