<?xml version="1.0" encoding="UTF-8"?>
<svg id="_圖層_2" data-name="圖層 2" xmlns="http://www.w3.org/2000/svg" viewBox="0 0 82.8 49.6">
  <defs>
    <style>
      .cls-1 {
        fill: #fff;
      }

      .cls-2 {
        fill: #b3b3b3;
      }

      .cls-3 {
        fill: #333;
      }

      .cls-4 {
        fill: gray;
      }

      .cls-5 {
        fill: #4d4d4d;
      }
    </style>
  </defs>
  <g id="Layer_2" data-name="Layer 2">
    <g>
      <rect class="cls-2" x="30.92" y="41.98" width="1.1" height="2.3"/>
      <rect class="cls-4" x="35.64" y="41.98" width="1.1" height="2.3"/>
      <rect class="cls-2" x="46.06" y="41.98" width="1.1" height="2.3"/>
      <polygon class="cls-3" points="21.91 41.98 21.06 41 20.12 41.67 21.53 43.3 23.03 43.3 25.68 46.36 41.4 46.36 41.4 46.36 57.12 46.36 59.77 43.3 61.27 43.3 62.68 41.67 61.74 41 60.89 41.98 52.63 41.98 52.63 45.03 50.03 45.03 50.03 41.98 47.91 41.98 47.91 45.03 45.31 45.03 45.31 41.98 41.4 41.98 37.49 41.98 37.49 45.03 34.89 45.03 34.89 41.98 32.77 41.98 32.77 45.03 30.17 45.03 30.17 41.98 21.91 41.98"/>
      <rect class="cls-4" x="50.78" y="41.98" width="1.1" height="2.3"/>
      <polygon class="cls-4" points="62.12 24.62 64.07 23.5 66.6 17.75 71.82 1.91 70.3 1.03 62.36 15.3 59.88 19.99 60.05 22.23 62.12 24.62"/>
      <polygon class="cls-5" points="41.4 41.23 45.31 41.23 47.91 41.23 50.03 41.23 52.63 41.23 60.54 41.23 61.27 40.39 60.08 34.28 63.64 31.47 61.73 25.27 58.82 21.92 39.97 41.23 41.4 41.23"/>
      <polygon class="cls-4" points="22.75 22.19 22.92 19.99 20.43 15.29 12.5 1.03 10.98 1.91 16.21 17.78 18.73 23.5 20.65 24.61 22.75 22.19"/>
      <polygon class="cls-4" points="68.83 32.25 65.54 33.99 63.17 35.69 63.74 38.68 67.51 41.9 71.9 39.29 81.76 25.83 79.71 24.3 68.83 32.25"/>
      <polygon class="cls-4" points="19.63 35.69 17.22 33.97 14.02 32.28 3.09 24.3 1.04 25.83 10.9 39.29 15.29 41.9 19.06 38.68 19.63 35.69"/>
      <polygon class="cls-5" points="62.34 35.36 64.01 34.17 62.95 32.97 60.9 34.58 62.02 40.28 63.79 41.54 61.61 44.05 60.12 44.05 57.46 47.11 41.4 47.11 41.4 47.11 25.34 47.11 22.68 44.05 21.19 44.05 19.01 41.54 20.78 40.28 21.9 34.58 19.85 32.97 18.79 34.17 20.46 35.36 19.75 39.08 15.88 42.38 19.37 45.87 22.09 45.87 25.07 48.85 41.4 48.85 57.73 48.85 60.71 45.87 63.43 45.87 66.92 42.38 63.05 39.08 62.34 35.36"/>
      <polygon class="cls-2" points="21.53 40.39 22.26 41.23 30.17 41.23 32.77 41.23 34.89 41.23 37.49 41.23 38.92 41.23 58.33 21.35 55.16 17.71 41.4 17.71 34.92 17.71 19.31 31.59 22.72 34.28 21.53 40.39"/>
      <polygon class="cls-5" points="27.64 17.71 21.07 25.27 19.48 30.43 33.79 17.71 27.64 17.71"/>
      <path class="cls-1" d="M68.43,31.62l-3.28,1.74-.52,.37-1.09-1.22,.97-.77-2-6.48,2.14-1.24,2.65-6.01L72.72,1.57l-2.7-1.57-8.32,14.94-2.59,4.89,.11,1.45-3.72-4.31H27.29l-3.72,4.29,.11-1.42-2.59-4.9L12.78,0l-2.7,1.57,5.43,16.48,2.64,5.97,2.17,1.25-2.03,6.46,.97,.77-1.09,1.23-.56-.4-3.19-1.68L3.09,23.37l-3.09,2.3,10.34,14.12,4.75,2.86,3.97,3.97h2.72l2.98,2.98H58.04l2.98-2.98h2.72l3.96-3.96,4.64-2.76,10.45-14.23-3.09-2.3-11.28,8.25Zm-6.07-16.32l7.94-14.26,1.52,.88-5.22,15.83-2.54,5.75-1.95,1.13-2.07-2.39-.17-2.24,2.48-4.69Zm-.63,9.98l1.91,6.2-3.57,2.81,1.2,6.11-.73,.84h-20.57l18.85-19.31,2.91,3.35Zm-28.96,19.76v-3.05h2.12v3.05h2.6v-3.05h7.82v3.05h2.6v-3.05h2.12v3.05h2.6v-3.05h8.26l.85-.98,.94,.67-1.41,1.63h-1.49l-2.66,3.06H25.68l-2.66-3.06h-1.49l-1.41-1.63,.94-.67,.85,.98h8.26v3.05h2.6Zm-1.85-.75v-2.3h1.1v2.3h-1.1Zm4.72,0v-2.3h1.1v2.3h-1.1Zm10.42,0v-2.3h1.1v2.3h-1.1Zm4.72,0v-2.3h1.1v2.3h-1.1ZM18.73,23.5l-2.52-5.71L10.98,1.91l1.52-.88,7.94,14.26,2.48,4.7-.17,2.21-2.09,2.41-1.92-1.11Zm2.34,1.78l6.57-7.56h6.15l-14.31,12.72,1.59-5.16Zm13.85-7.56h20.25l3.17,3.65-19.41,19.88H22.26l-.73-.84,1.2-6.11-3.42-2.69,15.61-13.88ZM10.9,39.29L1.04,25.83l2.05-1.53,10.93,7.98,3.2,1.69,2.42,1.73-.57,2.98-3.77,3.22-4.39-2.61Zm52.53,6.58h-2.72l-2.98,2.98H25.07l-2.98-2.98h-2.72l-3.49-3.49,3.87-3.3,.71-3.71-1.68-1.2,1.07-1.2,2.05,1.61-1.12,5.7-1.77,1.26,2.18,2.51h1.49l2.66,3.06H57.46l2.66-3.06h1.49l2.18-2.51-1.77-1.26-1.12-5.7,2.05-1.61,1.06,1.2-1.67,1.2,.71,3.71,3.87,3.3-3.49,3.49Zm8.47-6.58l-4.39,2.61-3.77-3.22-.57-2.98,2.38-1.7,3.28-1.74,10.88-7.95,2.05,1.53-9.86,13.46Z"/>
    </g>
  </g>
</svg>