<?xml version="1.0" encoding="UTF-8"?>
<svg id="_圖層_2" data-name="圖層 2" xmlns="http://www.w3.org/2000/svg" viewBox="0 0 24.68 64.49">
  <defs>
    <style>
      .cls-1 {
        fill: #fff;
      }

      .cls-2 {
        fill: #333;
      }

      .cls-3 {
        fill: gray;
      }

      .cls-4 {
        fill: #4d4d4d;
      }
    </style>
  </defs>
  <g id="Layer_2" data-name="Layer 2">
    <g>
      <path class="cls-2" d="M1,54.79l22.68-11.37V26.39L1,6.87V54.79ZM21.05,29.04c-.35,.15-6.65,2.63-10.75,5.36,0,0,2.37,.93,4.41,.93,1.76,0,3.28-3.38,3.28-3.38l-4.84,1.44s3.04-1.59,7.65-3.43c0,0-2.54,6.51-5.2,6.51-2.39,0-5.82-1.19-7.17-2.03,0,0,4.72-3.25,8.28-4.98,2.37-1.15,4.79-1.41,4.97-1.41,0,.26-.28,.84-.62,.99Zm-13.98,3.58c.6,.2,.7,.12,1.12-.28,.27-.26,4.43-4.39,5.84-4.99,1.7-.72,3.99-1.03,5.53-1.03,.52,0,1,0,1.23,0-.91,.34-2.12,.63-4.25,1.73-2.27,1.16-4.54,2.74-7.12,4.68-1.56,1.18-1.89,1.59-1.63,2.06,.29,.51,1.39,1.69,1.39,1.69,0,0-1.49-.6-2.37-1.75-.57-.75-2.18-3.22-2.18-3.22,0,0,1.48,.81,2.43,1.11Zm-1.12,1.83s-2.17-.57-2.78-1.17c-.61-.6-1.28-2.39-1.28-2.39l4.06,3.55Z"/>
      <path class="cls-3" d="M1,55.84l13,6.25,8.59-3.34c.67-.26,1.1-.89,1.1-1.61v-12.88L1,55.63v.21Z"/>
      <path class="cls-4" d="M23,5.99L1.15,3.79c-.09,.21-.15,.43-.15,.66v1.44L23.68,25.4V7.4c0-.44-.17-.87-.48-1.19l-.21-.22Z"/>
      <path class="cls-1" d="M19.48,.85c-.51-.54-1.23-.85-1.97-.85H3.91c-.89,0-1.73,.44-2.24,1.17L.49,2.89c-.32,.46-.49,.99-.49,1.55V58.31c0,1.05,.61,2.02,1.56,2.46l7.33,3.45c.36,.17,.76,.26,1.16,.26,.33,0,.67-.06,.99-.18l11.9-4.63c1.06-.41,1.74-1.41,1.74-2.54V7.4c0-.7-.27-1.37-.75-1.88L19.48,.85ZM2.5,1.74c.32-.46,.85-.74,1.42-.74h13.59c.47,0,.92,.2,1.25,.54l3.45,3.62L1.57,3.08l.92-1.33ZM10.68,63.37c-.44,.17-.93,.15-1.36-.05l-7.33-3.45c-.6-.28-.99-.89-.99-1.56v-1.64l12.04,5.79-2.36,.92Zm13-6.24c0,.72-.43,1.35-1.1,1.61l-8.59,3.34L1,55.84v-.21l22.68-11.37v12.88Zm0-13.72L1,54.79V6.87L23.68,26.39v17.03Zm0-18.02L1,5.88v-1.44c0-.23,.06-.45,.15-.66l21.85,2.2,.21,.22c.31,.32,.48,.74,.48,1.19V25.4Z"/>
      <path class="cls-1" d="M8.42,34.45c1.35,.84,4.77,2.03,7.17,2.03,2.67,0,5.2-6.51,5.2-6.51-4.61,1.84-7.65,3.43-7.65,3.43l4.84-1.44s-1.52,3.38-3.28,3.38c-2.04,0-4.41-.93-4.41-.93,4.1-2.73,10.4-5.2,10.75-5.36,.34-.15,.62-.72,.62-.99-.18,0-2.6,.26-4.97,1.41-3.56,1.73-8.28,4.98-8.28,4.98Z"/>
      <path class="cls-1" d="M5.95,34.45l-4.06-3.55s.66,1.79,1.28,2.39c.62,.6,2.78,1.17,2.78,1.17Z"/>
      <path class="cls-1" d="M9.19,36.48s-1.11-1.17-1.39-1.69c-.26-.47,.07-.88,1.63-2.06,2.58-1.94,4.85-3.52,7.12-4.68,2.13-1.09,3.34-1.38,4.25-1.73-.23,0-.71,0-1.23,0-1.54,0-3.83,.3-5.53,1.03-1.41,.6-5.57,4.73-5.84,4.99-.42,.39-.52,.48-1.12,.28-.95-.3-2.43-1.11-2.43-1.11,0,0,1.62,2.47,2.18,3.22,.87,1.15,2.37,1.75,2.37,1.75Z"/>
    </g>
  </g>
</svg>