<?xml version="1.0" encoding="UTF-8"?>
<svg id="_圖層_2" data-name="圖層 2" xmlns="http://www.w3.org/2000/svg" xmlns:xlink="http://www.w3.org/1999/xlink" viewBox="0 0 84.04 39.05">
  <defs>
    <style>
      .cls-1 {
        fill: #fff;
      }

      .cls-2 {
        fill: #b3b3b3;
      }

      .cls-3 {
        fill: #333;
      }

      .cls-4 {
        fill: gray;
      }

      .cls-5 {
        fill: #4d4d4d;
      }

      .cls-6 {
        filter: url(#drop-shadow-1);
      }
    </style>
    <filter id="drop-shadow-1" filterUnits="userSpaceOnUse">
      <feOffset dx="7" dy="7"/>
      <feGaussianBlur result="blur" stdDeviation="5"/>
      <feFlood flood-color="#000" flood-opacity=".75"/>
      <feComposite in2="blur" operator="in"/>
      <feComposite in="SourceGraphic"/>
    </filter>
  </defs>
  <g id="Layer_2" data-name="Layer 2">
    <g class="cls-6">
      <path class="cls-2" d="M53.07,16.59c0-6.68-5.43-12.11-12.11-12.11s-12.11,5.43-12.11,12.11,5.43,12.11,12.11,12.11,12.11-5.43,12.11-12.11Zm-16.84,0c0-2.61,2.12-4.73,4.73-4.73s4.73,2.12,4.73,4.73-2.12,4.73-4.73,4.73-4.73-2.12-4.73-4.73Z"/>
      <path class="cls-5" d="M67.65,12.79c-2.09,0-3.8,1.7-3.8,3.8s1.7,3.8,3.8,3.8,3.8-1.7,3.8-3.8-1.7-3.8-3.8-3.8Z"/>
      <circle class="cls-5" cx="40.96" cy="16.59" r="3.8"/>
      <path class="cls-3" d="M48.28,3.59l-1.39,1.39c4.22,2.16,7.11,6.55,7.11,11.61,0,7.03-5.59,12.78-12.56,13.03h25.72c-6.97-.26-12.56-6-12.56-13.03s5.85-13.04,13.04-13.04c6.55,0,11.98,4.85,12.91,11.15V3.15h-31.23c-.4,0-.77,.15-1.05,.43Z"/>
      <path class="cls-2" d="M67.65,4.48c-6.68,0-12.11,5.43-12.11,12.11s5.43,12.11,12.11,12.11,12.11-5.43,12.11-12.11-5.43-12.11-12.11-12.11Zm0,16.84c-2.61,0-4.73-2.12-4.73-4.73s2.12-4.73,4.73-4.73,4.73,2.12,4.73,4.73-2.12,4.73-4.73,4.73Z"/>
      <path class="cls-5" d="M1.94,32.28v5.84h1.66v-5.82h-1.51c-.05,0-.1-.01-.16-.02Z"/>
      <rect class="cls-4" x="12.07" y="32.29" width="23.77" height="1.67"/>
      <rect class="cls-5" x="45.69" y="32.29" width="5.69" height=".87"/>
      <path class="cls-3" d="M68.14,29.62h12.42v-11.14c-.9,6.14-6.09,10.9-12.42,11.14Z"/>
      <path class="cls-5" d="M.94,2.09V30.2c0,.45,.26,.84,.65,1.03h2.96v.12H80.56v-.8H22.94c-.5,0-.94-.3-1.13-.75s-.09-.98,.26-1.33l6.85-6.85c-.65-1.55-1.01-3.25-1.01-5.03,0-7.19,5.85-13.04,13.04-13.04,1.78,0,3.48,.36,5.03,1.01l1.63-1.63c.46-.46,1.06-.71,1.71-.71h31.23V.94H2.09c-.64,0-1.16,.52-1.16,1.16ZM3.98,29.17c0,.26-.21,.47-.47,.47s-.47-.21-.47-.47v-3.21c0-.26,.21-.47,.47-.47s.47,.21,.47,.47v3.21ZM14.26,3.55c7.19,0,13.04,5.85,13.04,13.04s-5.85,13.04-13.04,13.04S1.22,23.78,1.22,16.59,7.07,3.55,14.26,3.55Z"/>
      <path class="cls-3" d="M29.35,22.52l-6.61,6.61c-.12,.12-.08,.26-.06,.31s.09,.18,.27,.18h17.54c-4.85-.18-9.03-3.02-11.13-7.1Z"/>
      <rect class="cls-5" x="81.49" y=".94" width="1.61" height="30.42"/>
      <circle class="cls-5" cx="14.26" cy="16.59" r="3.8"/>
      <path class="cls-2" d="M14.26,28.7c6.68,0,12.11-5.43,12.11-12.11S20.94,4.48,14.26,4.48,2.15,9.91,2.15,16.59s5.43,12.11,12.11,12.11Zm0-16.84c2.61,0,4.73,2.12,4.73,4.73s-2.12,4.73-4.73,4.73-4.73-2.12-4.73-4.73,2.12-4.73,4.73-4.73Z"/>
      <path class="cls-1" d="M14.26,29.64c7.19,0,13.04-5.85,13.04-13.04S21.46,3.55,14.26,3.55,1.22,9.4,1.22,16.59s5.85,13.04,13.04,13.04Zm0-25.15c6.68,0,12.11,5.43,12.11,12.11s-5.43,12.11-12.11,12.11S2.15,23.27,2.15,16.59,7.59,4.48,14.26,4.48Z"/>
      <path class="cls-1" d="M14.26,21.32c2.61,0,4.73-2.12,4.73-4.73s-2.12-4.73-4.73-4.73-4.73,2.12-4.73,4.73,2.12,4.73,4.73,4.73Zm0-8.53c2.09,0,3.8,1.7,3.8,3.8s-1.7,3.8-3.8,3.8-3.8-1.7-3.8-3.8,1.7-3.8,3.8-3.8Z"/>
      <path class="cls-1" d="M45.69,16.59c0-2.61-2.12-4.73-4.73-4.73s-4.73,2.12-4.73,4.73,2.12,4.73,4.73,4.73,4.73-2.12,4.73-4.73Zm-8.53,0c0-2.09,1.7-3.8,3.8-3.8s3.8,1.7,3.8,3.8-1.7,3.8-3.8,3.8-3.8-1.7-3.8-3.8Z"/>
      <path class="cls-1" d="M67.65,11.86c-2.61,0-4.73,2.12-4.73,4.73s2.12,4.73,4.73,4.73,4.73-2.12,4.73-4.73-2.12-4.73-4.73-4.73Zm0,8.53c-2.09,0-3.8-1.7-3.8-3.8s1.7-3.8,3.8-3.8,3.8,1.7,3.8,3.8-1.7,3.8-3.8,3.8Z"/>
      <path class="cls-1" d="M83.29,0H2.09C.94,0,0,.94,0,2.09V30.2c0,.75,.4,1.41,1,1.78v7.07h3.53v-6.76h6.6v2.6h25.65v-2.6h7.97v1.81h7.56v-1.81h30.97c.42,0,.76-.34,.76-.76V.76c0-.42-.34-.76-.76-.76ZM3.6,38.12H1.94v-5.84c.05,0,.1,.02,.16,.02h1.51v5.82Zm32.25-4.16H12.07v-1.67h23.77v1.67Zm15.53-.79h-5.69v-.87h5.69v.87Zm29.18-3.55h-12.42c6.33-.23,11.52-5,12.42-11.14v11.14Zm-12.91-.92c-6.68,0-12.11-5.43-12.11-12.11s5.43-12.11,12.11-12.11,12.11,5.43,12.11,12.11-5.43,12.11-12.11,12.11Zm12.91-14.01c-.92-6.3-6.36-11.15-12.91-11.15-7.19,0-13.04,5.85-13.04,13.04s5.59,12.78,12.56,13.03h-25.72c6.97-.26,12.56-6,12.56-13.03,0-5.06-2.9-9.45-7.11-11.61l1.39-1.39c.28-.28,.65-.43,1.05-.43h31.23V14.69Zm-51.71,1.9c0-6.68,5.43-12.11,12.11-12.11s12.11,5.43,12.11,12.11-5.43,12.11-12.11,12.11-12.11-5.43-12.11-12.11Zm11.62,13.03H22.94c-.17,0-.24-.12-.27-.18s-.06-.19,.06-.31l6.61-6.61c2.09,4.08,6.27,6.92,11.13,7.1ZM80.56,2.22h-31.23c-.65,0-1.25,.25-1.71,.71l-1.63,1.63c-1.55-.65-3.25-1.01-5.03-1.01-7.19,0-13.04,5.85-13.04,13.04,0,1.78,.36,3.48,1.01,5.03l-6.85,6.85c-.35,.35-.45,.87-.26,1.33s.63,.75,1.13,.75h57.62v.8H4.54v-.12H1.58c-.38-.19-.65-.58-.65-1.03V2.09c0-.64,.52-1.16,1.16-1.16H80.56v1.28Zm2.55,29.14h-1.61V.94h1.61V31.36Z"/>
      <path class="cls-1" d="M3.52,25.49c-.26,0-.47,.21-.47,.47v3.21c0,.26,.21,.47,.47,.47s.47-.21,.47-.47v-3.21c0-.26-.21-.47-.47-.47Z"/>
    </g>
  </g>
</svg>