<?xml version="1.0" encoding="UTF-8"?>
<svg id="_圖層_2" data-name="圖層 2" xmlns="http://www.w3.org/2000/svg" viewBox="0 0 62.25 55.51">
  <defs>
    <style>
      .cls-1 {
        fill: #fff;
      }

      .cls-2 {
        fill: #b3b3b3;
      }

      .cls-3 {
        fill: #333;
      }

      .cls-4 {
        fill: #4d4d4d;
      }
    </style>
  </defs>
  <g id="Layer_2" data-name="Layer 2">
    <g>
      <path class="cls-4" d="M19.31,.75C12.55,.75,6.68,7.55,5.3,11.35c-1.41,3.87,.99,8.36,4.24,10.43l.04-7.65s0-.02,0-.03h0s0,0,0,0c0-.14,.04-.29,.1-.43,.95-2.18,3.6-7.4,7.67-8.9,2.72-1,4.94-.05,6.32,.91,1.35,.95,2.48,2.34,3.18,3.82h0s.01,.04,.02,.06c.42,.9,.67,1.81,.72,2.68,0,.07,.01,.14,.02,.21,0,.03,0,.06,0,.09,0,.01,0,.02,0,.03,.2,3.66-2.47,6.14-5.33,8.37,0,0-.07,.11-.17,.43,2.45-1.39,7.53-4.89,7.53-9.96S26.09,.75,19.31,.75Z"/>
      <path class="cls-3" d="M26.54,14.93c-1.93,2.2-5.92,3.99-7.65,4.7V52.84c.14-.08,.28-.16,.4-.24,.76-.47,1.21-1.29,1.21-2.2v-18.41c0-9.97,1.15-11.48,1.28-11.62,2.11-1.64,4-3.32,4.75-5.46Z"/>
      <path class="cls-3" d="M40.43,20.35c.17,.18,1.32,1.68,1.32,11.65v18.41c0,.9,.45,1.73,1.21,2.2,.12,.08,.26,.16,.4,.24V19.63c-1.73-.71-5.72-2.5-7.65-4.7,.75,2.13,2.63,3.8,4.72,5.42Z"/>
      <path class="cls-3" d="M51.67,14.62c.16-.1,.25-.26,.25-.43v-.05c0-.05-.02-.11-.04-.16-.71-1.63-3.33-7.06-7.24-8.49-.73-.27-1.41-.38-2.05-.38-1.49,0-2.72,.59-3.58,1.2-1.25,.87-2.31,2.2-2.96,3.59-.41,.98-.62,1.88-.66,2.72,.08,2.26,4.42,4.8,8.49,6.42,.15,.06,.31,.05,.45-.04l7.34-4.37Zm-14.93-.81c-.41-.4-.86-1.61-.86-1.61l2.74,2.4s-1.47-.38-1.88-.79Zm2.47,.98c-.38-.51-1.47-2.18-1.47-2.18,0,0,1,.55,1.64,.75,.4,.14,.47,.08,.76-.19,.18-.17,2.99-2.97,3.95-3.37,1.15-.49,2.7-.69,3.74-.69,.35,0,.68,0,.83,0-.62,.23-1.43,.43-2.88,1.17-1.53,.78-3.07,1.85-4.81,3.16-1.05,.79-1.28,1.07-1.1,1.39,.19,.35,.94,1.14,.94,1.14,0,0-1.01-.4-1.6-1.18Zm1.08-.19s3.19-2.2,5.6-3.37c1.6-.78,3.23-.95,3.36-.95,0,.18-.19,.57-.42,.67-.24,.1-4.5,1.78-7.27,3.62,0,0,1.6,.63,2.98,.63,1.19,0,2.22-2.28,2.22-2.28l-3.27,.98s2.06-1.07,5.17-2.32c0,0-1.72,4.4-3.52,4.4-1.62,0-3.93-.81-4.85-1.37Z"/>
      <path class="cls-2" d="M3.26,18.84c-1.72-4.37,.85-7.19,1.3-7.64,.01-.03,.02-.07,.03-.1,.09-.26,.21-.52,.33-.79-1.43,.6-4.17,2.26-4.17,6.23,0,5.61,4.51,9.1,8.76,9.22v-1.02c-.8-.13-4.32-.98-6.25-5.89Z"/>
      <path class="cls-3" d="M26.87,12.61c-.04-.83-.25-1.73-.66-2.71-.65-1.38-1.71-2.71-2.96-3.59-1.24-.86-3.22-1.71-5.64-.82-3.91,1.43-6.53,6.86-7.24,8.49-.02,.05-.03,.11-.04,.16v.05c0,.17,.09,.34,.25,.44l7.34,4.37c.14,.08,.31,.1,.45,.04,4.07-1.63,8.41-4.16,8.49-6.42Zm-14.09,1.2c-.41-.4-.86-1.61-.86-1.61l2.74,2.4s-1.47-.38-1.88-.79Zm2.47,.98c-.38-.51-1.47-2.18-1.47-2.18,0,0,1,.55,1.64,.75,.4,.14,.47,.08,.76-.19,.18-.17,2.99-2.97,3.95-3.37,1.15-.49,2.7-.69,3.74-.69,.35,0,.68,0,.83,0-.62,.23-1.43,.43-2.88,1.17-1.53,.78-3.07,1.85-4.81,3.16-1.05,.79-1.28,1.07-1.1,1.39,.19,.35,.94,1.14,.94,1.14,0,0-1.01-.4-1.6-1.18Zm9.61-3.84c-.24,.1-4.5,1.78-7.27,3.62,0,0,1.6,.63,2.98,.63,1.19,0,2.22-2.28,2.22-2.28l-3.27,.98s2.06-1.07,5.17-2.32c0,0-1.71,4.4-3.52,4.4-1.62,0-3.93-.81-4.85-1.37,0,0,3.19-2.2,5.6-3.37,1.6-.78,3.23-.95,3.36-.95,0,.18-.19,.57-.42,.67Z"/>
      <path class="cls-4" d="M10.32,15.34l-.22,37.98c.15,.3,.86,1.44,2.4,1.44,2.15,0,4.12-.72,5.64-1.51V19.81c-.21,0-.41-.06-.6-.17l-7.22-4.29Zm3.69,6.76h-.75v-1.9h.75v1.9Z"/>
      <path class="cls-3" d="M4.19,12.94c-.65,1.16-1.24,3.08-.23,5.63,1.71,4.34,4.7,5.23,5.57,5.4v-1.32c-3.17-1.82-5.71-5.84-5.34-9.72Z"/>
      <path class="cls-3" d="M58.3,18.57c.99-2.52,.42-4.44-.23-5.6,.36,3.87-2.17,7.87-5.35,9.69v1.32c.87-.17,3.87-1.07,5.57-5.4Z"/>
      <path class="cls-4" d="M56.96,11.35c-1.38-3.81-7.25-10.6-14.01-10.6s-10.34,5.36-10.34,10.66,5.06,8.56,7.51,9.95c-.11-.34-.2-.46-.21-.48-2.82-2.18-5.48-4.65-5.28-8.31,0-.01,0-.02,0-.03,0-.03,0-.06,0-.08,0-.07,.01-.14,.02-.21,.05-.87,.3-1.78,.72-2.68,0-.02,.01-.04,.02-.06h0c.7-1.47,1.82-2.87,3.18-3.81,1.38-.97,3.6-1.91,6.32-.91,4.08,1.49,6.72,6.72,7.67,8.9,.06,.14,.09,.28,.1,.43h0s0,.03,0,.04l.04,7.65c3.24-2.07,5.65-6.56,4.24-10.43Z"/>
      <path class="cls-2" d="M57.33,10.3c.12,.27,.24,.54,.33,.79,.01,.03,.02,.07,.03,.1,.46,.45,3.03,3.27,1.3,7.64-1.93,4.91-5.45,5.76-6.26,5.89v1.02c4.26-.11,8.77-3.61,8.77-9.22,0-3.98-2.74-5.64-4.17-6.23Z"/>
      <path class="cls-4" d="M44.72,19.64c-.19,.11-.39,.17-.6,.17V53.25c1.52,.79,3.49,1.51,5.64,1.51,1.54,0,2.24-1.15,2.4-1.44l-.22-37.98-7.22,4.29Zm4.27,2.46h-.75v-1.9h.75v1.9Z"/>
      <path class="cls-1" d="M19.31,0C13.28,0,7.78,5.04,5.41,9.34c-.93,.28-5.41,1.92-5.41,7.2s4.25,9.85,9.51,9.97l-.16,26.98,.03,.07c.04,.08,.89,1.96,3.11,1.96,2.92,0,5.52-1.23,7.19-2.27,.98-.61,1.57-1.67,1.57-2.83v-18.41c0-5.36,.33-8.19,.62-9.64,2.18-1.14,8.53-5,8.53-10.95,0-5.53-3.89-11.41-11.09-11.41ZM9.51,25.75c-4.26-.11-8.76-3.61-8.76-9.22,0-3.98,2.74-5.64,4.17-6.23-.12,.27-.24,.54-.33,.79-.01,.03-.02,.07-.03,.1-.46,.46-3.03,3.27-1.3,7.64,1.93,4.91,5.45,5.76,6.26,5.89v1.02Zm0-1.78c-.87-.17-3.86-1.07-5.57-5.4-1.01-2.55-.42-4.47,.23-5.63-.38,3.88,2.16,7.9,5.34,9.72v1.32Zm8.61,29.28c-1.52,.79-3.49,1.51-5.64,1.51-1.54,0-2.24-1.15-2.4-1.44l.22-37.98,7.22,4.29c.19,.11,.39,.17,.6,.17V53.25Zm-.22-34.26l-7.34-4.37c-.16-.1-.25-.26-.25-.44v-.05c0-.06,.02-.11,.04-.16,.71-1.63,3.33-7.06,7.24-8.49,2.42-.89,4.4-.04,5.64,.82,1.25,.88,2.31,2.21,2.96,3.59,.41,.98,.61,1.88,.66,2.71-.08,2.26-4.42,4.79-8.49,6.42-.15,.06-.31,.04-.45-.04Zm3.86,1.4c-.13,.14-1.28,1.64-1.28,11.62v18.41c0,.9-.45,1.73-1.21,2.2-.12,.08-.26,.16-.4,.24V19.63c1.73-.71,5.71-2.5,7.65-4.7-.75,2.13-2.65,3.81-4.75,5.46Zm.33,.99c.1-.32,.17-.43,.17-.43,2.86-2.23,5.54-4.7,5.33-8.37,0-.01,0-.02,0-.03,0-.03,0-.06,0-.09,0-.07-.01-.14-.02-.21-.05-.87-.3-1.78-.72-2.68,0-.02-.01-.04-.02-.06h0c-.7-1.47-1.82-2.87-3.18-3.81-1.38-.97-3.6-1.91-6.32-.91-4.08,1.49-6.72,6.72-7.67,8.9-.06,.14-.09,.28-.1,.43h0s0,.03,0,.04l-.04,7.65c-3.24-2.07-5.65-6.56-4.24-10.43C6.68,7.55,12.55,.75,19.31,.75s10.34,5.36,10.34,10.66-5.08,8.57-7.53,9.96Z"/>
      <rect class="cls-1" x="13.26" y="20.2" width=".75" height="1.9"/>
      <rect class="cls-1" x="48.24" y="20.2" width=".75" height="1.9"/>
      <path class="cls-1" d="M56.85,9.34c-2.38-4.3-7.87-9.34-13.9-9.34-7.2,0-11.09,5.88-11.09,11.41,0,5.95,6.33,9.8,8.52,10.95,.3,1.46,.63,4.28,.63,9.64v18.41c0,1.17,.59,2.22,1.57,2.83,1.67,1.04,4.27,2.27,7.19,2.27,2.23,0,3.08-1.88,3.11-1.96l.03-.07-.16-26.98c5.26-.12,9.51-4.54,9.51-9.97s-4.48-6.91-5.41-7.2Zm-13.48,43.5c-.14-.08-.28-.16-.4-.24-.76-.47-1.21-1.29-1.21-2.2v-18.41c0-9.97-1.15-11.48-1.32-11.65-2.08-1.62-3.97-3.29-4.72-5.42,1.93,2.2,5.92,4,7.65,4.7V52.84Zm.51-33.81c-4.07-1.63-8.41-4.16-8.49-6.42,.05-.83,.25-1.73,.66-2.72,.65-1.38,1.7-2.71,2.96-3.59,.87-.6,2.09-1.2,3.58-1.2,.64,0,1.33,.11,2.05,.38,3.91,1.43,6.53,6.86,7.24,8.49,.02,.05,.03,.11,.04,.16v.05c0,.17-.09,.34-.25,.43l-7.34,4.37c-.14,.08-.31,.1-.45,.04Zm5.88,35.73c-2.15,0-4.12-.72-5.64-1.51V19.81c.21,0,.41-.06,.6-.17l7.22-4.29,.22,37.98c-.15,.3-.86,1.44-2.4,1.44Zm2.92-40.62s0-.02,0-.03h0s0,0,0,0c0-.14-.04-.29-.1-.43-.95-2.18-3.6-7.4-7.67-8.9-2.72-1-4.94-.05-6.32,.91-1.35,.95-2.48,2.34-3.18,3.82h0s-.01,.04-.02,.06c-.42,.9-.67,1.81-.72,2.68,0,.07-.01,.14-.02,.21,0,.03,0,.06,0,.08,0,.01,0,.02,0,.03-.2,3.66,2.46,6.13,5.28,8.31,.01,.02,.09,.14,.21,.48-2.45-1.4-7.51-4.89-7.51-9.95S36.16,.75,42.95,.75s12.62,6.8,14.01,10.6c1.41,3.87-.99,8.36-4.24,10.43l-.04-7.65Zm.05,8.52c3.17-1.82,5.71-5.82,5.35-9.69,.65,1.17,1.22,3.09,.23,5.6-1.71,4.34-4.7,5.23-5.57,5.4v-1.32Zm.01,3.1v-1.02c.8-.13,4.32-.98,6.25-5.89,1.72-4.37-.85-7.19-1.3-7.64-.01-.03-.02-.07-.03-.1-.09-.26-.21-.52-.33-.79,1.43,.6,4.17,2.26,4.17,6.23,0,5.61-4.51,9.11-8.76,9.22Z"/>
      <path class="cls-1" d="M16.33,14.6c.91,.57,3.23,1.37,4.85,1.37,1.8,0,3.52-4.4,3.52-4.4-3.11,1.24-5.17,2.32-5.17,2.32l3.27-.98s-1.03,2.28-2.22,2.28c-1.38,0-2.98-.63-2.98-.63,2.77-1.84,7.03-3.52,7.27-3.62,.23-.1,.42-.49,.42-.67-.12,0-1.76,.17-3.36,.95-2.41,1.17-5.6,3.37-5.6,3.37Z"/>
      <path class="cls-1" d="M12.78,13.81c.42,.41,1.88,.79,1.88,.79l-2.74-2.4s.45,1.21,.86,1.61Z"/>
      <path class="cls-1" d="M17.01,13.44c1.74-1.31,3.28-2.38,4.81-3.16,1.44-.74,2.26-.93,2.88-1.17-.15,0-.48,0-.83,0-1.04,0-2.59,.21-3.74,.69-.96,.41-3.77,3.2-3.95,3.37-.28,.27-.35,.33-.76,.19-.64-.2-1.64-.75-1.64-.75,0,0,1.09,1.67,1.47,2.18,.59,.78,1.6,1.18,1.6,1.18,0,0-.75-.79-.94-1.14-.18-.32,.04-.59,1.1-1.39Z"/>
      <path class="cls-1" d="M48.66,11.57c-3.11,1.24-5.17,2.32-5.17,2.32l3.27-.98s-1.03,2.28-2.22,2.28c-1.38,0-2.98-.63-2.98-.63,2.77-1.84,7.03-3.52,7.27-3.62,.23-.1,.42-.49,.42-.67-.12,0-1.76,.17-3.36,.95-2.41,1.17-5.6,3.37-5.6,3.37,.91,.57,3.23,1.37,4.85,1.37,1.8,0,3.52-4.4,3.52-4.4Z"/>
      <path class="cls-1" d="M36.74,13.81c.42,.41,1.88,.79,1.88,.79l-2.74-2.4s.45,1.21,.86,1.61Z"/>
      <path class="cls-1" d="M40.97,13.44c1.74-1.31,3.28-2.38,4.81-3.16,1.44-.74,2.26-.93,2.88-1.17-.15,0-.48,0-.83,0-1.04,0-2.59,.21-3.74,.69-.96,.41-3.77,3.2-3.95,3.37-.28,.27-.35,.33-.76,.19-.64-.2-1.64-.75-1.64-.75,0,0,1.09,1.67,1.47,2.18,.59,.78,1.6,1.18,1.6,1.18,0,0-.75-.79-.94-1.14-.18-.32,.04-.59,1.1-1.39Z"/>
    </g>
  </g>
</svg>