<?xml version="1.0" encoding="UTF-8"?>
<svg id="_圖層_2" data-name="圖層 2" xmlns="http://www.w3.org/2000/svg" viewBox="0 0 59.79 49.04">
  <defs>
    <style>
      .cls-1 {
        fill: #fff;
      }

      .cls-2 {
        fill: #b3b3b3;
      }

      .cls-3 {
        fill: #333;
      }

      .cls-4 {
        fill: #4d4d4d;
      }
    </style>
  </defs>
  <g id="Layer_2" data-name="Layer 2">
    <g>
      <polygon class="cls-3" points="42.75 3.35 39.8 5.44 39.53 7.66 42.39 5.73 42.75 3.35"/>
      <polygon class="cls-3" points="36.13 5 34.31 18.52 32.62 19.53 33.91 20.97 41.08 16.6 41.47 14.38 35.44 17.98 37.86 2.55 33.23 5.83 33.06 7 36.13 5"/>
      <polygon class="cls-3" points="45.99 17.3 7.27 43.17 11.02 43.66 45.26 21.65 45.99 17.3"/>
      <polygon class="cls-3" points="27.71 10.61 30.56 8.68 30.93 6.3 27.98 8.4 27.71 10.61"/>
      <polygon class="cls-3" points="22.87 29.74 23.93 21.29 21.78 22.63 20.45 31.29 22.87 29.74"/>
      <polygon class="cls-3" points="42.12 8.63 39.17 10.72 38.91 12.94 41.76 11.01 42.12 8.63"/>
      <polygon class="cls-4" points="45.1 22.65 12.18 43.81 17.02 44.43 44.37 27.01 45.1 22.65"/>
      <polygon class="cls-3" points="32.05 16.91 32.83 12.17 30.38 12.17 22.9 17.35 22.49 19.76 29.58 15.02 29.25 18.58 26.21 20.73 25.92 21.97 28.46 25.94 31.57 23.63 28.36 19.41 32.05 16.91"/>
      <path class="cls-4" d="M48.57,1.89c.06-.38,.22-.72,.45-1.01l-10.22,.52-2.38,15.11,6.07-3.62-.73,4.17-7.99,4.87-2.32-2.58,2.16-1.29,1.56-11.54-3.09,2.02,.46-3.14,5.6-3.96L8.71,2.94l-.02-.37-.06,.37c-.4-.07-.8,.03-1.13,.26-.33,.24-.55,.59-.62,.99L.77,40.69c-.07,.4,.03,.8,.26,1.13,.24,.33,.59,.55,.99,.62l1.36,.23,2.76,.36L46.16,16.28l2.41-14.38ZM27.27,7.98l4.66-3.32-.68,4.46-4.49,3.04,.5-4.18Zm-3.69,22.2l-4.12,2.63,1.63-10.64,3.77-2.34-1.29,10.35Zm4.68-3.15l-3.14-4.91,.42-1.83,3-2.11,.15-1.65-7.24,4.84,.77-4.45,7.92-5.49h3.58l-.99,5.92-3.3,2.24,3.19,4.19-4.36,3.25Zm14.2-15.58l-4.49,3.04,.5-4.18,4.66-3.32-.68,4.46Zm.62-5.28l-4.49,3.04,.5-4.18,4.66-3.32-.68,4.46Z"/>
      <polygon class="cls-3" points="53.61 15.78 49.11 42.68 58.91 42.88 54.51 16.43 53.61 15.78"/>
      <path class="cls-2" d="M53.75,1.22l-2.65-.44-.7,.04c-.17,.05-.33,.12-.47,.22-.33,.24-.55,.59-.62,.99l-7.37,44.05c-.14,.83,.42,1.61,1.25,1.75l2.69,.45c.4,.07,.8-.03,1.13-.26,.33-.24,.55-.59,.62-.99L54.99,2.97c.14-.83-.42-1.61-1.25-1.75Z"/>
      <polygon class="cls-3" points="44.2 28.01 18.18 44.58 23.14 45.22 43.47 32.34 44.2 28.01"/>
      <polygon class="cls-3" points="29.83 46.09 35.27 46.79 41.72 42.81 42.48 38.3 29.83 46.09"/>
      <polygon class="cls-4" points="43.31 33.33 24.3 45.37 28.65 45.94 42.64 37.31 43.31 33.33"/>
      <path class="cls-3" d="M41.2,45.94l.36-2.15-5.11,3.15,5.13,.66c-.33-.47-.48-1.06-.38-1.67Z"/>
      <path class="cls-1" d="M55.19,16.01l-1.45-1.06,1.98-11.85c.21-1.23-.63-2.41-1.86-2.61L51.18,.03c-.31-.05-.63-.04-.93,.04L8.68,2.19c-.57-.08-1.15,.06-1.62,.4-.49,.35-.82,.88-.92,1.47L.03,40.57c-.1,.6,.04,1.2,.39,1.69,.35,.49,.88,.82,1.47,.92l1.38,.23h0s0,0,0,0l1.3,.22v-.05s38.49,4.98,38.49,4.98h0s2.67,.45,2.67,.45c.13,.02,.25,.03,.38,.03,.47,0,.92-.15,1.31-.42,.49-.35,.82-.88,.92-1.47l.62-3.72,10.81,.22-4.57-27.49-.03-.15ZM3.38,42.67l-1.36-.23c-.4-.07-.75-.29-.99-.62-.24-.33-.33-.73-.26-1.13L6.88,4.18c.07-.4,.29-.75,.62-.99,.33-.23,.73-.33,1.13-.26l.06-.37,.02,.37,29.43-1.5-5.6,3.96-.46,3.14,3.09-2.02-1.56,11.54-2.16,1.29,2.32,2.58,7.99-4.87,.73-4.17-6.07,3.62,2.38-15.11,10.22-.52c-.23,.29-.39,.63-.45,1.01l-2.41,14.38L6.14,43.03l-2.76-.36ZM37.86,2.55l-2.43,15.43,6.04-3.6-.39,2.22-7.17,4.37-1.29-1.44,1.69-1,1.82-13.52-3.07,2.01,.17-1.18,4.63-3.28ZM7.27,43.17L45.99,17.3l-.73,4.36L11.02,43.66l-3.75-.48Zm4.9,.63L45.1,22.65l-.73,4.36-27.34,17.42-4.85-.63Zm6.01,.78l26.01-16.57-.72,4.33-20.34,12.89-4.95-.64Zm6.12,.79l19.01-12.04-.67,3.98-13.99,8.62-4.35-.56Zm12.14,1.57l5.11-3.15-.36,2.15c-.1,.61,.05,1.2,.38,1.67l-5.13-.66Zm-1.18-.15l-5.43-.7,12.64-7.79-.76,4.52-6.46,3.98Zm12.36,.23c-.07,.4-.29,.75-.62,.99-.33,.24-.73,.33-1.13,.26l-2.69-.45c-.83-.14-1.39-.92-1.25-1.75L49.31,2.02c.07-.4,.29-.75,.62-.99,.14-.1,.3-.17,.47-.22l.7-.04,2.65,.44c.83,.14,1.39,.92,1.25,1.75l-7.37,44.05Zm1.49-4.34l4.5-26.9,.9,.66,4.4,26.44-9.8-.2Z"/>
      <path class="cls-1" d="M32.73,17.35l.99-5.92h-3.58l-7.92,5.49-.77,4.45,7.24-4.84-.15,1.65-3,2.11-.42,1.83,3.14,4.91,4.36-3.25-3.19-4.19,3.3-2.24Zm-1.17,6.28l-3.11,2.32-2.53-3.97,.29-1.25,3.04-2.15,.32-3.56-7.09,4.75,.42-2.42,7.47-5.17h2.46l-.79,4.73-3.69,2.5,3.21,4.22Z"/>
      <path class="cls-1" d="M19.46,32.81l4.12-2.63,1.29-10.35-3.77,2.34-1.63,10.64Zm4.47-11.52l-1.05,8.44-2.42,1.55,1.33-8.66,2.15-1.33Z"/>
      <path class="cls-1" d="M31.93,4.66l-4.66,3.32-.5,4.18,4.49-3.04,.68-4.46Zm-1.37,4.02l-2.85,1.93,.27-2.22,2.95-2.1-.36,2.38Z"/>
      <path class="cls-1" d="M38.59,9.2l4.49-3.04,.68-4.46-4.66,3.32-.5,4.18Zm1.21-3.76l2.95-2.1-.36,2.38-2.85,1.93,.27-2.22Z"/>
      <path class="cls-1" d="M37.97,14.49l4.49-3.04,.68-4.46-4.66,3.32-.5,4.18Zm1.21-3.76l2.95-2.1-.36,2.38-2.85,1.93,.27-2.22Z"/>
    </g>
  </g>
</svg>