<?xml version="1.0" encoding="UTF-8"?>
<svg id="_圖層_2" data-name="圖層 2" xmlns="http://www.w3.org/2000/svg" viewBox="0 0 72.67 49.28">
  <defs>
    <style>
      .cls-1 {
        fill: #fff;
      }

      .cls-2 {
        fill: #333;
      }

      .cls-3 {
        fill: gray;
      }

      .cls-4 {
        fill: #4d4d4d;
      }
    </style>
  </defs>
  <g id="Layer_2" data-name="Layer 2">
    <g>
      <path class="cls-3" d="M27.03,21.55c-3.34,0-6.05,2.71-6.05,6.05s2.71,6.05,6.05,6.05,6.05-2.71,6.05-6.05-2.71-6.05-6.05-6.05Z"/>
      <path class="cls-2" d="M17.1,10.18c-3.13,0-5.68,2.55-5.68,5.68s2.55,5.68,5.68,5.68,5.68-2.55,5.68-5.68-2.55-5.68-5.68-5.68Zm0,9.86c-2.3,0-4.18-1.88-4.18-4.18s1.88-4.18,4.18-4.18,4.18,1.88,4.18,4.18-1.88,4.18-4.18,4.18Z"/>
      <path class="cls-4" d="M45.47,30.8c2.16,0,3.92-1.76,3.92-3.92s-1.76-3.92-3.92-3.92-3.92,1.76-3.92,3.92,1.76,3.92,3.92,3.92Z"/>
      <path class="cls-4" d="M38.67,27.59c0-1.32,.38-2.55,1.04-3.59L19.29,3.67c-1.39,.23-2.66,.52-3.75,.9-4.94,1.72-5.03,1.93-5.88,3.99l-.1,.24C7.23,14.42-.28,33.3,.86,40.07c1.24,7.39,6.29,8.55,7.01,8.45,1.86-.21,4.5-2.88,7.06-5.46,2-2.01,3.88-3.92,5.45-4.72,2.11-1.09,10.58-1.11,14.26-1.06l5.43-5.59c-.87-1.14-1.39-2.56-1.39-4.1ZM10.67,15.86c0-3.54,2.88-6.43,6.43-6.43s6.43,2.88,6.43,6.43-2.88,6.43-6.43,6.43-6.43-2.88-6.43-6.43Zm16.36,18.54c-3.75,0-6.8-3.05-6.8-6.8s3.05-6.8,6.8-6.8,6.8,3.05,6.8,6.8-3.05,6.8-6.8,6.8Z"/>
      <path class="cls-3" d="M17.1,12.43c-1.89,0-3.43,1.54-3.43,3.43s1.54,3.43,3.43,3.43,3.43-1.54,3.43-3.43-1.54-3.43-3.43-3.43Z"/>
      <path class="cls-2" d="M35.88,19.13L52.09,3.48c-2.35-.31-4.95-.47-7.54-.54v5.99H27.69V2.94c-2.58,.09-5.16,.26-7.48,.58l15.67,15.61Zm0-9.16c1.38,0,2.51,1.12,2.51,2.51s-1.12,2.51-2.51,2.51-2.51-1.12-2.51-2.51,1.12-2.51,2.51-2.51Z"/>
      <path class="cls-3" d="M43.8,2.91c-2.33-.06-4.62-.06-6.67-.06h-1.58c-.27,0-.54,0-.82,0-1.96,0-4.12,0-6.29,.07v5.26h15.36V2.91Z"/>
      <path class="cls-4" d="M60.22,4.91c-.77-1.45-2.22-2.37-3.4-2.91-2.9-1.32-6.22-1.41-6.91-1.1-.78,.35-1.64,.96-2.23,1.42,3.66,.22,7.15,.66,9.7,1.54,1.19,.41,2.11,.75,2.84,1.05Z"/>
      <path class="cls-2" d="M45.47,33.64c3.34,0,6.05-2.71,6.05-6.05s-2.71-6.05-6.05-6.05-6.05,2.71-6.05,6.05,2.71,6.05,6.05,6.05Zm0-11.43c2.57,0,4.67,2.09,4.67,4.67s-2.09,4.67-4.67,4.67-4.67-2.09-4.67-4.67,2.09-4.67,4.67-4.67Z"/>
      <path class="cls-4" d="M24.99,2.32c-.6-.46-1.45-1.06-2.23-1.42-.69-.31-4.01-.22-6.91,1.1-1.18,.54-2.63,1.46-3.4,2.91,.73-.3,1.65-.63,2.84-1.05,2.55-.89,6.04-1.33,9.7-1.55Z"/>
      <path class="cls-2" d="M35.88,14.23c.97,0,1.76-.79,1.76-1.76s-.79-1.76-1.76-1.76-1.76,.79-1.76,1.76,.79,1.76,1.76,1.76Z"/>
      <path class="cls-2" d="M54.98,18.7c-.97,0-1.76,.79-1.76,1.76s.79,1.76,1.76,1.76,1.76-.79,1.76-1.76-.79-1.76-1.76-1.76Z"/>
      <path class="cls-2" d="M50.21,13.73c-.97,0-1.76,.79-1.76,1.76s.79,1.76,1.76,1.76,1.76-.79,1.76-1.76-.79-1.76-1.76-1.76Z"/>
      <path class="cls-3" d="M63.01,8.56c-.85-2.05-.94-2.26-5.88-3.99-1.18-.41-2.58-.72-4.11-.96l-16.61,16.05,3.73,3.72c1.25-1.57,3.17-2.59,5.33-2.59,3.75,0,6.8,3.05,6.8,6.8s-3.05,6.8-6.8,6.8c-1.94,0-3.68-.82-4.92-2.12l-4.88,5.03c.37,0,.61,.01,.68,.02,.52-.01,13.29-.34,15.95,1.03,1.56,.8,3.45,2.71,5.44,4.72,2.56,2.58,5.2,5.25,7.06,5.46,.72,.09,5.76-1.07,7.01-8.45,1.14-6.77-6.37-25.65-8.7-31.28l-.1-.24Zm-8.03-.38c1.38,0,2.51,1.12,2.51,2.51s-1.12,2.51-2.51,2.51-2.51-1.12-2.51-2.51,1.12-2.51,2.51-2.51Zm-4.77,9.81c-1.38,0-2.51-1.12-2.51-2.51s1.12-2.51,2.51-2.51,2.51,1.12,2.51,2.51-1.12,2.51-2.51,2.51Zm4.77,4.97c-1.38,0-2.51-1.12-2.51-2.51s1.12-2.51,2.51-2.51,2.51,1.12,2.51,2.51-1.12,2.51-2.51,2.51Zm4.47-4.97c-1.38,0-2.51-1.12-2.51-2.51s1.12-2.51,2.51-2.51,2.51,1.12,2.51,2.51-1.12,2.51-2.51,2.51Z"/>
      <path class="cls-2" d="M59.45,13.73c-.97,0-1.76,.79-1.76,1.76s.79,1.76,1.76,1.76,1.76-.79,1.76-1.76-.79-1.76-1.76-1.76Z"/>
      <path class="cls-2" d="M54.98,12.44c.97,0,1.76-.79,1.76-1.76s-.79-1.76-1.76-1.76-1.76,.79-1.76,1.76,.79,1.76,1.76,1.76Z"/>
      <path class="cls-1" d="M63.7,8.27c-.62-1.49-.96-2.16-2.47-2.91-.56-1.67-1.97-3.07-4.1-4.04C54.25,0,50.63-.25,49.6,.22c-1.26,.57-2.65,1.71-3.05,2.04-3.25-.15-6.58-.15-9.43-.15h-1.58c-2.85,0-6.18,0-9.43,.15-.4-.33-1.79-1.47-3.05-2.04-1.03-.47-4.65-.21-7.53,1.1-2.13,.97-3.54,2.37-4.1,4.04-1.51,.75-1.85,1.42-2.47,2.91l-.1,.24C6.52,14.18-1.05,33.23,.12,40.2c1.2,7.15,6.07,9.08,7.66,9.08,.06,0,.12,0,.17,0,2.12-.24,4.86-3,7.5-5.68,1.95-1.97,3.8-3.83,5.26-4.59,1.99-1.03,11.08-1.07,15.63-.94,4.53-.12,13.61-.08,15.61,.94,1.46,.75,3.3,2.61,5.26,4.59,2.65,2.67,5.39,5.44,7.5,5.68,1.38,.16,6.58-1.64,7.83-9.07,1.17-6.97-6.4-26.02-8.75-31.69l-.1-.24ZM49.91,.9c.69-.31,4.01-.22,6.91,1.1,1.18,.54,2.63,1.46,3.4,2.91-.73-.3-1.65-.63-2.84-1.05-2.55-.89-6.04-1.33-9.7-1.54,.6-.46,1.45-1.06,2.23-1.42ZM28.44,2.92c2.18-.06,4.33-.07,6.29-.07,.28,0,.55,0,.82,0h1.58c2.05,0,4.34,0,6.67,.06v5.26h-15.36V2.92Zm-.75,.02v5.98h16.86V2.93c2.59,.08,5.19,.23,7.54,.54l-16.2,15.66L20.21,3.53c2.32-.33,4.9-.5,7.48-.58Zm-11.84-.94c2.9-1.32,6.22-1.41,6.91-1.1,.78,.35,1.63,.96,2.23,1.42-3.66,.22-7.15,.66-9.7,1.55-1.19,.41-2.11,.75-2.84,1.05,.77-1.45,2.22-2.37,3.4-2.91Zm4.52,36.34c-1.56,.8-3.45,2.71-5.45,4.72-2.56,2.58-5.2,5.25-7.06,5.46-.72,.09-5.76-1.07-7.01-8.45C-.28,33.3,7.23,14.42,9.56,8.8l.1-.24c.85-2.05,.94-2.26,5.88-3.99,1.09-.38,2.36-.67,3.75-.9l20.42,20.34c-.65,1.04-1.04,2.27-1.04,3.59,0,1.54,.52,2.96,1.39,4.1l-5.43,5.59c-3.68-.05-12.15-.03-14.26,1.06Zm25.1-16.8c3.34,0,6.05,2.71,6.05,6.05s-2.71,6.05-6.05,6.05-6.05-2.71-6.05-6.05,2.71-6.05,6.05-6.05Zm26.33,18.53c-1.24,7.39-6.29,8.54-7.01,8.45-1.86-.21-4.5-2.88-7.06-5.46-2-2.02-3.88-3.92-5.44-4.72-2.66-1.37-15.43-1.04-15.95-1.03-.06,0-.31,0-.68-.02l4.88-5.03c1.24,1.3,2.99,2.12,4.92,2.12,3.75,0,6.8-3.05,6.8-6.8s-3.05-6.8-6.8-6.8c-2.16,0-4.08,1.01-5.33,2.59l-3.73-3.72L53.03,3.61c1.53,.24,2.92,.55,4.11,.96,4.94,1.72,5.03,1.93,5.88,3.99l.1,.24c2.33,5.62,9.84,24.5,8.7,31.28Z"/>
      <path class="cls-1" d="M27.03,20.8c-3.75,0-6.8,3.05-6.8,6.8s3.05,6.8,6.8,6.8,6.8-3.05,6.8-6.8-3.05-6.8-6.8-6.8Zm0,12.85c-3.34,0-6.05-2.71-6.05-6.05s2.71-6.05,6.05-6.05,6.05,2.71,6.05,6.05-2.71,6.05-6.05,6.05Z"/>
      <path class="cls-1" d="M23.53,15.86c0-3.54-2.88-6.43-6.43-6.43s-6.43,2.88-6.43,6.43,2.88,6.43,6.43,6.43,6.43-2.88,6.43-6.43Zm-6.43,5.68c-3.13,0-5.68-2.55-5.68-5.68s2.55-5.68,5.68-5.68,5.68,2.55,5.68,5.68-2.55,5.68-5.68,5.68Z"/>
      <path class="cls-1" d="M45.47,31.55c2.57,0,4.67-2.09,4.67-4.67s-2.09-4.67-4.67-4.67-4.67,2.09-4.67,4.67,2.09,4.67,4.67,4.67Zm0-8.58c2.16,0,3.92,1.76,3.92,3.92s-1.76,3.92-3.92,3.92-3.92-1.76-3.92-3.92,1.76-3.92,3.92-3.92Z"/>
      <path class="cls-1" d="M50.21,12.98c-1.38,0-2.51,1.12-2.51,2.51s1.12,2.51,2.51,2.51,2.51-1.12,2.51-2.51-1.12-2.51-2.51-2.51Zm0,4.26c-.97,0-1.76-.79-1.76-1.76s.79-1.76,1.76-1.76,1.76,.79,1.76,1.76-.79,1.76-1.76,1.76Z"/>
      <path class="cls-1" d="M35.88,14.98c1.38,0,2.51-1.12,2.51-2.51s-1.12-2.51-2.51-2.51-2.51,1.12-2.51,2.51,1.12,2.51,2.51,2.51Zm0-4.26c.97,0,1.76,.79,1.76,1.76s-.79,1.76-1.76,1.76-1.76-.79-1.76-1.76,.79-1.76,1.76-1.76Z"/>
      <path class="cls-1" d="M54.98,13.19c1.38,0,2.51-1.12,2.51-2.51s-1.12-2.51-2.51-2.51-2.51,1.12-2.51,2.51,1.12,2.51,2.51,2.51Zm0-4.26c.97,0,1.76,.79,1.76,1.76s-.79,1.76-1.76,1.76-1.76-.79-1.76-1.76,.79-1.76,1.76-1.76Z"/>
      <path class="cls-1" d="M59.45,12.98c-1.38,0-2.51,1.12-2.51,2.51s1.12,2.51,2.51,2.51,2.51-1.12,2.51-2.51-1.12-2.51-2.51-2.51Zm0,4.26c-.97,0-1.76-.79-1.76-1.76s.79-1.76,1.76-1.76,1.76,.79,1.76,1.76-.79,1.76-1.76,1.76Z"/>
      <path class="cls-1" d="M54.98,17.95c-1.38,0-2.51,1.12-2.51,2.51s1.12,2.51,2.51,2.51,2.51-1.12,2.51-2.51-1.12-2.51-2.51-2.51Zm0,4.26c-.97,0-1.76-.79-1.76-1.76s.79-1.76,1.76-1.76,1.76,.79,1.76,1.76-.79,1.76-1.76,1.76Z"/>
      <path class="cls-1" d="M17.1,11.68c-2.3,0-4.18,1.88-4.18,4.18s1.88,4.18,4.18,4.18,4.18-1.88,4.18-4.18-1.88-4.18-4.18-4.18Zm0,7.61c-1.89,0-3.43-1.54-3.43-3.43s1.54-3.43,3.43-3.43,3.43,1.54,3.43,3.43-1.54,3.43-3.43,3.43Z"/>
    </g>
  </g>
</svg>